<svg width="634" height="22" viewBox="0 0 634 22" fill="none" xmlns="http://www.w3.org/2000/svg">
<path d="M22 0L0 0L0 22L22 22L22 0Z" fill="#757782"/>
<path d="M27.5609 16L27.5609 6.4L30.9172 6.4C31.5859 6.4 32.1375 6.51563 32.5719 6.74688C33.0062 6.975 33.3297 7.28281 33.5422 7.67031C33.7547 8.05469 33.8609 8.48125 33.8609 8.95C33.8609 9.3625 33.7875 9.70313 33.6406 9.97188C33.4969 10.2406 33.3062 10.4531 33.0687 10.6094C32.8344 10.7656 32.5797 10.8813 32.3047 10.9563V11.05C32.5984 11.0688 32.8937 11.1719 33.1906 11.3594C33.4875 11.5469 33.7359 11.8156 33.9359 12.1656C34.1359 12.5156 34.2359 12.9438 34.2359 13.45C34.2359 13.9313 34.1266 14.3641 33.9078 14.7484C33.6891 15.1328 33.3437 15.4375 32.8719 15.6625C32.4 15.8875 31.7859 16 31.0297 16L27.5609 16ZM28.7234 14.9688L31.0297 14.9688C31.7891 14.9688 32.3281 14.8219 32.6469 14.5281C32.9687 14.2313 33.1297 13.8719 33.1297 13.45C33.1297 13.125 33.0469 12.825 32.8812 12.55C32.7156 12.2719 32.4797 12.05 32.1734 11.8844C31.8672 11.7156 31.5047 11.6313 31.0859 11.6313L28.7234 11.6313L28.7234 14.9688ZM28.7234 10.6188L30.8797 10.6188C31.2297 10.6188 31.5453 10.55 31.8266 10.4125C32.1109 10.275 32.3359 10.0813 32.5016 9.83125C32.6703 9.58125 32.7547 9.2875 32.7547 8.95C32.7547 8.52813 32.6078 8.17031 32.3141 7.87656C32.0203 7.57969 31.5547 7.43125 30.9172 7.43125L28.7234 7.43125L28.7234 10.6188ZM38.1148 16.1687C37.6586 16.1687 37.2445 16.0828 36.8727 15.9109C36.5008 15.7359 36.2055 15.4844 35.9867 15.1563C35.768 14.825 35.6586 14.425 35.6586 13.9563C35.6586 13.5438 35.7398 13.2094 35.9023 12.9531C36.0648 12.6938 36.282 12.4906 36.5539 12.3438C36.8258 12.1969 37.1258 12.0875 37.4539 12.0156C37.7852 11.9406 38.118 11.8813 38.4523 11.8375C38.8898 11.7813 39.2445 11.7391 39.5164 11.7109C39.7914 11.6797 39.9914 11.6281 40.1164 11.5563C40.2445 11.4844 40.3086 11.3594 40.3086 11.1813V11.1438C40.3086 10.6813 40.182 10.3219 39.9289 10.0656C39.6789 9.80938 39.2992 9.68125 38.7898 9.68125C38.2617 9.68125 37.8477 9.79688 37.5477 10.0281C37.2477 10.2594 37.0367 10.5063 36.9148 10.7688L35.8648 10.3938C36.0523 9.95625 36.3023 9.61563 36.6148 9.37188C36.9305 9.125 37.2742 8.95313 37.6461 8.85625C38.0211 8.75625 38.3898 8.70625 38.7523 8.70625C38.9836 8.70625 39.2492 8.73438 39.5492 8.79063C39.8523 8.84375 40.1445 8.95469 40.4258 9.12344C40.7102 9.29219 40.9461 9.54688 41.1336 9.8875C41.3211 10.2281 41.4148 10.6844 41.4148 11.2563L41.4148 16L40.3086 16V15.025H40.2523C40.1773 15.1813 40.0523 15.3484 39.8773 15.5266C39.7023 15.7047 39.4695 15.8563 39.1789 15.9813C38.8883 16.1062 38.5336 16.1687 38.1148 16.1687ZM38.2836 15.175C38.7211 15.175 39.0898 15.0891 39.3898 14.9172C39.693 14.7453 39.9211 14.5234 40.0742 14.2516C40.2305 13.9797 40.3086 13.6938 40.3086 13.3938V12.3813C40.2617 12.4375 40.1586 12.4891 39.9992 12.5359C39.843 12.5797 39.6617 12.6188 39.4555 12.6531C39.2523 12.6844 39.0539 12.7125 38.8602 12.7375C38.6695 12.7594 38.5148 12.7781 38.3961 12.7938C38.1086 12.8313 37.8398 12.8922 37.5898 12.9766C37.343 13.0578 37.143 13.1813 36.9898 13.3469C36.8398 13.5094 36.7648 13.7313 36.7648 14.0125C36.7648 14.3969 36.907 14.6875 37.1914 14.8844C37.4789 15.0781 37.843 15.175 38.2836 15.175ZM46.5652 8.8V9.7375L42.834 9.7375V8.8L46.5652 8.8ZM43.9215 7.075L45.0277 7.075L45.0277 13.9375C45.0277 14.25 45.073 14.4844 45.1637 14.6406C45.2574 14.7938 45.3762 14.8969 45.5199 14.95C45.6668 15 45.8215 15.025 45.984 15.025C46.1059 15.025 46.2059 15.0188 46.284 15.0063C46.3621 14.9906 46.4246 14.9781 46.4715 14.9688L46.6965 15.9625C46.6215 15.9906 46.5168 16.0187 46.3824 16.0469C46.248 16.0781 46.0777 16.0937 45.8715 16.0937C45.559 16.0937 45.2527 16.0266 44.9527 15.8922C44.6559 15.7578 44.409 15.5531 44.2121 15.2781C44.0184 15.0031 43.9215 14.6563 43.9215 14.2375L43.9215 7.075ZM48.2293 16L48.2293 8.8L49.3355 8.8L49.3355 16L48.2293 16ZM48.7918 7.6C48.5762 7.6 48.3902 7.52656 48.234 7.37969C48.0809 7.23281 48.0043 7.05625 48.0043 6.85C48.0043 6.64375 48.0809 6.46719 48.234 6.32031C48.3902 6.17344 48.5762 6.1 48.7918 6.1C49.0074 6.1 49.1918 6.17344 49.3449 6.32031C49.5012 6.46719 49.5793 6.64375 49.5793 6.85C49.5793 7.05625 49.5012 7.23281 49.3449 7.37969C49.1918 7.52656 49.0074 7.6 48.7918 7.6ZM56.4617 10.4125L55.468 10.6938C55.4055 10.5281 55.3133 10.3672 55.1914 10.2109C55.0727 10.0516 54.9102 9.92031 54.7039 9.81719C54.4977 9.71406 54.2336 9.6625 53.9117 9.6625C53.4711 9.6625 53.1039 9.76406 52.8102 9.96719C52.5195 10.1672 52.3742 10.4219 52.3742 10.7313C52.3742 11.0063 52.4742 11.2234 52.6742 11.3828C52.8742 11.5422 53.1867 11.675 53.6117 11.7813L54.6805 12.0438C55.3242 12.2 55.8039 12.4391 56.1195 12.7609C56.4352 13.0797 56.593 13.4906 56.593 13.9938C56.593 14.4063 56.4742 14.775 56.2367 15.1C56.0023 15.425 55.6742 15.6813 55.2523 15.8688C54.8305 16.0562 54.3398 16.15 53.7805 16.15C53.0461 16.15 52.4383 15.9906 51.957 15.6719C51.4758 15.3531 51.1711 14.8875 51.043 14.275L52.093 14.0125C52.193 14.4 52.382 14.6906 52.6602 14.8844C52.9414 15.0781 53.3086 15.175 53.7617 15.175C54.2773 15.175 54.6867 15.0656 54.9898 14.8469C55.2961 14.625 55.4492 14.3594 55.4492 14.05C55.4492 13.8 55.3617 13.5906 55.1867 13.4219C55.0117 13.25 54.743 13.1219 54.3805 13.0375L53.1805 12.7563C52.5211 12.6 52.0367 12.3578 51.7273 12.0297C51.4211 11.6984 51.268 11.2844 51.268 10.7875C51.268 10.3813 51.382 10.0219 51.6102 9.70938C51.8414 9.39688 52.1555 9.15156 52.5523 8.97344C52.9523 8.79531 53.4055 8.70625 53.9117 8.70625C54.6242 8.70625 55.1836 8.8625 55.5898 9.175C55.9992 9.4875 56.2898 9.9 56.4617 10.4125Z" fill="black"/>
<path d="M109.398 0L87.3984 0L87.3984 22L109.398 22L109.398 0Z" fill="#DB727E"/>
<path d="M120.209 8.8C120.153 8.325 119.925 7.95625 119.525 7.69375C119.125 7.43125 118.634 7.3 118.053 7.3C117.628 7.3 117.256 7.36875 116.937 7.50625C116.622 7.64375 116.375 7.83281 116.197 8.07344C116.022 8.31406 115.934 8.5875 115.934 8.89375C115.934 9.15 115.995 9.37031 116.117 9.55469C116.242 9.73594 116.402 9.8875 116.595 10.0094C116.789 10.1281 116.992 10.2266 117.205 10.3047C117.417 10.3797 117.612 10.4406 117.791 10.4875L118.766 10.75C119.016 10.8156 119.294 10.9063 119.6 11.0219C119.909 11.1375 120.205 11.2953 120.486 11.4953C120.77 11.6922 121.005 11.9453 121.189 12.2547C121.373 12.5641 121.466 12.9438 121.466 13.3938C121.466 13.9125 121.33 14.3813 121.058 14.8C120.789 15.2188 120.395 15.5516 119.877 15.7984C119.361 16.0453 118.734 16.1687 117.997 16.1687C117.309 16.1687 116.714 16.0578 116.211 15.8359C115.711 15.6141 115.317 15.3047 115.03 14.9078C114.745 14.5109 114.584 14.05 114.547 13.525L115.747 13.525C115.778 13.8875 115.9 14.1875 116.112 14.425C116.328 14.6594 116.6 14.8344 116.928 14.95C117.259 15.0625 117.616 15.1188 117.997 15.1188C118.441 15.1188 118.839 15.0469 119.192 14.9031C119.545 14.7563 119.825 14.5531 120.031 14.2938C120.237 14.0313 120.341 13.725 120.341 13.375C120.341 13.0563 120.252 12.7969 120.073 12.5969C119.895 12.3969 119.661 12.2344 119.37 12.1094C119.08 11.9844 118.766 11.875 118.428 11.7813L117.247 11.4438C116.497 11.2281 115.903 10.9203 115.466 10.5203C115.028 10.1203 114.809 9.59688 114.809 8.95C114.809 8.4125 114.955 7.94375 115.245 7.54375C115.539 7.14063 115.933 6.82813 116.427 6.60625C116.923 6.38125 117.478 6.26875 118.091 6.26875C118.709 6.26875 119.259 6.37969 119.741 6.60156C120.222 6.82031 120.603 7.12031 120.884 7.50156C121.169 7.88281 121.319 8.31563 121.334 8.8L120.209 8.8ZM127.764 13.0563V8.8H128.871L128.871 16L127.764 16L127.764 14.7813H127.689C127.521 15.1469 127.258 15.4578 126.902 15.7141C126.546 15.9672 126.096 16.0937 125.552 16.0937C125.102 16.0937 124.702 15.9953 124.352 15.7984C124.002 15.5984 123.727 15.2984 123.527 14.8984C123.327 14.4953 123.227 13.9875 123.227 13.375V8.8L124.333 8.8V13.3C124.333 13.825 124.48 14.2438 124.774 14.5563C125.071 14.8688 125.449 15.025 125.908 15.025C126.183 15.025 126.463 14.9547 126.747 14.8141C127.035 14.6734 127.275 14.4578 127.469 14.1672C127.666 13.8766 127.764 13.5063 127.764 13.0563ZM130.897 16L130.897 8.8L131.966 8.8V9.8875H132.041C132.172 9.53125 132.409 9.24219 132.753 9.02031C133.097 8.79844 133.484 8.6875 133.916 8.6875C133.997 8.6875 134.098 8.68906 134.22 8.69219C134.342 8.69531 134.434 8.7 134.497 8.70625V9.83125C134.459 9.82188 134.373 9.80781 134.239 9.78906C134.108 9.76719 133.969 9.75625 133.822 9.75625C133.472 9.75625 133.159 9.82969 132.884 9.97656C132.612 10.1203 132.397 10.3203 132.237 10.5766C132.081 10.8297 132.003 11.1188 132.003 11.4438L132.003 16L130.897 16ZM139.466 8.8V9.7375L135.584 9.7375V8.8L139.466 8.8ZM136.747 16L136.747 7.80625C136.747 7.39375 136.844 7.05 137.037 6.775C137.231 6.5 137.483 6.29375 137.792 6.15625C138.102 6.01875 138.428 5.95 138.772 5.95C139.044 5.95 139.266 5.97188 139.437 6.01563C139.609 6.05938 139.737 6.1 139.822 6.1375L139.503 7.09375C139.447 7.075 139.369 7.05156 139.269 7.02344C139.172 6.99531 139.044 6.98125 138.884 6.98125C138.519 6.98125 138.255 7.07344 138.092 7.25781C137.933 7.44219 137.853 7.7125 137.853 8.06875L137.853 16L136.747 16ZM142.929 16.1687C142.472 16.1687 142.058 16.0828 141.686 15.9109C141.314 15.7359 141.019 15.4844 140.8 15.1563C140.582 14.825 140.472 14.425 140.472 13.9563C140.472 13.5438 140.554 13.2094 140.716 12.9531C140.879 12.6938 141.096 12.4906 141.368 12.3438C141.639 12.1969 141.939 12.0875 142.268 12.0156C142.599 11.9406 142.932 11.8813 143.266 11.8375C143.704 11.7813 144.058 11.7391 144.33 11.7109C144.605 11.6797 144.805 11.6281 144.93 11.5563C145.058 11.4844 145.122 11.3594 145.122 11.1813V11.1438C145.122 10.6813 144.996 10.3219 144.743 10.0656C144.493 9.80938 144.113 9.68125 143.604 9.68125C143.075 9.68125 142.661 9.79688 142.361 10.0281C142.061 10.2594 141.85 10.5063 141.729 10.7688L140.679 10.3938C140.866 9.95625 141.116 9.61563 141.429 9.37188C141.744 9.125 142.088 8.95313 142.46 8.85625C142.835 8.75625 143.204 8.70625 143.566 8.70625C143.797 8.70625 144.063 8.73438 144.363 8.79063C144.666 8.84375 144.958 8.95469 145.239 9.12344C145.524 9.29219 145.76 9.54688 145.947 9.8875C146.135 10.2281 146.229 10.6844 146.229 11.2563L146.229 16L145.122 16V15.025H145.066C144.991 15.1813 144.866 15.3484 144.691 15.5266C144.516 15.7047 144.283 15.8563 143.993 15.9813C143.702 16.1062 143.347 16.1687 142.929 16.1687ZM143.097 15.175C143.535 15.175 143.904 15.0891 144.204 14.9172C144.507 14.7453 144.735 14.5234 144.888 14.2516C145.044 13.9797 145.122 13.6938 145.122 13.3938V12.3813C145.075 12.4375 144.972 12.4891 144.813 12.5359C144.657 12.5797 144.475 12.6188 144.269 12.6531C144.066 12.6844 143.868 12.7125 143.674 12.7375C143.483 12.7594 143.329 12.7781 143.21 12.7938C142.922 12.8313 142.654 12.8922 142.404 12.9766C142.157 13.0578 141.957 13.1813 141.804 13.3469C141.654 13.5094 141.579 13.7313 141.579 14.0125C141.579 14.3969 141.721 14.6875 142.005 14.8844C142.293 15.0781 142.657 15.175 143.097 15.175ZM151.173 16.15C150.498 16.15 149.916 15.9906 149.429 15.6719C148.941 15.3531 148.566 14.9141 148.304 14.3547C148.041 13.7953 147.91 13.1563 147.91 12.4375C147.91 11.7063 148.045 11.0609 148.313 10.5016C148.585 9.93906 148.963 9.5 149.448 9.18438C149.935 8.86563 150.504 8.70625 151.154 8.70625C151.66 8.70625 152.116 8.8 152.523 8.9875C152.929 9.175 153.262 9.4375 153.521 9.775C153.78 10.1125 153.941 10.5063 154.004 10.9563L152.898 10.9563C152.813 10.6281 152.626 10.3375 152.335 10.0844C152.048 9.82813 151.66 9.7 151.173 9.7C150.741 9.7 150.363 9.8125 150.038 10.0375C149.716 10.2594 149.465 10.5734 149.284 10.9797C149.105 11.3828 149.016 11.8563 149.016 12.4C149.016 12.9563 149.104 13.4406 149.279 13.8531C149.457 14.2656 149.707 14.5859 150.029 14.8141C150.354 15.0422 150.735 15.1563 151.173 15.1563C151.46 15.1563 151.721 15.1063 151.955 15.0063C152.19 14.9063 152.388 14.7625 152.551 14.575C152.713 14.3875 152.829 14.1625 152.898 13.9L154.004 13.9C153.941 14.325 153.787 14.7078 153.54 15.0484C153.296 15.3859 152.973 15.6547 152.57 15.8547C152.17 16.0516 151.704 16.15 151.173 16.15ZM158.64 16.15C157.946 16.15 157.348 15.9969 156.845 15.6906C156.345 15.3813 155.959 14.95 155.687 14.3969C155.418 13.8406 155.284 13.1938 155.284 12.4563C155.284 11.7188 155.418 11.0688 155.687 10.5063C155.959 9.94063 156.337 9.5 156.821 9.18438C157.309 8.86563 157.877 8.70625 158.527 8.70625C158.902 8.70625 159.273 8.76875 159.638 8.89375C160.004 9.01875 160.337 9.22188 160.637 9.50313C160.937 9.78125 161.176 10.15 161.354 10.6094C161.532 11.0688 161.621 11.6344 161.621 12.3063V12.775L156.071 12.775V11.8188L160.496 11.8188C160.496 11.4125 160.415 11.05 160.252 10.7313C160.093 10.4125 159.865 10.1609 159.568 9.97656C159.274 9.79219 158.927 9.7 158.527 9.7C158.087 9.7 157.705 9.80938 157.384 10.0281C157.065 10.2438 156.82 10.525 156.648 10.8719C156.476 11.2188 156.39 11.5906 156.39 11.9875V12.625C156.39 13.1688 156.484 13.6297 156.671 14.0078C156.862 14.3828 157.126 14.6688 157.463 14.8656C157.801 15.0594 158.193 15.1563 158.64 15.1563C158.93 15.1563 159.193 15.1156 159.427 15.0344C159.665 14.95 159.87 14.825 160.041 14.6594C160.213 14.4906 160.346 14.2813 160.44 14.0313L161.509 14.3313C161.396 14.6938 161.207 15.0125 160.941 15.2875C160.676 15.5594 160.348 15.7719 159.957 15.925C159.566 16.075 159.127 16.15 158.64 16.15ZM168.329 6.4L168.329 16L167.166 16L167.166 6.4L168.329 6.4ZM170.51 16L170.51 8.8L171.579 8.8V9.925H171.672C171.822 9.54063 172.064 9.24219 172.399 9.02969C172.733 8.81406 173.135 8.70625 173.604 8.70625C174.079 8.70625 174.474 8.81406 174.789 9.02969C175.108 9.24219 175.357 9.54063 175.535 9.925H175.61C175.794 9.55313 176.071 9.25781 176.439 9.03906C176.808 8.81719 177.25 8.70625 177.766 8.70625C178.41 8.70625 178.936 8.90781 179.346 9.31094C179.755 9.71094 179.96 10.3344 179.96 11.1813L179.96 16L178.854 16L178.854 11.1813C178.854 10.65 178.708 10.2703 178.418 10.0422C178.127 9.81406 177.785 9.7 177.391 9.7C176.885 9.7 176.493 9.85313 176.214 10.1594C175.936 10.4625 175.797 10.8469 175.797 11.3125L175.797 16L174.672 16L174.672 11.0688C174.672 10.6594 174.539 10.3297 174.274 10.0797C174.008 9.82656 173.666 9.7 173.247 9.7C172.96 9.7 172.691 9.77656 172.441 9.92969C172.194 10.0828 171.994 10.2953 171.841 10.5672C171.691 10.8359 171.616 11.1469 171.616 11.5L171.616 16L170.51 16ZM181.982 18.7L181.982 8.8L183.051 8.8V9.94375H183.182C183.264 9.81875 183.376 9.65938 183.52 9.46563C183.667 9.26875 183.876 9.09375 184.148 8.94063C184.423 8.78438 184.795 8.70625 185.264 8.70625C185.87 8.70625 186.404 8.85781 186.867 9.16094C187.329 9.46406 187.69 9.89375 187.95 10.45C188.209 11.0063 188.339 11.6625 188.339 12.4188C188.339 13.1813 188.209 13.8422 187.95 14.4016C187.69 14.9578 187.331 15.3891 186.871 15.6953C186.412 15.9984 185.882 16.15 185.282 16.15C184.82 16.15 184.45 16.0734 184.171 15.9203C183.893 15.7641 183.679 15.5875 183.529 15.3906C183.379 15.1906 183.264 15.025 183.182 14.8938H183.089L183.089 18.7L181.982 18.7ZM183.07 12.4C183.07 12.9438 183.15 13.4234 183.309 13.8391C183.468 14.2516 183.701 14.575 184.007 14.8094C184.314 15.0406 184.689 15.1563 185.132 15.1563C185.595 15.1563 185.981 15.0344 186.29 14.7906C186.603 14.5438 186.837 14.2125 186.993 13.7969C187.153 13.3781 187.232 12.9125 187.232 12.4C187.232 11.8938 187.154 11.4375 186.998 11.0313C186.845 10.6219 186.612 10.2984 186.3 10.0609C185.99 9.82031 185.601 9.7 185.132 9.7C184.682 9.7 184.304 9.81406 183.998 10.0422C183.692 10.2672 183.461 10.5828 183.304 10.9891C183.148 11.3922 183.07 11.8625 183.07 12.4ZM193.045 16.15C192.351 16.15 191.753 15.9969 191.25 15.6906C190.75 15.3813 190.364 14.95 190.092 14.3969C189.823 13.8406 189.689 13.1938 189.689 12.4563C189.689 11.7188 189.823 11.0688 190.092 10.5063C190.364 9.94063 190.742 9.5 191.226 9.18438C191.714 8.86563 192.282 8.70625 192.932 8.70625C193.307 8.70625 193.678 8.76875 194.043 8.89375C194.409 9.01875 194.742 9.22188 195.042 9.50313C195.342 9.78125 195.581 10.15 195.759 10.6094C195.937 11.0688 196.026 11.6344 196.026 12.3063V12.775L190.476 12.775V11.8188L194.901 11.8188C194.901 11.4125 194.82 11.05 194.657 10.7313C194.498 10.4125 194.27 10.1609 193.973 9.97656C193.679 9.79219 193.332 9.7 192.932 9.7C192.492 9.7 192.111 9.80938 191.789 10.0281C191.47 10.2438 191.225 10.525 191.053 10.8719C190.881 11.2188 190.795 11.5906 190.795 11.9875V12.625C190.795 13.1688 190.889 13.6297 191.076 14.0078C191.267 14.3828 191.531 14.6688 191.868 14.8656C192.206 15.0594 192.598 15.1563 193.045 15.1563C193.336 15.1563 193.598 15.1156 193.832 15.0344C194.07 14.95 194.275 14.825 194.446 14.6594C194.618 14.4906 194.751 14.2813 194.845 14.0313L195.914 14.3313C195.801 14.6938 195.612 15.0125 195.346 15.2875C195.081 15.5594 194.753 15.7719 194.362 15.925C193.971 16.075 193.532 16.15 193.045 16.15ZM197.709 16L197.709 8.8L198.778 8.8V9.8875H198.853C198.984 9.53125 199.221 9.24219 199.565 9.02031C199.909 8.79844 200.296 8.6875 200.728 8.6875C200.809 8.6875 200.911 8.68906 201.032 8.69219C201.154 8.69531 201.246 8.7 201.309 8.70625V9.83125C201.271 9.82188 201.186 9.80781 201.051 9.78906C200.92 9.76719 200.781 9.75625 200.634 9.75625C200.284 9.75625 199.971 9.82969 199.696 9.97656C199.425 10.1203 199.209 10.3203 199.05 10.5766C198.893 10.8297 198.815 11.1188 198.815 11.4438L198.815 16L197.709 16ZM202.62 16L202.62 8.8L203.727 8.8L203.727 16L202.62 16ZM203.183 7.6C202.967 7.6 202.781 7.52656 202.625 7.37969C202.472 7.23281 202.395 7.05625 202.395 6.85C202.395 6.64375 202.472 6.46719 202.625 6.32031C202.781 6.17344 202.967 6.1 203.183 6.1C203.398 6.1 203.583 6.17344 203.736 6.32031C203.892 6.46719 203.97 6.64375 203.97 6.85C203.97 7.05625 203.892 7.23281 203.736 7.37969C203.583 7.52656 203.398 7.6 203.183 7.6ZM207.871 16.1687C207.415 16.1687 207.001 16.0828 206.629 15.9109C206.257 15.7359 205.962 15.4844 205.743 15.1563C205.525 14.825 205.415 14.425 205.415 13.9563C205.415 13.5438 205.496 13.2094 205.659 12.9531C205.821 12.6938 206.039 12.4906 206.311 12.3438C206.582 12.1969 206.882 12.0875 207.211 12.0156C207.542 11.9406 207.875 11.8813 208.209 11.8375C208.646 11.7813 209.001 11.7391 209.273 11.7109C209.548 11.6797 209.748 11.6281 209.873 11.5563C210.001 11.4844 210.065 11.3594 210.065 11.1813V11.1438C210.065 10.6813 209.939 10.3219 209.686 10.0656C209.436 9.80938 209.056 9.68125 208.546 9.68125C208.018 9.68125 207.604 9.79688 207.304 10.0281C207.004 10.2594 206.793 10.5063 206.671 10.7688L205.621 10.3938C205.809 9.95625 206.059 9.61563 206.371 9.37188C206.687 9.125 207.031 8.95313 207.403 8.85625C207.778 8.75625 208.146 8.70625 208.509 8.70625C208.74 8.70625 209.006 8.73438 209.306 8.79063C209.609 8.84375 209.901 8.95469 210.182 9.12344C210.467 9.29219 210.703 9.54688 210.89 9.8875C211.078 10.2281 211.171 10.6844 211.171 11.2563L211.171 16L210.065 16L210.065 15.025H210.009C209.934 15.1813 209.809 15.3484 209.634 15.5266C209.459 15.7047 209.226 15.8563 208.936 15.9813C208.645 16.1062 208.29 16.1687 207.871 16.1687ZM208.04 15.175C208.478 15.175 208.846 15.0891 209.146 14.9172C209.45 14.7453 209.678 14.5234 209.831 14.2516C209.987 13.9797 210.065 13.6938 210.065 13.3938V12.3813C210.018 12.4375 209.915 12.4891 209.756 12.5359C209.6 12.5797 209.418 12.6188 209.212 12.6531C209.009 12.6844 208.811 12.7125 208.617 12.7375C208.426 12.7594 208.271 12.7781 208.153 12.7938C207.865 12.8313 207.596 12.8922 207.346 12.9766C207.1 13.0578 206.9 13.1813 206.746 13.3469C206.596 13.5094 206.521 13.7313 206.521 14.0125C206.521 14.3969 206.664 14.6875 206.948 14.8844C207.236 15.0781 207.6 15.175 208.04 15.175ZM214.297 6.4L214.297 16L213.191 16L213.191 6.4L214.297 6.4ZM219.342 16.15C218.648 16.15 218.05 15.9969 217.546 15.6906C217.046 15.3813 216.661 14.95 216.389 14.3969C216.12 13.8406 215.986 13.1938 215.986 12.4563C215.986 11.7188 216.12 11.0688 216.389 10.5063C216.661 9.94063 217.039 9.5 217.523 9.18438C218.011 8.86563 218.579 8.70625 219.229 8.70625C219.604 8.70625 219.975 8.76875 220.34 8.89375C220.706 9.01875 221.039 9.22188 221.339 9.50313C221.639 9.78125 221.878 10.15 222.056 10.6094C222.234 11.0688 222.323 11.6344 222.323 12.3063V12.775L216.773 12.775V11.8188L221.198 11.8188C221.198 11.4125 221.117 11.05 220.954 10.7313C220.795 10.4125 220.567 10.1609 220.27 9.97656C219.976 9.79219 219.629 9.7 219.229 9.7C218.789 9.7 218.407 9.80938 218.086 10.0281C217.767 10.2438 217.521 10.525 217.35 10.8719C217.178 11.2188 217.092 11.5906 217.092 11.9875V12.625C217.092 13.1688 217.186 13.6297 217.373 14.0078C217.564 14.3828 217.828 14.6688 218.165 14.8656C218.503 15.0594 218.895 15.1563 219.342 15.1563C219.632 15.1563 219.895 15.1156 220.129 15.0344C220.367 14.95 220.571 14.825 220.743 14.6594C220.915 14.4906 221.048 14.2813 221.142 14.0313L222.211 14.3313C222.098 14.6938 221.909 15.0125 221.643 15.2875C221.378 15.5594 221.05 15.7719 220.659 15.925C220.268 16.075 219.829 16.15 219.342 16.15Z" fill="black"/>
<path d="M275.797 0L253.797 0L253.797 22L275.797 22L275.797 0Z" fill="#DBB846"/>
<path d="M281.759 6.4L284.609 14.4813H284.722L287.572 6.4L288.791 6.4L285.266 16L284.066 16L280.541 6.4L281.759 6.4ZM292.484 16.15C291.791 16.15 291.192 15.9969 290.689 15.6906C290.189 15.3813 289.803 14.95 289.531 14.3969C289.262 13.8406 289.128 13.1938 289.128 12.4563C289.128 11.7188 289.262 11.0688 289.531 10.5063C289.803 9.94063 290.181 9.5 290.666 9.18438C291.153 8.86563 291.722 8.70625 292.372 8.70625C292.747 8.70625 293.117 8.76875 293.483 8.89375C293.848 9.01875 294.181 9.22188 294.481 9.50313C294.781 9.78125 295.02 10.15 295.198 10.6094C295.377 11.0688 295.466 11.6344 295.466 12.3063V12.775L289.916 12.775V11.8188L294.341 11.8188C294.341 11.4125 294.259 11.05 294.097 10.7313C293.937 10.4125 293.709 10.1609 293.412 9.97656C293.119 9.79219 292.772 9.7 292.372 9.7C291.931 9.7 291.55 9.80938 291.228 10.0281C290.909 10.2438 290.664 10.525 290.492 10.8719C290.32 11.2188 290.234 11.5906 290.234 11.9875V12.625C290.234 13.1688 290.328 13.6297 290.516 14.0078C290.706 14.3828 290.97 14.6688 291.308 14.8656C291.645 15.0594 292.037 15.1563 292.484 15.1563C292.775 15.1563 293.037 15.1156 293.272 15.0344C293.509 14.95 293.714 14.825 293.886 14.6594C294.058 14.4906 294.191 14.2813 294.284 14.0313L295.353 14.3313C295.241 14.6938 295.052 15.0125 294.786 15.2875C294.52 15.5594 294.192 15.7719 293.802 15.925C293.411 16.075 292.972 16.15 292.484 16.15ZM300.055 18.85C299.52 18.85 299.061 18.7812 298.677 18.6437C298.292 18.5094 297.972 18.3312 297.716 18.1094C297.462 17.8906 297.261 17.6562 297.111 17.4062L297.992 16.7875C298.092 16.9187 298.219 17.0687 298.372 17.2375C298.525 17.4094 298.734 17.5578 299 17.6828C299.269 17.8109 299.62 17.875 300.055 17.875C300.636 17.875 301.116 17.7344 301.494 17.4531C301.872 17.1719 302.061 16.7312 302.061 16.1312V14.6688H301.967C301.886 14.8 301.77 14.9625 301.62 15.1563C301.473 15.3469 301.261 15.5172 300.983 15.6672C300.708 15.8141 300.336 15.8875 299.867 15.8875C299.286 15.8875 298.764 15.75 298.302 15.475C297.842 15.2 297.478 14.8 297.209 14.275C296.944 13.75 296.811 13.1125 296.811 12.3625C296.811 11.625 296.941 10.9828 297.2 10.4359C297.459 9.88594 297.82 9.46094 298.283 9.16094C298.745 8.85781 299.28 8.70625 299.886 8.70625C300.355 8.70625 300.727 8.78438 301.002 8.94063C301.28 9.09375 301.492 9.26875 301.639 9.46563C301.789 9.65938 301.905 9.81875 301.986 9.94375H302.098V8.8L303.167 8.8V16.2062C303.167 16.825 303.027 17.3281 302.745 17.7156C302.467 18.1062 302.092 18.3922 301.62 18.5734C301.152 18.7578 300.63 18.85 300.055 18.85ZM300.017 14.8938C300.461 14.8938 300.836 14.7922 301.142 14.5891C301.448 14.3859 301.681 14.0938 301.841 13.7125C302 13.3313 302.08 12.875 302.08 12.3438C302.08 11.825 302.002 11.3672 301.845 10.9703C301.689 10.5734 301.458 10.2625 301.152 10.0375C300.845 9.8125 300.467 9.7 300.017 9.7C299.548 9.7 299.158 9.81875 298.845 10.0563C298.536 10.2938 298.303 10.6125 298.147 11.0125C297.994 11.4125 297.917 11.8563 297.917 12.3438C297.917 12.8438 297.995 13.2859 298.152 13.6703C298.311 14.0516 298.545 14.3516 298.855 14.5703C299.167 14.7859 299.555 14.8938 300.017 14.8938ZM308.211 16.15C307.517 16.15 306.919 15.9969 306.416 15.6906C305.916 15.3813 305.53 14.95 305.258 14.3969C304.989 13.8406 304.855 13.1938 304.855 12.4563C304.855 11.7188 304.989 11.0688 305.258 10.5063C305.53 9.94063 305.908 9.5 306.392 9.18438C306.88 8.86563 307.448 8.70625 308.098 8.70625C308.473 8.70625 308.844 8.76875 309.209 8.89375C309.575 9.01875 309.908 9.22188 310.208 9.50313C310.508 9.78125 310.747 10.15 310.925 10.6094C311.103 11.0688 311.192 11.6344 311.192 12.3063V12.775L305.642 12.775V11.8188L310.067 11.8188C310.067 11.4125 309.986 11.05 309.823 10.7313C309.664 10.4125 309.436 10.1609 309.139 9.97656C308.845 9.79219 308.498 9.7 308.098 9.7C307.658 9.7 307.277 9.80938 306.955 10.0281C306.636 10.2438 306.391 10.525 306.219 10.8719C306.047 11.2188 305.961 11.5906 305.961 11.9875V12.625C305.961 13.1688 306.055 13.6297 306.242 14.0078C306.433 14.3828 306.697 14.6688 307.034 14.8656C307.372 15.0594 307.764 15.1563 308.211 15.1563C308.502 15.1563 308.764 15.1156 308.998 15.0344C309.236 14.95 309.441 14.825 309.612 14.6594C309.784 14.4906 309.917 14.2813 310.011 14.0313L311.08 14.3313C310.967 14.6938 310.778 15.0125 310.512 15.2875C310.247 15.5594 309.919 15.7719 309.528 15.925C309.137 16.075 308.698 16.15 308.211 16.15ZM316.006 8.8V9.7375L312.275 9.7375V8.8L316.006 8.8ZM313.362 7.075L314.469 7.075V13.9375C314.469 14.25 314.514 14.4844 314.605 14.6406C314.698 14.7938 314.817 14.8969 314.961 14.95C315.108 15 315.262 15.025 315.425 15.025C315.547 15.025 315.647 15.0188 315.725 15.0063C315.803 14.9906 315.866 14.9781 315.912 14.9688L316.137 15.9625C316.062 15.9906 315.958 16.0187 315.823 16.0469C315.689 16.0781 315.519 16.0937 315.312 16.0937C315 16.0937 314.694 16.0266 314.394 15.8922C314.097 15.7578 313.85 15.5531 313.653 15.2781C313.459 15.0031 313.362 14.6563 313.362 14.2375V7.075ZM319.789 16.1687C319.333 16.1687 318.919 16.0828 318.547 15.9109C318.175 15.7359 317.88 15.4844 317.661 15.1563C317.442 14.825 317.333 14.425 317.333 13.9563C317.333 13.5438 317.414 13.2094 317.577 12.9531C317.739 12.6938 317.956 12.4906 318.228 12.3438C318.5 12.1969 318.8 12.0875 319.128 12.0156C319.459 11.9406 319.792 11.8813 320.127 11.8375C320.564 11.7813 320.919 11.7391 321.191 11.7109C321.466 11.6797 321.666 11.6281 321.791 11.5563C321.919 11.4844 321.983 11.3594 321.983 11.1813V11.1438C321.983 10.6813 321.856 10.3219 321.603 10.0656C321.353 9.80938 320.973 9.68125 320.464 9.68125C319.936 9.68125 319.522 9.79688 319.222 10.0281C318.922 10.2594 318.711 10.5063 318.589 10.7688L317.539 10.3938C317.727 9.95625 317.977 9.61563 318.289 9.37188C318.605 9.125 318.948 8.95313 319.32 8.85625C319.695 8.75625 320.064 8.70625 320.427 8.70625C320.658 8.70625 320.923 8.73438 321.223 8.79063C321.527 8.84375 321.819 8.95469 322.1 9.12344C322.384 9.29219 322.62 9.54688 322.808 9.8875C322.995 10.2281 323.089 10.6844 323.089 11.2563V16L321.983 16V15.025H321.927C321.852 15.1813 321.727 15.3484 321.552 15.5266C321.377 15.7047 321.144 15.8563 320.853 15.9813C320.562 16.1062 320.208 16.1687 319.789 16.1687ZM319.958 15.175C320.395 15.175 320.764 15.0891 321.064 14.9172C321.367 14.7453 321.595 14.5234 321.748 14.2516C321.905 13.9797 321.983 13.6938 321.983 13.3938V12.3813C321.936 12.4375 321.833 12.4891 321.673 12.5359C321.517 12.5797 321.336 12.6188 321.13 12.6531C320.927 12.6844 320.728 12.7125 320.534 12.7375C320.344 12.7594 320.189 12.7781 320.07 12.7938C319.783 12.8313 319.514 12.8922 319.264 12.9766C319.017 13.0578 318.817 13.1813 318.664 13.3469C318.514 13.5094 318.439 13.7313 318.439 14.0125C318.439 14.3969 318.581 14.6875 318.866 14.8844C319.153 15.0781 319.517 15.175 319.958 15.175ZM328.239 8.8V9.7375L324.508 9.7375V8.8L328.239 8.8ZM325.596 7.075L326.702 7.075V13.9375C326.702 14.25 326.747 14.4844 326.838 14.6406C326.932 14.7938 327.05 14.8969 327.194 14.95C327.341 15 327.496 15.025 327.658 15.025C327.78 15.025 327.88 15.0188 327.958 15.0063C328.036 14.9906 328.099 14.9781 328.146 14.9688L328.371 15.9625C328.296 15.9906 328.191 16.0187 328.057 16.0469C327.922 16.0781 327.752 16.0937 327.546 16.0937C327.233 16.0937 326.927 16.0266 326.627 15.8922C326.33 15.7578 326.083 15.5531 325.886 15.2781C325.693 15.0031 325.596 14.6563 325.596 14.2375V7.075ZM329.904 16V8.8L331.01 8.8V16L329.904 16ZM330.466 7.6C330.25 7.6 330.064 7.52656 329.908 7.37969C329.755 7.23281 329.679 7.05625 329.679 6.85C329.679 6.64375 329.755 6.46719 329.908 6.32031C330.064 6.17344 330.25 6.1 330.466 6.1C330.682 6.1 330.866 6.17344 331.019 6.32031C331.175 6.46719 331.254 6.64375 331.254 6.85C331.254 7.05625 331.175 7.23281 331.019 7.37969C330.866 7.52656 330.682 7.6 330.466 7.6ZM335.961 16.15C335.311 16.15 334.741 15.9953 334.25 15.6859C333.762 15.3766 333.381 14.9438 333.106 14.3875C332.834 13.8313 332.698 13.1813 332.698 12.4375C332.698 11.6875 332.834 11.0328 333.106 10.4734C333.381 9.91406 333.762 9.47969 334.25 9.17031C334.741 8.86094 335.311 8.70625 335.961 8.70625C336.611 8.70625 337.18 8.86094 337.667 9.17031C338.158 9.47969 338.539 9.91406 338.811 10.4734C339.086 11.0328 339.223 11.6875 339.223 12.4375C339.223 13.1813 339.086 13.8313 338.811 14.3875C338.539 14.9438 338.158 15.3766 337.667 15.6859C337.18 15.9953 336.611 16.15 335.961 16.15ZM335.961 15.1563C336.455 15.1563 336.861 15.0297 337.18 14.7766C337.498 14.5234 337.734 14.1906 337.887 13.7781C338.041 13.3656 338.117 12.9188 338.117 12.4375C338.117 11.9563 338.041 11.5078 337.887 11.0922C337.734 10.6766 337.498 10.3406 337.18 10.0844C336.861 9.82813 336.455 9.7 335.961 9.7C335.467 9.7 335.061 9.82813 334.742 10.0844C334.423 10.3406 334.187 10.6766 334.034 11.0922C333.881 11.5078 333.805 11.9563 333.805 12.4375C333.805 12.9188 333.881 13.3656 334.034 13.7781C334.187 14.1906 334.423 14.5234 334.742 14.7766C335.061 15.0297 335.467 15.1563 335.961 15.1563ZM342.018 11.6688V16L340.912 16V8.8L341.981 8.8V9.925H342.075C342.243 9.55938 342.5 9.26563 342.843 9.04375C343.187 8.81875 343.631 8.70625 344.175 8.70625C344.662 8.70625 345.089 8.80625 345.454 9.00625C345.82 9.20313 346.104 9.50313 346.307 9.90625C346.511 10.3063 346.612 10.8125 346.612 11.425V16L345.506 16V11.5C345.506 10.9344 345.359 10.4938 345.065 10.1781C344.771 9.85938 344.368 9.7 343.856 9.7C343.503 9.7 343.187 9.77656 342.909 9.92969C342.634 10.0828 342.417 10.3063 342.257 10.6C342.098 10.8938 342.018 11.25 342.018 11.6688ZM353.452 11.6688V16L352.346 16V6.4L353.452 6.4V9.925L353.546 9.925C353.715 9.55313 353.968 9.25781 354.305 9.03906C354.646 8.81719 355.099 8.70625 355.665 8.70625C356.155 8.70625 356.585 8.80469 356.954 9.00156C357.323 9.19531 357.609 9.49375 357.812 9.89688C358.018 10.2969 358.121 10.8063 358.121 11.425V16L357.015 16V11.5C357.015 10.9281 356.866 10.4859 356.57 10.1734C356.276 9.85781 355.868 9.7 355.346 9.7C354.984 9.7 354.659 9.77656 354.371 9.92969C354.087 10.0828 353.862 10.3063 353.696 10.6C353.534 10.8938 353.452 11.25 353.452 11.6688ZM362.264 16.1687C361.807 16.1687 361.393 16.0828 361.021 15.9109C360.65 15.7359 360.354 15.4844 360.136 15.1563C359.917 14.825 359.807 14.425 359.807 13.9563C359.807 13.5438 359.889 13.2094 360.051 12.9531C360.214 12.6938 360.431 12.4906 360.703 12.3438C360.975 12.1969 361.275 12.0875 361.603 12.0156C361.934 11.9406 362.267 11.8813 362.601 11.8375C363.039 11.7813 363.393 11.7391 363.665 11.7109C363.94 11.6797 364.14 11.6281 364.265 11.5563C364.393 11.4844 364.457 11.3594 364.457 11.1813V11.1438C364.457 10.6813 364.331 10.3219 364.078 10.0656C363.828 9.80938 363.448 9.68125 362.939 9.68125C362.411 9.68125 361.996 9.79688 361.696 10.0281C361.396 10.2594 361.186 10.5063 361.064 10.7688L360.014 10.3938C360.201 9.95625 360.451 9.61563 360.764 9.37188C361.079 9.125 361.423 8.95313 361.795 8.85625C362.17 8.75625 362.539 8.70625 362.901 8.70625C363.132 8.70625 363.398 8.73438 363.698 8.79063C364.001 8.84375 364.293 8.95469 364.575 9.12344C364.859 9.29219 365.095 9.54688 365.282 9.8875C365.47 10.2281 365.564 10.6844 365.564 11.2563V16L364.457 16V15.025H364.401C364.326 15.1813 364.201 15.3484 364.026 15.5266C363.851 15.7047 363.618 15.8563 363.328 15.9813C363.037 16.1062 362.682 16.1687 362.264 16.1687ZM362.432 15.175C362.87 15.175 363.239 15.0891 363.539 14.9172C363.842 14.7453 364.07 14.5234 364.223 14.2516C364.379 13.9797 364.457 13.6938 364.457 13.3938V12.3813C364.411 12.4375 364.307 12.4891 364.148 12.5359C363.992 12.5797 363.811 12.6188 363.604 12.6531C363.401 12.6844 363.203 12.7125 363.009 12.7375C362.818 12.7594 362.664 12.7781 362.545 12.7938C362.257 12.8313 361.989 12.8922 361.739 12.9766C361.492 13.0578 361.292 13.1813 361.139 13.3469C360.989 13.5094 360.914 13.7313 360.914 14.0125C360.914 14.3969 361.056 14.6875 361.34 14.8844C361.628 15.0781 361.992 15.175 362.432 15.175ZM372.12 13.0563V8.8L373.227 8.8V16L372.12 16V14.7813H372.045C371.877 15.1469 371.614 15.4578 371.258 15.7141C370.902 15.9672 370.452 16.0937 369.908 16.0937C369.458 16.0937 369.058 15.9953 368.708 15.7984C368.358 15.5984 368.083 15.2984 367.883 14.8984C367.683 14.4953 367.583 13.9875 367.583 13.375V8.8L368.689 8.8V13.3C368.689 13.825 368.836 14.2438 369.13 14.5563C369.427 14.8688 369.805 15.025 370.264 15.025C370.539 15.025 370.819 14.9547 371.103 14.8141C371.391 14.6734 371.631 14.4578 371.825 14.1672C372.022 13.8766 372.12 13.5063 372.12 13.0563ZM378.384 8.8V9.7375L374.653 9.7375V8.8L378.384 8.8ZM375.74 7.075L376.846 7.075V13.9375C376.846 14.25 376.892 14.4844 376.982 14.6406C377.076 14.7938 377.195 14.8969 377.339 14.95C377.486 15 377.64 15.025 377.803 15.025C377.925 15.025 378.025 15.0188 378.103 15.0063C378.181 14.9906 378.243 14.9781 378.29 14.9688L378.515 15.9625C378.44 15.9906 378.336 16.0187 378.201 16.0469C378.067 16.0781 377.896 16.0937 377.69 16.0937C377.378 16.0937 377.071 16.0266 376.771 15.8922C376.475 15.7578 376.228 15.5531 376.031 15.2781C375.837 15.0031 375.74 14.6563 375.74 14.2375V7.075ZM382.989 16.15C382.296 16.15 381.697 15.9969 381.194 15.6906C380.694 15.3813 380.308 14.95 380.036 14.3969C379.768 13.8406 379.633 13.1938 379.633 12.4563C379.633 11.7188 379.768 11.0688 380.036 10.5063C380.308 9.94063 380.686 9.5 381.171 9.18438C381.658 8.86563 382.227 8.70625 382.877 8.70625C383.252 8.70625 383.622 8.76875 383.988 8.89375C384.353 9.01875 384.686 9.22188 384.986 9.50313C385.286 9.78125 385.525 10.15 385.703 10.6094C385.882 11.0688 385.971 11.6344 385.971 12.3063V12.775L380.421 12.775V11.8188L384.846 11.8188C384.846 11.4125 384.764 11.05 384.602 10.7313C384.443 10.4125 384.214 10.1609 383.918 9.97656C383.624 9.79219 383.277 9.7 382.877 9.7C382.436 9.7 382.055 9.80938 381.733 10.0281C381.414 10.2438 381.169 10.525 380.997 10.8719C380.825 11.2188 380.739 11.5906 380.739 11.9875V12.625C380.739 13.1688 380.833 13.6297 381.021 14.0078C381.211 14.3828 381.475 14.6688 381.813 14.8656C382.15 15.0594 382.543 15.1563 382.989 15.1563C383.28 15.1563 383.543 15.1156 383.777 15.0344C384.014 14.95 384.219 14.825 384.391 14.6594C384.563 14.4906 384.696 14.2813 384.789 14.0313L385.858 14.3313C385.746 14.6938 385.557 15.0125 385.291 15.2875C385.025 15.5594 384.697 15.7719 384.307 15.925C383.916 16.075 383.477 16.15 382.989 16.15Z" fill="black"/>
<path d="M439.203 0L417.203 0L417.203 22L439.203 22L439.203 0Z" fill="#51DB6F"/>
<path d="M445.158 6.4L448.008 14.4813H448.12L450.97 6.4L452.189 6.4L448.664 16L447.464 16L443.939 6.4L445.158 6.4ZM455.883 16.15C455.189 16.15 454.591 15.9969 454.087 15.6906C453.587 15.3813 453.202 14.95 452.93 14.3969C452.661 13.8406 452.527 13.1938 452.527 12.4563C452.527 11.7188 452.661 11.0688 452.93 10.5063C453.202 9.94063 453.58 9.5 454.064 9.18438C454.552 8.86563 455.12 8.70625 455.77 8.70625C456.145 8.70625 456.516 8.76875 456.881 8.89375C457.247 9.01875 457.58 9.22188 457.88 9.50313C458.18 9.78125 458.419 10.15 458.597 10.6094C458.775 11.0688 458.864 11.6344 458.864 12.3063V12.775L453.314 12.775V11.8188L457.739 11.8188C457.739 11.4125 457.658 11.05 457.495 10.7313C457.336 10.4125 457.108 10.1609 456.811 9.97656C456.517 9.79219 456.17 9.7 455.77 9.7C455.33 9.7 454.948 9.80938 454.627 10.0281C454.308 10.2438 454.062 10.525 453.891 10.8719C453.719 11.2188 453.633 11.5906 453.633 11.9875V12.625C453.633 13.1688 453.727 13.6297 453.914 14.0078C454.105 14.3828 454.369 14.6688 454.706 14.8656C455.044 15.0594 455.436 15.1563 455.883 15.1563C456.173 15.1563 456.436 15.1156 456.67 15.0344C456.908 14.95 457.112 14.825 457.284 14.6594C457.456 14.4906 457.589 14.2813 457.683 14.0313L458.752 14.3313C458.639 14.6938 458.45 15.0125 458.184 15.2875C457.919 15.5594 457.591 15.7719 457.2 15.925C456.809 16.075 456.37 16.15 455.883 16.15ZM463.453 18.85C462.919 18.85 462.459 18.7812 462.075 18.6437C461.691 18.5094 461.37 18.3312 461.114 18.1094C460.861 17.8906 460.659 17.6562 460.509 17.4062L461.391 16.7875C461.491 16.9187 461.617 17.0687 461.77 17.2375C461.923 17.4094 462.133 17.5578 462.398 17.6828C462.667 17.8109 463.019 17.875 463.453 17.875C464.034 17.875 464.514 17.7344 464.892 17.4531C465.27 17.1719 465.459 16.7312 465.459 16.1312V14.6688H465.366C465.284 14.8 465.169 14.9625 465.019 15.1563C464.872 15.3469 464.659 15.5172 464.381 15.6672C464.106 15.8141 463.734 15.8875 463.266 15.8875C462.684 15.8875 462.162 15.75 461.7 15.475C461.241 15.2 460.877 14.8 460.608 14.275C460.342 13.75 460.209 13.1125 460.209 12.3625C460.209 11.625 460.339 10.9828 460.598 10.4359C460.858 9.88594 461.219 9.46094 461.681 9.16094C462.144 8.85781 462.678 8.70625 463.284 8.70625C463.753 8.70625 464.125 8.78438 464.4 8.94063C464.678 9.09375 464.891 9.26875 465.037 9.46563C465.187 9.65938 465.303 9.81875 465.384 9.94375H465.497V8.8L466.566 8.8V16.2062C466.566 16.825 466.425 17.3281 466.144 17.7156C465.866 18.1062 465.491 18.3922 465.019 18.5734C464.55 18.7578 464.028 18.85 463.453 18.85ZM463.416 14.8938C463.859 14.8938 464.234 14.7922 464.541 14.5891C464.847 14.3859 465.08 14.0938 465.239 13.7125C465.398 13.3313 465.478 12.875 465.478 12.3438C465.478 11.825 465.4 11.3672 465.244 10.9703C465.087 10.5734 464.856 10.2625 464.55 10.0375C464.244 9.8125 463.866 9.7 463.416 9.7C462.947 9.7 462.556 9.81875 462.244 10.0563C461.934 10.2938 461.702 10.6125 461.545 11.0125C461.392 11.4125 461.316 11.8563 461.316 12.3438C461.316 12.8438 461.394 13.2859 461.55 13.6703C461.709 14.0516 461.944 14.3516 462.253 14.5703C462.566 14.7859 462.953 14.8938 463.416 14.8938ZM471.609 16.15C470.916 16.15 470.317 15.9969 469.814 15.6906C469.314 15.3813 468.928 14.95 468.656 14.3969C468.387 13.8406 468.253 13.1938 468.253 12.4563C468.253 11.7188 468.387 11.0688 468.656 10.5063C468.928 9.94063 469.306 9.5 469.791 9.18438C470.278 8.86563 470.847 8.70625 471.497 8.70625C471.872 8.70625 472.242 8.76875 472.608 8.89375C472.973 9.01875 473.306 9.22188 473.606 9.50313C473.906 9.78125 474.145 10.15 474.323 10.6094C474.502 11.0688 474.591 11.6344 474.591 12.3063V12.775L469.041 12.775V11.8188L473.466 11.8188C473.466 11.4125 473.384 11.05 473.222 10.7313C473.062 10.4125 472.834 10.1609 472.537 9.97656C472.244 9.79219 471.897 9.7 471.497 9.7C471.056 9.7 470.675 9.80938 470.353 10.0281C470.034 10.2438 469.789 10.525 469.617 10.8719C469.445 11.2188 469.359 11.5906 469.359 11.9875V12.625C469.359 13.1688 469.453 13.6297 469.641 14.0078C469.831 14.3828 470.095 14.6688 470.433 14.8656C470.77 15.0594 471.162 15.1563 471.609 15.1563C471.9 15.1563 472.162 15.1156 472.397 15.0344C472.634 14.95 472.839 14.825 473.011 14.6594C473.183 14.4906 473.316 14.2813 473.409 14.0313L474.478 14.3313C474.366 14.6938 474.177 15.0125 473.911 15.2875C473.645 15.5594 473.317 15.7719 472.927 15.925C472.536 16.075 472.097 16.15 471.609 16.15ZM479.405 8.8V9.7375L475.673 9.7375V8.8L479.405 8.8ZM476.761 7.075L477.867 7.075V13.9375C477.867 14.25 477.912 14.4844 478.003 14.6406C478.097 14.7938 478.216 14.8969 478.359 14.95C478.506 15 478.661 15.025 478.823 15.025C478.945 15.025 479.045 15.0188 479.123 15.0063C479.202 14.9906 479.264 14.9781 479.311 14.9688L479.536 15.9625C479.461 15.9906 479.356 16.0187 479.222 16.0469C479.087 16.0781 478.917 16.0937 478.711 16.0937C478.398 16.0937 478.092 16.0266 477.792 15.8922C477.495 15.7578 477.248 15.5531 477.052 15.2781C476.858 15.0031 476.761 14.6563 476.761 14.2375V7.075ZM483.187 16.1687C482.731 16.1687 482.317 16.0828 481.945 15.9109C481.573 15.7359 481.278 15.4844 481.059 15.1563C480.841 14.825 480.731 14.425 480.731 13.9563C480.731 13.5438 480.812 13.2094 480.975 12.9531C481.137 12.6938 481.355 12.4906 481.627 12.3438C481.898 12.1969 482.198 12.0875 482.527 12.0156C482.858 11.9406 483.191 11.8813 483.525 11.8375C483.962 11.7813 484.317 11.7391 484.589 11.7109C484.864 11.6797 485.064 11.6281 485.189 11.5563C485.317 11.4844 485.381 11.3594 485.381 11.1813V11.1438C485.381 10.6813 485.255 10.3219 485.002 10.0656C484.752 9.80938 484.372 9.68125 483.862 9.68125C483.334 9.68125 482.92 9.79688 482.62 10.0281C482.32 10.2594 482.109 10.5063 481.987 10.7688L480.937 10.3938C481.125 9.95625 481.375 9.61563 481.687 9.37188C482.003 9.125 482.347 8.95313 482.719 8.85625C483.094 8.75625 483.462 8.70625 483.825 8.70625C484.056 8.70625 484.322 8.73438 484.622 8.79063C484.925 8.84375 485.217 8.95469 485.498 9.12344C485.783 9.29219 486.019 9.54688 486.206 9.8875C486.394 10.2281 486.487 10.6844 486.487 11.2563V16L485.381 16V15.025H485.325C485.25 15.1813 485.125 15.3484 484.95 15.5266C484.775 15.7047 484.542 15.8563 484.252 15.9813C483.961 16.1062 483.606 16.1687 483.187 16.1687ZM483.356 15.175C483.794 15.175 484.162 15.0891 484.462 14.9172C484.766 14.7453 484.994 14.5234 485.147 14.2516C485.303 13.9797 485.381 13.6938 485.381 13.3938V12.3813C485.334 12.4375 485.231 12.4891 485.072 12.5359C484.916 12.5797 484.734 12.6188 484.528 12.6531C484.325 12.6844 484.127 12.7125 483.933 12.7375C483.742 12.7594 483.587 12.7781 483.469 12.7938C483.181 12.8313 482.912 12.8922 482.662 12.9766C482.416 13.0578 482.216 13.1813 482.062 13.3469C481.912 13.5094 481.837 13.7313 481.837 14.0125C481.837 14.3969 481.98 14.6875 482.264 14.8844C482.552 15.0781 482.916 15.175 483.356 15.175ZM491.638 8.8V9.7375L487.907 9.7375V8.8L491.638 8.8ZM488.994 7.075L490.1 7.075V13.9375C490.1 14.25 490.146 14.4844 490.236 14.6406C490.33 14.7938 490.449 14.8969 490.593 14.95C490.739 15 490.894 15.025 491.057 15.025C491.179 15.025 491.279 15.0188 491.357 15.0063C491.435 14.9906 491.497 14.9781 491.544 14.9688L491.769 15.9625C491.694 15.9906 491.589 16.0187 491.455 16.0469C491.321 16.0781 491.15 16.0937 490.944 16.0937C490.632 16.0937 490.325 16.0266 490.025 15.8922C489.729 15.7578 489.482 15.5531 489.285 15.2781C489.091 15.0031 488.994 14.6563 488.994 14.2375V7.075ZM493.302 16V8.8L494.408 8.8V16L493.302 16ZM493.864 7.6C493.649 7.6 493.463 7.52656 493.307 7.37969C493.154 7.23281 493.077 7.05625 493.077 6.85C493.077 6.64375 493.154 6.46719 493.307 6.32031C493.463 6.17344 493.649 6.1 493.864 6.1C494.08 6.1 494.264 6.17344 494.418 6.32031C494.574 6.46719 494.652 6.64375 494.652 6.85C494.652 7.05625 494.574 7.23281 494.418 7.37969C494.264 7.52656 494.08 7.6 493.864 7.6ZM499.359 16.15C498.709 16.15 498.139 15.9953 497.648 15.6859C497.161 15.3766 496.78 14.9438 496.505 14.3875C496.233 13.8313 496.097 13.1813 496.097 12.4375C496.097 11.6875 496.233 11.0328 496.505 10.4734C496.78 9.91406 497.161 9.47969 497.648 9.17031C498.139 8.86094 498.709 8.70625 499.359 8.70625C500.009 8.70625 500.578 8.86094 501.066 9.17031C501.556 9.47969 501.937 9.91406 502.209 10.4734C502.484 11.0328 502.622 11.6875 502.622 12.4375C502.622 13.1813 502.484 13.8313 502.209 14.3875C501.937 14.9438 501.556 15.3766 501.066 15.6859C500.578 15.9953 500.009 16.15 499.359 16.15ZM499.359 15.1563C499.853 15.1563 500.259 15.0297 500.578 14.7766C500.897 14.5234 501.133 14.1906 501.286 13.7781C501.439 13.3656 501.516 12.9188 501.516 12.4375C501.516 11.9563 501.439 11.5078 501.286 11.0922C501.133 10.6766 500.897 10.3406 500.578 10.0844C500.259 9.82813 499.853 9.7 499.359 9.7C498.866 9.7 498.459 9.82813 498.141 10.0844C497.822 10.3406 497.586 10.6766 497.433 11.0922C497.28 11.5078 497.203 11.9563 497.203 12.4375C497.203 12.9188 497.28 13.3656 497.433 13.7781C497.586 14.1906 497.822 14.5234 498.141 14.7766C498.459 15.0297 498.866 15.1563 499.359 15.1563ZM505.417 11.6688V16L504.311 16V8.8L505.379 8.8V9.925H505.473C505.642 9.55938 505.898 9.26563 506.242 9.04375C506.586 8.81875 507.029 8.70625 507.573 8.70625C508.061 8.70625 508.487 8.80625 508.853 9.00625C509.218 9.20313 509.503 9.50313 509.706 9.90625C509.909 10.3063 510.011 10.8125 510.011 11.425V16L508.904 16V11.5C508.904 10.9344 508.757 10.4938 508.464 10.1781C508.17 9.85938 507.767 9.7 507.254 9.7C506.901 9.7 506.586 9.77656 506.307 9.92969C506.032 10.0828 505.815 10.3063 505.656 10.6C505.496 10.8938 505.417 11.25 505.417 11.6688ZM515.895 16V6.4L519.251 6.4C519.92 6.4 520.471 6.51563 520.905 6.74688C521.34 6.975 521.663 7.28281 521.876 7.67031C522.088 8.05469 522.195 8.48125 522.195 8.95C522.195 9.3625 522.121 9.70313 521.974 9.97188C521.83 10.2406 521.64 10.4531 521.402 10.6094C521.168 10.7656 520.913 10.8813 520.638 10.9563V11.05C520.932 11.0688 521.227 11.1719 521.524 11.3594C521.821 11.5469 522.07 11.8156 522.27 12.1656C522.47 12.5156 522.57 12.9438 522.57 13.45C522.57 13.9313 522.46 14.3641 522.241 14.7484C522.023 15.1328 521.677 15.4375 521.205 15.6625C520.734 15.8875 520.12 16 519.363 16L515.895 16ZM517.057 14.9688L519.363 14.9688C520.123 14.9688 520.662 14.8219 520.98 14.5281C521.302 14.2313 521.463 13.8719 521.463 13.45C521.463 13.125 521.38 12.825 521.215 12.55C521.049 12.2719 520.813 12.05 520.507 11.8844C520.201 11.7156 519.838 11.6313 519.42 11.6313L517.057 11.6313V14.9688ZM517.057 10.6188L519.213 10.6188C519.563 10.6188 519.879 10.55 520.16 10.4125C520.445 10.275 520.67 10.0813 520.835 9.83125C521.004 9.58125 521.088 9.2875 521.088 8.95C521.088 8.52813 520.941 8.17031 520.648 7.87656C520.354 7.57969 519.888 7.43125 519.251 7.43125L517.057 7.43125V10.6188ZM526.448 16.1687C525.992 16.1687 525.578 16.0828 525.206 15.9109C524.834 15.7359 524.539 15.4844 524.32 15.1563C524.102 14.825 523.992 14.425 523.992 13.9563C523.992 13.5438 524.073 13.2094 524.236 12.9531C524.398 12.6938 524.616 12.4906 524.887 12.3438C525.159 12.1969 525.459 12.0875 525.787 12.0156C526.119 11.9406 526.452 11.8813 526.786 11.8375C527.223 11.7813 527.578 11.7391 527.85 11.7109C528.125 11.6797 528.325 11.6281 528.45 11.5563C528.578 11.4844 528.642 11.3594 528.642 11.1813V11.1438C528.642 10.6813 528.516 10.3219 528.262 10.0656C528.012 9.80938 527.633 9.68125 527.123 9.68125C526.595 9.68125 526.181 9.79688 525.881 10.0281C525.581 10.2594 525.37 10.5063 525.248 10.7688L524.198 10.3938C524.386 9.95625 524.636 9.61563 524.948 9.37188C525.264 9.125 525.608 8.95313 525.98 8.85625C526.355 8.75625 526.723 8.70625 527.086 8.70625C527.317 8.70625 527.583 8.73438 527.883 8.79063C528.186 8.84375 528.478 8.95469 528.759 9.12344C529.044 9.29219 529.28 9.54688 529.467 9.8875C529.655 10.2281 529.748 10.6844 529.748 11.2563V16L528.642 16V15.025H528.586C528.511 15.1813 528.386 15.3484 528.211 15.5266C528.036 15.7047 527.803 15.8563 527.512 15.9813C527.222 16.1062 526.867 16.1687 526.448 16.1687ZM526.617 15.175C527.055 15.175 527.423 15.0891 527.723 14.9172C528.027 14.7453 528.255 14.5234 528.408 14.2516C528.564 13.9797 528.642 13.6938 528.642 13.3938V12.3813C528.595 12.4375 528.492 12.4891 528.333 12.5359C528.177 12.5797 527.995 12.6188 527.789 12.6531C527.586 12.6844 527.387 12.7125 527.194 12.7375C527.003 12.7594 526.848 12.7781 526.73 12.7938C526.442 12.8313 526.173 12.8922 525.923 12.9766C525.677 13.0578 525.477 13.1813 525.323 13.3469C525.173 13.5094 525.098 13.7313 525.098 14.0125C525.098 14.3969 525.241 14.6875 525.525 14.8844C525.812 15.0781 526.177 15.175 526.617 15.175ZM536.868 10.4125L535.874 10.6938C535.811 10.5281 535.719 10.3672 535.597 10.2109C535.478 10.0516 535.316 9.92031 535.11 9.81719C534.903 9.71406 534.639 9.6625 534.318 9.6625C533.877 9.6625 533.51 9.76406 533.216 9.96719C532.925 10.1672 532.78 10.4219 532.78 10.7313C532.78 11.0063 532.88 11.2234 533.08 11.3828C533.28 11.5422 533.593 11.675 534.018 11.7813L535.086 12.0438C535.73 12.2 536.21 12.4391 536.525 12.7609C536.841 13.0797 536.999 13.4906 536.999 13.9938C536.999 14.4063 536.88 14.775 536.643 15.1C536.408 15.425 536.08 15.6813 535.658 15.8688C535.236 16.0562 534.746 16.15 534.186 16.15C533.452 16.15 532.844 15.9906 532.363 15.6719C531.882 15.3531 531.577 14.8875 531.449 14.275L532.499 14.0125C532.599 14.4 532.788 14.6906 533.066 14.8844C533.347 15.0781 533.714 15.175 534.168 15.175C534.683 15.175 535.093 15.0656 535.396 14.8469C535.702 14.625 535.855 14.3594 535.855 14.05C535.855 13.8 535.768 13.5906 535.593 13.4219C535.418 13.25 535.149 13.1219 534.786 13.0375L533.586 12.7563C532.927 12.6 532.443 12.3578 532.133 12.0297C531.827 11.6984 531.674 11.2844 531.674 10.7875C531.674 10.3813 531.788 10.0219 532.016 9.70938C532.247 9.39688 532.561 9.15156 532.958 8.97344C533.358 8.79531 533.811 8.70625 534.318 8.70625C535.03 8.70625 535.589 8.8625 535.996 9.175C536.405 9.4875 536.696 9.9 536.868 10.4125ZM543.764 10.4125L542.77 10.6938C542.708 10.5281 542.616 10.3672 542.494 10.2109C542.375 10.0516 542.212 9.92031 542.006 9.81719C541.8 9.71406 541.536 9.6625 541.214 9.6625C540.773 9.6625 540.406 9.76406 540.112 9.96719C539.822 10.1672 539.677 10.4219 539.677 10.7313C539.677 11.0063 539.777 11.2234 539.977 11.3828C540.177 11.5422 540.489 11.675 540.914 11.7813L541.983 12.0438C542.627 12.2 543.106 12.4391 543.422 12.7609C543.737 13.0797 543.895 13.4906 543.895 13.9938C543.895 14.4063 543.777 14.775 543.539 15.1C543.305 15.425 542.977 15.6813 542.555 15.8688C542.133 16.0562 541.642 16.15 541.083 16.15C540.348 16.15 539.741 15.9906 539.259 15.6719C538.778 15.3531 538.473 14.8875 538.345 14.275L539.395 14.0125C539.495 14.4 539.684 14.6906 539.962 14.8844C540.244 15.0781 540.611 15.175 541.064 15.175C541.58 15.175 541.989 15.0656 542.292 14.8469C542.598 14.625 542.752 14.3594 542.752 14.05C542.752 13.8 542.664 13.5906 542.489 13.4219C542.314 13.25 542.045 13.1219 541.683 13.0375L540.483 12.7563C539.823 12.6 539.339 12.3578 539.03 12.0297C538.723 11.6984 538.57 11.2844 538.57 10.7875C538.57 10.3813 538.684 10.0219 538.912 9.70938C539.144 9.39688 539.458 9.15156 539.855 8.97344C540.255 8.79531 540.708 8.70625 541.214 8.70625C541.927 8.70625 542.486 8.8625 542.892 9.175C543.302 9.4875 543.592 9.9 543.764 10.4125ZM548.579 16.15C547.886 16.15 547.287 15.9969 546.784 15.6906C546.284 15.3813 545.898 14.95 545.626 14.3969C545.357 13.8406 545.223 13.1938 545.223 12.4563C545.223 11.7188 545.357 11.0688 545.626 10.5063C545.898 9.94063 546.276 9.5 546.761 9.18438C547.248 8.86563 547.817 8.70625 548.467 8.70625C548.842 8.70625 549.212 8.76875 549.578 8.89375C549.943 9.01875 550.276 9.22188 550.576 9.50313C550.876 9.78125 551.115 10.15 551.293 10.6094C551.471 11.0688 551.561 11.6344 551.561 12.3063V12.775L546.011 12.775V11.8188L550.436 11.8188C550.436 11.4125 550.354 11.05 550.192 10.7313C550.032 10.4125 549.804 10.1609 549.507 9.97656C549.214 9.79219 548.867 9.7 548.467 9.7C548.026 9.7 547.645 9.80938 547.323 10.0281C547.004 10.2438 546.759 10.525 546.587 10.8719C546.415 11.2188 546.329 11.5906 546.329 11.9875V12.625C546.329 13.1688 546.423 13.6297 546.611 14.0078C546.801 14.3828 547.065 14.6688 547.403 14.8656C547.74 15.0594 548.132 15.1563 548.579 15.1563C548.87 15.1563 549.132 15.1156 549.367 15.0344C549.604 14.95 549.809 14.825 549.981 14.6594C550.153 14.4906 550.286 14.2813 550.379 14.0313L551.448 14.3313C551.336 14.6938 551.146 15.0125 550.881 15.2875C550.615 15.5594 550.287 15.7719 549.896 15.925C549.506 16.075 549.067 16.15 548.579 16.15Z" fill="black"/>
<path d="M605.908 0L582.602 0V22L605.908 22V0Z" fill="#515FDB"/>
<path d="M611.467 16V6.4L617.261 6.4V7.43125L612.63 7.43125V10.675L616.961 10.675V11.7063L612.63 11.7063V14.9688L617.336 14.9688V16L611.467 16ZM621.325 16.1687C620.869 16.1687 620.455 16.0828 620.083 15.9109C619.711 15.7359 619.416 15.4844 619.197 15.1563C618.978 14.825 618.869 14.425 618.869 13.9563C618.869 13.5438 618.95 13.2094 619.112 12.9531C619.275 12.6938 619.492 12.4906 619.764 12.3438C620.036 12.1969 620.336 12.0875 620.664 12.0156C620.995 11.9406 621.328 11.8813 621.662 11.8375C622.1 11.7813 622.455 11.7391 622.727 11.7109C623.002 11.6797 623.202 11.6281 623.327 11.5563C623.455 11.4844 623.519 11.3594 623.519 11.1813V11.1438C623.519 10.6813 623.392 10.3219 623.139 10.0656C622.889 9.80938 622.509 9.68125 622 9.68125C621.472 9.68125 621.058 9.79688 620.758 10.0281C620.458 10.2594 620.247 10.5063 620.125 10.7688L619.075 10.3938C619.262 9.95625 619.512 9.61563 619.825 9.37188C620.141 9.125 620.484 8.95313 620.856 8.85625C621.231 8.75625 621.6 8.70625 621.962 8.70625C622.194 8.70625 622.459 8.73438 622.759 8.79063C623.062 8.84375 623.355 8.95469 623.636 9.12344C623.92 9.29219 624.156 9.54688 624.344 9.8875C624.531 10.2281 624.625 10.6844 624.625 11.2563V16L623.519 16V15.025H623.462C623.387 15.1813 623.262 15.3484 623.087 15.5266C622.912 15.7047 622.68 15.8563 622.389 15.9813C622.098 16.1062 621.744 16.1687 621.325 16.1687ZM621.494 15.175C621.931 15.175 622.3 15.0891 622.6 14.9172C622.903 14.7453 623.131 14.5234 623.284 14.2516C623.441 13.9797 623.519 13.6938 623.519 13.3938V12.3813C623.472 12.4375 623.369 12.4891 623.209 12.5359C623.053 12.5797 622.872 12.6188 622.666 12.6531C622.462 12.6844 622.264 12.7125 622.07 12.7375C621.88 12.7594 621.725 12.7781 621.606 12.7938C621.319 12.8313 621.05 12.8922 620.8 12.9766C620.553 13.0578 620.353 13.1813 620.2 13.3469C620.05 13.5094 619.975 13.7313 619.975 14.0125C619.975 14.3969 620.117 14.6875 620.402 14.8844C620.689 15.0781 621.053 15.175 621.494 15.175ZM631.182 13.0563V8.8L632.288 8.8V16L631.182 16V14.7813H631.107C630.938 15.1469 630.675 15.4578 630.319 15.7141C629.963 15.9672 629.513 16.0937 628.969 16.0937C628.519 16.0937 628.119 15.9953 627.769 15.7984C627.419 15.5984 627.144 15.2984 626.944 14.8984C626.744 14.4953 626.644 13.9875 626.644 13.375V8.8L627.75 8.8V13.3C627.75 13.825 627.897 14.2438 628.191 14.5563C628.488 14.8688 628.866 15.025 629.325 15.025C629.6 15.025 629.88 14.9547 630.164 14.8141C630.452 14.6734 630.693 14.4578 630.886 14.1672C631.083 13.8766 631.182 13.5063 631.182 13.0563Z" fill="black"/>
</svg>
