<svg width="658" height="22" viewBox="0 0 658 22" fill="none" xmlns="http://www.w3.org/2000/svg">
<path d="M22 0L0 0L0 22L22 22L22 0Z" fill="#757782"/>
<path d="M27.5609 16L27.5609 6.4L30.9172 6.4C31.5859 6.4 32.1375 6.51563 32.5719 6.74688C33.0062 6.975 33.3297 7.28281 33.5422 7.67031C33.7547 8.05469 33.8609 8.48125 33.8609 8.95C33.8609 9.3625 33.7875 9.70313 33.6406 9.97188C33.4969 10.2406 33.3062 10.4531 33.0687 10.6094C32.8344 10.7656 32.5797 10.8813 32.3047 10.9563V11.05C32.5984 11.0688 32.8937 11.1719 33.1906 11.3594C33.4875 11.5469 33.7359 11.8156 33.9359 12.1656C34.1359 12.5156 34.2359 12.9438 34.2359 13.45C34.2359 13.9313 34.1266 14.3641 33.9078 14.7484C33.6891 15.1328 33.3437 15.4375 32.8719 15.6625C32.4 15.8875 31.7859 16 31.0297 16L27.5609 16ZM28.7234 14.9688L31.0297 14.9688C31.7891 14.9688 32.3281 14.8219 32.6469 14.5281C32.9687 14.2313 33.1297 13.8719 33.1297 13.45C33.1297 13.125 33.0469 12.825 32.8812 12.55C32.7156 12.2719 32.4797 12.05 32.1734 11.8844C31.8672 11.7156 31.5047 11.6313 31.0859 11.6313L28.7234 11.6313L28.7234 14.9688ZM28.7234 10.6188L30.8797 10.6188C31.2297 10.6188 31.5453 10.55 31.8266 10.4125C32.1109 10.275 32.3359 10.0813 32.5016 9.83125C32.6703 9.58125 32.7547 9.2875 32.7547 8.95C32.7547 8.52813 32.6078 8.17031 32.3141 7.87656C32.0203 7.57969 31.5547 7.43125 30.9172 7.43125L28.7234 7.43125L28.7234 10.6188ZM38.1148 16.1687C37.6586 16.1687 37.2445 16.0828 36.8727 15.9109C36.5008 15.7359 36.2055 15.4844 35.9867 15.1563C35.768 14.825 35.6586 14.425 35.6586 13.9563C35.6586 13.5438 35.7398 13.2094 35.9023 12.9531C36.0648 12.6938 36.282 12.4906 36.5539 12.3438C36.8258 12.1969 37.1258 12.0875 37.4539 12.0156C37.7852 11.9406 38.118 11.8813 38.4523 11.8375C38.8898 11.7813 39.2445 11.7391 39.5164 11.7109C39.7914 11.6797 39.9914 11.6281 40.1164 11.5563C40.2445 11.4844 40.3086 11.3594 40.3086 11.1813V11.1438C40.3086 10.6813 40.182 10.3219 39.9289 10.0656C39.6789 9.80938 39.2992 9.68125 38.7898 9.68125C38.2617 9.68125 37.8477 9.79688 37.5477 10.0281C37.2477 10.2594 37.0367 10.5063 36.9148 10.7688L35.8648 10.3938C36.0523 9.95625 36.3023 9.61563 36.6148 9.37188C36.9305 9.125 37.2742 8.95313 37.6461 8.85625C38.0211 8.75625 38.3898 8.70625 38.7523 8.70625C38.9836 8.70625 39.2492 8.73438 39.5492 8.79063C39.8523 8.84375 40.1445 8.95469 40.4258 9.12344C40.7102 9.29219 40.9461 9.54688 41.1336 9.8875C41.3211 10.2281 41.4148 10.6844 41.4148 11.2563L41.4148 16L40.3086 16V15.025H40.2523C40.1773 15.1813 40.0523 15.3484 39.8773 15.5266C39.7023 15.7047 39.4695 15.8563 39.1789 15.9813C38.8883 16.1062 38.5336 16.1687 38.1148 16.1687ZM38.2836 15.175C38.7211 15.175 39.0898 15.0891 39.3898 14.9172C39.693 14.7453 39.9211 14.5234 40.0742 14.2516C40.2305 13.9797 40.3086 13.6938 40.3086 13.3938V12.3813C40.2617 12.4375 40.1586 12.4891 39.9992 12.5359C39.843 12.5797 39.6617 12.6188 39.4555 12.6531C39.2523 12.6844 39.0539 12.7125 38.8602 12.7375C38.6695 12.7594 38.5148 12.7781 38.3961 12.7938C38.1086 12.8313 37.8398 12.8922 37.5898 12.9766C37.343 13.0578 37.143 13.1813 36.9898 13.3469C36.8398 13.5094 36.7648 13.7313 36.7648 14.0125C36.7648 14.3969 36.907 14.6875 37.1914 14.8844C37.4789 15.0781 37.843 15.175 38.2836 15.175ZM46.5652 8.8V9.7375L42.834 9.7375V8.8L46.5652 8.8ZM43.9215 7.075L45.0277 7.075L45.0277 13.9375C45.0277 14.25 45.073 14.4844 45.1637 14.6406C45.2574 14.7938 45.3762 14.8969 45.5199 14.95C45.6668 15 45.8215 15.025 45.984 15.025C46.1059 15.025 46.2059 15.0188 46.284 15.0063C46.3621 14.9906 46.4246 14.9781 46.4715 14.9688L46.6965 15.9625C46.6215 15.9906 46.5168 16.0187 46.3824 16.0469C46.248 16.0781 46.0777 16.0937 45.8715 16.0937C45.559 16.0937 45.2527 16.0266 44.9527 15.8922C44.6559 15.7578 44.409 15.5531 44.2121 15.2781C44.0184 15.0031 43.9215 14.6563 43.9215 14.2375L43.9215 7.075ZM48.2293 16L48.2293 8.8L49.3355 8.8L49.3355 16L48.2293 16ZM48.7918 7.6C48.5762 7.6 48.3902 7.52656 48.234 7.37969C48.0809 7.23281 48.0043 7.05625 48.0043 6.85C48.0043 6.64375 48.0809 6.46719 48.234 6.32031C48.3902 6.17344 48.5762 6.1 48.7918 6.1C49.0074 6.1 49.1918 6.17344 49.3449 6.32031C49.5012 6.46719 49.5793 6.64375 49.5793 6.85C49.5793 7.05625 49.5012 7.23281 49.3449 7.37969C49.1918 7.52656 49.0074 7.6 48.7918 7.6ZM56.4617 10.4125L55.468 10.6938C55.4055 10.5281 55.3133 10.3672 55.1914 10.2109C55.0727 10.0516 54.9102 9.92031 54.7039 9.81719C54.4977 9.71406 54.2336 9.6625 53.9117 9.6625C53.4711 9.6625 53.1039 9.76406 52.8102 9.96719C52.5195 10.1672 52.3742 10.4219 52.3742 10.7313C52.3742 11.0063 52.4742 11.2234 52.6742 11.3828C52.8742 11.5422 53.1867 11.675 53.6117 11.7813L54.6805 12.0438C55.3242 12.2 55.8039 12.4391 56.1195 12.7609C56.4352 13.0797 56.593 13.4906 56.593 13.9938C56.593 14.4063 56.4742 14.775 56.2367 15.1C56.0023 15.425 55.6742 15.6813 55.2523 15.8688C54.8305 16.0562 54.3398 16.15 53.7805 16.15C53.0461 16.15 52.4383 15.9906 51.957 15.6719C51.4758 15.3531 51.1711 14.8875 51.043 14.275L52.093 14.0125C52.193 14.4 52.382 14.6906 52.6602 14.8844C52.9414 15.0781 53.3086 15.175 53.7617 15.175C54.2773 15.175 54.6867 15.0656 54.9898 14.8469C55.2961 14.625 55.4492 14.3594 55.4492 14.05C55.4492 13.8 55.3617 13.5906 55.1867 13.4219C55.0117 13.25 54.743 13.1219 54.3805 13.0375L53.1805 12.7563C52.5211 12.6 52.0367 12.3578 51.7273 12.0297C51.4211 11.6984 51.268 11.2844 51.268 10.7875C51.268 10.3813 51.382 10.0219 51.6102 9.70938C51.8414 9.39688 52.1555 9.15156 52.5523 8.97344C52.9523 8.79531 53.4055 8.70625 53.9117 8.70625C54.6242 8.70625 55.1836 8.8625 55.5898 9.175C55.9992 9.4875 56.2898 9.9 56.4617 10.4125Z" fill="black"/>
<path d="M109.398 0L87.3984 0L87.3984 22L109.398 22L109.398 0Z" fill="#DB727E"/>
<path d="M120.209 8.8C120.153 8.325 119.925 7.95625 119.525 7.69375C119.125 7.43125 118.634 7.3 118.053 7.3C117.628 7.3 117.256 7.36875 116.937 7.50625C116.622 7.64375 116.375 7.83281 116.197 8.07344C116.022 8.31406 115.934 8.5875 115.934 8.89375C115.934 9.15 115.995 9.37031 116.117 9.55469C116.242 9.73594 116.402 9.8875 116.595 10.0094C116.789 10.1281 116.992 10.2266 117.205 10.3047C117.417 10.3797 117.612 10.4406 117.791 10.4875L118.766 10.75C119.016 10.8156 119.294 10.9063 119.6 11.0219C119.909 11.1375 120.205 11.2953 120.486 11.4953C120.77 11.6922 121.005 11.9453 121.189 12.2547C121.373 12.5641 121.466 12.9438 121.466 13.3938C121.466 13.9125 121.33 14.3813 121.058 14.8C120.789 15.2188 120.395 15.5516 119.877 15.7984C119.361 16.0453 118.734 16.1687 117.997 16.1687C117.309 16.1687 116.714 16.0578 116.211 15.8359C115.711 15.6141 115.317 15.3047 115.03 14.9078C114.745 14.5109 114.584 14.05 114.547 13.525L115.747 13.525C115.778 13.8875 115.9 14.1875 116.112 14.425C116.328 14.6594 116.6 14.8344 116.928 14.95C117.259 15.0625 117.616 15.1188 117.997 15.1188C118.441 15.1188 118.839 15.0469 119.192 14.9031C119.545 14.7563 119.825 14.5531 120.031 14.2938C120.237 14.0313 120.341 13.725 120.341 13.375C120.341 13.0563 120.252 12.7969 120.073 12.5969C119.895 12.3969 119.661 12.2344 119.37 12.1094C119.08 11.9844 118.766 11.875 118.428 11.7813L117.247 11.4438C116.497 11.2281 115.903 10.9203 115.466 10.5203C115.028 10.1203 114.809 9.59688 114.809 8.95C114.809 8.4125 114.955 7.94375 115.245 7.54375C115.539 7.14063 115.933 6.82813 116.427 6.60625C116.923 6.38125 117.478 6.26875 118.091 6.26875C118.709 6.26875 119.259 6.37969 119.741 6.60156C120.222 6.82031 120.603 7.12031 120.884 7.50156C121.169 7.88281 121.319 8.31563 121.334 8.8L120.209 8.8ZM127.764 13.0563V8.8H128.871L128.871 16L127.764 16L127.764 14.7813H127.689C127.521 15.1469 127.258 15.4578 126.902 15.7141C126.546 15.9672 126.096 16.0937 125.552 16.0937C125.102 16.0937 124.702 15.9953 124.352 15.7984C124.002 15.5984 123.727 15.2984 123.527 14.8984C123.327 14.4953 123.227 13.9875 123.227 13.375V8.8L124.333 8.8V13.3C124.333 13.825 124.48 14.2438 124.774 14.5563C125.071 14.8688 125.449 15.025 125.908 15.025C126.183 15.025 126.463 14.9547 126.747 14.8141C127.035 14.6734 127.275 14.4578 127.469 14.1672C127.666 13.8766 127.764 13.5063 127.764 13.0563ZM130.897 16L130.897 8.8L131.966 8.8V9.8875H132.041C132.172 9.53125 132.409 9.24219 132.753 9.02031C133.097 8.79844 133.484 8.6875 133.916 8.6875C133.997 8.6875 134.098 8.68906 134.22 8.69219C134.342 8.69531 134.434 8.7 134.497 8.70625V9.83125C134.459 9.82188 134.373 9.80781 134.239 9.78906C134.108 9.76719 133.969 9.75625 133.822 9.75625C133.472 9.75625 133.159 9.82969 132.884 9.97656C132.612 10.1203 132.397 10.3203 132.237 10.5766C132.081 10.8297 132.003 11.1188 132.003 11.4438L132.003 16L130.897 16ZM139.466 8.8V9.7375L135.584 9.7375V8.8L139.466 8.8ZM136.747 16L136.747 7.80625C136.747 7.39375 136.844 7.05 137.037 6.775C137.231 6.5 137.483 6.29375 137.792 6.15625C138.102 6.01875 138.428 5.95 138.772 5.95C139.044 5.95 139.266 5.97188 139.437 6.01563C139.609 6.05938 139.737 6.1 139.822 6.1375L139.503 7.09375C139.447 7.075 139.369 7.05156 139.269 7.02344C139.172 6.99531 139.044 6.98125 138.884 6.98125C138.519 6.98125 138.255 7.07344 138.092 7.25781C137.933 7.44219 137.853 7.7125 137.853 8.06875L137.853 16L136.747 16ZM142.929 16.1687C142.472 16.1687 142.058 16.0828 141.686 15.9109C141.314 15.7359 141.019 15.4844 140.8 15.1563C140.582 14.825 140.472 14.425 140.472 13.9563C140.472 13.5438 140.554 13.2094 140.716 12.9531C140.879 12.6938 141.096 12.4906 141.368 12.3438C141.639 12.1969 141.939 12.0875 142.268 12.0156C142.599 11.9406 142.932 11.8813 143.266 11.8375C143.704 11.7813 144.058 11.7391 144.33 11.7109C144.605 11.6797 144.805 11.6281 144.93 11.5563C145.058 11.4844 145.122 11.3594 145.122 11.1813V11.1438C145.122 10.6813 144.996 10.3219 144.743 10.0656C144.493 9.80938 144.113 9.68125 143.604 9.68125C143.075 9.68125 142.661 9.79688 142.361 10.0281C142.061 10.2594 141.85 10.5063 141.729 10.7688L140.679 10.3938C140.866 9.95625 141.116 9.61563 141.429 9.37188C141.744 9.125 142.088 8.95313 142.46 8.85625C142.835 8.75625 143.204 8.70625 143.566 8.70625C143.797 8.70625 144.063 8.73438 144.363 8.79063C144.666 8.84375 144.958 8.95469 145.239 9.12344C145.524 9.29219 145.76 9.54688 145.947 9.8875C146.135 10.2281 146.229 10.6844 146.229 11.2563L146.229 16L145.122 16V15.025H145.066C144.991 15.1813 144.866 15.3484 144.691 15.5266C144.516 15.7047 144.283 15.8563 143.993 15.9813C143.702 16.1062 143.347 16.1687 142.929 16.1687ZM143.097 15.175C143.535 15.175 143.904 15.0891 144.204 14.9172C144.507 14.7453 144.735 14.5234 144.888 14.2516C145.044 13.9797 145.122 13.6938 145.122 13.3938V12.3813C145.075 12.4375 144.972 12.4891 144.813 12.5359C144.657 12.5797 144.475 12.6188 144.269 12.6531C144.066 12.6844 143.868 12.7125 143.674 12.7375C143.483 12.7594 143.329 12.7781 143.21 12.7938C142.922 12.8313 142.654 12.8922 142.404 12.9766C142.157 13.0578 141.957 13.1813 141.804 13.3469C141.654 13.5094 141.579 13.7313 141.579 14.0125C141.579 14.3969 141.721 14.6875 142.005 14.8844C142.293 15.0781 142.657 15.175 143.097 15.175ZM151.173 16.15C150.498 16.15 149.916 15.9906 149.429 15.6719C148.941 15.3531 148.566 14.9141 148.304 14.3547C148.041 13.7953 147.91 13.1563 147.91 12.4375C147.91 11.7063 148.045 11.0609 148.313 10.5016C148.585 9.93906 148.963 9.5 149.448 9.18438C149.935 8.86563 150.504 8.70625 151.154 8.70625C151.66 8.70625 152.116 8.8 152.523 8.9875C152.929 9.175 153.262 9.4375 153.521 9.775C153.78 10.1125 153.941 10.5063 154.004 10.9563L152.898 10.9563C152.813 10.6281 152.626 10.3375 152.335 10.0844C152.048 9.82813 151.66 9.7 151.173 9.7C150.741 9.7 150.363 9.8125 150.038 10.0375C149.716 10.2594 149.465 10.5734 149.284 10.9797C149.105 11.3828 149.016 11.8563 149.016 12.4C149.016 12.9563 149.104 13.4406 149.279 13.8531C149.457 14.2656 149.707 14.5859 150.029 14.8141C150.354 15.0422 150.735 15.1563 151.173 15.1563C151.46 15.1563 151.721 15.1063 151.955 15.0063C152.19 14.9063 152.388 14.7625 152.551 14.575C152.713 14.3875 152.829 14.1625 152.898 13.9L154.004 13.9C153.941 14.325 153.787 14.7078 153.54 15.0484C153.296 15.3859 152.973 15.6547 152.57 15.8547C152.17 16.0516 151.704 16.15 151.173 16.15ZM158.64 16.15C157.946 16.15 157.348 15.9969 156.845 15.6906C156.345 15.3813 155.959 14.95 155.687 14.3969C155.418 13.8406 155.284 13.1938 155.284 12.4563C155.284 11.7188 155.418 11.0688 155.687 10.5063C155.959 9.94063 156.337 9.5 156.821 9.18438C157.309 8.86563 157.877 8.70625 158.527 8.70625C158.902 8.70625 159.273 8.76875 159.638 8.89375C160.004 9.01875 160.337 9.22188 160.637 9.50313C160.937 9.78125 161.176 10.15 161.354 10.6094C161.532 11.0688 161.621 11.6344 161.621 12.3063V12.775L156.071 12.775V11.8188L160.496 11.8188C160.496 11.4125 160.415 11.05 160.252 10.7313C160.093 10.4125 159.865 10.1609 159.568 9.97656C159.274 9.79219 158.927 9.7 158.527 9.7C158.087 9.7 157.705 9.80938 157.384 10.0281C157.065 10.2438 156.82 10.525 156.648 10.8719C156.476 11.2188 156.39 11.5906 156.39 11.9875V12.625C156.39 13.1688 156.484 13.6297 156.671 14.0078C156.862 14.3828 157.126 14.6688 157.463 14.8656C157.801 15.0594 158.193 15.1563 158.64 15.1563C158.93 15.1563 159.193 15.1156 159.427 15.0344C159.665 14.95 159.87 14.825 160.041 14.6594C160.213 14.4906 160.346 14.2813 160.44 14.0313L161.509 14.3313C161.396 14.6938 161.207 15.0125 160.941 15.2875C160.676 15.5594 160.348 15.7719 159.957 15.925C159.566 16.075 159.127 16.15 158.64 16.15ZM168.329 6.4L168.329 16L167.166 16L167.166 6.4L168.329 6.4ZM170.51 16L170.51 8.8L171.579 8.8V9.925H171.672C171.822 9.54063 172.064 9.24219 172.399 9.02969C172.733 8.81406 173.135 8.70625 173.604 8.70625C174.079 8.70625 174.474 8.81406 174.789 9.02969C175.108 9.24219 175.357 9.54063 175.535 9.925H175.61C175.794 9.55313 176.071 9.25781 176.439 9.03906C176.808 8.81719 177.25 8.70625 177.766 8.70625C178.41 8.70625 178.936 8.90781 179.346 9.31094C179.755 9.71094 179.96 10.3344 179.96 11.1813L179.96 16L178.854 16L178.854 11.1813C178.854 10.65 178.708 10.2703 178.418 10.0422C178.127 9.81406 177.785 9.7 177.391 9.7C176.885 9.7 176.493 9.85313 176.214 10.1594C175.936 10.4625 175.797 10.8469 175.797 11.3125L175.797 16L174.672 16L174.672 11.0688C174.672 10.6594 174.539 10.3297 174.274 10.0797C174.008 9.82656 173.666 9.7 173.247 9.7C172.96 9.7 172.691 9.77656 172.441 9.92969C172.194 10.0828 171.994 10.2953 171.841 10.5672C171.691 10.8359 171.616 11.1469 171.616 11.5L171.616 16L170.51 16ZM181.982 18.7L181.982 8.8L183.051 8.8V9.94375H183.182C183.264 9.81875 183.376 9.65938 183.52 9.46563C183.667 9.26875 183.876 9.09375 184.148 8.94063C184.423 8.78438 184.795 8.70625 185.264 8.70625C185.87 8.70625 186.404 8.85781 186.867 9.16094C187.329 9.46406 187.69 9.89375 187.95 10.45C188.209 11.0063 188.339 11.6625 188.339 12.4188C188.339 13.1813 188.209 13.8422 187.95 14.4016C187.69 14.9578 187.331 15.3891 186.871 15.6953C186.412 15.9984 185.882 16.15 185.282 16.15C184.82 16.15 184.45 16.0734 184.171 15.9203C183.893 15.7641 183.679 15.5875 183.529 15.3906C183.379 15.1906 183.264 15.025 183.182 14.8938H183.089L183.089 18.7L181.982 18.7ZM183.07 12.4C183.07 12.9438 183.15 13.4234 183.309 13.8391C183.468 14.2516 183.701 14.575 184.007 14.8094C184.314 15.0406 184.689 15.1563 185.132 15.1563C185.595 15.1563 185.981 15.0344 186.29 14.7906C186.603 14.5438 186.837 14.2125 186.993 13.7969C187.153 13.3781 187.232 12.9125 187.232 12.4C187.232 11.8938 187.154 11.4375 186.998 11.0313C186.845 10.6219 186.612 10.2984 186.3 10.0609C185.99 9.82031 185.601 9.7 185.132 9.7C184.682 9.7 184.304 9.81406 183.998 10.0422C183.692 10.2672 183.461 10.5828 183.304 10.9891C183.148 11.3922 183.07 11.8625 183.07 12.4ZM193.045 16.15C192.351 16.15 191.753 15.9969 191.25 15.6906C190.75 15.3813 190.364 14.95 190.092 14.3969C189.823 13.8406 189.689 13.1938 189.689 12.4563C189.689 11.7188 189.823 11.0688 190.092 10.5063C190.364 9.94063 190.742 9.5 191.226 9.18438C191.714 8.86563 192.282 8.70625 192.932 8.70625C193.307 8.70625 193.678 8.76875 194.043 8.89375C194.409 9.01875 194.742 9.22188 195.042 9.50313C195.342 9.78125 195.581 10.15 195.759 10.6094C195.937 11.0688 196.026 11.6344 196.026 12.3063V12.775L190.476 12.775V11.8188L194.901 11.8188C194.901 11.4125 194.82 11.05 194.657 10.7313C194.498 10.4125 194.27 10.1609 193.973 9.97656C193.679 9.79219 193.332 9.7 192.932 9.7C192.492 9.7 192.111 9.80938 191.789 10.0281C191.47 10.2438 191.225 10.525 191.053 10.8719C190.881 11.2188 190.795 11.5906 190.795 11.9875V12.625C190.795 13.1688 190.889 13.6297 191.076 14.0078C191.267 14.3828 191.531 14.6688 191.868 14.8656C192.206 15.0594 192.598 15.1563 193.045 15.1563C193.336 15.1563 193.598 15.1156 193.832 15.0344C194.07 14.95 194.275 14.825 194.446 14.6594C194.618 14.4906 194.751 14.2813 194.845 14.0313L195.914 14.3313C195.801 14.6938 195.612 15.0125 195.346 15.2875C195.081 15.5594 194.753 15.7719 194.362 15.925C193.971 16.075 193.532 16.15 193.045 16.15ZM197.709 16L197.709 8.8L198.778 8.8V9.8875H198.853C198.984 9.53125 199.221 9.24219 199.565 9.02031C199.909 8.79844 200.296 8.6875 200.728 8.6875C200.809 8.6875 200.911 8.68906 201.032 8.69219C201.154 8.69531 201.246 8.7 201.309 8.70625V9.83125C201.271 9.82188 201.186 9.80781 201.051 9.78906C200.92 9.76719 200.781 9.75625 200.634 9.75625C200.284 9.75625 199.971 9.82969 199.696 9.97656C199.425 10.1203 199.209 10.3203 199.05 10.5766C198.893 10.8297 198.815 11.1188 198.815 11.4438L198.815 16L197.709 16ZM202.62 16L202.62 8.8L203.689 8.8V9.925H203.783C203.933 9.54063 204.175 9.24219 204.509 9.02969C204.844 8.81406 205.245 8.70625 205.714 8.70625C206.189 8.70625 206.584 8.81406 206.9 9.02969C207.219 9.24219 207.467 9.54063 207.645 9.925H207.72C207.905 9.55313 208.181 9.25781 208.55 9.03906C208.919 8.81719 209.361 8.70625 209.877 8.70625C210.52 8.70625 211.047 8.90781 211.456 9.31094C211.866 9.71094 212.07 10.3344 212.07 11.1813L212.07 16L210.964 16L210.964 11.1813C210.964 10.65 210.819 10.2703 210.528 10.0422C210.237 9.81406 209.895 9.7 209.502 9.7C208.995 9.7 208.603 9.85313 208.325 10.1594C208.047 10.4625 207.908 10.8469 207.908 11.3125L207.908 16L206.783 16L206.783 11.0688C206.783 10.6594 206.65 10.3297 206.384 10.0797C206.119 9.82656 205.777 9.7 205.358 9.7C205.07 9.7 204.802 9.77656 204.552 9.92969C204.305 10.0828 204.105 10.2953 203.952 10.5672C203.802 10.8359 203.727 11.1469 203.727 11.5L203.727 16L202.62 16ZM217.112 16.15C216.418 16.15 215.82 15.9969 215.316 15.6906C214.816 15.3813 214.43 14.95 214.159 14.3969C213.89 13.8406 213.755 13.1938 213.755 12.4563C213.755 11.7188 213.89 11.0688 214.159 10.5063C214.43 9.94063 214.809 9.5 215.293 9.18438C215.78 8.86563 216.349 8.70625 216.999 8.70625C217.374 8.70625 217.745 8.76875 218.11 8.89375C218.476 9.01875 218.809 9.22188 219.109 9.50313C219.409 9.78125 219.648 10.15 219.826 10.6094C220.004 11.0688 220.093 11.6344 220.093 12.3063V12.775L214.543 12.775V11.8188L218.968 11.8188C218.968 11.4125 218.887 11.05 218.724 10.7313C218.565 10.4125 218.337 10.1609 218.04 9.97656C217.746 9.79219 217.399 9.7 216.999 9.7C216.559 9.7 216.177 9.80938 215.855 10.0281C215.537 10.2438 215.291 10.525 215.12 10.8719C214.948 11.2188 214.862 11.5906 214.862 11.9875V12.625C214.862 13.1688 214.955 13.6297 215.143 14.0078C215.334 14.3828 215.598 14.6688 215.935 14.8656C216.273 15.0594 216.665 15.1563 217.112 15.1563C217.402 15.1563 217.665 15.1156 217.899 15.0344C218.137 14.95 218.341 14.825 218.513 14.6594C218.685 14.4906 218.818 14.2813 218.912 14.0313L219.98 14.3313C219.868 14.6938 219.679 15.0125 219.413 15.2875C219.148 15.5594 218.82 15.7719 218.429 15.925C218.038 16.075 217.599 16.15 217.112 16.15ZM216.437 7.825L217.58 5.65L218.874 5.65L217.412 7.825L216.437 7.825ZM223.895 16.1687C223.438 16.1687 223.024 16.0828 222.652 15.9109C222.28 15.7359 221.985 15.4844 221.766 15.1563C221.548 14.825 221.438 14.425 221.438 13.9563C221.438 13.5438 221.52 13.2094 221.682 12.9531C221.845 12.6938 222.062 12.4906 222.334 12.3438C222.605 12.1969 222.905 12.0875 223.234 12.0156C223.565 11.9406 223.898 11.8813 224.232 11.8375C224.67 11.7813 225.024 11.7391 225.296 11.7109C225.571 11.6797 225.771 11.6281 225.896 11.5563C226.024 11.4844 226.088 11.3594 226.088 11.1813V11.1438C226.088 10.6813 225.962 10.3219 225.709 10.0656C225.459 9.80938 225.079 9.68125 224.57 9.68125C224.041 9.68125 223.627 9.79688 223.327 10.0281C223.027 10.2594 222.816 10.5063 222.695 10.7688L221.645 10.3938C221.832 9.95625 222.082 9.61563 222.395 9.37188C222.71 9.125 223.054 8.95313 223.426 8.85625C223.801 8.75625 224.17 8.70625 224.532 8.70625C224.763 8.70625 225.029 8.73438 225.329 8.79063C225.632 8.84375 225.924 8.95469 226.205 9.12344C226.49 9.29219 226.726 9.54688 226.913 9.8875C227.101 10.2281 227.195 10.6844 227.195 11.2563L227.195 16L226.088 16L226.088 15.025H226.032C225.957 15.1813 225.832 15.3484 225.657 15.5266C225.482 15.7047 225.249 15.8563 224.959 15.9813C224.668 16.1062 224.313 16.1687 223.895 16.1687ZM224.063 15.175C224.501 15.175 224.87 15.0891 225.17 14.9172C225.473 14.7453 225.701 14.5234 225.854 14.2516C226.01 13.9797 226.088 13.6938 226.088 13.3938V12.3813C226.041 12.4375 225.938 12.4891 225.779 12.5359C225.623 12.5797 225.441 12.6188 225.235 12.6531C225.032 12.6844 224.834 12.7125 224.64 12.7375C224.449 12.7594 224.295 12.7781 224.176 12.7938C223.888 12.8313 223.62 12.8922 223.37 12.9766C223.123 13.0578 222.923 13.1813 222.77 13.3469C222.62 13.5094 222.545 13.7313 222.545 14.0125C222.545 14.3969 222.687 14.6875 222.971 14.8844C223.259 15.0781 223.623 15.175 224.063 15.175ZM229.364 16L229.364 6.4L230.47 6.4V9.94375H230.564C230.645 9.81875 230.757 9.65938 230.901 9.46563C231.048 9.26875 231.257 9.09375 231.529 8.94063C231.804 8.78438 232.176 8.70625 232.645 8.70625C233.251 8.70625 233.786 8.85781 234.248 9.16094C234.711 9.46406 235.071 9.89375 235.331 10.45C235.59 11.0063 235.72 11.6625 235.72 12.4188C235.72 13.1813 235.59 13.8422 235.331 14.4016C235.071 14.9578 234.712 15.3891 234.253 15.6953C233.793 15.9984 233.264 16.15 232.664 16.15C232.201 16.15 231.831 16.0734 231.553 15.9203C231.275 15.7641 231.061 15.5875 230.911 15.3906C230.761 15.1906 230.645 15.025 230.564 14.8938H230.432L230.432 16L229.364 16ZM230.451 12.4C230.451 12.9438 230.531 13.4234 230.69 13.8391C230.85 14.2516 231.082 14.575 231.389 14.8094C231.695 15.0406 232.07 15.1563 232.514 15.1563C232.976 15.1563 233.362 15.0344 233.671 14.7906C233.984 14.5438 234.218 14.2125 234.375 13.7969C234.534 13.3781 234.614 12.9125 234.614 12.4C234.614 11.8938 234.536 11.4375 234.379 11.0313C234.226 10.6219 233.993 10.2984 233.681 10.0609C233.371 9.82031 232.982 9.7 232.514 9.7C232.064 9.7 231.686 9.81406 231.379 10.0422C231.073 10.2672 230.842 10.5828 230.686 10.9891C230.529 11.3922 230.451 11.8625 230.451 12.4ZM238.518 6.4L238.518 16L237.412 16L237.412 6.4L238.518 6.4ZM243.563 16.15C242.87 16.15 242.271 15.9969 241.768 15.6906C241.268 15.3813 240.882 14.95 240.61 14.3969C240.341 13.8406 240.207 13.1938 240.207 12.4563C240.207 11.7188 240.341 11.0688 240.61 10.5063C240.882 9.94063 241.26 9.5 241.745 9.18438C242.232 8.86563 242.801 8.70625 243.451 8.70625C243.826 8.70625 244.196 8.76875 244.562 8.89375C244.927 9.01875 245.26 9.22188 245.56 9.50313C245.86 9.78125 246.099 10.15 246.277 10.6094C246.455 11.0688 246.545 11.6344 246.545 12.3063V12.775L240.995 12.775V11.8188L245.42 11.8188C245.42 11.4125 245.338 11.05 245.176 10.7313C245.016 10.4125 244.788 10.1609 244.491 9.97656C244.198 9.79219 243.851 9.7 243.451 9.7C243.01 9.7 242.629 9.80938 242.307 10.0281C241.988 10.2438 241.743 10.525 241.571 10.8719C241.399 11.2188 241.313 11.5906 241.313 11.9875V12.625C241.313 13.1688 241.407 13.6297 241.595 14.0078C241.785 14.3828 242.049 14.6688 242.387 14.8656C242.724 15.0594 243.116 15.1563 243.563 15.1563C243.854 15.1563 244.116 15.1156 244.351 15.0344C244.588 14.95 244.793 14.825 244.965 14.6594C245.137 14.4906 245.27 14.2813 245.363 14.0313L246.432 14.3313C246.32 14.6938 246.13 15.0125 245.865 15.2875C245.599 15.5594 245.271 15.7719 244.88 15.925C244.49 16.075 244.051 16.15 243.563 16.15Z" fill="black"/>
<path d="M299.797 0L277.797 0L277.797 22L299.797 22L299.797 0Z" fill="#DBB846"/>
<path d="M305.759 6.4L308.609 14.4813H308.722L311.572 6.4L312.791 6.4L309.266 16L308.066 16L304.541 6.4L305.759 6.4ZM316.484 16.15C315.791 16.15 315.192 15.9969 314.689 15.6906C314.189 15.3813 313.803 14.95 313.531 14.3969C313.262 13.8406 313.128 13.1938 313.128 12.4563C313.128 11.7188 313.262 11.0688 313.531 10.5063C313.803 9.94063 314.181 9.5 314.666 9.18438C315.153 8.86563 315.722 8.70625 316.372 8.70625C316.747 8.70625 317.117 8.76875 317.483 8.89375C317.848 9.01875 318.181 9.22188 318.481 9.50313C318.781 9.78125 319.02 10.15 319.198 10.6094C319.377 11.0688 319.466 11.6344 319.466 12.3063V12.775L313.916 12.775V11.8188L318.341 11.8188C318.341 11.4125 318.259 11.05 318.097 10.7313C317.937 10.4125 317.709 10.1609 317.412 9.97656C317.119 9.79219 316.772 9.7 316.372 9.7C315.931 9.7 315.55 9.80938 315.228 10.0281C314.909 10.2438 314.664 10.525 314.492 10.8719C314.32 11.2188 314.234 11.5906 314.234 11.9875V12.625C314.234 13.1688 314.328 13.6297 314.516 14.0078C314.706 14.3828 314.97 14.6688 315.308 14.8656C315.645 15.0594 316.037 15.1563 316.484 15.1563C316.775 15.1563 317.037 15.1156 317.272 15.0344C317.509 14.95 317.714 14.825 317.886 14.6594C318.058 14.4906 318.191 14.2813 318.284 14.0313L319.353 14.3313C319.241 14.6938 319.052 15.0125 318.786 15.2875C318.52 15.5594 318.192 15.7719 317.802 15.925C317.411 16.075 316.972 16.15 316.484 16.15ZM324.055 18.85C323.52 18.85 323.061 18.7812 322.677 18.6437C322.292 18.5094 321.972 18.3312 321.716 18.1094C321.462 17.8906 321.261 17.6562 321.111 17.4062L321.992 16.7875C322.092 16.9187 322.219 17.0687 322.372 17.2375C322.525 17.4094 322.734 17.5578 323 17.6828C323.269 17.8109 323.62 17.875 324.055 17.875C324.636 17.875 325.116 17.7344 325.494 17.4531C325.872 17.1719 326.061 16.7312 326.061 16.1312V14.6688H325.967C325.886 14.8 325.77 14.9625 325.62 15.1563C325.473 15.3469 325.261 15.5172 324.983 15.6672C324.708 15.8141 324.336 15.8875 323.867 15.8875C323.286 15.8875 322.764 15.75 322.302 15.475C321.842 15.2 321.478 14.8 321.209 14.275C320.944 13.75 320.811 13.1125 320.811 12.3625C320.811 11.625 320.941 10.9828 321.2 10.4359C321.459 9.88594 321.82 9.46094 322.283 9.16094C322.745 8.85781 323.28 8.70625 323.886 8.70625C324.355 8.70625 324.727 8.78438 325.002 8.94063C325.28 9.09375 325.492 9.26875 325.639 9.46563C325.789 9.65938 325.905 9.81875 325.986 9.94375H326.098V8.8L327.167 8.8V16.2062C327.167 16.825 327.027 17.3281 326.745 17.7156C326.467 18.1062 326.092 18.3922 325.62 18.5734C325.152 18.7578 324.63 18.85 324.055 18.85ZM324.017 14.8938C324.461 14.8938 324.836 14.7922 325.142 14.5891C325.448 14.3859 325.681 14.0938 325.841 13.7125C326 13.3313 326.08 12.875 326.08 12.3438C326.08 11.825 326.002 11.3672 325.845 10.9703C325.689 10.5734 325.458 10.2625 325.152 10.0375C324.845 9.8125 324.467 9.7 324.017 9.7C323.548 9.7 323.158 9.81875 322.845 10.0563C322.536 10.2938 322.303 10.6125 322.147 11.0125C321.994 11.4125 321.917 11.8563 321.917 12.3438C321.917 12.8438 321.995 13.2859 322.152 13.6703C322.311 14.0516 322.545 14.3516 322.855 14.5703C323.167 14.7859 323.555 14.8938 324.017 14.8938ZM332.211 16.15C331.517 16.15 330.919 15.9969 330.416 15.6906C329.916 15.3813 329.53 14.95 329.258 14.3969C328.989 13.8406 328.855 13.1938 328.855 12.4563C328.855 11.7188 328.989 11.0688 329.258 10.5063C329.53 9.94063 329.908 9.5 330.392 9.18438C330.88 8.86563 331.448 8.70625 332.098 8.70625C332.473 8.70625 332.844 8.76875 333.209 8.89375C333.575 9.01875 333.908 9.22188 334.208 9.50313C334.508 9.78125 334.747 10.15 334.925 10.6094C335.103 11.0688 335.192 11.6344 335.192 12.3063V12.775L329.642 12.775V11.8188L334.067 11.8188C334.067 11.4125 333.986 11.05 333.823 10.7313C333.664 10.4125 333.436 10.1609 333.139 9.97656C332.845 9.79219 332.498 9.7 332.098 9.7C331.658 9.7 331.277 9.80938 330.955 10.0281C330.636 10.2438 330.391 10.525 330.219 10.8719C330.047 11.2188 329.961 11.5906 329.961 11.9875V12.625C329.961 13.1688 330.055 13.6297 330.242 14.0078C330.433 14.3828 330.697 14.6688 331.034 14.8656C331.372 15.0594 331.764 15.1563 332.211 15.1563C332.502 15.1563 332.764 15.1156 332.998 15.0344C333.236 14.95 333.441 14.825 333.612 14.6594C333.784 14.4906 333.917 14.2813 334.011 14.0313L335.08 14.3313C334.967 14.6938 334.778 15.0125 334.512 15.2875C334.247 15.5594 333.919 15.7719 333.528 15.925C333.137 16.075 332.698 16.15 332.211 16.15ZM340.006 8.8V9.7375L336.275 9.7375V8.8L340.006 8.8ZM337.362 7.075L338.469 7.075V13.9375C338.469 14.25 338.514 14.4844 338.605 14.6406C338.698 14.7938 338.817 14.8969 338.961 14.95C339.108 15 339.262 15.025 339.425 15.025C339.547 15.025 339.647 15.0188 339.725 15.0063C339.803 14.9906 339.866 14.9781 339.912 14.9688L340.137 15.9625C340.062 15.9906 339.958 16.0187 339.823 16.0469C339.689 16.0781 339.519 16.0937 339.312 16.0937C339 16.0937 338.694 16.0266 338.394 15.8922C338.097 15.7578 337.85 15.5531 337.653 15.2781C337.459 15.0031 337.362 14.6563 337.362 14.2375V7.075ZM343.789 16.1687C343.333 16.1687 342.919 16.0828 342.547 15.9109C342.175 15.7359 341.88 15.4844 341.661 15.1563C341.442 14.825 341.333 14.425 341.333 13.9563C341.333 13.5438 341.414 13.2094 341.577 12.9531C341.739 12.6938 341.956 12.4906 342.228 12.3438C342.5 12.1969 342.8 12.0875 343.128 12.0156C343.459 11.9406 343.792 11.8813 344.127 11.8375C344.564 11.7813 344.919 11.7391 345.191 11.7109C345.466 11.6797 345.666 11.6281 345.791 11.5563C345.919 11.4844 345.983 11.3594 345.983 11.1813V11.1438C345.983 10.6813 345.856 10.3219 345.603 10.0656C345.353 9.80938 344.973 9.68125 344.464 9.68125C343.936 9.68125 343.522 9.79688 343.222 10.0281C342.922 10.2594 342.711 10.5063 342.589 10.7688L341.539 10.3938C341.727 9.95625 341.977 9.61563 342.289 9.37188C342.605 9.125 342.948 8.95313 343.32 8.85625C343.695 8.75625 344.064 8.70625 344.427 8.70625C344.658 8.70625 344.923 8.73438 345.223 8.79063C345.527 8.84375 345.819 8.95469 346.1 9.12344C346.384 9.29219 346.62 9.54688 346.808 9.8875C346.995 10.2281 347.089 10.6844 347.089 11.2563V16L345.983 16V15.025H345.927C345.852 15.1813 345.727 15.3484 345.552 15.5266C345.377 15.7047 345.144 15.8563 344.853 15.9813C344.562 16.1062 344.208 16.1687 343.789 16.1687ZM343.958 15.175C344.395 15.175 344.764 15.0891 345.064 14.9172C345.367 14.7453 345.595 14.5234 345.748 14.2516C345.905 13.9797 345.983 13.6938 345.983 13.3938V12.3813C345.936 12.4375 345.833 12.4891 345.673 12.5359C345.517 12.5797 345.336 12.6188 345.13 12.6531C344.927 12.6844 344.728 12.7125 344.534 12.7375C344.344 12.7594 344.189 12.7781 344.07 12.7938C343.783 12.8313 343.514 12.8922 343.264 12.9766C343.017 13.0578 342.817 13.1813 342.664 13.3469C342.514 13.5094 342.439 13.7313 342.439 14.0125C342.439 14.3969 342.581 14.6875 342.866 14.8844C343.153 15.0781 343.517 15.175 343.958 15.175ZM352.239 8.8V9.7375L348.508 9.7375V8.8L352.239 8.8ZM349.596 7.075L350.702 7.075V13.9375C350.702 14.25 350.747 14.4844 350.838 14.6406C350.932 14.7938 351.05 14.8969 351.194 14.95C351.341 15 351.496 15.025 351.658 15.025C351.78 15.025 351.88 15.0188 351.958 15.0063C352.036 14.9906 352.099 14.9781 352.146 14.9688L352.371 15.9625C352.296 15.9906 352.191 16.0187 352.057 16.0469C351.922 16.0781 351.752 16.0937 351.546 16.0937C351.233 16.0937 350.927 16.0266 350.627 15.8922C350.33 15.7578 350.083 15.5531 349.886 15.2781C349.693 15.0031 349.596 14.6563 349.596 14.2375V7.075ZM353.904 16V8.8L355.01 8.8V16L353.904 16ZM354.466 7.6C354.25 7.6 354.064 7.52656 353.908 7.37969C353.755 7.23281 353.679 7.05625 353.679 6.85C353.679 6.64375 353.755 6.46719 353.908 6.32031C354.064 6.17344 354.25 6.1 354.466 6.1C354.682 6.1 354.866 6.17344 355.019 6.32031C355.175 6.46719 355.254 6.64375 355.254 6.85C355.254 7.05625 355.175 7.23281 355.019 7.37969C354.866 7.52656 354.682 7.6 354.466 7.6ZM359.961 16.15C359.311 16.15 358.741 15.9953 358.25 15.6859C357.762 15.3766 357.381 14.9438 357.106 14.3875C356.834 13.8313 356.698 13.1813 356.698 12.4375C356.698 11.6875 356.834 11.0328 357.106 10.4734C357.381 9.91406 357.762 9.47969 358.25 9.17031C358.741 8.86094 359.311 8.70625 359.961 8.70625C360.611 8.70625 361.18 8.86094 361.667 9.17031C362.158 9.47969 362.539 9.91406 362.811 10.4734C363.086 11.0328 363.223 11.6875 363.223 12.4375C363.223 13.1813 363.086 13.8313 362.811 14.3875C362.539 14.9438 362.158 15.3766 361.667 15.6859C361.18 15.9953 360.611 16.15 359.961 16.15ZM359.961 15.1563C360.455 15.1563 360.861 15.0297 361.18 14.7766C361.498 14.5234 361.734 14.1906 361.887 13.7781C362.041 13.3656 362.117 12.9188 362.117 12.4375C362.117 11.9563 362.041 11.5078 361.887 11.0922C361.734 10.6766 361.498 10.3406 361.18 10.0844C360.861 9.82813 360.455 9.7 359.961 9.7C359.467 9.7 359.061 9.82813 358.742 10.0844C358.423 10.3406 358.187 10.6766 358.034 11.0922C357.881 11.5078 357.805 11.9563 357.805 12.4375C357.805 12.9188 357.881 13.3656 358.034 13.7781C358.187 14.1906 358.423 14.5234 358.742 14.7766C359.061 15.0297 359.467 15.1563 359.961 15.1563ZM366.018 11.6688V16L364.912 16V8.8L365.981 8.8V9.925H366.075C366.243 9.55938 366.5 9.26563 366.843 9.04375C367.187 8.81875 367.631 8.70625 368.175 8.70625C368.662 8.70625 369.089 8.80625 369.454 9.00625C369.82 9.20313 370.104 9.50313 370.307 9.90625C370.511 10.3063 370.612 10.8125 370.612 11.425V16L369.506 16V11.5C369.506 10.9344 369.359 10.4938 369.065 10.1781C368.771 9.85938 368.368 9.7 367.856 9.7C367.503 9.7 367.187 9.77656 366.909 9.92969C366.634 10.0828 366.417 10.3063 366.257 10.6C366.098 10.8938 366.018 11.25 366.018 11.6688ZM377.452 11.6688V16L376.346 16V6.4L377.452 6.4V9.925L377.546 9.925C377.715 9.55313 377.968 9.25781 378.305 9.03906C378.646 8.81719 379.099 8.70625 379.665 8.70625C380.155 8.70625 380.585 8.80469 380.954 9.00156C381.323 9.19531 381.609 9.49375 381.812 9.89688C382.018 10.2969 382.121 10.8063 382.121 11.425V16L381.015 16V11.5C381.015 10.9281 380.866 10.4859 380.57 10.1734C380.276 9.85781 379.868 9.7 379.346 9.7C378.984 9.7 378.659 9.77656 378.371 9.92969C378.087 10.0828 377.862 10.3063 377.696 10.6C377.534 10.8938 377.452 11.25 377.452 11.6688ZM386.264 16.1687C385.807 16.1687 385.393 16.0828 385.021 15.9109C384.65 15.7359 384.354 15.4844 384.136 15.1563C383.917 14.825 383.807 14.425 383.807 13.9563C383.807 13.5438 383.889 13.2094 384.051 12.9531C384.214 12.6938 384.431 12.4906 384.703 12.3438C384.975 12.1969 385.275 12.0875 385.603 12.0156C385.934 11.9406 386.267 11.8813 386.601 11.8375C387.039 11.7813 387.393 11.7391 387.665 11.7109C387.94 11.6797 388.14 11.6281 388.265 11.5563C388.393 11.4844 388.457 11.3594 388.457 11.1813V11.1438C388.457 10.6813 388.331 10.3219 388.078 10.0656C387.828 9.80938 387.448 9.68125 386.939 9.68125C386.411 9.68125 385.996 9.79688 385.696 10.0281C385.396 10.2594 385.186 10.5063 385.064 10.7688L384.014 10.3938C384.201 9.95625 384.451 9.61563 384.764 9.37188C385.079 9.125 385.423 8.95313 385.795 8.85625C386.17 8.75625 386.539 8.70625 386.901 8.70625C387.132 8.70625 387.398 8.73438 387.698 8.79063C388.001 8.84375 388.293 8.95469 388.575 9.12344C388.859 9.29219 389.095 9.54688 389.282 9.8875C389.47 10.2281 389.564 10.6844 389.564 11.2563V16L388.457 16V15.025H388.401C388.326 15.1813 388.201 15.3484 388.026 15.5266C387.851 15.7047 387.618 15.8563 387.328 15.9813C387.037 16.1062 386.682 16.1687 386.264 16.1687ZM386.432 15.175C386.87 15.175 387.239 15.0891 387.539 14.9172C387.842 14.7453 388.07 14.5234 388.223 14.2516C388.379 13.9797 388.457 13.6938 388.457 13.3938V12.3813C388.411 12.4375 388.307 12.4891 388.148 12.5359C387.992 12.5797 387.811 12.6188 387.604 12.6531C387.401 12.6844 387.203 12.7125 387.009 12.7375C386.818 12.7594 386.664 12.7781 386.545 12.7938C386.257 12.8313 385.989 12.8922 385.739 12.9766C385.492 13.0578 385.292 13.1813 385.139 13.3469C384.989 13.5094 384.914 13.7313 384.914 14.0125C384.914 14.3969 385.056 14.6875 385.34 14.8844C385.628 15.0781 385.992 15.175 386.432 15.175ZM396.12 13.0563V8.8L397.227 8.8V16L396.12 16V14.7813H396.045C395.877 15.1469 395.614 15.4578 395.258 15.7141C394.902 15.9672 394.452 16.0937 393.908 16.0937C393.458 16.0937 393.058 15.9953 392.708 15.7984C392.358 15.5984 392.083 15.2984 391.883 14.8984C391.683 14.4953 391.583 13.9875 391.583 13.375V8.8L392.689 8.8V13.3C392.689 13.825 392.836 14.2438 393.13 14.5563C393.427 14.8688 393.805 15.025 394.264 15.025C394.539 15.025 394.819 14.9547 395.103 14.8141C395.391 14.6734 395.631 14.4578 395.825 14.1672C396.022 13.8766 396.12 13.5063 396.12 13.0563ZM402.384 8.8V9.7375L398.653 9.7375V8.8L402.384 8.8ZM399.74 7.075L400.846 7.075V13.9375C400.846 14.25 400.892 14.4844 400.982 14.6406C401.076 14.7938 401.195 14.8969 401.339 14.95C401.486 15 401.64 15.025 401.803 15.025C401.925 15.025 402.025 15.0188 402.103 15.0063C402.181 14.9906 402.243 14.9781 402.29 14.9688L402.515 15.9625C402.44 15.9906 402.336 16.0187 402.201 16.0469C402.067 16.0781 401.896 16.0937 401.69 16.0937C401.378 16.0937 401.071 16.0266 400.771 15.8922C400.475 15.7578 400.228 15.5531 400.031 15.2781C399.837 15.0031 399.74 14.6563 399.74 14.2375V7.075ZM406.989 16.15C406.296 16.15 405.697 15.9969 405.194 15.6906C404.694 15.3813 404.308 14.95 404.036 14.3969C403.768 13.8406 403.633 13.1938 403.633 12.4563C403.633 11.7188 403.768 11.0688 404.036 10.5063C404.308 9.94063 404.686 9.5 405.171 9.18438C405.658 8.86563 406.227 8.70625 406.877 8.70625C407.252 8.70625 407.622 8.76875 407.988 8.89375C408.353 9.01875 408.686 9.22188 408.986 9.50313C409.286 9.78125 409.525 10.15 409.703 10.6094C409.882 11.0688 409.971 11.6344 409.971 12.3063V12.775L404.421 12.775V11.8188L408.846 11.8188C408.846 11.4125 408.764 11.05 408.602 10.7313C408.443 10.4125 408.214 10.1609 407.918 9.97656C407.624 9.79219 407.277 9.7 406.877 9.7C406.436 9.7 406.055 9.80938 405.733 10.0281C405.414 10.2438 405.169 10.525 404.997 10.8719C404.825 11.2188 404.739 11.5906 404.739 11.9875V12.625C404.739 13.1688 404.833 13.6297 405.021 14.0078C405.211 14.3828 405.475 14.6688 405.813 14.8656C406.15 15.0594 406.543 15.1563 406.989 15.1563C407.28 15.1563 407.543 15.1156 407.777 15.0344C408.014 14.95 408.219 14.825 408.391 14.6594C408.563 14.4906 408.696 14.2813 408.789 14.0313L409.858 14.3313C409.746 14.6938 409.557 15.0125 409.291 15.2875C409.025 15.5594 408.697 15.7719 408.307 15.925C407.916 16.075 407.477 16.15 406.989 16.15Z" fill="black"/>
<path d="M463.203 0L441.203 0L441.203 22L463.203 22L463.203 0Z" fill="#51DB6F"/>
<path d="M469.158 6.4L472.008 14.4813H472.12L474.97 6.4L476.189 6.4L472.664 16L471.464 16L467.939 6.4L469.158 6.4ZM479.883 16.15C479.189 16.15 478.591 15.9969 478.087 15.6906C477.587 15.3813 477.202 14.95 476.93 14.3969C476.661 13.8406 476.527 13.1938 476.527 12.4563C476.527 11.7188 476.661 11.0688 476.93 10.5063C477.202 9.94063 477.58 9.5 478.064 9.18438C478.552 8.86563 479.12 8.70625 479.77 8.70625C480.145 8.70625 480.516 8.76875 480.881 8.89375C481.247 9.01875 481.58 9.22188 481.88 9.50313C482.18 9.78125 482.419 10.15 482.597 10.6094C482.775 11.0688 482.864 11.6344 482.864 12.3063V12.775L477.314 12.775V11.8188L481.739 11.8188C481.739 11.4125 481.658 11.05 481.495 10.7313C481.336 10.4125 481.108 10.1609 480.811 9.97656C480.517 9.79219 480.17 9.7 479.77 9.7C479.33 9.7 478.948 9.80938 478.627 10.0281C478.308 10.2438 478.062 10.525 477.891 10.8719C477.719 11.2188 477.633 11.5906 477.633 11.9875V12.625C477.633 13.1688 477.727 13.6297 477.914 14.0078C478.105 14.3828 478.369 14.6688 478.706 14.8656C479.044 15.0594 479.436 15.1563 479.883 15.1563C480.173 15.1563 480.436 15.1156 480.67 15.0344C480.908 14.95 481.112 14.825 481.284 14.6594C481.456 14.4906 481.589 14.2813 481.683 14.0313L482.752 14.3313C482.639 14.6938 482.45 15.0125 482.184 15.2875C481.919 15.5594 481.591 15.7719 481.2 15.925C480.809 16.075 480.37 16.15 479.883 16.15ZM487.453 18.85C486.919 18.85 486.459 18.7812 486.075 18.6437C485.691 18.5094 485.37 18.3312 485.114 18.1094C484.861 17.8906 484.659 17.6562 484.509 17.4062L485.391 16.7875C485.491 16.9187 485.617 17.0687 485.77 17.2375C485.923 17.4094 486.133 17.5578 486.398 17.6828C486.667 17.8109 487.019 17.875 487.453 17.875C488.034 17.875 488.514 17.7344 488.892 17.4531C489.27 17.1719 489.459 16.7312 489.459 16.1312V14.6688H489.366C489.284 14.8 489.169 14.9625 489.019 15.1563C488.872 15.3469 488.659 15.5172 488.381 15.6672C488.106 15.8141 487.734 15.8875 487.266 15.8875C486.684 15.8875 486.162 15.75 485.7 15.475C485.241 15.2 484.877 14.8 484.608 14.275C484.342 13.75 484.209 13.1125 484.209 12.3625C484.209 11.625 484.339 10.9828 484.598 10.4359C484.858 9.88594 485.219 9.46094 485.681 9.16094C486.144 8.85781 486.678 8.70625 487.284 8.70625C487.753 8.70625 488.125 8.78438 488.4 8.94063C488.678 9.09375 488.891 9.26875 489.037 9.46563C489.187 9.65938 489.303 9.81875 489.384 9.94375H489.497V8.8L490.566 8.8V16.2062C490.566 16.825 490.425 17.3281 490.144 17.7156C489.866 18.1062 489.491 18.3922 489.019 18.5734C488.55 18.7578 488.028 18.85 487.453 18.85ZM487.416 14.8938C487.859 14.8938 488.234 14.7922 488.541 14.5891C488.847 14.3859 489.08 14.0938 489.239 13.7125C489.398 13.3313 489.478 12.875 489.478 12.3438C489.478 11.825 489.4 11.3672 489.244 10.9703C489.087 10.5734 488.856 10.2625 488.55 10.0375C488.244 9.8125 487.866 9.7 487.416 9.7C486.947 9.7 486.556 9.81875 486.244 10.0563C485.934 10.2938 485.702 10.6125 485.545 11.0125C485.392 11.4125 485.316 11.8563 485.316 12.3438C485.316 12.8438 485.394 13.2859 485.55 13.6703C485.709 14.0516 485.944 14.3516 486.253 14.5703C486.566 14.7859 486.953 14.8938 487.416 14.8938ZM495.609 16.15C494.916 16.15 494.317 15.9969 493.814 15.6906C493.314 15.3813 492.928 14.95 492.656 14.3969C492.387 13.8406 492.253 13.1938 492.253 12.4563C492.253 11.7188 492.387 11.0688 492.656 10.5063C492.928 9.94063 493.306 9.5 493.791 9.18438C494.278 8.86563 494.847 8.70625 495.497 8.70625C495.872 8.70625 496.242 8.76875 496.608 8.89375C496.973 9.01875 497.306 9.22188 497.606 9.50313C497.906 9.78125 498.145 10.15 498.323 10.6094C498.502 11.0688 498.591 11.6344 498.591 12.3063V12.775L493.041 12.775V11.8188L497.466 11.8188C497.466 11.4125 497.384 11.05 497.222 10.7313C497.062 10.4125 496.834 10.1609 496.537 9.97656C496.244 9.79219 495.897 9.7 495.497 9.7C495.056 9.7 494.675 9.80938 494.353 10.0281C494.034 10.2438 493.789 10.525 493.617 10.8719C493.445 11.2188 493.359 11.5906 493.359 11.9875V12.625C493.359 13.1688 493.453 13.6297 493.641 14.0078C493.831 14.3828 494.095 14.6688 494.433 14.8656C494.77 15.0594 495.162 15.1563 495.609 15.1563C495.9 15.1563 496.162 15.1156 496.397 15.0344C496.634 14.95 496.839 14.825 497.011 14.6594C497.183 14.4906 497.316 14.2813 497.409 14.0313L498.478 14.3313C498.366 14.6938 498.177 15.0125 497.911 15.2875C497.645 15.5594 497.317 15.7719 496.927 15.925C496.536 16.075 496.097 16.15 495.609 16.15ZM503.405 8.8V9.7375L499.673 9.7375V8.8L503.405 8.8ZM500.761 7.075L501.867 7.075V13.9375C501.867 14.25 501.912 14.4844 502.003 14.6406C502.097 14.7938 502.216 14.8969 502.359 14.95C502.506 15 502.661 15.025 502.823 15.025C502.945 15.025 503.045 15.0188 503.123 15.0063C503.202 14.9906 503.264 14.9781 503.311 14.9688L503.536 15.9625C503.461 15.9906 503.356 16.0187 503.222 16.0469C503.087 16.0781 502.917 16.0937 502.711 16.0937C502.398 16.0937 502.092 16.0266 501.792 15.8922C501.495 15.7578 501.248 15.5531 501.052 15.2781C500.858 15.0031 500.761 14.6563 500.761 14.2375V7.075ZM507.187 16.1687C506.731 16.1687 506.317 16.0828 505.945 15.9109C505.573 15.7359 505.278 15.4844 505.059 15.1563C504.841 14.825 504.731 14.425 504.731 13.9563C504.731 13.5438 504.812 13.2094 504.975 12.9531C505.137 12.6938 505.355 12.4906 505.627 12.3438C505.898 12.1969 506.198 12.0875 506.527 12.0156C506.858 11.9406 507.191 11.8813 507.525 11.8375C507.962 11.7813 508.317 11.7391 508.589 11.7109C508.864 11.6797 509.064 11.6281 509.189 11.5563C509.317 11.4844 509.381 11.3594 509.381 11.1813V11.1438C509.381 10.6813 509.255 10.3219 509.002 10.0656C508.752 9.80938 508.372 9.68125 507.862 9.68125C507.334 9.68125 506.92 9.79688 506.62 10.0281C506.32 10.2594 506.109 10.5063 505.987 10.7688L504.937 10.3938C505.125 9.95625 505.375 9.61563 505.687 9.37188C506.003 9.125 506.347 8.95313 506.719 8.85625C507.094 8.75625 507.462 8.70625 507.825 8.70625C508.056 8.70625 508.322 8.73438 508.622 8.79063C508.925 8.84375 509.217 8.95469 509.498 9.12344C509.783 9.29219 510.019 9.54688 510.206 9.8875C510.394 10.2281 510.487 10.6844 510.487 11.2563V16L509.381 16V15.025H509.325C509.25 15.1813 509.125 15.3484 508.95 15.5266C508.775 15.7047 508.542 15.8563 508.252 15.9813C507.961 16.1062 507.606 16.1687 507.187 16.1687ZM507.356 15.175C507.794 15.175 508.162 15.0891 508.462 14.9172C508.766 14.7453 508.994 14.5234 509.147 14.2516C509.303 13.9797 509.381 13.6938 509.381 13.3938V12.3813C509.334 12.4375 509.231 12.4891 509.072 12.5359C508.916 12.5797 508.734 12.6188 508.528 12.6531C508.325 12.6844 508.127 12.7125 507.933 12.7375C507.742 12.7594 507.587 12.7781 507.469 12.7938C507.181 12.8313 506.912 12.8922 506.662 12.9766C506.416 13.0578 506.216 13.1813 506.062 13.3469C505.912 13.5094 505.837 13.7313 505.837 14.0125C505.837 14.3969 505.98 14.6875 506.264 14.8844C506.552 15.0781 506.916 15.175 507.356 15.175ZM515.638 8.8V9.7375L511.907 9.7375V8.8L515.638 8.8ZM512.994 7.075L514.1 7.075V13.9375C514.1 14.25 514.146 14.4844 514.236 14.6406C514.33 14.7938 514.449 14.8969 514.593 14.95C514.739 15 514.894 15.025 515.057 15.025C515.179 15.025 515.279 15.0188 515.357 15.0063C515.435 14.9906 515.497 14.9781 515.544 14.9688L515.769 15.9625C515.694 15.9906 515.589 16.0187 515.455 16.0469C515.321 16.0781 515.15 16.0937 514.944 16.0937C514.632 16.0937 514.325 16.0266 514.025 15.8922C513.729 15.7578 513.482 15.5531 513.285 15.2781C513.091 15.0031 512.994 14.6563 512.994 14.2375V7.075ZM517.302 16V8.8L518.408 8.8V16L517.302 16ZM517.864 7.6C517.649 7.6 517.463 7.52656 517.307 7.37969C517.154 7.23281 517.077 7.05625 517.077 6.85C517.077 6.64375 517.154 6.46719 517.307 6.32031C517.463 6.17344 517.649 6.1 517.864 6.1C518.08 6.1 518.264 6.17344 518.418 6.32031C518.574 6.46719 518.652 6.64375 518.652 6.85C518.652 7.05625 518.574 7.23281 518.418 7.37969C518.264 7.52656 518.08 7.6 517.864 7.6ZM523.359 16.15C522.709 16.15 522.139 15.9953 521.648 15.6859C521.161 15.3766 520.78 14.9438 520.505 14.3875C520.233 13.8313 520.097 13.1813 520.097 12.4375C520.097 11.6875 520.233 11.0328 520.505 10.4734C520.78 9.91406 521.161 9.47969 521.648 9.17031C522.139 8.86094 522.709 8.70625 523.359 8.70625C524.009 8.70625 524.578 8.86094 525.066 9.17031C525.556 9.47969 525.937 9.91406 526.209 10.4734C526.484 11.0328 526.622 11.6875 526.622 12.4375C526.622 13.1813 526.484 13.8313 526.209 14.3875C525.937 14.9438 525.556 15.3766 525.066 15.6859C524.578 15.9953 524.009 16.15 523.359 16.15ZM523.359 15.1563C523.853 15.1563 524.259 15.0297 524.578 14.7766C524.897 14.5234 525.133 14.1906 525.286 13.7781C525.439 13.3656 525.516 12.9188 525.516 12.4375C525.516 11.9563 525.439 11.5078 525.286 11.0922C525.133 10.6766 524.897 10.3406 524.578 10.0844C524.259 9.82813 523.853 9.7 523.359 9.7C522.866 9.7 522.459 9.82813 522.141 10.0844C521.822 10.3406 521.586 10.6766 521.433 11.0922C521.28 11.5078 521.203 11.9563 521.203 12.4375C521.203 12.9188 521.28 13.3656 521.433 13.7781C521.586 14.1906 521.822 14.5234 522.141 14.7766C522.459 15.0297 522.866 15.1563 523.359 15.1563ZM529.417 11.6688V16L528.311 16V8.8L529.379 8.8V9.925H529.473C529.642 9.55938 529.898 9.26563 530.242 9.04375C530.586 8.81875 531.029 8.70625 531.573 8.70625C532.061 8.70625 532.487 8.80625 532.853 9.00625C533.218 9.20313 533.503 9.50313 533.706 9.90625C533.909 10.3063 534.011 10.8125 534.011 11.425V16L532.904 16V11.5C532.904 10.9344 532.757 10.4938 532.464 10.1781C532.17 9.85938 531.767 9.7 531.254 9.7C530.901 9.7 530.586 9.77656 530.307 9.92969C530.032 10.0828 529.815 10.3063 529.656 10.6C529.496 10.8938 529.417 11.25 529.417 11.6688ZM539.895 16V6.4L543.251 6.4C543.92 6.4 544.471 6.51563 544.905 6.74688C545.34 6.975 545.663 7.28281 545.876 7.67031C546.088 8.05469 546.195 8.48125 546.195 8.95C546.195 9.3625 546.121 9.70313 545.974 9.97188C545.83 10.2406 545.64 10.4531 545.402 10.6094C545.168 10.7656 544.913 10.8813 544.638 10.9563V11.05C544.932 11.0688 545.227 11.1719 545.524 11.3594C545.821 11.5469 546.07 11.8156 546.27 12.1656C546.47 12.5156 546.57 12.9438 546.57 13.45C546.57 13.9313 546.46 14.3641 546.241 14.7484C546.023 15.1328 545.677 15.4375 545.205 15.6625C544.734 15.8875 544.12 16 543.363 16L539.895 16ZM541.057 14.9688L543.363 14.9688C544.123 14.9688 544.662 14.8219 544.98 14.5281C545.302 14.2313 545.463 13.8719 545.463 13.45C545.463 13.125 545.38 12.825 545.215 12.55C545.049 12.2719 544.813 12.05 544.507 11.8844C544.201 11.7156 543.838 11.6313 543.42 11.6313L541.057 11.6313V14.9688ZM541.057 10.6188L543.213 10.6188C543.563 10.6188 543.879 10.55 544.16 10.4125C544.445 10.275 544.67 10.0813 544.835 9.83125C545.004 9.58125 545.088 9.2875 545.088 8.95C545.088 8.52813 544.941 8.17031 544.648 7.87656C544.354 7.57969 543.888 7.43125 543.251 7.43125L541.057 7.43125V10.6188ZM550.448 16.1687C549.992 16.1687 549.578 16.0828 549.206 15.9109C548.834 15.7359 548.539 15.4844 548.32 15.1563C548.102 14.825 547.992 14.425 547.992 13.9563C547.992 13.5438 548.073 13.2094 548.236 12.9531C548.398 12.6938 548.616 12.4906 548.887 12.3438C549.159 12.1969 549.459 12.0875 549.787 12.0156C550.119 11.9406 550.452 11.8813 550.786 11.8375C551.223 11.7813 551.578 11.7391 551.85 11.7109C552.125 11.6797 552.325 11.6281 552.45 11.5563C552.578 11.4844 552.642 11.3594 552.642 11.1813V11.1438C552.642 10.6813 552.516 10.3219 552.262 10.0656C552.012 9.80938 551.633 9.68125 551.123 9.68125C550.595 9.68125 550.181 9.79688 549.881 10.0281C549.581 10.2594 549.37 10.5063 549.248 10.7688L548.198 10.3938C548.386 9.95625 548.636 9.61563 548.948 9.37188C549.264 9.125 549.608 8.95313 549.98 8.85625C550.355 8.75625 550.723 8.70625 551.086 8.70625C551.317 8.70625 551.583 8.73438 551.883 8.79063C552.186 8.84375 552.478 8.95469 552.759 9.12344C553.044 9.29219 553.28 9.54688 553.467 9.8875C553.655 10.2281 553.748 10.6844 553.748 11.2563V16L552.642 16V15.025H552.586C552.511 15.1813 552.386 15.3484 552.211 15.5266C552.036 15.7047 551.803 15.8563 551.512 15.9813C551.222 16.1062 550.867 16.1687 550.448 16.1687ZM550.617 15.175C551.055 15.175 551.423 15.0891 551.723 14.9172C552.027 14.7453 552.255 14.5234 552.408 14.2516C552.564 13.9797 552.642 13.6938 552.642 13.3938V12.3813C552.595 12.4375 552.492 12.4891 552.333 12.5359C552.177 12.5797 551.995 12.6188 551.789 12.6531C551.586 12.6844 551.387 12.7125 551.194 12.7375C551.003 12.7594 550.848 12.7781 550.73 12.7938C550.442 12.8313 550.173 12.8922 549.923 12.9766C549.677 13.0578 549.477 13.1813 549.323 13.3469C549.173 13.5094 549.098 13.7313 549.098 14.0125C549.098 14.3969 549.241 14.6875 549.525 14.8844C549.812 15.0781 550.177 15.175 550.617 15.175ZM560.868 10.4125L559.874 10.6938C559.811 10.5281 559.719 10.3672 559.597 10.2109C559.478 10.0516 559.316 9.92031 559.11 9.81719C558.903 9.71406 558.639 9.6625 558.318 9.6625C557.877 9.6625 557.51 9.76406 557.216 9.96719C556.925 10.1672 556.78 10.4219 556.78 10.7313C556.78 11.0063 556.88 11.2234 557.08 11.3828C557.28 11.5422 557.593 11.675 558.018 11.7813L559.086 12.0438C559.73 12.2 560.21 12.4391 560.525 12.7609C560.841 13.0797 560.999 13.4906 560.999 13.9938C560.999 14.4063 560.88 14.775 560.643 15.1C560.408 15.425 560.08 15.6813 559.658 15.8688C559.236 16.0562 558.746 16.15 558.186 16.15C557.452 16.15 556.844 15.9906 556.363 15.6719C555.882 15.3531 555.577 14.8875 555.449 14.275L556.499 14.0125C556.599 14.4 556.788 14.6906 557.066 14.8844C557.347 15.0781 557.714 15.175 558.168 15.175C558.683 15.175 559.093 15.0656 559.396 14.8469C559.702 14.625 559.855 14.3594 559.855 14.05C559.855 13.8 559.768 13.5906 559.593 13.4219C559.418 13.25 559.149 13.1219 558.786 13.0375L557.586 12.7563C556.927 12.6 556.443 12.3578 556.133 12.0297C555.827 11.6984 555.674 11.2844 555.674 10.7875C555.674 10.3813 555.788 10.0219 556.016 9.70938C556.247 9.39688 556.561 9.15156 556.958 8.97344C557.358 8.79531 557.811 8.70625 558.318 8.70625C559.03 8.70625 559.589 8.8625 559.996 9.175C560.405 9.4875 560.696 9.9 560.868 10.4125ZM567.764 10.4125L566.77 10.6938C566.708 10.5281 566.616 10.3672 566.494 10.2109C566.375 10.0516 566.212 9.92031 566.006 9.81719C565.8 9.71406 565.536 9.6625 565.214 9.6625C564.773 9.6625 564.406 9.76406 564.112 9.96719C563.822 10.1672 563.677 10.4219 563.677 10.7313C563.677 11.0063 563.777 11.2234 563.977 11.3828C564.177 11.5422 564.489 11.675 564.914 11.7813L565.983 12.0438C566.627 12.2 567.106 12.4391 567.422 12.7609C567.737 13.0797 567.895 13.4906 567.895 13.9938C567.895 14.4063 567.777 14.775 567.539 15.1C567.305 15.425 566.977 15.6813 566.555 15.8688C566.133 16.0562 565.642 16.15 565.083 16.15C564.348 16.15 563.741 15.9906 563.259 15.6719C562.778 15.3531 562.473 14.8875 562.345 14.275L563.395 14.0125C563.495 14.4 563.684 14.6906 563.962 14.8844C564.244 15.0781 564.611 15.175 565.064 15.175C565.58 15.175 565.989 15.0656 566.292 14.8469C566.598 14.625 566.752 14.3594 566.752 14.05C566.752 13.8 566.664 13.5906 566.489 13.4219C566.314 13.25 566.045 13.1219 565.683 13.0375L564.483 12.7563C563.823 12.6 563.339 12.3578 563.03 12.0297C562.723 11.6984 562.57 11.2844 562.57 10.7875C562.57 10.3813 562.684 10.0219 562.912 9.70938C563.144 9.39688 563.458 9.15156 563.855 8.97344C564.255 8.79531 564.708 8.70625 565.214 8.70625C565.927 8.70625 566.486 8.8625 566.892 9.175C567.302 9.4875 567.592 9.9 567.764 10.4125ZM572.579 16.15C571.886 16.15 571.287 15.9969 570.784 15.6906C570.284 15.3813 569.898 14.95 569.626 14.3969C569.357 13.8406 569.223 13.1938 569.223 12.4563C569.223 11.7188 569.357 11.0688 569.626 10.5063C569.898 9.94063 570.276 9.5 570.761 9.18438C571.248 8.86563 571.817 8.70625 572.467 8.70625C572.842 8.70625 573.212 8.76875 573.578 8.89375C573.943 9.01875 574.276 9.22188 574.576 9.50313C574.876 9.78125 575.115 10.15 575.293 10.6094C575.471 11.0688 575.561 11.6344 575.561 12.3063V12.775L570.011 12.775V11.8188L574.436 11.8188C574.436 11.4125 574.354 11.05 574.192 10.7313C574.032 10.4125 573.804 10.1609 573.507 9.97656C573.214 9.79219 572.867 9.7 572.467 9.7C572.026 9.7 571.645 9.80938 571.323 10.0281C571.004 10.2438 570.759 10.525 570.587 10.8719C570.415 11.2188 570.329 11.5906 570.329 11.9875V12.625C570.329 13.1688 570.423 13.6297 570.611 14.0078C570.801 14.3828 571.065 14.6688 571.403 14.8656C571.74 15.0594 572.132 15.1563 572.579 15.1563C572.87 15.1563 573.132 15.1156 573.367 15.0344C573.604 14.95 573.809 14.825 573.981 14.6594C574.153 14.4906 574.286 14.2813 574.379 14.0313L575.448 14.3313C575.336 14.6938 575.146 15.0125 574.881 15.2875C574.615 15.5594 574.287 15.7719 573.896 15.925C573.506 16.075 573.067 16.15 572.579 16.15Z" fill="black"/>
<path d="M629.908 0L606.602 0V22L629.908 22V0Z" fill="#515FDB"/>
<path d="M635.467 16V6.4L641.261 6.4V7.43125L636.63 7.43125V10.675L640.961 10.675V11.7063L636.63 11.7063V14.9688L641.336 14.9688V16L635.467 16ZM645.325 16.1687C644.869 16.1687 644.455 16.0828 644.083 15.9109C643.711 15.7359 643.416 15.4844 643.197 15.1563C642.978 14.825 642.869 14.425 642.869 13.9563C642.869 13.5438 642.95 13.2094 643.112 12.9531C643.275 12.6938 643.492 12.4906 643.764 12.3438C644.036 12.1969 644.336 12.0875 644.664 12.0156C644.995 11.9406 645.328 11.8813 645.662 11.8375C646.1 11.7813 646.455 11.7391 646.727 11.7109C647.002 11.6797 647.202 11.6281 647.327 11.5563C647.455 11.4844 647.519 11.3594 647.519 11.1813V11.1438C647.519 10.6813 647.392 10.3219 647.139 10.0656C646.889 9.80938 646.509 9.68125 646 9.68125C645.472 9.68125 645.058 9.79688 644.758 10.0281C644.458 10.2594 644.247 10.5063 644.125 10.7688L643.075 10.3938C643.262 9.95625 643.512 9.61563 643.825 9.37188C644.141 9.125 644.484 8.95313 644.856 8.85625C645.231 8.75625 645.6 8.70625 645.962 8.70625C646.194 8.70625 646.459 8.73438 646.759 8.79063C647.062 8.84375 647.355 8.95469 647.636 9.12344C647.92 9.29219 648.156 9.54688 648.344 9.8875C648.531 10.2281 648.625 10.6844 648.625 11.2563V16L647.519 16V15.025H647.462C647.387 15.1813 647.262 15.3484 647.087 15.5266C646.912 15.7047 646.68 15.8563 646.389 15.9813C646.098 16.1062 645.744 16.1687 645.325 16.1687ZM645.494 15.175C645.931 15.175 646.3 15.0891 646.6 14.9172C646.903 14.7453 647.131 14.5234 647.284 14.2516C647.441 13.9797 647.519 13.6938 647.519 13.3938V12.3813C647.472 12.4375 647.369 12.4891 647.209 12.5359C647.053 12.5797 646.872 12.6188 646.666 12.6531C646.462 12.6844 646.264 12.7125 646.07 12.7375C645.88 12.7594 645.725 12.7781 645.606 12.7938C645.319 12.8313 645.05 12.8922 644.8 12.9766C644.553 13.0578 644.353 13.1813 644.2 13.3469C644.05 13.5094 643.975 13.7313 643.975 14.0125C643.975 14.3969 644.117 14.6875 644.402 14.8844C644.689 15.0781 645.053 15.175 645.494 15.175ZM655.182 13.0563V8.8L656.288 8.8V16L655.182 16V14.7813H655.107C654.938 15.1469 654.675 15.4578 654.319 15.7141C653.963 15.9672 653.513 16.0937 652.969 16.0937C652.519 16.0937 652.119 15.9953 651.769 15.7984C651.419 15.5984 651.144 15.2984 650.944 14.8984C650.744 14.4953 650.644 13.9875 650.644 13.375V8.8L651.75 8.8V13.3C651.75 13.825 651.897 14.2438 652.191 14.5563C652.488 14.8688 652.866 15.025 653.325 15.025C653.6 15.025 653.88 14.9547 654.164 14.8141C654.452 14.6734 654.693 14.4578 654.886 14.1672C655.083 13.8766 655.182 13.5063 655.182 13.0563Z" fill="black"/>
</svg>
