<svg width="713" height="22" viewBox="0 0 713 22" fill="none" xmlns="http://www.w3.org/2000/svg">
<path d="M22 0L0 0L0 22L22 22L22 0Z" fill="#757782"/>
<path d="M32.8109 8.8C32.7547 8.325 32.5266 7.95625 32.1266 7.69375C31.7266 7.43125 31.2359 7.3 30.6547 7.3C30.2297 7.3 29.8578 7.36875 29.5391 7.50625C29.2234 7.64375 28.9766 7.83281 28.7984 8.07344C28.6234 8.31406 28.5359 8.5875 28.5359 8.89375C28.5359 9.15 28.5969 9.37031 28.7187 9.55469C28.8437 9.73594 29.0031 9.8875 29.1969 10.0094C29.3906 10.1281 29.5937 10.2266 29.8062 10.3047C30.0187 10.3797 30.2141 10.4406 30.3922 10.4875L31.3672 10.75C31.6172 10.8156 31.8953 10.9063 32.2016 11.0219C32.5109 11.1375 32.8062 11.2953 33.0875 11.4953C33.3719 11.6922 33.6062 11.9453 33.7906 12.2547C33.975 12.5641 34.0672 12.9438 34.0672 13.3938C34.0672 13.9125 33.9312 14.3813 33.6594 14.8C33.3906 15.2188 32.9969 15.5516 32.4781 15.7984C31.9625 16.0453 31.3359 16.1687 30.5984 16.1687C29.9109 16.1687 29.3156 16.0578 28.8125 15.8359C28.3125 15.6141 27.9187 15.3047 27.6312 14.9078C27.3469 14.5109 27.1859 14.05 27.1484 13.525L28.3484 13.525C28.3797 13.8875 28.5016 14.1875 28.7141 14.425C28.9297 14.6594 29.2016 14.8344 29.5297 14.95C29.8609 15.0625 30.2172 15.1188 30.5984 15.1188C31.0422 15.1188 31.4406 15.0469 31.7937 14.9031C32.1469 14.7563 32.4266 14.5531 32.6328 14.2938C32.8391 14.0313 32.9422 13.725 32.9422 13.375C32.9422 13.0563 32.8531 12.7969 32.675 12.5969C32.4969 12.3969 32.2625 12.2344 31.9719 12.1094C31.6812 11.9844 31.3672 11.875 31.0297 11.7813L29.8484 11.4438C29.0984 11.2281 28.5047 10.9203 28.0672 10.5203C27.6297 10.1203 27.4109 9.59688 27.4109 8.95C27.4109 8.4125 27.5562 7.94375 27.8469 7.54375C28.1406 7.14063 28.5344 6.82813 29.0281 6.60625C29.525 6.38125 30.0797 6.26875 30.6922 6.26875C31.3109 6.26875 31.8609 6.37969 32.3422 6.60156C32.8234 6.82031 33.2047 7.12031 33.4859 7.50156C33.7703 7.88281 33.9203 8.31563 33.9359 8.8L32.8109 8.8ZM40.366 13.0563V8.8H41.4723L41.4723 16L40.366 16V14.7813H40.291C40.1223 15.1469 39.8598 15.4578 39.5035 15.7141C39.1473 15.9672 38.6973 16.0937 38.1535 16.0937C37.7035 16.0937 37.3035 15.9953 36.9535 15.7984C36.6035 15.5984 36.3285 15.2984 36.1285 14.8984C35.9285 14.4953 35.8285 13.9875 35.8285 13.375V8.8L36.9348 8.8V13.3C36.9348 13.825 37.0816 14.2438 37.3754 14.5563C37.6723 14.8688 38.0504 15.025 38.5098 15.025C38.7848 15.025 39.0645 14.9547 39.3488 14.8141C39.6363 14.6734 39.8769 14.4578 40.0707 14.1672C40.2676 13.8766 40.366 13.5063 40.366 13.0563ZM43.4984 16L43.4984 8.8L44.5672 8.8V9.8875H44.6422C44.7734 9.53125 45.0109 9.24219 45.3547 9.02031C45.6984 8.79844 46.0859 8.6875 46.5172 8.6875C46.5984 8.6875 46.7 8.68906 46.8219 8.69219C46.9437 8.69531 47.0359 8.7 47.0984 8.70625V9.83125C47.0609 9.82188 46.975 9.80781 46.8406 9.78906C46.7094 9.76719 46.5703 9.75625 46.4234 9.75625C46.0734 9.75625 45.7609 9.82969 45.4859 9.97656C45.2141 10.1203 44.9984 10.3203 44.8391 10.5766C44.6828 10.8297 44.6047 11.1188 44.6047 11.4438L44.6047 16L43.4984 16ZM52.0672 8.8V9.7375L48.1859 9.7375V8.8L52.0672 8.8ZM49.3484 16L49.3484 7.80625C49.3484 7.39375 49.4453 7.05 49.6391 6.775C49.8328 6.5 50.0844 6.29375 50.3937 6.15625C50.7031 6.01875 51.0297 5.95 51.3734 5.95C51.6453 5.95 51.8672 5.97188 52.0391 6.01563C52.2109 6.05938 52.3391 6.1 52.4234 6.1375L52.1047 7.09375C52.0484 7.075 51.9703 7.05156 51.8703 7.02344C51.7734 6.99531 51.6453 6.98125 51.4859 6.98125C51.1203 6.98125 50.8562 7.07344 50.6937 7.25781C50.5344 7.44219 50.4547 7.7125 50.4547 8.06875L50.4547 16L49.3484 16ZM55.5301 16.1687C55.0738 16.1687 54.6598 16.0828 54.2879 15.9109C53.916 15.7359 53.6207 15.4844 53.4019 15.1563C53.1832 14.825 53.0738 14.425 53.0738 13.9563C53.0738 13.5438 53.1551 13.2094 53.3176 12.9531C53.4801 12.6938 53.6973 12.4906 53.9691 12.3438C54.241 12.1969 54.541 12.0875 54.8691 12.0156C55.2004 11.9406 55.5332 11.8813 55.8676 11.8375C56.3051 11.7813 56.6598 11.7391 56.9316 11.7109C57.2066 11.6797 57.4066 11.6281 57.5316 11.5563C57.6598 11.4844 57.7238 11.3594 57.7238 11.1813V11.1438C57.7238 10.6813 57.5973 10.3219 57.3441 10.0656C57.0941 9.80938 56.7144 9.68125 56.2051 9.68125C55.6769 9.68125 55.2629 9.79688 54.9629 10.0281C54.6629 10.2594 54.4519 10.5063 54.3301 10.7688L53.2801 10.3938C53.4676 9.95625 53.7176 9.61563 54.0301 9.37188C54.3457 9.125 54.6894 8.95313 55.0613 8.85625C55.4363 8.75625 55.8051 8.70625 56.1676 8.70625C56.3988 8.70625 56.6644 8.73438 56.9644 8.79063C57.2676 8.84375 57.5598 8.95469 57.841 9.12344C58.1254 9.29219 58.3613 9.54688 58.5488 9.8875C58.7363 10.2281 58.8301 10.6844 58.8301 11.2563L58.8301 16L57.7238 16V15.025H57.6676C57.5926 15.1813 57.4676 15.3484 57.2926 15.5266C57.1176 15.7047 56.8848 15.8563 56.5941 15.9813C56.3035 16.1062 55.9488 16.1687 55.5301 16.1687ZM55.6988 15.175C56.1363 15.175 56.5051 15.0891 56.8051 14.9172C57.1082 14.7453 57.3363 14.5234 57.4894 14.2516C57.6457 13.9797 57.7238 13.6938 57.7238 13.3938V12.3813C57.6769 12.4375 57.5738 12.4891 57.4144 12.5359C57.2582 12.5797 57.0769 12.6188 56.8707 12.6531C56.6676 12.6844 56.4691 12.7125 56.2754 12.7375C56.0848 12.7594 55.9301 12.7781 55.8113 12.7938C55.5238 12.8313 55.2551 12.8922 55.0051 12.9766C54.7582 13.0578 54.5582 13.1813 54.4051 13.3469C54.2551 13.5094 54.1801 13.7313 54.1801 14.0125C54.1801 14.3969 54.3223 14.6875 54.6066 14.8844C54.8941 15.0781 55.2582 15.175 55.6988 15.175ZM63.7742 16.15C63.0992 16.15 62.518 15.9906 62.0305 15.6719C61.543 15.3531 61.168 14.9141 60.9055 14.3547C60.643 13.7953 60.5117 13.1563 60.5117 12.4375C60.5117 11.7063 60.6461 11.0609 60.9148 10.5016C61.1867 9.93906 61.5648 9.5 62.0492 9.18438C62.5367 8.86563 63.1055 8.70625 63.7555 8.70625C64.2617 8.70625 64.718 8.8 65.1242 8.9875C65.5305 9.175 65.8633 9.4375 66.1226 9.775C66.382 10.1125 66.543 10.5063 66.6055 10.9563L65.4992 10.9563C65.4148 10.6281 65.2273 10.3375 64.9367 10.0844C64.6492 9.82813 64.2617 9.7 63.7742 9.7C63.343 9.7 62.9648 9.8125 62.6398 10.0375C62.318 10.2594 62.0664 10.5734 61.8851 10.9797C61.707 11.3828 61.618 11.8563 61.618 12.4C61.618 12.9563 61.7055 13.4406 61.8805 13.8531C62.0586 14.2656 62.3086 14.5859 62.6305 14.8141C62.9555 15.0422 63.3367 15.1563 63.7742 15.1563C64.0617 15.1563 64.3226 15.1063 64.557 15.0063C64.7914 14.9063 64.9898 14.7625 65.1523 14.575C65.3148 14.3875 65.4305 14.1625 65.4992 13.9L66.6055 13.9C66.543 14.325 66.3883 14.7078 66.1414 15.0484C65.8976 15.3859 65.5742 15.6547 65.1711 15.8547C64.7711 16.0516 64.3055 16.15 63.7742 16.15ZM71.2414 16.15C70.5476 16.15 69.9492 15.9969 69.4461 15.6906C68.9461 15.3813 68.5601 14.95 68.2883 14.3969C68.0195 13.8406 67.8851 13.1938 67.8851 12.4563C67.8851 11.7188 68.0195 11.0688 68.2883 10.5063C68.5601 9.94063 68.9383 9.5 69.4226 9.18438C69.9101 8.86563 70.4789 8.70625 71.1289 8.70625C71.5039 8.70625 71.8742 8.76875 72.2398 8.89375C72.6055 9.01875 72.9383 9.22188 73.2383 9.50313C73.5383 9.78125 73.7773 10.15 73.9555 10.6094C74.1336 11.0688 74.2226 11.6344 74.2226 12.3063V12.775L68.6726 12.775V11.8188L73.0976 11.8188C73.0976 11.4125 73.0164 11.05 72.8539 10.7313C72.6945 10.4125 72.4664 10.1609 72.1695 9.97656C71.8758 9.79219 71.5289 9.7 71.1289 9.7C70.6883 9.7 70.307 9.80938 69.9851 10.0281C69.6664 10.2438 69.4211 10.525 69.2492 10.8719C69.0773 11.2188 68.9914 11.5906 68.9914 11.9875V12.625C68.9914 13.1688 69.0851 13.6297 69.2726 14.0078C69.4633 14.3828 69.7273 14.6688 70.0648 14.8656C70.4023 15.0594 70.7945 15.1563 71.2414 15.1563C71.532 15.1563 71.7945 15.1156 72.0289 15.0344C72.2664 14.95 72.4711 14.825 72.643 14.6594C72.8148 14.4906 72.9476 14.2813 73.0414 14.0313L74.1101 14.3313C73.9976 14.6938 73.8086 15.0125 73.543 15.2875C73.2773 15.5594 72.9492 15.7719 72.5586 15.925C72.168 16.075 71.7289 16.15 71.2414 16.15ZM79.768 16L79.768 6.4L83.1242 6.4C83.793 6.4 84.3445 6.51563 84.7789 6.74688C85.2133 6.975 85.5367 7.28281 85.7492 7.67031C85.9617 8.05469 86.068 8.48125 86.068 8.95C86.068 9.3625 85.9945 9.70313 85.8476 9.97188C85.7039 10.2406 85.5133 10.4531 85.2758 10.6094C85.0414 10.7656 84.7867 10.8813 84.5117 10.9563V11.05C84.8055 11.0688 85.1008 11.1719 85.3976 11.3594C85.6945 11.5469 85.943 11.8156 86.143 12.1656C86.343 12.5156 86.443 12.9438 86.443 13.45C86.443 13.9313 86.3336 14.3641 86.1148 14.7484C85.8961 15.1328 85.5508 15.4375 85.0789 15.6625C84.607 15.8875 83.993 16 83.2367 16L79.768 16ZM80.9305 14.9688L83.2367 14.9688C83.9961 14.9688 84.5351 14.8219 84.8539 14.5281C85.1758 14.2313 85.3367 13.8719 85.3367 13.45C85.3367 13.125 85.2539 12.825 85.0883 12.55C84.9226 12.2719 84.6867 12.05 84.3805 11.8844C84.0742 11.7156 83.7117 11.6313 83.293 11.6313L80.9305 11.6313L80.9305 14.9688ZM80.9305 10.6188L83.0867 10.6188C83.4367 10.6188 83.7523 10.55 84.0336 10.4125C84.318 10.275 84.543 10.0813 84.7086 9.83125C84.8773 9.58125 84.9617 9.2875 84.9617 8.95C84.9617 8.52813 84.8148 8.17031 84.5211 7.87656C84.2273 7.57969 83.7617 7.43125 83.1242 7.43125L80.9305 7.43125L80.9305 10.6188ZM90.3219 16.1687C89.8656 16.1687 89.4515 16.0828 89.0797 15.9109C88.7078 15.7359 88.4125 15.4844 88.1937 15.1563C87.975 14.825 87.8656 14.425 87.8656 13.9563C87.8656 13.5438 87.9469 13.2094 88.1094 12.9531C88.2719 12.6938 88.4891 12.4906 88.7609 12.3438C89.0328 12.1969 89.3328 12.0875 89.6609 12.0156C89.9922 11.9406 90.325 11.8813 90.6594 11.8375C91.0969 11.7813 91.4515 11.7391 91.7234 11.7109C91.9984 11.6797 92.1984 11.6281 92.3234 11.5563C92.4515 11.4844 92.5156 11.3594 92.5156 11.1813V11.1438C92.5156 10.6813 92.389 10.3219 92.1359 10.0656C91.8859 9.80938 91.5062 9.68125 90.9969 9.68125C90.4687 9.68125 90.0547 9.79688 89.7547 10.0281C89.4547 10.2594 89.2437 10.5063 89.1219 10.7688L88.0719 10.3938C88.2594 9.95625 88.5094 9.61563 88.8219 9.37188C89.1375 9.125 89.4812 8.95313 89.8531 8.85625C90.2281 8.75625 90.5969 8.70625 90.9594 8.70625C91.1906 8.70625 91.4562 8.73438 91.7562 8.79063C92.0594 8.84375 92.3515 8.95469 92.6328 9.12344C92.9172 9.29219 93.1531 9.54688 93.3406 9.8875C93.5281 10.2281 93.6219 10.6844 93.6219 11.2563L93.6219 16L92.5156 16L92.5156 15.025H92.4594C92.3844 15.1813 92.2594 15.3484 92.0844 15.5266C91.9094 15.7047 91.6765 15.8563 91.3859 15.9813C91.0953 16.1062 90.7406 16.1687 90.3219 16.1687ZM90.4906 15.175C90.9281 15.175 91.2969 15.0891 91.5969 14.9172C91.9 14.7453 92.1281 14.5234 92.2812 14.2516C92.4375 13.9797 92.5156 13.6938 92.5156 13.3938V12.3813C92.4687 12.4375 92.3656 12.4891 92.2062 12.5359C92.05 12.5797 91.8687 12.6188 91.6625 12.6531C91.4594 12.6844 91.2609 12.7125 91.0672 12.7375C90.8765 12.7594 90.7219 12.7781 90.6031 12.7938C90.3156 12.8313 90.0469 12.8922 89.7969 12.9766C89.55 13.0578 89.35 13.1813 89.1969 13.3469C89.0469 13.5094 88.9719 13.7313 88.9719 14.0125C88.9719 14.3969 89.114 14.6875 89.3984 14.8844C89.6859 15.0781 90.05 15.175 90.4906 15.175ZM92.0094 7.9375L91.0344 6.625L90.0594 7.9375L89.0094 7.9375V7.8625L90.5281 5.9125L91.5406 5.9125L93.0594 7.8625V7.9375L92.0094 7.9375ZM98.7723 8.8V9.7375L95.041 9.7375V8.8L98.7723 8.8ZM96.1285 7.075L97.2348 7.075L97.2348 13.9375C97.2348 14.25 97.2801 14.4844 97.3707 14.6406C97.4644 14.7938 97.5832 14.8969 97.7269 14.95C97.8738 15 98.0285 15.025 98.191 15.025C98.3129 15.025 98.4129 15.0188 98.491 15.0063C98.5691 14.9906 98.6316 14.9781 98.6785 14.9688L98.9035 15.9625C98.8285 15.9906 98.7238 16.0187 98.5894 16.0469C98.4551 16.0781 98.2848 16.0937 98.0785 16.0937C97.766 16.0937 97.4598 16.0266 97.1598 15.8922C96.8629 15.7578 96.616 15.5531 96.4191 15.2781C96.2254 15.0031 96.1285 14.6563 96.1285 14.2375L96.1285 7.075ZM100.436 16L100.436 8.8H101.543L101.543 16L100.436 16ZM100.999 7.6C100.783 7.6 100.597 7.52656 100.441 7.37969C100.288 7.23281 100.211 7.05625 100.211 6.85C100.211 6.64375 100.288 6.46719 100.441 6.32031C100.597 6.17344 100.783 6.1 100.999 6.1C101.214 6.1 101.399 6.17344 101.552 6.32031C101.708 6.46719 101.786 6.64375 101.786 6.85C101.786 7.05625 101.708 7.23281 101.552 7.37969C101.399 7.52656 101.214 7.6 100.999 7.6ZM106.587 16.15C105.894 16.15 105.295 15.9969 104.792 15.6906C104.292 15.3813 103.906 14.95 103.634 14.3969C103.366 13.8406 103.231 13.1938 103.231 12.4563C103.231 11.7188 103.366 11.0688 103.634 10.5063C103.906 9.94063 104.284 9.5 104.769 9.18438C105.256 8.86563 105.825 8.70625 106.475 8.70625C106.85 8.70625 107.22 8.76875 107.586 8.89375C107.952 9.01875 108.284 9.22188 108.584 9.50313C108.884 9.78125 109.123 10.15 109.302 10.6094C109.48 11.0688 109.569 11.6344 109.569 12.3063V12.775L104.019 12.775V11.8188L108.444 11.8188C108.444 11.4125 108.362 11.05 108.2 10.7313C108.041 10.4125 107.812 10.1609 107.516 9.97656C107.222 9.79219 106.875 9.7 106.475 9.7C106.034 9.7 105.653 9.80938 105.331 10.0281C105.012 10.2438 104.767 10.525 104.595 10.8719C104.423 11.2188 104.337 11.5906 104.337 11.9875V12.625C104.337 13.1688 104.431 13.6297 104.619 14.0078C104.809 14.3828 105.073 14.6688 105.411 14.8656C105.748 15.0594 106.141 15.1563 106.587 15.1563C106.878 15.1563 107.141 15.1156 107.375 15.0344C107.612 14.95 107.817 14.825 107.989 14.6594C108.161 14.4906 108.294 14.2813 108.387 14.0313L109.456 14.3313C109.344 14.6938 109.155 15.0125 108.889 15.2875C108.623 15.5594 108.295 15.7719 107.905 15.925C107.514 16.075 107.075 16.15 106.587 16.15Z" fill="black"/>
<path d="M162.398 0L140.398 0L140.398 22L162.398 22L162.398 0Z" fill="#DB727E"/>
<path d="M173.209 8.8C173.153 8.325 172.925 7.95625 172.525 7.69375C172.125 7.43125 171.634 7.3 171.053 7.3C170.628 7.3 170.256 7.36875 169.937 7.50625C169.622 7.64375 169.375 7.83281 169.197 8.07344C169.022 8.31406 168.934 8.5875 168.934 8.89375C168.934 9.15 168.995 9.37031 169.117 9.55469C169.242 9.73594 169.402 9.8875 169.595 10.0094C169.789 10.1281 169.992 10.2266 170.205 10.3047C170.417 10.3797 170.612 10.4406 170.791 10.4875L171.766 10.75C172.016 10.8156 172.294 10.9063 172.6 11.0219C172.909 11.1375 173.205 11.2953 173.486 11.4953C173.77 11.6922 174.005 11.9453 174.189 12.2547C174.373 12.5641 174.466 12.9438 174.466 13.3938C174.466 13.9125 174.33 14.3813 174.058 14.8C173.789 15.2188 173.395 15.5516 172.877 15.7984C172.361 16.0453 171.734 16.1687 170.997 16.1687C170.309 16.1687 169.714 16.0578 169.211 15.8359C168.711 15.6141 168.317 15.3047 168.03 14.9078C167.745 14.5109 167.584 14.05 167.547 13.525L168.747 13.525C168.778 13.8875 168.9 14.1875 169.112 14.425C169.328 14.6594 169.6 14.8344 169.928 14.95C170.259 15.0625 170.616 15.1188 170.997 15.1188C171.441 15.1188 171.839 15.0469 172.192 14.9031C172.545 14.7563 172.825 14.5531 173.031 14.2938C173.237 14.0313 173.341 13.725 173.341 13.375C173.341 13.0563 173.252 12.7969 173.073 12.5969C172.895 12.3969 172.661 12.2344 172.37 12.1094C172.08 11.9844 171.766 11.875 171.428 11.7813L170.247 11.4438C169.497 11.2281 168.903 10.9203 168.466 10.5203C168.028 10.1203 167.809 9.59688 167.809 8.95C167.809 8.4125 167.955 7.94375 168.245 7.54375C168.539 7.14063 168.933 6.82813 169.427 6.60625C169.923 6.38125 170.478 6.26875 171.091 6.26875C171.709 6.26875 172.259 6.37969 172.741 6.60156C173.222 6.82031 173.603 7.12031 173.884 7.50156C174.169 7.88281 174.319 8.31563 174.334 8.8L173.209 8.8ZM180.764 13.0563L180.764 8.8H181.871L181.871 16L180.764 16V14.7813H180.689C180.521 15.1469 180.258 15.4578 179.902 15.7141C179.546 15.9672 179.096 16.0937 178.552 16.0937C178.102 16.0937 177.702 15.9953 177.352 15.7984C177.002 15.5984 176.727 15.2984 176.527 14.8984C176.327 14.4953 176.227 13.9875 176.227 13.375L176.227 8.8L177.333 8.8L177.333 13.3C177.333 13.825 177.48 14.2438 177.774 14.5563C178.071 14.8688 178.449 15.025 178.908 15.025C179.183 15.025 179.463 14.9547 179.747 14.8141C180.035 14.6734 180.275 14.4578 180.469 14.1672C180.666 13.8766 180.764 13.5063 180.764 13.0563ZM183.897 16L183.897 8.8L184.966 8.8V9.8875H185.041C185.172 9.53125 185.409 9.24219 185.753 9.02031C186.097 8.79844 186.484 8.6875 186.916 8.6875C186.997 8.6875 187.098 8.68906 187.22 8.69219C187.342 8.69531 187.434 8.7 187.497 8.70625V9.83125C187.459 9.82188 187.373 9.80781 187.239 9.78906C187.108 9.76719 186.969 9.75625 186.822 9.75625C186.472 9.75625 186.159 9.82969 185.884 9.97656C185.612 10.1203 185.397 10.3203 185.237 10.5766C185.081 10.8297 185.003 11.1188 185.003 11.4438L185.003 16L183.897 16ZM192.466 8.8V9.7375L188.584 9.7375V8.8L192.466 8.8ZM189.747 16L189.747 7.80625C189.747 7.39375 189.844 7.05 190.037 6.775C190.231 6.5 190.483 6.29375 190.792 6.15625C191.102 6.01875 191.428 5.95 191.772 5.95C192.044 5.95 192.266 5.97188 192.437 6.01563C192.609 6.05938 192.737 6.1 192.822 6.1375L192.503 7.09375C192.447 7.075 192.369 7.05156 192.269 7.02344C192.172 6.99531 192.044 6.98125 191.884 6.98125C191.519 6.98125 191.255 7.07344 191.092 7.25781C190.933 7.44219 190.853 7.7125 190.853 8.06875L190.853 16L189.747 16ZM195.929 16.1687C195.472 16.1687 195.058 16.0828 194.686 15.9109C194.314 15.7359 194.019 15.4844 193.8 15.1563C193.582 14.825 193.472 14.425 193.472 13.9563C193.472 13.5438 193.554 13.2094 193.716 12.9531C193.879 12.6938 194.096 12.4906 194.368 12.3438C194.639 12.1969 194.939 12.0875 195.268 12.0156C195.599 11.9406 195.932 11.8813 196.266 11.8375C196.704 11.7813 197.058 11.7391 197.33 11.7109C197.605 11.6797 197.805 11.6281 197.93 11.5563C198.058 11.4844 198.122 11.3594 198.122 11.1813V11.1438C198.122 10.6813 197.996 10.3219 197.743 10.0656C197.493 9.80938 197.113 9.68125 196.604 9.68125C196.075 9.68125 195.661 9.79688 195.361 10.0281C195.061 10.2594 194.85 10.5063 194.729 10.7688L193.679 10.3938C193.866 9.95625 194.116 9.61563 194.429 9.37188C194.744 9.125 195.088 8.95313 195.46 8.85625C195.835 8.75625 196.204 8.70625 196.566 8.70625C196.797 8.70625 197.063 8.73438 197.363 8.79063C197.666 8.84375 197.958 8.95469 198.239 9.12344C198.524 9.29219 198.76 9.54688 198.947 9.8875C199.135 10.2281 199.229 10.6844 199.229 11.2563L199.229 16L198.122 16V15.025H198.066C197.991 15.1813 197.866 15.3484 197.691 15.5266C197.516 15.7047 197.283 15.8563 196.993 15.9813C196.702 16.1062 196.347 16.1687 195.929 16.1687ZM196.097 15.175C196.535 15.175 196.904 15.0891 197.204 14.9172C197.507 14.7453 197.735 14.5234 197.888 14.2516C198.044 13.9797 198.122 13.6938 198.122 13.3938V12.3813C198.075 12.4375 197.972 12.4891 197.813 12.5359C197.657 12.5797 197.475 12.6188 197.269 12.6531C197.066 12.6844 196.868 12.7125 196.674 12.7375C196.483 12.7594 196.329 12.7781 196.21 12.7938C195.922 12.8313 195.654 12.8922 195.404 12.9766C195.157 13.0578 194.957 13.1813 194.804 13.3469C194.654 13.5094 194.579 13.7313 194.579 14.0125C194.579 14.3969 194.721 14.6875 195.005 14.8844C195.293 15.0781 195.657 15.175 196.097 15.175ZM204.173 16.15C203.498 16.15 202.916 15.9906 202.429 15.6719C201.941 15.3531 201.566 14.9141 201.304 14.3547C201.041 13.7953 200.91 13.1563 200.91 12.4375C200.91 11.7063 201.045 11.0609 201.313 10.5016C201.585 9.93906 201.963 9.5 202.448 9.18438C202.935 8.86563 203.504 8.70625 204.154 8.70625C204.66 8.70625 205.116 8.8 205.523 8.9875C205.929 9.175 206.262 9.4375 206.521 9.775C206.78 10.1125 206.941 10.5063 207.004 10.9563L205.898 10.9563C205.813 10.6281 205.626 10.3375 205.335 10.0844C205.048 9.82813 204.66 9.7 204.173 9.7C203.741 9.7 203.363 9.8125 203.038 10.0375C202.716 10.2594 202.465 10.5734 202.284 10.9797C202.105 11.3828 202.016 11.8563 202.016 12.4C202.016 12.9563 202.104 13.4406 202.279 13.8531C202.457 14.2656 202.707 14.5859 203.029 14.8141C203.354 15.0422 203.735 15.1563 204.173 15.1563C204.46 15.1563 204.721 15.1063 204.955 15.0063C205.19 14.9063 205.388 14.7625 205.551 14.575C205.713 14.3875 205.829 14.1625 205.898 13.9L207.004 13.9C206.941 14.325 206.787 14.7078 206.54 15.0484C206.296 15.3859 205.973 15.6547 205.57 15.8547C205.17 16.0516 204.704 16.15 204.173 16.15ZM211.64 16.15C210.946 16.15 210.348 15.9969 209.845 15.6906C209.345 15.3813 208.959 14.95 208.687 14.3969C208.418 13.8406 208.284 13.1938 208.284 12.4563C208.284 11.7188 208.418 11.0688 208.687 10.5063C208.959 9.94063 209.337 9.5 209.821 9.18438C210.309 8.86563 210.877 8.70625 211.527 8.70625C211.902 8.70625 212.273 8.76875 212.638 8.89375C213.004 9.01875 213.337 9.22188 213.637 9.50313C213.937 9.78125 214.176 10.15 214.354 10.6094C214.532 11.0688 214.621 11.6344 214.621 12.3063V12.775L209.071 12.775V11.8188L213.496 11.8188C213.496 11.4125 213.415 11.05 213.252 10.7313C213.093 10.4125 212.865 10.1609 212.568 9.97656C212.274 9.79219 211.927 9.7 211.527 9.7C211.087 9.7 210.705 9.80938 210.384 10.0281C210.065 10.2438 209.82 10.525 209.648 10.8719C209.476 11.2188 209.39 11.5906 209.39 11.9875V12.625C209.39 13.1688 209.484 13.6297 209.671 14.0078C209.862 14.3828 210.126 14.6688 210.463 14.8656C210.801 15.0594 211.193 15.1563 211.64 15.1563C211.93 15.1563 212.193 15.1156 212.427 15.0344C212.665 14.95 212.87 14.825 213.041 14.6594C213.213 14.4906 213.346 14.2813 213.44 14.0313L214.509 14.3313C214.396 14.6938 214.207 15.0125 213.941 15.2875C213.676 15.5594 213.348 15.7719 212.957 15.925C212.566 16.075 212.127 16.15 211.64 16.15ZM221.329 6.4L221.329 16L220.166 16L220.166 6.4L221.329 6.4ZM223.51 16L223.51 8.8L224.579 8.8V9.925H224.672C224.822 9.54063 225.064 9.24219 225.399 9.02969C225.733 8.81406 226.135 8.70625 226.604 8.70625C227.079 8.70625 227.474 8.81406 227.789 9.02969C228.108 9.24219 228.357 9.54063 228.535 9.925H228.61C228.794 9.55313 229.071 9.25781 229.439 9.03906C229.808 8.81719 230.25 8.70625 230.766 8.70625C231.41 8.70625 231.936 8.90781 232.346 9.31094C232.755 9.71094 232.96 10.3344 232.96 11.1813L232.96 16L231.854 16L231.854 11.1813C231.854 10.65 231.708 10.2703 231.418 10.0422C231.127 9.81406 230.785 9.7 230.391 9.7C229.885 9.7 229.493 9.85313 229.214 10.1594C228.936 10.4625 228.797 10.8469 228.797 11.3125L228.797 16L227.672 16L227.672 11.0688C227.672 10.6594 227.539 10.3297 227.274 10.0797C227.008 9.82656 226.666 9.7 226.247 9.7C225.96 9.7 225.691 9.77656 225.441 9.92969C225.194 10.0828 224.994 10.2953 224.841 10.5672C224.691 10.8359 224.616 11.1469 224.616 11.5L224.616 16L223.51 16ZM234.982 18.7L234.982 8.8L236.051 8.8V9.94375H236.182C236.264 9.81875 236.376 9.65938 236.52 9.46563C236.667 9.26875 236.876 9.09375 237.148 8.94063C237.423 8.78438 237.795 8.70625 238.264 8.70625C238.87 8.70625 239.404 8.85781 239.867 9.16094C240.329 9.46406 240.69 9.89375 240.95 10.45C241.209 11.0063 241.339 11.6625 241.339 12.4188C241.339 13.1813 241.209 13.8422 240.95 14.4016C240.69 14.9578 240.331 15.3891 239.871 15.6953C239.412 15.9984 238.882 16.15 238.282 16.15C237.82 16.15 237.45 16.0734 237.171 15.9203C236.893 15.7641 236.679 15.5875 236.529 15.3906C236.379 15.1906 236.264 15.025 236.182 14.8938H236.089L236.089 18.7L234.982 18.7ZM236.07 12.4C236.07 12.9438 236.15 13.4234 236.309 13.8391C236.468 14.2516 236.701 14.575 237.007 14.8094C237.314 15.0406 237.689 15.1563 238.132 15.1563C238.595 15.1563 238.981 15.0344 239.29 14.7906C239.603 14.5438 239.837 14.2125 239.993 13.7969C240.153 13.3781 240.232 12.9125 240.232 12.4C240.232 11.8938 240.154 11.4375 239.998 11.0313C239.845 10.6219 239.612 10.2984 239.3 10.0609C238.99 9.82031 238.601 9.7 238.132 9.7C237.682 9.7 237.304 9.81406 236.998 10.0422C236.692 10.2672 236.461 10.5828 236.304 10.9891C236.148 11.3922 236.07 11.8625 236.07 12.4ZM246.045 16.15C245.351 16.15 244.753 15.9969 244.25 15.6906C243.75 15.3813 243.364 14.95 243.092 14.3969C242.823 13.8406 242.689 13.1938 242.689 12.4563C242.689 11.7188 242.823 11.0688 243.092 10.5063C243.364 9.94063 243.742 9.5 244.226 9.18438C244.714 8.86563 245.282 8.70625 245.932 8.70625C246.307 8.70625 246.678 8.76875 247.043 8.89375C247.409 9.01875 247.742 9.22188 248.042 9.50313C248.342 9.78125 248.581 10.15 248.759 10.6094C248.937 11.0688 249.026 11.6344 249.026 12.3063V12.775L243.476 12.775V11.8188L247.901 11.8188C247.901 11.4125 247.82 11.05 247.657 10.7313C247.498 10.4125 247.27 10.1609 246.973 9.97656C246.679 9.79219 246.332 9.7 245.932 9.7C245.492 9.7 245.111 9.80938 244.789 10.0281C244.47 10.2438 244.225 10.525 244.053 10.8719C243.881 11.2188 243.795 11.5906 243.795 11.9875V12.625C243.795 13.1688 243.889 13.6297 244.076 14.0078C244.267 14.3828 244.531 14.6688 244.868 14.8656C245.206 15.0594 245.598 15.1563 246.045 15.1563C246.336 15.1563 246.598 15.1156 246.832 15.0344C247.07 14.95 247.275 14.825 247.446 14.6594C247.618 14.4906 247.751 14.2813 247.845 14.0313L248.914 14.3313C248.801 14.6938 248.612 15.0125 248.346 15.2875C248.081 15.5594 247.753 15.7719 247.362 15.925C246.971 16.075 246.532 16.15 246.045 16.15ZM250.709 16L250.709 8.8L251.778 8.8V9.8875H251.853C251.984 9.53125 252.221 9.24219 252.565 9.02031C252.909 8.79844 253.296 8.6875 253.728 8.6875C253.809 8.6875 253.911 8.68906 254.032 8.69219C254.154 8.69531 254.246 8.7 254.309 8.70625V9.83125C254.271 9.82188 254.186 9.80781 254.051 9.78906C253.92 9.76719 253.781 9.75625 253.634 9.75625C253.284 9.75625 252.971 9.82969 252.696 9.97656C252.425 10.1203 252.209 10.3203 252.05 10.5766C251.893 10.8297 251.815 11.1188 251.815 11.4438L251.815 16L250.709 16ZM255.62 16L255.62 8.8L256.689 8.8V9.925H256.783C256.933 9.54063 257.175 9.24219 257.509 9.02969C257.844 8.81406 258.245 8.70625 258.714 8.70625C259.189 8.70625 259.584 8.81406 259.9 9.02969C260.219 9.24219 260.467 9.54063 260.645 9.925H260.72C260.905 9.55313 261.181 9.25781 261.55 9.03906C261.919 8.81719 262.361 8.70625 262.877 8.70625C263.52 8.70625 264.047 8.90781 264.456 9.31094C264.866 9.71094 265.07 10.3344 265.07 11.1813V16L263.964 16V11.1813C263.964 10.65 263.819 10.2703 263.528 10.0422C263.237 9.81406 262.895 9.7 262.502 9.7C261.995 9.7 261.603 9.85313 261.325 10.1594C261.047 10.4625 260.908 10.8469 260.908 11.3125V16L259.783 16V11.0688C259.783 10.6594 259.65 10.3297 259.384 10.0797C259.119 9.82656 258.777 9.7 258.358 9.7C258.07 9.7 257.802 9.77656 257.552 9.92969C257.305 10.0828 257.105 10.2953 256.952 10.5672C256.802 10.8359 256.727 11.1469 256.727 11.5V16L255.62 16ZM270.112 16.15C269.418 16.15 268.82 15.9969 268.316 15.6906C267.816 15.3813 267.43 14.95 267.159 14.3969C266.89 13.8406 266.755 13.1938 266.755 12.4563C266.755 11.7188 266.89 11.0688 267.159 10.5063C267.43 9.94063 267.809 9.5 268.293 9.18438C268.78 8.86563 269.349 8.70625 269.999 8.70625C270.374 8.70625 270.745 8.76875 271.11 8.89375C271.476 9.01875 271.809 9.22188 272.109 9.50313C272.409 9.78125 272.648 10.15 272.826 10.6094C273.004 11.0688 273.093 11.6344 273.093 12.3063V12.775L267.543 12.775V11.8188L271.968 11.8188C271.968 11.4125 271.887 11.05 271.724 10.7313C271.565 10.4125 271.337 10.1609 271.04 9.97656C270.746 9.79219 270.399 9.7 269.999 9.7C269.559 9.7 269.177 9.80938 268.855 10.0281C268.537 10.2438 268.291 10.525 268.12 10.8719C267.948 11.2188 267.862 11.5906 267.862 11.9875V12.625C267.862 13.1688 267.955 13.6297 268.143 14.0078C268.334 14.3828 268.598 14.6688 268.935 14.8656C269.273 15.0594 269.665 15.1563 270.112 15.1563C270.402 15.1563 270.665 15.1156 270.899 15.0344C271.137 14.95 271.341 14.825 271.513 14.6594C271.685 14.4906 271.818 14.2813 271.912 14.0313L272.98 14.3313C272.868 14.6938 272.679 15.0125 272.413 15.2875C272.148 15.5594 271.82 15.7719 271.429 15.925C271.038 16.075 270.599 16.15 270.112 16.15ZM269.437 7.825L270.58 5.65L271.874 5.65L270.412 7.825L269.437 7.825ZM276.895 16.1687C276.438 16.1687 276.024 16.0828 275.652 15.9109C275.28 15.7359 274.985 15.4844 274.766 15.1563C274.548 14.825 274.438 14.425 274.438 13.9563C274.438 13.5438 274.52 13.2094 274.682 12.9531C274.845 12.6938 275.062 12.4906 275.334 12.3438C275.605 12.1969 275.905 12.0875 276.234 12.0156C276.565 11.9406 276.898 11.8813 277.232 11.8375C277.67 11.7813 278.024 11.7391 278.296 11.7109C278.571 11.6797 278.771 11.6281 278.896 11.5563C279.024 11.4844 279.088 11.3594 279.088 11.1813V11.1438C279.088 10.6813 278.962 10.3219 278.709 10.0656C278.459 9.80938 278.079 9.68125 277.57 9.68125C277.041 9.68125 276.627 9.79688 276.327 10.0281C276.027 10.2594 275.816 10.5063 275.695 10.7688L274.645 10.3938C274.832 9.95625 275.082 9.61563 275.395 9.37188C275.71 9.125 276.054 8.95313 276.426 8.85625C276.801 8.75625 277.17 8.70625 277.532 8.70625C277.763 8.70625 278.029 8.73438 278.329 8.79063C278.632 8.84375 278.924 8.95469 279.205 9.12344C279.49 9.29219 279.726 9.54688 279.913 9.8875C280.101 10.2281 280.195 10.6844 280.195 11.2563V16L279.088 16V15.025H279.032C278.957 15.1813 278.832 15.3484 278.657 15.5266C278.482 15.7047 278.249 15.8563 277.959 15.9813C277.668 16.1062 277.313 16.1687 276.895 16.1687ZM277.063 15.175C277.501 15.175 277.87 15.0891 278.17 14.9172C278.473 14.7453 278.701 14.5234 278.854 14.2516C279.01 13.9797 279.088 13.6938 279.088 13.3938V12.3813C279.041 12.4375 278.938 12.4891 278.779 12.5359C278.623 12.5797 278.441 12.6188 278.235 12.6531C278.032 12.6844 277.834 12.7125 277.64 12.7375C277.449 12.7594 277.295 12.7781 277.176 12.7938C276.888 12.8313 276.62 12.8922 276.37 12.9766C276.123 13.0578 275.923 13.1813 275.77 13.3469C275.62 13.5094 275.545 13.7313 275.545 14.0125C275.545 14.3969 275.687 14.6875 275.971 14.8844C276.259 15.0781 276.623 15.175 277.063 15.175ZM282.364 16V6.4L283.47 6.4V9.94375H283.564C283.645 9.81875 283.757 9.65938 283.901 9.46563C284.048 9.26875 284.257 9.09375 284.529 8.94063C284.804 8.78438 285.176 8.70625 285.645 8.70625C286.251 8.70625 286.786 8.85781 287.248 9.16094C287.711 9.46406 288.071 9.89375 288.331 10.45C288.59 11.0063 288.72 11.6625 288.72 12.4188C288.72 13.1813 288.59 13.8422 288.331 14.4016C288.071 14.9578 287.712 15.3891 287.253 15.6953C286.793 15.9984 286.264 16.15 285.664 16.15C285.201 16.15 284.831 16.0734 284.553 15.9203C284.275 15.7641 284.061 15.5875 283.911 15.3906C283.761 15.1906 283.645 15.025 283.564 14.8938H283.432V16L282.364 16ZM283.451 12.4C283.451 12.9438 283.531 13.4234 283.69 13.8391C283.85 14.2516 284.082 14.575 284.389 14.8094C284.695 15.0406 285.07 15.1563 285.514 15.1563C285.976 15.1563 286.362 15.0344 286.671 14.7906C286.984 14.5438 287.218 14.2125 287.375 13.7969C287.534 13.3781 287.614 12.9125 287.614 12.4C287.614 11.8938 287.536 11.4375 287.379 11.0313C287.226 10.6219 286.993 10.2984 286.681 10.0609C286.371 9.82031 285.982 9.7 285.514 9.7C285.064 9.7 284.686 9.81406 284.379 10.0422C284.073 10.2672 283.842 10.5828 283.686 10.9891C283.529 11.3922 283.451 11.8625 283.451 12.4ZM291.518 6.4V16L290.412 16V6.4L291.518 6.4ZM296.563 16.15C295.87 16.15 295.271 15.9969 294.768 15.6906C294.268 15.3813 293.882 14.95 293.61 14.3969C293.341 13.8406 293.207 13.1938 293.207 12.4563C293.207 11.7188 293.341 11.0688 293.61 10.5063C293.882 9.94063 294.26 9.5 294.745 9.18438C295.232 8.86563 295.801 8.70625 296.451 8.70625C296.826 8.70625 297.196 8.76875 297.562 8.89375C297.927 9.01875 298.26 9.22188 298.56 9.50313C298.86 9.78125 299.099 10.15 299.277 10.6094C299.455 11.0688 299.545 11.6344 299.545 12.3063V12.775L293.995 12.775V11.8188L298.42 11.8188C298.42 11.4125 298.338 11.05 298.176 10.7313C298.016 10.4125 297.788 10.1609 297.491 9.97656C297.198 9.79219 296.851 9.7 296.451 9.7C296.01 9.7 295.629 9.80938 295.307 10.0281C294.988 10.2438 294.743 10.525 294.571 10.8719C294.399 11.2188 294.313 11.5906 294.313 11.9875V12.625C294.313 13.1688 294.407 13.6297 294.595 14.0078C294.785 14.3828 295.049 14.6688 295.387 14.8656C295.724 15.0594 296.116 15.1563 296.563 15.1563C296.854 15.1563 297.116 15.1156 297.351 15.0344C297.588 14.95 297.793 14.825 297.965 14.6594C298.137 14.4906 298.27 14.2813 298.363 14.0313L299.432 14.3313C299.32 14.6938 299.13 15.0125 298.865 15.2875C298.599 15.5594 298.271 15.7719 297.88 15.925C297.49 16.075 297.051 16.15 296.563 16.15Z" fill="black"/>
<path d="M352.797 0L330.797 0L330.797 22L352.797 22L352.797 0Z" fill="#DBB846"/>
<path d="M358.759 6.4L361.609 14.4813H361.722L364.572 6.4L365.791 6.4L362.266 16L361.066 16L357.541 6.4L358.759 6.4ZM369.484 16.15C368.791 16.15 368.192 15.9969 367.689 15.6906C367.189 15.3813 366.803 14.95 366.531 14.3969C366.262 13.8406 366.128 13.1938 366.128 12.4563C366.128 11.7188 366.262 11.0688 366.531 10.5063C366.803 9.94063 367.181 9.5 367.666 9.18438C368.153 8.86563 368.722 8.70625 369.372 8.70625C369.747 8.70625 370.117 8.76875 370.483 8.89375C370.848 9.01875 371.181 9.22188 371.481 9.50313C371.781 9.78125 372.02 10.15 372.198 10.6094C372.377 11.0688 372.466 11.6344 372.466 12.3063V12.775L366.916 12.775V11.8188L371.341 11.8188C371.341 11.4125 371.259 11.05 371.097 10.7313C370.937 10.4125 370.709 10.1609 370.412 9.97656C370.119 9.79219 369.772 9.7 369.372 9.7C368.931 9.7 368.55 9.80938 368.228 10.0281C367.909 10.2438 367.664 10.525 367.492 10.8719C367.32 11.2188 367.234 11.5906 367.234 11.9875V12.625C367.234 13.1688 367.328 13.6297 367.516 14.0078C367.706 14.3828 367.97 14.6688 368.308 14.8656C368.645 15.0594 369.037 15.1563 369.484 15.1563C369.775 15.1563 370.037 15.1156 370.272 15.0344C370.509 14.95 370.714 14.825 370.886 14.6594C371.058 14.4906 371.191 14.2813 371.284 14.0313L372.353 14.3313C372.241 14.6938 372.052 15.0125 371.786 15.2875C371.52 15.5594 371.192 15.7719 370.802 15.925C370.411 16.075 369.972 16.15 369.484 16.15ZM368.809 7.825L369.953 5.65L371.247 5.65L369.784 7.825L368.809 7.825ZM377.055 18.85C376.52 18.85 376.061 18.7812 375.677 18.6437C375.292 18.5094 374.972 18.3312 374.716 18.1094C374.462 17.8906 374.261 17.6562 374.111 17.4062L374.992 16.7875C375.092 16.9187 375.219 17.0687 375.372 17.2375C375.525 17.4094 375.734 17.5578 376 17.6828C376.269 17.8109 376.62 17.875 377.055 17.875C377.636 17.875 378.116 17.7344 378.494 17.4531C378.872 17.1719 379.061 16.7312 379.061 16.1312V14.6688H378.967C378.886 14.8 378.77 14.9625 378.62 15.1563C378.473 15.3469 378.261 15.5172 377.983 15.6672C377.708 15.8141 377.336 15.8875 376.867 15.8875C376.286 15.8875 375.764 15.75 375.302 15.475C374.842 15.2 374.478 14.8 374.209 14.275C373.944 13.75 373.811 13.1125 373.811 12.3625C373.811 11.625 373.941 10.9828 374.2 10.4359C374.459 9.88594 374.82 9.46094 375.283 9.16094C375.745 8.85781 376.28 8.70625 376.886 8.70625C377.355 8.70625 377.727 8.78438 378.002 8.94063C378.28 9.09375 378.492 9.26875 378.639 9.46563C378.789 9.65938 378.905 9.81875 378.986 9.94375H379.098V8.8L380.167 8.8V16.2062C380.167 16.825 380.027 17.3281 379.745 17.7156C379.467 18.1062 379.092 18.3922 378.62 18.5734C378.152 18.7578 377.63 18.85 377.055 18.85ZM377.017 14.8938C377.461 14.8938 377.836 14.7922 378.142 14.5891C378.448 14.3859 378.681 14.0938 378.841 13.7125C379 13.3313 379.08 12.875 379.08 12.3438C379.08 11.825 379.002 11.3672 378.845 10.9703C378.689 10.5734 378.458 10.2625 378.152 10.0375C377.845 9.8125 377.467 9.7 377.017 9.7C376.548 9.7 376.158 9.81875 375.845 10.0563C375.536 10.2938 375.303 10.6125 375.147 11.0125C374.994 11.4125 374.917 11.8563 374.917 12.3438C374.917 12.8438 374.995 13.2859 375.152 13.6703C375.311 14.0516 375.545 14.3516 375.855 14.5703C376.167 14.7859 376.555 14.8938 377.017 14.8938ZM385.211 16.15C384.517 16.15 383.919 15.9969 383.416 15.6906C382.916 15.3813 382.53 14.95 382.258 14.3969C381.989 13.8406 381.855 13.1938 381.855 12.4563C381.855 11.7188 381.989 11.0688 382.258 10.5063C382.53 9.94063 382.908 9.5 383.392 9.18438C383.88 8.86563 384.448 8.70625 385.098 8.70625C385.473 8.70625 385.844 8.76875 386.209 8.89375C386.575 9.01875 386.908 9.22188 387.208 9.50313C387.508 9.78125 387.747 10.15 387.925 10.6094C388.103 11.0688 388.192 11.6344 388.192 12.3063V12.775L382.642 12.775V11.8188L387.067 11.8188C387.067 11.4125 386.986 11.05 386.823 10.7313C386.664 10.4125 386.436 10.1609 386.139 9.97656C385.845 9.79219 385.498 9.7 385.098 9.7C384.658 9.7 384.277 9.80938 383.955 10.0281C383.636 10.2438 383.391 10.525 383.219 10.8719C383.047 11.2188 382.961 11.5906 382.961 11.9875V12.625C382.961 13.1688 383.055 13.6297 383.242 14.0078C383.433 14.3828 383.697 14.6688 384.034 14.8656C384.372 15.0594 384.764 15.1563 385.211 15.1563C385.502 15.1563 385.764 15.1156 385.998 15.0344C386.236 14.95 386.441 14.825 386.612 14.6594C386.784 14.4906 386.917 14.2813 387.011 14.0313L388.08 14.3313C387.967 14.6938 387.778 15.0125 387.512 15.2875C387.247 15.5594 386.919 15.7719 386.528 15.925C386.137 16.075 385.698 16.15 385.211 16.15ZM384.536 7.825L385.68 5.65L386.973 5.65L385.511 7.825L384.536 7.825ZM393.006 8.8V9.7375L389.275 9.7375V8.8L393.006 8.8ZM390.362 7.075L391.469 7.075V13.9375C391.469 14.25 391.514 14.4844 391.605 14.6406C391.698 14.7938 391.817 14.8969 391.961 14.95C392.108 15 392.262 15.025 392.425 15.025C392.547 15.025 392.647 15.0188 392.725 15.0063C392.803 14.9906 392.866 14.9781 392.912 14.9688L393.137 15.9625C393.062 15.9906 392.958 16.0187 392.823 16.0469C392.689 16.0781 392.519 16.0937 392.312 16.0937C392 16.0937 391.694 16.0266 391.394 15.8922C391.097 15.7578 390.85 15.5531 390.653 15.2781C390.459 15.0031 390.362 14.6563 390.362 14.2375V7.075ZM396.789 16.1687C396.333 16.1687 395.919 16.0828 395.547 15.9109C395.175 15.7359 394.88 15.4844 394.661 15.1563C394.442 14.825 394.333 14.425 394.333 13.9563C394.333 13.5438 394.414 13.2094 394.577 12.9531C394.739 12.6938 394.956 12.4906 395.228 12.3438C395.5 12.1969 395.8 12.0875 396.128 12.0156C396.459 11.9406 396.792 11.8813 397.127 11.8375C397.564 11.7813 397.919 11.7391 398.191 11.7109C398.466 11.6797 398.666 11.6281 398.791 11.5563C398.919 11.4844 398.983 11.3594 398.983 11.1813V11.1438C398.983 10.6813 398.856 10.3219 398.603 10.0656C398.353 9.80938 397.973 9.68125 397.464 9.68125C396.936 9.68125 396.522 9.79688 396.222 10.0281C395.922 10.2594 395.711 10.5063 395.589 10.7688L394.539 10.3938C394.727 9.95625 394.977 9.61563 395.289 9.37188C395.605 9.125 395.948 8.95313 396.32 8.85625C396.695 8.75625 397.064 8.70625 397.427 8.70625C397.658 8.70625 397.923 8.73438 398.223 8.79063C398.527 8.84375 398.819 8.95469 399.1 9.12344C399.384 9.29219 399.62 9.54688 399.808 9.8875C399.995 10.2281 400.089 10.6844 400.089 11.2563V16L398.983 16V15.025H398.927C398.852 15.1813 398.727 15.3484 398.552 15.5266C398.377 15.7047 398.144 15.8563 397.853 15.9813C397.562 16.1062 397.208 16.1687 396.789 16.1687ZM396.958 15.175C397.395 15.175 397.764 15.0891 398.064 14.9172C398.367 14.7453 398.595 14.5234 398.748 14.2516C398.905 13.9797 398.983 13.6938 398.983 13.3938V12.3813C398.936 12.4375 398.833 12.4891 398.673 12.5359C398.517 12.5797 398.336 12.6188 398.13 12.6531C397.927 12.6844 397.728 12.7125 397.534 12.7375C397.344 12.7594 397.189 12.7781 397.07 12.7938C396.783 12.8313 396.514 12.8922 396.264 12.9766C396.017 13.0578 395.817 13.1813 395.664 13.3469C395.514 13.5094 395.439 13.7313 395.439 14.0125C395.439 14.3969 395.581 14.6875 395.866 14.8844C396.153 15.0781 396.517 15.175 396.958 15.175ZM405.239 8.8V9.7375L401.508 9.7375V8.8L405.239 8.8ZM402.596 7.075L403.702 7.075V13.9375C403.702 14.25 403.747 14.4844 403.838 14.6406C403.932 14.7938 404.05 14.8969 404.194 14.95C404.341 15 404.496 15.025 404.658 15.025C404.78 15.025 404.88 15.0188 404.958 15.0063C405.036 14.9906 405.099 14.9781 405.146 14.9688L405.371 15.9625C405.296 15.9906 405.191 16.0187 405.057 16.0469C404.922 16.0781 404.752 16.0937 404.546 16.0937C404.233 16.0937 403.927 16.0266 403.627 15.8922C403.33 15.7578 403.083 15.5531 402.886 15.2781C402.693 15.0031 402.596 14.6563 402.596 14.2375V7.075ZM406.904 16V8.8L408.01 8.8V16L406.904 16ZM407.466 7.6C407.25 7.6 407.064 7.52656 406.908 7.37969C406.755 7.23281 406.679 7.05625 406.679 6.85C406.679 6.64375 406.755 6.46719 406.908 6.32031C407.064 6.17344 407.25 6.1 407.466 6.1C407.682 6.1 407.866 6.17344 408.019 6.32031C408.175 6.46719 408.254 6.64375 408.254 6.85C408.254 7.05625 408.175 7.23281 408.019 7.37969C407.866 7.52656 407.682 7.6 407.466 7.6ZM412.961 16.15C412.311 16.15 411.741 15.9953 411.25 15.6859C410.762 15.3766 410.381 14.9438 410.106 14.3875C409.834 13.8313 409.698 13.1813 409.698 12.4375C409.698 11.6875 409.834 11.0328 410.106 10.4734C410.381 9.91406 410.762 9.47969 411.25 9.17031C411.741 8.86094 412.311 8.70625 412.961 8.70625C413.611 8.70625 414.18 8.86094 414.667 9.17031C415.158 9.47969 415.539 9.91406 415.811 10.4734C416.086 11.0328 416.223 11.6875 416.223 12.4375C416.223 13.1813 416.086 13.8313 415.811 14.3875C415.539 14.9438 415.158 15.3766 414.667 15.6859C414.18 15.9953 413.611 16.15 412.961 16.15ZM412.961 15.1563C413.455 15.1563 413.861 15.0297 414.18 14.7766C414.498 14.5234 414.734 14.1906 414.887 13.7781C415.041 13.3656 415.117 12.9188 415.117 12.4375C415.117 11.9563 415.041 11.5078 414.887 11.0922C414.734 10.6766 414.498 10.3406 414.18 10.0844C413.861 9.82813 413.455 9.7 412.961 9.7C412.467 9.7 412.061 9.82813 411.742 10.0844C411.423 10.3406 411.187 10.6766 411.034 11.0922C410.881 11.5078 410.805 11.9563 410.805 12.4375C410.805 12.9188 410.881 13.3656 411.034 13.7781C411.187 14.1906 411.423 14.5234 411.742 14.7766C412.061 15.0297 412.467 15.1563 412.961 15.1563ZM419.018 11.6688V16L417.912 16V8.8L418.981 8.8V9.925H419.075C419.243 9.55938 419.5 9.26563 419.843 9.04375C420.187 8.81875 420.631 8.70625 421.175 8.70625C421.662 8.70625 422.089 8.80625 422.454 9.00625C422.82 9.20313 423.104 9.50313 423.307 9.90625C423.511 10.3063 423.612 10.8125 423.612 11.425V16L422.506 16V11.5C422.506 10.9344 422.359 10.4938 422.065 10.1781C421.771 9.85938 421.368 9.7 420.856 9.7C420.503 9.7 420.187 9.77656 419.909 9.92969C419.634 10.0828 419.417 10.3063 419.257 10.6C419.098 10.8938 419.018 11.25 419.018 11.6688ZM429.496 16V6.4L430.659 6.4V10.675L435.777 10.675V6.4L436.94 6.4V16L435.777 16V11.7063L430.659 11.7063V16L429.496 16ZM441.236 16.1687C440.78 16.1687 440.366 16.0828 439.994 15.9109C439.622 15.7359 439.327 15.4844 439.108 15.1563C438.889 14.825 438.78 14.425 438.78 13.9563C438.78 13.5438 438.861 13.2094 439.023 12.9531C439.186 12.6938 439.403 12.4906 439.675 12.3438C439.947 12.1969 440.247 12.0875 440.575 12.0156C440.906 11.9406 441.239 11.8813 441.573 11.8375C442.011 11.7813 442.366 11.7391 442.637 11.7109C442.912 11.6797 443.112 11.6281 443.237 11.5563C443.366 11.4844 443.43 11.3594 443.43 11.1813V11.1438C443.43 10.6813 443.303 10.3219 443.05 10.0656C442.8 9.80938 442.42 9.68125 441.911 9.68125C441.383 9.68125 440.969 9.79688 440.669 10.0281C440.369 10.2594 440.158 10.5063 440.036 10.7688L438.986 10.3938C439.173 9.95625 439.423 9.61563 439.736 9.37188C440.052 9.125 440.395 8.95313 440.767 8.85625C441.142 8.75625 441.511 8.70625 441.873 8.70625C442.105 8.70625 442.37 8.73438 442.67 8.79063C442.973 8.84375 443.266 8.95469 443.547 9.12344C443.831 9.29219 444.067 9.54688 444.255 9.8875C444.442 10.2281 444.536 10.6844 444.536 11.2563V16L443.43 16V15.025H443.373C443.298 15.1813 443.173 15.3484 442.998 15.5266C442.823 15.7047 442.591 15.8563 442.3 15.9813C442.009 16.1062 441.655 16.1687 441.236 16.1687ZM441.405 15.175C441.842 15.175 442.211 15.0891 442.511 14.9172C442.814 14.7453 443.042 14.5234 443.195 14.2516C443.352 13.9797 443.43 13.6938 443.43 13.3938V12.3813C443.383 12.4375 443.28 12.4891 443.12 12.5359C442.964 12.5797 442.783 12.6188 442.577 12.6531C442.373 12.6844 442.175 12.7125 441.981 12.7375C441.791 12.7594 441.636 12.7781 441.517 12.7938C441.23 12.8313 440.961 12.8922 440.711 12.9766C440.464 13.0578 440.264 13.1813 440.111 13.3469C439.961 13.5094 439.886 13.7313 439.886 14.0125C439.886 14.3969 440.028 14.6875 440.312 14.8844C440.6 15.0781 440.964 15.175 441.405 15.175ZM451.093 13.0563V8.8L452.199 8.8V16L451.093 16V14.7813H451.018C450.849 15.1469 450.586 15.4578 450.23 15.7141C449.874 15.9672 449.424 16.0937 448.88 16.0937C448.43 16.0937 448.03 15.9953 447.68 15.7984C447.33 15.5984 447.055 15.2984 446.855 14.8984C446.655 14.4953 446.555 13.9875 446.555 13.375V8.8L447.661 8.8V13.3C447.661 13.825 447.808 14.2438 448.102 14.5563C448.399 14.8688 448.777 15.025 449.236 15.025C449.511 15.025 449.791 14.9547 450.075 14.8141C450.363 14.6734 450.603 14.4578 450.797 14.1672C450.994 13.8766 451.093 13.5063 451.093 13.0563ZM457.356 8.8V9.7375L453.625 9.7375V8.8L457.356 8.8ZM454.712 7.075L455.819 7.075V13.9375C455.819 14.25 455.864 14.4844 455.955 14.6406C456.048 14.7938 456.167 14.8969 456.311 14.95C456.458 15 456.612 15.025 456.775 15.025C456.897 15.025 456.997 15.0188 457.075 15.0063C457.153 14.9906 457.216 14.9781 457.262 14.9688L457.487 15.9625C457.412 15.9906 457.308 16.0187 457.173 16.0469C457.039 16.0781 456.869 16.0937 456.662 16.0937C456.35 16.0937 456.044 16.0266 455.744 15.8922C455.447 15.7578 455.2 15.5531 455.003 15.2781C454.809 15.0031 454.712 14.6563 454.712 14.2375V7.075ZM461.962 16.15C461.268 16.15 460.67 15.9969 460.166 15.6906C459.666 15.3813 459.28 14.95 459.009 14.3969C458.74 13.8406 458.605 13.1938 458.605 12.4563C458.605 11.7188 458.74 11.0688 459.009 10.5063C459.28 9.94063 459.659 9.5 460.143 9.18438C460.63 8.86563 461.199 8.70625 461.849 8.70625C462.224 8.70625 462.595 8.76875 462.96 8.89375C463.326 9.01875 463.659 9.22188 463.959 9.50313C464.259 9.78125 464.498 10.15 464.676 10.6094C464.854 11.0688 464.943 11.6344 464.943 12.3063V12.775L459.393 12.775V11.8188L463.818 11.8188C463.818 11.4125 463.737 11.05 463.574 10.7313C463.415 10.4125 463.187 10.1609 462.89 9.97656C462.596 9.79219 462.249 9.7 461.849 9.7C461.409 9.7 461.027 9.80938 460.705 10.0281C460.387 10.2438 460.141 10.525 459.97 10.8719C459.798 11.2188 459.712 11.5906 459.712 11.9875V12.625C459.712 13.1688 459.805 13.6297 459.993 14.0078C460.184 14.3828 460.448 14.6688 460.785 14.8656C461.123 15.0594 461.515 15.1563 461.962 15.1563C462.252 15.1563 462.515 15.1156 462.749 15.0344C462.987 14.95 463.191 14.825 463.363 14.6594C463.535 14.4906 463.668 14.2813 463.762 14.0313L464.83 14.3313C464.718 14.6938 464.529 15.0125 464.263 15.2875C463.998 15.5594 463.67 15.7719 463.279 15.925C462.888 16.075 462.449 16.15 461.962 16.15Z" fill="black"/>
<path d="M518.203 0L496.203 0L496.203 22L518.203 22V0Z" fill="#51DB6F"/>
<path d="M524.158 6.4L527.008 14.4813H527.12L529.97 6.4L531.189 6.4L527.664 16L526.464 16L522.939 6.4L524.158 6.4ZM534.883 16.15C534.189 16.15 533.591 15.9969 533.087 15.6906C532.587 15.3813 532.202 14.95 531.93 14.3969C531.661 13.8406 531.527 13.1938 531.527 12.4563C531.527 11.7188 531.661 11.0688 531.93 10.5063C532.202 9.94063 532.58 9.5 533.064 9.18438C533.552 8.86563 534.12 8.70625 534.77 8.70625C535.145 8.70625 535.516 8.76875 535.881 8.89375C536.247 9.01875 536.58 9.22188 536.88 9.50313C537.18 9.78125 537.419 10.15 537.597 10.6094C537.775 11.0688 537.864 11.6344 537.864 12.3063V12.775L532.314 12.775V11.8188L536.739 11.8188C536.739 11.4125 536.658 11.05 536.495 10.7313C536.336 10.4125 536.108 10.1609 535.811 9.97656C535.517 9.79219 535.17 9.7 534.77 9.7C534.33 9.7 533.948 9.80938 533.627 10.0281C533.308 10.2438 533.062 10.525 532.891 10.8719C532.719 11.2188 532.633 11.5906 532.633 11.9875V12.625C532.633 13.1688 532.727 13.6297 532.914 14.0078C533.105 14.3828 533.369 14.6688 533.706 14.8656C534.044 15.0594 534.436 15.1563 534.883 15.1563C535.173 15.1563 535.436 15.1156 535.67 15.0344C535.908 14.95 536.112 14.825 536.284 14.6594C536.456 14.4906 536.589 14.2813 536.683 14.0313L537.752 14.3313C537.639 14.6938 537.45 15.0125 537.184 15.2875C536.919 15.5594 536.591 15.7719 536.2 15.925C535.809 16.075 535.37 16.15 534.883 16.15ZM534.208 7.825L535.352 5.65L536.645 5.65L535.183 7.825L534.208 7.825ZM542.453 18.85C541.919 18.85 541.459 18.7812 541.075 18.6437C540.691 18.5094 540.37 18.3312 540.114 18.1094C539.861 17.8906 539.659 17.6562 539.509 17.4062L540.391 16.7875C540.491 16.9187 540.617 17.0687 540.77 17.2375C540.923 17.4094 541.133 17.5578 541.398 17.6828C541.667 17.8109 542.019 17.875 542.453 17.875C543.034 17.875 543.514 17.7344 543.892 17.4531C544.27 17.1719 544.459 16.7312 544.459 16.1312V14.6688H544.366C544.284 14.8 544.169 14.9625 544.019 15.1563C543.872 15.3469 543.659 15.5172 543.381 15.6672C543.106 15.8141 542.734 15.8875 542.266 15.8875C541.684 15.8875 541.162 15.75 540.7 15.475C540.241 15.2 539.877 14.8 539.608 14.275C539.342 13.75 539.209 13.1125 539.209 12.3625C539.209 11.625 539.339 10.9828 539.598 10.4359C539.858 9.88594 540.219 9.46094 540.681 9.16094C541.144 8.85781 541.678 8.70625 542.284 8.70625C542.753 8.70625 543.125 8.78438 543.4 8.94063C543.678 9.09375 543.891 9.26875 544.037 9.46563C544.187 9.65938 544.303 9.81875 544.384 9.94375H544.497V8.8L545.566 8.8V16.2062C545.566 16.825 545.425 17.3281 545.144 17.7156C544.866 18.1062 544.491 18.3922 544.019 18.5734C543.55 18.7578 543.028 18.85 542.453 18.85ZM542.416 14.8938C542.859 14.8938 543.234 14.7922 543.541 14.5891C543.847 14.3859 544.08 14.0938 544.239 13.7125C544.398 13.3313 544.478 12.875 544.478 12.3438C544.478 11.825 544.4 11.3672 544.244 10.9703C544.087 10.5734 543.856 10.2625 543.55 10.0375C543.244 9.8125 542.866 9.7 542.416 9.7C541.947 9.7 541.556 9.81875 541.244 10.0563C540.934 10.2938 540.702 10.6125 540.545 11.0125C540.392 11.4125 540.316 11.8563 540.316 12.3438C540.316 12.8438 540.394 13.2859 540.55 13.6703C540.709 14.0516 540.944 14.3516 541.253 14.5703C541.566 14.7859 541.953 14.8938 542.416 14.8938ZM550.609 16.15C549.916 16.15 549.317 15.9969 548.814 15.6906C548.314 15.3813 547.928 14.95 547.656 14.3969C547.387 13.8406 547.253 13.1938 547.253 12.4563C547.253 11.7188 547.387 11.0688 547.656 10.5063C547.928 9.94063 548.306 9.5 548.791 9.18438C549.278 8.86563 549.847 8.70625 550.497 8.70625C550.872 8.70625 551.242 8.76875 551.608 8.89375C551.973 9.01875 552.306 9.22188 552.606 9.50313C552.906 9.78125 553.145 10.15 553.323 10.6094C553.502 11.0688 553.591 11.6344 553.591 12.3063V12.775L548.041 12.775V11.8188L552.466 11.8188C552.466 11.4125 552.384 11.05 552.222 10.7313C552.062 10.4125 551.834 10.1609 551.537 9.97656C551.244 9.79219 550.897 9.7 550.497 9.7C550.056 9.7 549.675 9.80938 549.353 10.0281C549.034 10.2438 548.789 10.525 548.617 10.8719C548.445 11.2188 548.359 11.5906 548.359 11.9875V12.625C548.359 13.1688 548.453 13.6297 548.641 14.0078C548.831 14.3828 549.095 14.6688 549.433 14.8656C549.77 15.0594 550.162 15.1563 550.609 15.1563C550.9 15.1563 551.162 15.1156 551.397 15.0344C551.634 14.95 551.839 14.825 552.011 14.6594C552.183 14.4906 552.316 14.2813 552.409 14.0313L553.478 14.3313C553.366 14.6938 553.177 15.0125 552.911 15.2875C552.645 15.5594 552.317 15.7719 551.927 15.925C551.536 16.075 551.097 16.15 550.609 16.15ZM549.934 7.825L551.078 5.65L552.372 5.65L550.909 7.825L549.934 7.825ZM558.405 8.8V9.7375L554.673 9.7375V8.8L558.405 8.8ZM555.761 7.075L556.867 7.075V13.9375C556.867 14.25 556.912 14.4844 557.003 14.6406C557.097 14.7938 557.216 14.8969 557.359 14.95C557.506 15 557.661 15.025 557.823 15.025C557.945 15.025 558.045 15.0188 558.123 15.0063C558.202 14.9906 558.264 14.9781 558.311 14.9688L558.536 15.9625C558.461 15.9906 558.356 16.0187 558.222 16.0469C558.087 16.0781 557.917 16.0937 557.711 16.0937C557.398 16.0937 557.092 16.0266 556.792 15.8922C556.495 15.7578 556.248 15.5531 556.052 15.2781C555.858 15.0031 555.761 14.6563 555.761 14.2375V7.075ZM562.187 16.1687C561.731 16.1687 561.317 16.0828 560.945 15.9109C560.573 15.7359 560.278 15.4844 560.059 15.1563C559.841 14.825 559.731 14.425 559.731 13.9563C559.731 13.5438 559.812 13.2094 559.975 12.9531C560.137 12.6938 560.355 12.4906 560.627 12.3438C560.898 12.1969 561.198 12.0875 561.527 12.0156C561.858 11.9406 562.191 11.8813 562.525 11.8375C562.962 11.7813 563.317 11.7391 563.589 11.7109C563.864 11.6797 564.064 11.6281 564.189 11.5563C564.317 11.4844 564.381 11.3594 564.381 11.1813V11.1438C564.381 10.6813 564.255 10.3219 564.002 10.0656C563.752 9.80938 563.372 9.68125 562.862 9.68125C562.334 9.68125 561.92 9.79688 561.62 10.0281C561.32 10.2594 561.109 10.5063 560.987 10.7688L559.937 10.3938C560.125 9.95625 560.375 9.61563 560.687 9.37188C561.003 9.125 561.347 8.95313 561.719 8.85625C562.094 8.75625 562.462 8.70625 562.825 8.70625C563.056 8.70625 563.322 8.73438 563.622 8.79063C563.925 8.84375 564.217 8.95469 564.498 9.12344C564.783 9.29219 565.019 9.54688 565.206 9.8875C565.394 10.2281 565.487 10.6844 565.487 11.2563V16L564.381 16V15.025H564.325C564.25 15.1813 564.125 15.3484 563.95 15.5266C563.775 15.7047 563.542 15.8563 563.252 15.9813C562.961 16.1062 562.606 16.1687 562.187 16.1687ZM562.356 15.175C562.794 15.175 563.162 15.0891 563.462 14.9172C563.766 14.7453 563.994 14.5234 564.147 14.2516C564.303 13.9797 564.381 13.6938 564.381 13.3938V12.3813C564.334 12.4375 564.231 12.4891 564.072 12.5359C563.916 12.5797 563.734 12.6188 563.528 12.6531C563.325 12.6844 563.127 12.7125 562.933 12.7375C562.742 12.7594 562.587 12.7781 562.469 12.7938C562.181 12.8313 561.912 12.8922 561.662 12.9766C561.416 13.0578 561.216 13.1813 561.062 13.3469C560.912 13.5094 560.837 13.7313 560.837 14.0125C560.837 14.3969 560.98 14.6875 561.264 14.8844C561.552 15.0781 561.916 15.175 562.356 15.175ZM570.638 8.8V9.7375L566.907 9.7375V8.8L570.638 8.8ZM567.994 7.075L569.1 7.075V13.9375C569.1 14.25 569.146 14.4844 569.236 14.6406C569.33 14.7938 569.449 14.8969 569.593 14.95C569.739 15 569.894 15.025 570.057 15.025C570.179 15.025 570.279 15.0188 570.357 15.0063C570.435 14.9906 570.497 14.9781 570.544 14.9688L570.769 15.9625C570.694 15.9906 570.589 16.0187 570.455 16.0469C570.321 16.0781 570.15 16.0937 569.944 16.0937C569.632 16.0937 569.325 16.0266 569.025 15.8922C568.729 15.7578 568.482 15.5531 568.285 15.2781C568.091 15.0031 567.994 14.6563 567.994 14.2375V7.075ZM572.302 16V8.8L573.408 8.8V16L572.302 16ZM572.864 7.6C572.649 7.6 572.463 7.52656 572.307 7.37969C572.154 7.23281 572.077 7.05625 572.077 6.85C572.077 6.64375 572.154 6.46719 572.307 6.32031C572.463 6.17344 572.649 6.1 572.864 6.1C573.08 6.1 573.264 6.17344 573.418 6.32031C573.574 6.46719 573.652 6.64375 573.652 6.85C573.652 7.05625 573.574 7.23281 573.418 7.37969C573.264 7.52656 573.08 7.6 572.864 7.6ZM578.359 16.15C577.709 16.15 577.139 15.9953 576.648 15.6859C576.161 15.3766 575.78 14.9438 575.505 14.3875C575.233 13.8313 575.097 13.1813 575.097 12.4375C575.097 11.6875 575.233 11.0328 575.505 10.4734C575.78 9.91406 576.161 9.47969 576.648 9.17031C577.139 8.86094 577.709 8.70625 578.359 8.70625C579.009 8.70625 579.578 8.86094 580.066 9.17031C580.556 9.47969 580.937 9.91406 581.209 10.4734C581.484 11.0328 581.622 11.6875 581.622 12.4375C581.622 13.1813 581.484 13.8313 581.209 14.3875C580.937 14.9438 580.556 15.3766 580.066 15.6859C579.578 15.9953 579.009 16.15 578.359 16.15ZM578.359 15.1563C578.853 15.1563 579.259 15.0297 579.578 14.7766C579.897 14.5234 580.133 14.1906 580.286 13.7781C580.439 13.3656 580.516 12.9188 580.516 12.4375C580.516 11.9563 580.439 11.5078 580.286 11.0922C580.133 10.6766 579.897 10.3406 579.578 10.0844C579.259 9.82813 578.853 9.7 578.359 9.7C577.866 9.7 577.459 9.82813 577.141 10.0844C576.822 10.3406 576.586 10.6766 576.433 11.0922C576.28 11.5078 576.203 11.9563 576.203 12.4375C576.203 12.9188 576.28 13.3656 576.433 13.7781C576.586 14.1906 576.822 14.5234 577.141 14.7766C577.459 15.0297 577.866 15.1563 578.359 15.1563ZM584.417 11.6688V16L583.311 16V8.8L584.379 8.8V9.925H584.473C584.642 9.55938 584.898 9.26563 585.242 9.04375C585.586 8.81875 586.029 8.70625 586.573 8.70625C587.061 8.70625 587.487 8.80625 587.853 9.00625C588.218 9.20313 588.503 9.50313 588.706 9.90625C588.909 10.3063 589.011 10.8125 589.011 11.425V16L587.904 16V11.5C587.904 10.9344 587.757 10.4938 587.464 10.1781C587.17 9.85938 586.767 9.7 586.254 9.7C585.901 9.7 585.586 9.77656 585.307 9.92969C585.032 10.0828 584.815 10.3063 584.656 10.6C584.496 10.8938 584.417 11.25 584.417 11.6688ZM594.895 16V6.4L598.251 6.4C598.92 6.4 599.471 6.51563 599.905 6.74688C600.34 6.975 600.663 7.28281 600.876 7.67031C601.088 8.05469 601.195 8.48125 601.195 8.95C601.195 9.3625 601.121 9.70313 600.974 9.97188C600.83 10.2406 600.64 10.4531 600.402 10.6094C600.168 10.7656 599.913 10.8813 599.638 10.9563V11.05C599.932 11.0688 600.227 11.1719 600.524 11.3594C600.821 11.5469 601.07 11.8156 601.27 12.1656C601.47 12.5156 601.57 12.9438 601.57 13.45C601.57 13.9313 601.46 14.3641 601.241 14.7484C601.023 15.1328 600.677 15.4375 600.205 15.6625C599.734 15.8875 599.12 16 598.363 16L594.895 16ZM596.057 14.9688L598.363 14.9688C599.123 14.9688 599.662 14.8219 599.98 14.5281C600.302 14.2313 600.463 13.8719 600.463 13.45C600.463 13.125 600.38 12.825 600.215 12.55C600.049 12.2719 599.813 12.05 599.507 11.8844C599.201 11.7156 598.838 11.6313 598.42 11.6313L596.057 11.6313V14.9688ZM596.057 10.6188L598.213 10.6188C598.563 10.6188 598.879 10.55 599.16 10.4125C599.445 10.275 599.67 10.0813 599.835 9.83125C600.004 9.58125 600.088 9.2875 600.088 8.95C600.088 8.52813 599.941 8.17031 599.648 7.87656C599.354 7.57969 598.888 7.43125 598.251 7.43125L596.057 7.43125V10.6188ZM605.448 16.1687C604.992 16.1687 604.578 16.0828 604.206 15.9109C603.834 15.7359 603.539 15.4844 603.32 15.1563C603.102 14.825 602.992 14.425 602.992 13.9563C602.992 13.5438 603.073 13.2094 603.236 12.9531C603.398 12.6938 603.616 12.4906 603.887 12.3438C604.159 12.1969 604.459 12.0875 604.787 12.0156C605.119 11.9406 605.452 11.8813 605.786 11.8375C606.223 11.7813 606.578 11.7391 606.85 11.7109C607.125 11.6797 607.325 11.6281 607.45 11.5563C607.578 11.4844 607.642 11.3594 607.642 11.1813V11.1438C607.642 10.6813 607.516 10.3219 607.262 10.0656C607.012 9.80938 606.633 9.68125 606.123 9.68125C605.595 9.68125 605.181 9.79688 604.881 10.0281C604.581 10.2594 604.37 10.5063 604.248 10.7688L603.198 10.3938C603.386 9.95625 603.636 9.61563 603.948 9.37188C604.264 9.125 604.608 8.95313 604.98 8.85625C605.355 8.75625 605.723 8.70625 606.086 8.70625C606.317 8.70625 606.583 8.73438 606.883 8.79063C607.186 8.84375 607.478 8.95469 607.759 9.12344C608.044 9.29219 608.28 9.54688 608.467 9.8875C608.655 10.2281 608.748 10.6844 608.748 11.2563V16L607.642 16V15.025H607.586C607.511 15.1813 607.386 15.3484 607.211 15.5266C607.036 15.7047 606.803 15.8563 606.512 15.9813C606.222 16.1062 605.867 16.1687 605.448 16.1687ZM605.617 15.175C606.055 15.175 606.423 15.0891 606.723 14.9172C607.027 14.7453 607.255 14.5234 607.408 14.2516C607.564 13.9797 607.642 13.6938 607.642 13.3938V12.3813C607.595 12.4375 607.492 12.4891 607.333 12.5359C607.177 12.5797 606.995 12.6188 606.789 12.6531C606.586 12.6844 606.387 12.7125 606.194 12.7375C606.003 12.7594 605.848 12.7781 605.73 12.7938C605.442 12.8313 605.173 12.8922 604.923 12.9766C604.677 13.0578 604.477 13.1813 604.323 13.3469C604.173 13.5094 604.098 13.7313 604.098 14.0125C604.098 14.3969 604.241 14.6875 604.525 14.8844C604.812 15.0781 605.177 15.175 605.617 15.175ZM615.868 10.4125L614.874 10.6938C614.811 10.5281 614.719 10.3672 614.597 10.2109C614.478 10.0516 614.316 9.92031 614.11 9.81719C613.903 9.71406 613.639 9.6625 613.318 9.6625C612.877 9.6625 612.51 9.76406 612.216 9.96719C611.925 10.1672 611.78 10.4219 611.78 10.7313C611.78 11.0063 611.88 11.2234 612.08 11.3828C612.28 11.5422 612.593 11.675 613.018 11.7813L614.086 12.0438C614.73 12.2 615.21 12.4391 615.525 12.7609C615.841 13.0797 615.999 13.4906 615.999 13.9938C615.999 14.4063 615.88 14.775 615.643 15.1C615.408 15.425 615.08 15.6813 614.658 15.8688C614.236 16.0562 613.746 16.15 613.186 16.15C612.452 16.15 611.844 15.9906 611.363 15.6719C610.882 15.3531 610.577 14.8875 610.449 14.275L611.499 14.0125C611.599 14.4 611.788 14.6906 612.066 14.8844C612.347 15.0781 612.714 15.175 613.168 15.175C613.683 15.175 614.093 15.0656 614.396 14.8469C614.702 14.625 614.855 14.3594 614.855 14.05C614.855 13.8 614.768 13.5906 614.593 13.4219C614.418 13.25 614.149 13.1219 613.786 13.0375L612.586 12.7563C611.927 12.6 611.443 12.3578 611.133 12.0297C610.827 11.6984 610.674 11.2844 610.674 10.7875C610.674 10.3813 610.788 10.0219 611.016 9.70938C611.247 9.39688 611.561 9.15156 611.958 8.97344C612.358 8.79531 612.811 8.70625 613.318 8.70625C614.03 8.70625 614.589 8.8625 614.996 9.175C615.405 9.4875 615.696 9.9 615.868 10.4125ZM622.764 10.4125L621.77 10.6938C621.708 10.5281 621.616 10.3672 621.494 10.2109C621.375 10.0516 621.212 9.92031 621.006 9.81719C620.8 9.71406 620.536 9.6625 620.214 9.6625C619.773 9.6625 619.406 9.76406 619.112 9.96719C618.822 10.1672 618.677 10.4219 618.677 10.7313C618.677 11.0063 618.777 11.2234 618.977 11.3828C619.177 11.5422 619.489 11.675 619.914 11.7813L620.983 12.0438C621.627 12.2 622.106 12.4391 622.422 12.7609C622.737 13.0797 622.895 13.4906 622.895 13.9938C622.895 14.4063 622.777 14.775 622.539 15.1C622.305 15.425 621.977 15.6813 621.555 15.8688C621.133 16.0562 620.642 16.15 620.083 16.15C619.348 16.15 618.741 15.9906 618.259 15.6719C617.778 15.3531 617.473 14.8875 617.345 14.275L618.395 14.0125C618.495 14.4 618.684 14.6906 618.962 14.8844C619.244 15.0781 619.611 15.175 620.064 15.175C620.58 15.175 620.989 15.0656 621.292 14.8469C621.598 14.625 621.752 14.3594 621.752 14.05C621.752 13.8 621.664 13.5906 621.489 13.4219C621.314 13.25 621.045 13.1219 620.683 13.0375L619.483 12.7563C618.823 12.6 618.339 12.3578 618.03 12.0297C617.723 11.6984 617.57 11.2844 617.57 10.7875C617.57 10.3813 617.684 10.0219 617.912 9.70938C618.144 9.39688 618.458 9.15156 618.855 8.97344C619.255 8.79531 619.708 8.70625 620.214 8.70625C620.927 8.70625 621.486 8.8625 621.892 9.175C622.302 9.4875 622.592 9.9 622.764 10.4125ZM627.579 16.15C626.886 16.15 626.287 15.9969 625.784 15.6906C625.284 15.3813 624.898 14.95 624.626 14.3969C624.357 13.8406 624.223 13.1938 624.223 12.4563C624.223 11.7188 624.357 11.0688 624.626 10.5063C624.898 9.94063 625.276 9.5 625.761 9.18438C626.248 8.86563 626.817 8.70625 627.467 8.70625C627.842 8.70625 628.212 8.76875 628.578 8.89375C628.943 9.01875 629.276 9.22188 629.576 9.50313C629.876 9.78125 630.115 10.15 630.293 10.6094C630.471 11.0688 630.561 11.6344 630.561 12.3063V12.775L625.011 12.775V11.8188L629.436 11.8188C629.436 11.4125 629.354 11.05 629.192 10.7313C629.032 10.4125 628.804 10.1609 628.507 9.97656C628.214 9.79219 627.867 9.7 627.467 9.7C627.026 9.7 626.645 9.80938 626.323 10.0281C626.004 10.2438 625.759 10.525 625.587 10.8719C625.415 11.2188 625.329 11.5906 625.329 11.9875V12.625C625.329 13.1688 625.423 13.6297 625.611 14.0078C625.801 14.3828 626.065 14.6688 626.403 14.8656C626.74 15.0594 627.132 15.1563 627.579 15.1563C627.87 15.1563 628.132 15.1156 628.367 15.0344C628.604 14.95 628.809 14.825 628.981 14.6594C629.153 14.4906 629.286 14.2813 629.379 14.0313L630.448 14.3313C630.336 14.6938 630.146 15.0125 629.881 15.2875C629.615 15.5594 629.287 15.7719 628.896 15.925C628.506 16.075 628.067 16.15 627.579 16.15Z" fill="black"/>
<path d="M684.908 0L661.602 0V22L684.908 22V0Z" fill="#515FDB"/>
<path d="M690.467 16V6.4L696.261 6.4V7.43125L691.63 7.43125V10.675L695.961 10.675V11.7063L691.63 11.7063V14.9688L696.336 14.9688V16L690.467 16ZM700.325 16.1687C699.869 16.1687 699.455 16.0828 699.083 15.9109C698.711 15.7359 698.416 15.4844 698.197 15.1563C697.978 14.825 697.869 14.425 697.869 13.9563C697.869 13.5438 697.95 13.2094 698.112 12.9531C698.275 12.6938 698.492 12.4906 698.764 12.3438C699.036 12.1969 699.336 12.0875 699.664 12.0156C699.995 11.9406 700.328 11.8813 700.662 11.8375C701.1 11.7813 701.455 11.7391 701.727 11.7109C702.002 11.6797 702.202 11.6281 702.327 11.5563C702.455 11.4844 702.519 11.3594 702.519 11.1813V11.1438C702.519 10.6813 702.392 10.3219 702.139 10.0656C701.889 9.80938 701.509 9.68125 701 9.68125C700.472 9.68125 700.058 9.79688 699.758 10.0281C699.458 10.2594 699.247 10.5063 699.125 10.7688L698.075 10.3938C698.262 9.95625 698.512 9.61563 698.825 9.37188C699.141 9.125 699.484 8.95313 699.856 8.85625C700.231 8.75625 700.6 8.70625 700.962 8.70625C701.194 8.70625 701.459 8.73438 701.759 8.79063C702.062 8.84375 702.355 8.95469 702.636 9.12344C702.92 9.29219 703.156 9.54688 703.344 9.8875C703.531 10.2281 703.625 10.6844 703.625 11.2563V16L702.519 16V15.025H702.462C702.387 15.1813 702.262 15.3484 702.087 15.5266C701.912 15.7047 701.68 15.8563 701.389 15.9813C701.098 16.1062 700.744 16.1687 700.325 16.1687ZM700.494 15.175C700.931 15.175 701.3 15.0891 701.6 14.9172C701.903 14.7453 702.131 14.5234 702.284 14.2516C702.441 13.9797 702.519 13.6938 702.519 13.3938V12.3813C702.472 12.4375 702.369 12.4891 702.209 12.5359C702.053 12.5797 701.872 12.6188 701.666 12.6531C701.462 12.6844 701.264 12.7125 701.07 12.7375C700.88 12.7594 700.725 12.7781 700.606 12.7938C700.319 12.8313 700.05 12.8922 699.8 12.9766C699.553 13.0578 699.353 13.1813 699.2 13.3469C699.05 13.5094 698.975 13.7313 698.975 14.0125C698.975 14.3969 699.117 14.6875 699.402 14.8844C699.689 15.0781 700.053 15.175 700.494 15.175ZM710.182 13.0563V8.8L711.288 8.8V16L710.182 16V14.7813H710.107C709.938 15.1469 709.675 15.4578 709.319 15.7141C708.963 15.9672 708.513 16.0937 707.969 16.0937C707.519 16.0937 707.119 15.9953 706.769 15.7984C706.419 15.5984 706.144 15.2984 705.944 14.8984C705.744 14.4953 705.644 13.9875 705.644 13.375V8.8L706.75 8.8V13.3C706.75 13.825 706.897 14.2438 707.191 14.5563C707.488 14.8688 707.866 15.025 708.325 15.025C708.6 15.025 708.88 14.9547 709.164 14.8141C709.452 14.6734 709.693 14.4578 709.886 14.1672C710.083 13.8766 710.182 13.5063 710.182 13.0563Z" fill="black"/>
</svg>
