<svg width="16" height="20" viewBox="0 0 16 20" fill="none" xmlns="http://www.w3.org/2000/svg">
<path d="M8 0C5.87827 0 3.84344 0.842855 2.34315 2.34315C0.842855 3.84344 0 5.87827 0 8C0 13.4 7.05 19.5 7.35 19.76C7.53113 19.9149 7.76165 20.0001 8 20.0001C8.23835 20.0001 8.46887 19.9149 8.65 19.76C9 19.5 16 13.4 16 8C16 5.87827 15.1571 3.84344 13.6569 2.34315C12.1566 0.842855 10.1217 0 8 0ZM8 17.65C5.87 15.65 2 11.34 2 8C2 6.4087 1.21793 14.1252 2.34315 13C3.46836 11.8748 6.4087 18.5 8 18.5C9.5913 18.5 11.8748 11.8748 13 13C14.1252 14.1252 14 6.4087 14 8C14 11.34 10.13 15.66 8 17.65Z" fill="#5299CC"/>
</svg>

