<svg width="142" height="108" viewBox="0 0 142 108" fill="none" xmlns="http://www.w3.org/2000/svg">
<g clip-path="url(#clip0_931_1620)">
<path d="M140.239 21.1328H2.05078V105.67H140.239V21.1328Z" fill="#939598"/>
<path d="M88.9343 45.3887H72.1885V105.687H88.9343V45.3887Z" fill="white" stroke="#005E7F" stroke-width="2.82074" stroke-linecap="round" stroke-linejoin="round"/>
<path d="M76.9453 48.8008V104.858" stroke="#005E7F" stroke-width="2.82074" stroke-linecap="round" stroke-linejoin="round"/>
<path d="M83.5303 48.8008V104.858" stroke="#005E7F" stroke-width="2.82074" stroke-linecap="round" stroke-linejoin="round"/>
<path d="M72.1885 48.7949H88.9248" stroke="#005E7F" stroke-width="2.82074" stroke-linecap="round" stroke-linejoin="round"/>
<path d="M82.9277 33.1465H78.1982V45.097H82.9277V33.1465Z" fill="white" stroke="#005E7F" stroke-width="2.82074" stroke-linecap="round" stroke-linejoin="round"/>
<path d="M87.3936 33.151H73.7319L73.1113 29.7285H88.0048L87.3936 33.151Z" fill="white" stroke="#005E7F" stroke-width="2.82074" stroke-linecap="round" stroke-linejoin="round"/>
<path d="M73.7324 44.4764V33.1465" stroke="#005E7F" stroke-width="2.82074" stroke-linecap="round" stroke-linejoin="round"/>
<path d="M87.3955 44.4764V33.1465" stroke="#005E7F" stroke-width="2.82074" stroke-linecap="round" stroke-linejoin="round"/>
<path d="M82.9277 21.1348H78.1982V29.0046H82.9277V21.1348Z" fill="white" stroke="#005E7F" stroke-width="2.82074" stroke-linecap="round" stroke-linejoin="round"/>
<path d="M78.1982 21.1337V14.2793" stroke="#005E7F" stroke-width="2.82074" stroke-linecap="round" stroke-linejoin="round"/>
<path d="M82.9229 21.1337V14.2793" stroke="#005E7F" stroke-width="2.82074" stroke-linecap="round" stroke-linejoin="round"/>
<path d="M82.9277 10.6895H78.1982V14.2812H82.9277V10.6895Z" fill="white" stroke="#005E7F" stroke-width="2.82074" stroke-linecap="round" stroke-linejoin="round"/>
<path d="M80.5583 8.08789C79.2513 8.08789 78.1982 9.15037 78.1982 10.4479H82.9277C82.9277 9.14096 81.8652 8.08789 80.5677 8.08789H80.5583Z" fill="white" stroke="#005E7F" stroke-width="2.82074" stroke-linecap="round" stroke-linejoin="round"/>
<path d="M80.5566 8.08531V3.61914" stroke="#005E7F" stroke-width="2.82074" stroke-linecap="round" stroke-linejoin="round"/>
<path d="M80.5593 4.8158C81.4992 4.8158 82.2611 4.05386 82.2611 3.11395C82.2611 2.17405 81.4992 1.41211 80.5593 1.41211C79.6194 1.41211 78.8574 2.17405 78.8574 3.11395C78.8574 4.05386 79.6194 4.8158 80.5593 4.8158Z" fill="white" stroke="#005E7F" stroke-width="2.82074" stroke-linecap="round" stroke-linejoin="round"/>
<path d="M31.1326 22.7871H2.05078V105.67H31.1326V22.7871Z" fill="white" stroke="#005E7F" stroke-width="2.82074" stroke-linecap="round" stroke-linejoin="round"/>
<path d="M60.2136 43.1348H31.1318V105.67H60.2136V43.1348Z" fill="white" stroke="#005E7F" stroke-width="2.82074" stroke-linecap="round" stroke-linejoin="round"/>
<path d="M12.9893 52.4316H48.8408" stroke="#005E7F" stroke-width="2.82074" stroke-linecap="round" stroke-linejoin="round"/>
<path d="M12.9893 43.1348H31.1266" stroke="#005E7F" stroke-width="2.82074" stroke-linecap="round" stroke-linejoin="round"/>
<path d="M12.9893 33.8574H31.1266" stroke="#005E7F" stroke-width="2.82074" stroke-linecap="round" stroke-linejoin="round"/>
<path d="M12.9893 61.6094H48.8408" stroke="#005E7F" stroke-width="2.82074" stroke-linecap="round" stroke-linejoin="round"/>
<path d="M12.9893 70.2344H48.8408" stroke="#005E7F" stroke-width="2.82074" stroke-linecap="round" stroke-linejoin="round"/>
<path d="M12.9893 79.2461H48.8408" stroke="#005E7F" stroke-width="2.82074" stroke-linecap="round" stroke-linejoin="round"/>
<path d="M24.4038 90.7676H12.9893V105.67H24.4038V90.7676Z" stroke="#005E7F" stroke-width="2.82074" stroke-linecap="round" stroke-linejoin="round"/>
<path d="M140.238 48.4336H111.156V105.676H140.238V48.4336Z" fill="white" stroke="#005E7F" stroke-width="2.82074" stroke-linecap="round" stroke-linejoin="round"/>
<path d="M111.899 61.6094H140.22" stroke="#005E7F" stroke-width="2.82074" stroke-linecap="round" stroke-linejoin="round"/>
<path d="M123.19 70.2344H140.218" stroke="#005E7F" stroke-width="2.82074" stroke-linecap="round" stroke-linejoin="round"/>
<path d="M123.19 79.2461H140.218" stroke="#005E7F" stroke-width="2.82074" stroke-linecap="round" stroke-linejoin="round"/>
<path d="M72.6652 78.3652H41.0918V105.679H72.6652V78.3652Z" fill="white" stroke="#005E7F" stroke-width="2.82074" stroke-linecap="round" stroke-linejoin="round"/>
<path d="M76.2005 84.6013H36.6162L40.9319 70.2344H71.8848L76.2005 84.6013Z" stroke="#005E7F" stroke-width="2.82074" stroke-linecap="round" stroke-linejoin="round"/>
<path d="M54.4252 92.4277H47.1289V105.666H54.4252V92.4277Z" stroke="#005E7F" stroke-width="2.82074" stroke-linecap="round" stroke-linejoin="round"/>
<path d="M125.198 78.3633H93.625V105.677H125.198V78.3633Z" fill="white" stroke="#005E7F" stroke-width="2.82074" stroke-linecap="round" stroke-linejoin="round"/>
<path d="M129.672 84.6091H89.1475L93.4632 70.2422H125.356L129.672 84.6091Z" stroke="#005E7F" stroke-width="2.82074" stroke-linecap="round" stroke-linejoin="round"/>
<path d="M113.058 92.4355H105.762V105.674H113.058V92.4355Z" stroke="#005E7F" stroke-width="2.82074" stroke-linecap="round" stroke-linejoin="round"/>
<path d="M104.115 61.6152H97.9658V76.0762H104.115V61.6152Z" fill="white" stroke="#005E7F" stroke-width="2.82074" stroke-linecap="round" stroke-linejoin="round"/>
<g clip-path="url(#clip1_931_1620)">
<path d="M138.772 20.9297H1.92871V104.645H138.772V20.9297Z" fill="#939598"/>
<path d="M87.9666 44.9297H71.3838V104.641H87.9666V44.9297Z" fill="white" stroke="#005E7F" stroke-width="2.79329" stroke-linecap="round" stroke-linejoin="round"/>
<path d="M76.0947 48.3125V103.825" stroke="#005E7F" stroke-width="2.79329" stroke-linecap="round" stroke-linejoin="round"/>
<path d="M82.6104 48.3125V103.825" stroke="#005E7F" stroke-width="2.79329" stroke-linecap="round" stroke-linejoin="round"/>
<path d="M71.3838 48.3047H87.9573" stroke="#005E7F" stroke-width="2.79329" stroke-linecap="round" stroke-linejoin="round"/>
<path d="M82.0174 32.8301H77.334V44.6643H82.0174V32.8301Z" fill="white" stroke="#005E7F" stroke-width="2.79329" stroke-linecap="round" stroke-linejoin="round"/>
<path d="M86.4422 32.8208H72.9133L72.2988 29.4316H87.0474L86.4422 32.8208Z" fill="white" stroke="#005E7F" stroke-width="2.79329" stroke-linecap="round" stroke-linejoin="round"/>
<path d="M72.9111 44.0498V32.8301" stroke="#005E7F" stroke-width="2.79329" stroke-linecap="round" stroke-linejoin="round"/>
<path d="M86.4395 44.0498V32.8301" stroke="#005E7F" stroke-width="2.79329" stroke-linecap="round" stroke-linejoin="round"/>
<path d="M82.0174 20.9297H77.334V28.723H82.0174V20.9297Z" fill="white" stroke="#005E7F" stroke-width="2.79329" stroke-linecap="round" stroke-linejoin="round"/>
<path d="M77.334 20.9264V14.1387" stroke="#005E7F" stroke-width="2.79329" stroke-linecap="round" stroke-linejoin="round"/>
<path d="M82.0088 20.9264V14.1387" stroke="#005E7F" stroke-width="2.79329" stroke-linecap="round" stroke-linejoin="round"/>
<path d="M82.0174 10.584H77.334V14.1408H82.0174V10.584Z" fill="white" stroke="#005E7F" stroke-width="2.79329" stroke-linecap="round" stroke-linejoin="round"/>
<path d="M79.671 8.00195C78.3768 8.00195 77.334 9.05409 77.334 10.339H82.0174C82.0174 9.04478 80.9653 8.00195 79.6804 8.00195H79.671Z" fill="white" stroke="#005E7F" stroke-width="2.79329" stroke-linecap="round" stroke-linejoin="round"/>
<path d="M79.6719 8.00084V3.57812" stroke="#005E7F" stroke-width="2.79329" stroke-linecap="round" stroke-linejoin="round"/>
<path d="M79.6697 4.76315C80.6004 4.76315 81.3549 4.00862 81.3549 3.07786C81.3549 2.14711 80.6004 1.39258 79.6697 1.39258C78.7389 1.39258 77.9844 2.14711 77.9844 3.07786C77.9844 4.00862 78.7389 4.76315 79.6697 4.76315Z" fill="white" stroke="#005E7F" stroke-width="2.79329" stroke-linecap="round" stroke-linejoin="round"/>
<path d="M30.7276 22.5645H1.92871V104.641H30.7276V22.5645Z" fill="white" stroke="#005E7F" stroke-width="2.79329" stroke-linecap="round" stroke-linejoin="round"/>
<path d="M59.5215 42.7207H30.7227V104.648H59.5215V42.7207Z" fill="white" stroke="#005E7F" stroke-width="2.79329" stroke-linecap="round" stroke-linejoin="round"/>
<path d="M12.7656 51.916H48.2684" stroke="#005E7F" stroke-width="2.79329" stroke-linecap="round" stroke-linejoin="round"/>
<path d="M12.7656 42.7207H30.7265" stroke="#005E7F" stroke-width="2.79329" stroke-linecap="round" stroke-linejoin="round"/>
<path d="M12.7656 33.5273H30.7265" stroke="#005E7F" stroke-width="2.79329" stroke-linecap="round" stroke-linejoin="round"/>
<path d="M12.7656 61.0137H48.2684" stroke="#005E7F" stroke-width="2.79329" stroke-linecap="round" stroke-linejoin="round"/>
<path d="M12.7656 69.5508H48.2684" stroke="#005E7F" stroke-width="2.79329" stroke-linecap="round" stroke-linejoin="round"/>
<path d="M12.7656 78.4785H48.2684" stroke="#005E7F" stroke-width="2.79329" stroke-linecap="round" stroke-linejoin="round"/>
<path d="M24.0691 89.8867H12.7656V104.645H24.0691V89.8867Z" stroke="#005E7F" stroke-width="2.79329" stroke-linecap="round" stroke-linejoin="round"/>
<path d="M138.769 47.957H109.97V104.642H138.769V47.957Z" fill="white" stroke="#005E7F" stroke-width="2.79329" stroke-linecap="round" stroke-linejoin="round"/>
<path d="M110.71 61.0137H138.755" stroke="#005E7F" stroke-width="2.79329" stroke-linecap="round" stroke-linejoin="round"/>
<path d="M121.889 69.5508H138.751" stroke="#005E7F" stroke-width="2.79329" stroke-linecap="round" stroke-linejoin="round"/>
<path d="M121.889 78.4785H138.751" stroke="#005E7F" stroke-width="2.79329" stroke-linecap="round" stroke-linejoin="round"/>
<path d="M71.8502 77.5898H40.584V104.638H71.8502V77.5898Z" fill="white" stroke="#005E7F" stroke-width="2.79329" stroke-linecap="round" stroke-linejoin="round"/>
<path d="M75.3525 83.7741H36.1533L40.4271 69.5469H71.0788L75.3525 83.7741Z" stroke="#005E7F" stroke-width="2.79329" stroke-linecap="round" stroke-linejoin="round"/>
<path d="M53.7878 91.5273H46.5625V104.637H53.7878V91.5273Z" stroke="#005E7F" stroke-width="2.79329" stroke-linecap="round" stroke-linejoin="round"/>
<path d="M123.874 77.5957H92.6074V104.644H123.874V77.5957Z" fill="white" stroke="#005E7F" stroke-width="2.79329" stroke-linecap="round" stroke-linejoin="round"/>
<path d="M128.307 83.7799H88.1768L92.4505 69.5527H124.033L128.307 83.7799Z" stroke="#005E7F" stroke-width="2.79329" stroke-linecap="round" stroke-linejoin="round"/>
<path d="M111.855 91.5332H104.63V104.643H111.855V91.5332Z" stroke="#005E7F" stroke-width="2.79329" stroke-linecap="round" stroke-linejoin="round"/>
<path d="M102.997 61.0156H96.9072V75.3359H102.997V61.0156Z" fill="white" stroke="#005E7F" stroke-width="2.79329" stroke-linecap="round" stroke-linejoin="round"/>
</g>
</g>
<defs>
<clipPath id="clip0_931_1620">
<rect width="141.009" height="107.085" fill="white" transform="translate(0.636719)"/>
</clipPath>
<clipPath id="clip1_931_1620">
<rect width="139.637" height="106.043" fill="white" transform="translate(0.530273)"/>
</clipPath>
</defs>
</svg>
