<svg width="1125" height="25" viewBox="0 0 1125 25" fill="none" xmlns="http://www.w3.org/2000/svg">
<path d="M207.141 0H182.141V25H207.141V0Z" fill="#81F7E9"/>
<path d="M216.521 17.6705C215.839 17.6705 215.238 17.4982 214.716 17.1538C214.194 16.8058 213.785 16.3157 213.49 15.6836C213.196 15.0479 213.048 14.2969 213.048 13.4304C213.048 12.571 213.196 11.8253 213.49 11.1932C213.785 10.5611 214.195 10.0728 214.721 9.72834C215.246 9.38388 215.854 9.21165 216.543 9.21165C217.075 9.21165 217.496 9.30043 217.805 9.47798C218.118 9.65199 218.355 9.85085 218.519 10.0746C218.686 10.2947 218.815 10.4759 218.908 10.6179H219.014V6.59091H220.271V17.5H219.057V16.2429H218.908C218.815 16.392 218.684 16.5803 218.513 16.8075C218.343 17.0313 218.1 17.2319 217.784 17.4094C217.468 17.5835 217.047 17.6705 216.521 17.6705ZM216.692 16.5412C217.196 16.5412 217.622 16.4098 217.97 16.147C218.318 15.8807 218.583 15.5131 218.764 15.0444C218.945 14.5721 219.036 14.027 219.036 13.4091C219.036 12.7983 218.947 12.2638 218.769 11.8058C218.592 11.3441 218.329 10.9854 217.981 10.7298C217.633 10.4705 217.203 10.3409 216.692 10.3409C216.159 10.3409 215.715 10.4776 215.36 10.7511C215.009 11.021 214.744 11.3885 214.566 11.8537C214.392 12.3153 214.305 12.8338 214.305 13.4091C214.305 13.9915 214.394 14.5206 214.572 14.9964C214.753 15.4688 215.019 15.8452 215.371 16.1257C215.726 16.4027 216.166 16.5412 216.692 16.5412ZM226.179 17.6705C225.39 17.6705 224.71 17.4964 224.138 17.1484C223.57 16.7969 223.132 16.3068 222.823 15.6783C222.517 15.0462 222.365 14.3111 222.365 13.473C222.365 12.6349 222.517 11.8963 222.823 11.2571C223.132 10.6143 223.561 10.1136 224.112 9.75497C224.666 9.39276 225.312 9.21165 226.051 9.21165C226.477 9.21165 226.898 9.28267 227.313 9.42472C227.729 9.56676 228.107 9.79759 228.448 10.1172C228.789 10.4332 229.06 10.8523 229.263 11.3743C229.465 11.8963 229.566 12.5391 229.566 13.3026V13.8352H223.26V12.7486H228.288C228.288 12.2869 228.196 11.875 228.011 11.5128C227.83 11.1506 227.571 10.8647 227.233 10.6552C226.9 10.4457 226.505 10.3409 226.051 10.3409C225.55 10.3409 225.117 10.4652 224.751 10.7138C224.389 10.9588 224.11 11.2784 223.915 11.6726C223.719 12.0668 223.622 12.4893 223.622 12.9403V13.6648C223.622 14.2827 223.728 14.8065 223.941 15.2362C224.158 15.6623 224.458 15.9872 224.842 16.2109C225.225 16.4311 225.671 16.5412 226.179 16.5412C226.509 16.5412 226.807 16.495 227.074 16.4027C227.343 16.3068 227.576 16.1648 227.771 15.9766C227.967 15.7848 228.118 15.5469 228.224 15.2628L229.439 15.6037C229.311 16.0156 229.096 16.3778 228.794 16.6903C228.492 16.9993 228.119 17.2408 227.675 17.4148C227.232 17.5852 226.733 17.6705 226.179 17.6705ZM235.676 17.5V16.5412L239.277 12.5994C239.7 12.1378 240.048 11.7365 240.321 11.3956C240.594 11.0511 240.797 10.728 240.928 10.4261C241.063 10.1207 241.131 9.80114 241.131 9.46733C241.131 9.08381 241.038 8.75178 240.854 8.47124C240.673 8.1907 240.424 7.97408 240.108 7.82138C239.792 7.66868 239.437 7.59233 239.043 7.59233C238.624 7.59233 238.258 7.67933 237.945 7.85334C237.636 8.02379 237.397 8.26349 237.226 8.57244C237.059 8.88139 236.976 9.24361 236.976 9.65909H235.719C235.719 9.01989 235.866 8.45881 236.161 7.97585C236.456 7.4929 236.857 7.11648 237.365 6.84659C237.876 6.57671 238.45 6.44176 239.085 6.44176C239.724 6.44176 240.291 6.57671 240.784 6.84659C241.278 7.11648 241.665 7.48047 241.946 7.93857C242.226 8.39666 242.366 8.90625 242.366 9.46733C242.366 9.86861 242.294 10.261 242.148 10.6445C242.006 11.0245 241.757 11.4489 241.402 11.9176C241.051 12.3828 240.562 12.951 239.937 13.6222L237.487 16.2429V16.3281H242.558V17.5H235.676ZM246.654 16.0085L246.569 16.5838C246.509 16.9886 246.417 17.4219 246.292 17.8835C246.172 18.3452 246.045 18.7802 245.914 19.1886C245.783 19.5969 245.674 19.9219 245.589 20.1634H244.63C244.676 19.9361 244.737 19.636 244.811 19.2631C244.886 18.8903 244.961 18.473 245.035 18.0114C245.113 17.5533 245.177 17.0845 245.227 16.6051L245.291 16.0085H246.654ZM252.152 17.6491C251.527 17.6491 250.964 17.5249 250.463 17.2763C249.962 17.0277 249.561 16.6868 249.259 16.2536C248.957 15.8203 248.792 15.3267 248.764 14.7727H250.042C250.092 15.2663 250.316 15.6747 250.713 15.9979C251.115 16.3175 251.594 16.4773 252.152 16.4773C252.599 16.4773 252.997 16.3725 253.345 16.163C253.696 15.9535 253.972 15.6658 254.17 15.3001C254.373 14.9308 254.474 14.5135 254.474 14.0483C254.474 13.5724 254.369 13.1481 254.16 12.7752C253.954 12.3988 253.67 12.1023 253.308 11.8857C252.945 11.669 252.532 11.5589 252.066 11.5554C251.733 11.5518 251.39 11.6033 251.038 11.7099C250.687 11.8129 250.397 11.946 250.17 12.1094L248.934 11.9602L249.595 6.59091H255.262V7.76279H250.703L250.319 10.9801H250.383C250.607 10.8026 250.887 10.6552 251.225 10.538C251.562 10.4208 251.914 10.3622 252.279 10.3622C252.947 10.3622 253.542 10.522 254.064 10.8416C254.589 11.1577 255.001 11.5909 255.3 12.1413C255.602 12.6918 255.752 13.3203 255.752 14.027C255.752 14.723 255.596 15.3445 255.284 15.8913C254.975 16.4347 254.549 16.8643 254.005 17.1804C253.462 17.4929 252.844 17.6491 252.152 17.6491ZM260.148 11.4063C259.697 11.4063 259.285 11.2962 258.913 11.076C258.543 10.8558 258.248 10.5611 258.028 10.1918C257.808 9.81889 257.698 9.40696 257.698 8.95597C257.698 8.50497 257.808 8.09482 258.028 7.7255C258.248 7.35263 258.543 7.05611 258.913 6.83594C259.285 6.61577 259.697 6.50568 260.148 6.50568C260.599 6.50568 261.009 6.61577 261.379 6.83594C261.752 7.05611 262.048 7.35263 262.268 7.7255C262.489 8.09482 262.599 8.50497 262.599 8.95597C262.599 9.40696 262.489 9.81889 262.268 10.1918C262.048 10.5611 261.752 10.8558 261.379 11.076C261.009 11.2962 260.599 11.4063 260.148 11.4063ZM260.148 10.3409C260.404 10.3409 260.637 10.2788 260.846 10.1545C261.056 10.0302 261.223 9.86328 261.347 9.65377C261.471 9.44425 261.533 9.21165 261.533 8.95597C261.533 8.70028 261.471 8.46769 261.347 8.25817C261.223 8.04865 261.056 7.88175 260.846 7.75746C260.637 7.63317 260.404 7.57102 260.148 7.57102C259.893 7.57102 259.66 7.63317 259.451 7.75746C259.241 7.88175 259.074 8.04865 258.95 8.25817C258.826 8.46769 258.763 8.70028 258.763 8.95597C258.763 9.21165 258.826 9.44425 258.95 9.65377C259.074 9.86328 259.241 10.0302 259.451 10.1545C259.66 10.2788 259.893 10.3409 260.148 10.3409ZM273.474 10H272.153C272.075 9.62003 271.939 9.28622 271.743 8.99858C271.551 8.71094 271.317 8.46946 271.04 8.27415C270.767 8.07529 270.463 7.92614 270.129 7.82671C269.795 7.72727 269.447 7.67756 269.085 7.67756C268.425 7.67756 267.826 7.84446 267.29 8.17827C266.757 8.51207 266.333 9.00391 266.017 9.65377C265.705 10.3036 265.548 11.1009 265.548 12.0455C265.548 12.9901 265.705 13.7873 266.017 14.4371C266.333 15.087 266.757 15.5788 267.29 15.9126C267.826 16.2464 268.425 16.4134 269.085 16.4134C269.447 16.4134 269.795 16.3636 270.129 16.2642C270.463 16.1648 270.767 16.0174 271.04 15.8221C271.317 15.6232 271.551 15.38 271.743 15.0923C271.939 14.8011 272.075 14.4673 272.153 14.0909H273.474C273.375 14.6484 273.194 15.1474 272.931 15.5877C272.668 16.0281 272.342 16.4027 271.951 16.7116C271.56 17.017 271.122 17.2496 270.635 17.4094C270.152 17.5692 269.636 17.6491 269.085 17.6491C268.155 17.6491 267.327 17.4219 266.603 16.9673C265.879 16.5128 265.309 15.8665 264.893 15.0284C264.478 14.1903 264.27 13.196 264.27 12.0455C264.27 10.8949 264.478 9.90057 264.893 9.0625C265.309 8.22443 265.879 7.57813 266.603 7.12358C267.327 6.66904 268.155 6.44176 269.085 6.44176C269.636 6.44176 270.152 6.52166 270.635 6.68146C271.122 6.84127 271.56 7.07564 271.951 7.38459C272.342 7.68999 272.668 8.06286 272.931 8.5032C273.194 8.93999 273.375 9.43892 273.474 10ZM282.065 17.6918C281.547 17.6918 281.076 17.5941 280.653 17.3988C280.231 17.1999 279.895 16.9141 279.647 16.5412C279.398 16.1648 279.274 15.7102 279.274 15.1776C279.274 14.7088 279.366 14.3288 279.551 14.0376C279.736 13.7429 279.982 13.5121 280.291 13.3452C280.6 13.1783 280.941 13.054 281.314 12.9723C281.69 12.8871 282.069 12.8196 282.449 12.7699C282.946 12.706 283.349 12.658 283.658 12.6261C283.97 12.5906 284.198 12.532 284.34 12.4503C284.485 12.3686 284.558 12.2266 284.558 12.0241V11.9815C284.558 11.456 284.414 11.0476 284.127 10.7564C283.842 10.4652 283.411 10.3196 282.832 10.3196C282.232 10.3196 281.761 10.451 281.421 10.7138C281.08 10.9766 280.84 11.2571 280.701 11.5554L279.508 11.1293C279.721 10.6321 280.005 10.245 280.361 9.96804C280.719 9.6875 281.11 9.49219 281.532 9.3821C281.959 9.26847 282.378 9.21165 282.789 9.21165C283.052 9.21165 283.354 9.24361 283.695 9.30753C284.039 9.3679 284.372 9.49396 284.691 9.68572C285.014 9.87749 285.282 10.1669 285.495 10.554C285.709 10.9411 285.815 11.4595 285.815 12.1094V17.5H284.558V16.392H284.494C284.409 16.5696 284.267 16.7596 284.068 16.962C283.869 17.1644 283.604 17.3366 283.274 17.4787C282.944 17.6207 282.541 17.6918 282.065 17.6918ZM282.257 16.5625C282.754 16.5625 283.173 16.4648 283.514 16.2695C283.858 16.0742 284.118 15.8221 284.292 15.5131C284.469 15.2042 284.558 14.8793 284.558 14.5384V13.3878C284.505 13.4517 284.388 13.5103 284.206 13.5636C284.029 13.6133 283.823 13.6577 283.589 13.6967C283.358 13.7322 283.132 13.7642 282.912 13.7926C282.695 13.8175 282.52 13.8388 282.385 13.8565C282.058 13.8991 281.753 13.9684 281.468 14.0643C281.188 14.1566 280.961 14.2969 280.787 14.4851C280.616 14.6697 280.531 14.9219 280.531 15.2415C280.531 15.6783 280.693 16.0085 281.016 16.2322C281.342 16.4524 281.756 16.5625 282.257 16.5625ZM282.342 8.21023L280.68 5.73864H282.15L283.45 8.21023H282.342ZM295.524 15.5824V8.55114H296.717V15.5824H295.524ZM292.605 12.6634V11.4702H299.637V12.6634H292.605ZM310.1 17.6491C309.396 17.6491 308.77 17.5284 308.219 17.2869C307.672 17.0455 307.237 16.7099 306.914 16.2802C306.595 15.8469 306.421 15.3445 306.392 14.7727H307.734C307.763 15.1243 307.884 15.4279 308.097 15.6836C308.31 15.9357 308.589 16.131 308.933 16.2695C309.277 16.408 309.659 16.4773 310.078 16.4773C310.547 16.4773 310.962 16.3956 311.325 16.2322C311.687 16.0689 311.971 15.8416 312.177 15.5504C312.383 15.2592 312.486 14.9219 312.486 14.5384C312.486 14.1371 312.386 13.7837 312.188 13.4783C311.989 13.1694 311.698 12.9279 311.314 12.7539C310.93 12.5799 310.462 12.4929 309.908 12.4929H309.034V11.321H309.908C310.341 11.321 310.721 11.2429 311.048 11.0866C311.378 10.9304 311.635 10.7102 311.82 10.4261C312.008 10.142 312.102 9.80824 312.102 9.42472C312.102 9.0554 312.021 8.73402 311.857 8.46058C311.694 8.18715 311.463 7.97408 311.165 7.82138C310.87 7.66868 310.522 7.59233 310.121 7.59233C309.744 7.59233 309.389 7.66158 309.055 7.80007C308.725 7.93502 308.455 8.1321 308.246 8.39134C308.036 8.64702 307.923 8.95597 307.905 9.31818H306.627C306.648 8.74645 306.82 8.24574 307.143 7.81605C307.466 7.38281 307.889 7.04546 308.411 6.80398C308.937 6.5625 309.514 6.44176 310.142 6.44176C310.817 6.44176 311.396 6.57848 311.879 6.85192C312.362 7.1218 312.733 7.47869 312.992 7.92259C313.251 8.36648 313.381 8.84588 313.381 9.3608C313.381 9.97514 313.219 10.4989 312.896 10.9322C312.576 11.3654 312.141 11.6655 311.591 11.8324V11.9176C312.28 12.0313 312.818 12.3242 313.205 12.7965C313.592 13.2653 313.786 13.8459 313.786 14.5384C313.786 15.1314 313.624 15.6641 313.301 16.1364C312.981 16.6051 312.544 16.9744 311.99 17.2443C311.437 17.5142 310.806 17.6491 310.1 17.6491ZM318.244 11.4063C317.793 11.4063 317.381 11.2962 317.008 11.076C316.639 10.8558 316.344 10.5611 316.124 10.1918C315.904 9.81889 315.794 9.40696 315.794 8.95597C315.794 8.50497 315.904 8.09482 316.124 7.7255C316.344 7.35263 316.639 7.05611 317.008 6.83594C317.381 6.61577 317.793 6.50568 318.244 6.50568C318.695 6.50568 319.105 6.61577 319.475 6.83594C319.847 7.05611 320.144 7.35263 320.364 7.7255C320.584 8.09482 320.694 8.50497 320.694 8.95597C320.694 9.40696 320.584 9.81889 320.364 10.1918C320.144 10.5611 319.847 10.8558 319.475 11.076C319.105 11.2962 318.695 11.4063 318.244 11.4063ZM318.244 10.3409C318.5 10.3409 318.732 10.2788 318.942 10.1545C319.151 10.0302 319.318 9.86328 319.443 9.65377C319.567 9.44425 319.629 9.21165 319.629 8.95597C319.629 8.70028 319.567 8.46769 319.443 8.25817C319.318 8.04865 319.151 7.88175 318.942 7.75746C318.732 7.63317 318.5 7.57102 318.244 7.57102C317.988 7.57102 317.756 7.63317 317.546 7.75746C317.337 7.88175 317.17 8.04865 317.046 8.25817C316.921 8.46769 316.859 8.70028 316.859 8.95597C316.859 9.21165 316.921 9.44425 317.046 9.65377C317.17 9.86328 317.337 10.0302 317.546 10.1545C317.756 10.2788 317.988 10.3409 318.244 10.3409ZM331.57 10H330.249C330.171 9.62003 330.034 9.28622 329.839 8.99858C329.647 8.71094 329.413 8.46946 329.136 8.27415C328.862 8.07529 328.559 7.92614 328.225 7.82671C327.891 7.72727 327.543 7.67756 327.181 7.67756C326.52 7.67756 325.922 7.84446 325.386 8.17827C324.853 8.51207 324.429 9.00391 324.113 9.65377C323.8 10.3036 323.644 11.1009 323.644 12.0455C323.644 12.9901 323.8 13.7873 324.113 14.4371C324.429 15.087 324.853 15.5788 325.386 15.9126C325.922 16.2464 326.52 16.4134 327.181 16.4134C327.543 16.4134 327.891 16.3636 328.225 16.2642C328.559 16.1648 328.862 16.0174 329.136 15.8221C329.413 15.6232 329.647 15.38 329.839 15.0923C330.034 14.8011 330.171 14.4673 330.249 14.0909H331.57C331.471 14.6484 331.29 15.1474 331.027 15.5877C330.764 16.0281 330.437 16.4027 330.047 16.7116C329.656 17.017 329.217 17.2496 328.731 17.4094C328.248 17.5692 327.731 17.6491 327.181 17.6491C326.251 17.6491 325.423 17.4219 324.699 16.9673C323.974 16.5128 323.404 15.8665 322.989 15.0284C322.573 14.1903 322.366 13.196 322.366 12.0455C322.366 10.8949 322.573 9.90057 322.989 9.0625C323.404 8.22443 323.974 7.57813 324.699 7.12358C325.423 6.66904 326.251 6.44176 327.181 6.44176C327.731 6.44176 328.248 6.52166 328.731 6.68146C329.217 6.84127 329.656 7.07564 330.047 7.38459C330.437 7.68999 330.764 8.06286 331.027 8.5032C331.29 8.93999 331.471 9.43892 331.57 10Z" fill="black"/>
<path d="M25 0H0V25H25V0Z" fill="#7E86AC"/>
<path d="M34.3807 17.6705C33.6989 17.6705 33.0969 17.4982 32.5749 17.1538C32.0529 16.8058 31.6445 16.3157 31.3498 15.6836C31.055 15.0479 30.9077 14.2969 30.9077 13.4304C30.9077 12.571 31.055 11.8253 31.3498 11.1932C31.6445 10.5611 32.0547 10.0728 32.5803 9.72834C33.1058 9.38388 33.7131 9.21165 34.402 9.21165C34.9347 9.21165 35.3555 9.30043 35.6644 9.47798C35.9769 9.65199 36.2148 9.85085 36.3782 10.0746C36.5451 10.2947 36.6747 10.4759 36.767 10.6179H36.8736V6.59091H38.1307V17.5H36.9162V16.2429H36.767C36.6747 16.392 36.5433 16.5803 36.3729 16.8075C36.2024 17.0313 35.9592 17.2319 35.6431 17.4094C35.3271 17.5835 34.9062 17.6705 34.3807 17.6705ZM34.5511 16.5412C35.0554 16.5412 35.4815 16.4098 35.8295 16.147C36.1776 15.8807 36.4421 15.5131 36.6232 15.0444C36.8043 14.5721 36.8949 14.027 36.8949 13.4091C36.8949 12.7983 36.8061 12.2638 36.6286 11.8058C36.451 11.3441 36.1882 10.9854 35.8402 10.7298C35.4922 10.4705 35.0625 10.3409 34.5511 10.3409C34.0185 10.3409 33.5746 10.4776 33.2195 10.7511C32.8679 11.021 32.6033 11.3885 32.4258 11.8537C32.2518 12.3153 32.1648 12.8338 32.1648 13.4091C32.1648 13.9915 32.2536 14.5206 32.4311 14.9964C32.6122 15.4688 32.8786 15.8452 33.2301 16.1257C33.5852 16.4027 34.0256 16.5412 34.5511 16.5412ZM44.038 17.6705C43.2496 17.6705 42.5696 17.4964 41.9979 17.1484C41.4297 16.7969 40.9911 16.3068 40.6822 15.6783C40.3768 15.0462 40.2241 14.3111 40.2241 13.473C40.2241 12.6349 40.3768 11.8963 40.6822 11.2571C40.9911 10.6143 41.4208 10.1136 41.9712 9.75497C42.5252 9.39276 43.1715 9.21165 43.9102 9.21165C44.3363 9.21165 44.7571 9.28267 45.1726 9.42472C45.5881 9.56676 45.9663 9.79759 46.3072 10.1172C46.6481 10.4332 46.9197 10.8523 47.1222 11.3743C47.3246 11.8963 47.4258 12.5391 47.4258 13.3026V13.8352H41.119V12.7486H46.1474C46.1474 12.2869 46.055 11.875 45.8704 11.5128C45.6893 11.1506 45.43 10.8647 45.0927 10.6552C44.7589 10.4457 44.3647 10.3409 43.9102 10.3409C43.4094 10.3409 42.9762 10.4652 42.6104 10.7138C42.2482 10.9588 41.9695 11.2784 41.7741 11.6726C41.5788 12.0668 41.4812 12.4893 41.4812 12.9403V13.6648C41.4812 14.2827 41.5877 14.8065 41.8008 15.2362C42.0174 15.6623 42.3175 15.9872 42.701 16.2109C43.0845 16.4311 43.5302 16.5412 44.038 16.5412C44.3683 16.5412 44.6665 16.495 44.9329 16.4027C45.2028 16.3068 45.4354 16.1648 45.6307 15.9766C45.826 15.7848 45.9769 15.5469 46.0835 15.2628L47.2979 15.6037C47.1701 16.0156 46.9553 16.3778 46.6534 16.6903C46.3516 16.9993 45.9787 17.2408 45.5348 17.4148C45.0909 17.5852 44.592 17.6705 44.038 17.6705ZM62.9318 12.0455C62.9318 13.196 62.7241 14.1903 62.3086 15.0284C61.8931 15.8665 61.3232 16.5128 60.5987 16.9673C59.8743 17.4219 59.0469 17.6491 58.1165 17.6491C57.1861 17.6491 56.3587 17.4219 55.6342 16.9673C54.9098 16.5128 54.3398 15.8665 53.9244 15.0284C53.5089 14.1903 53.3011 13.196 53.3011 12.0455C53.3011 10.8949 53.5089 9.90057 53.9244 9.0625C54.3398 8.22443 54.9098 7.57813 55.6342 7.12358C56.3587 6.66904 57.1861 6.44176 58.1165 6.44176C59.0469 6.44176 59.8743 6.66904 60.5987 7.12358C61.3232 7.57813 61.8931 8.22443 62.3086 9.0625C62.7241 9.90057 62.9318 10.8949 62.9318 12.0455ZM61.6534 12.0455C61.6534 11.1009 61.4954 10.3036 61.1793 9.65377C60.8668 9.00391 60.4425 8.51207 59.9062 8.17827C59.3736 7.84446 58.777 7.67756 58.1165 7.67756C57.456 7.67756 56.8576 7.84446 56.3214 8.17827C55.7887 8.51207 55.3643 9.00391 55.0483 9.65377C54.7358 10.3036 54.5795 11.1009 54.5795 12.0455C54.5795 12.9901 54.7358 13.7873 55.0483 14.4371C55.3643 15.087 55.7887 15.5788 56.3214 15.9126C56.8576 16.2464 57.456 16.4134 58.1165 16.4134C58.777 16.4134 59.3736 16.2464 59.9062 15.9126C60.4425 15.5788 60.8668 15.087 61.1793 14.4371C61.4954 13.7873 61.6534 12.9901 61.6534 12.0455ZM67.2411 11.4063C66.7901 11.4063 66.3782 11.2962 66.0053 11.076C65.636 10.8558 65.3413 10.5611 65.1211 10.1918C64.9009 9.81889 64.7908 9.40696 64.7908 8.95597C64.7908 8.50497 64.9009 8.09482 65.1211 7.7255C65.3413 7.35263 65.636 7.05611 66.0053 6.83594C66.3782 6.61577 66.7901 6.50568 67.2411 6.50568C67.6921 6.50568 68.1023 6.61577 68.4716 6.83594C68.8445 7.05611 69.141 7.35263 69.3611 7.7255C69.5813 8.09482 69.6914 8.50497 69.6914 8.95597C69.6914 9.40696 69.5813 9.81889 69.3611 10.1918C69.141 10.5611 68.8445 10.8558 68.4716 11.076C68.1023 11.2962 67.6921 11.4063 67.2411 11.4063ZM67.2411 10.3409C67.4968 10.3409 67.7294 10.2788 67.9389 10.1545C68.1484 10.0302 68.3153 9.86328 68.4396 9.65377C68.5639 9.44425 68.6261 9.21165 68.6261 8.95597C68.6261 8.70028 68.5639 8.46769 68.4396 8.25817C68.3153 8.04865 68.1484 7.88175 67.9389 7.75746C67.7294 7.63317 67.4968 7.57102 67.2411 7.57102C66.9854 7.57102 66.7528 7.63317 66.5433 7.75746C66.3338 7.88175 66.1669 8.04865 66.0426 8.25817C65.9183 8.46769 65.8562 8.70028 65.8562 8.95597C65.8562 9.21165 65.9183 9.44425 66.0426 9.65377C66.1669 9.86328 66.3338 10.0302 66.5433 10.1545C66.7528 10.2788 66.9854 10.3409 67.2411 10.3409ZM80.5672 10H79.2462C79.1681 9.62003 79.0313 9.28622 78.836 8.99858C78.6443 8.71094 78.4099 8.46946 78.1329 8.27415C77.8595 8.07529 77.5558 7.92614 77.222 7.82671C76.8882 7.72727 76.5402 7.67756 76.178 7.67756C75.5175 7.67756 74.9191 7.84446 74.3829 8.17827C73.8502 8.51207 73.4259 9.00391 73.1098 9.65377C72.7973 10.3036 72.6411 11.1009 72.6411 12.0455C72.6411 12.9901 72.7973 13.7873 73.1098 14.4371C73.4259 15.087 73.8502 15.5788 74.3829 15.9126C74.9191 16.2464 75.5175 16.4134 76.178 16.4134C76.5402 16.4134 76.8882 16.3636 77.222 16.2642C77.5558 16.1648 77.8595 16.0174 78.1329 15.8221C78.4099 15.6232 78.6443 15.38 78.836 15.0923C79.0313 14.8011 79.1681 14.4673 79.2462 14.0909H80.5672C80.4678 14.6484 80.2867 15.1474 80.0239 15.5877C79.7611 16.0281 79.4344 16.4027 79.0438 16.7116C78.6531 17.017 78.2146 17.2496 77.7281 17.4094C77.2451 17.5692 76.7284 17.6491 76.178 17.6491C75.2476 17.6491 74.4202 17.4219 73.6958 16.9673C72.9713 16.5128 72.4014 15.8665 71.9859 15.0284C71.5704 14.1903 71.3627 13.196 71.3627 12.0455C71.3627 10.8949 71.5704 9.90057 71.9859 9.0625C72.4014 8.22443 72.9713 7.57813 73.6958 7.12358C74.4202 6.66904 75.2476 6.44176 76.178 6.44176C76.7284 6.44176 77.2451 6.52166 77.7281 6.68146C78.2146 6.84127 78.6531 7.07564 79.0438 7.38459C79.4344 7.68999 79.7611 8.06286 80.0239 8.5032C80.2867 8.93999 80.4678 9.43892 80.5672 10ZM89.1578 17.6918C88.6394 17.6918 88.1688 17.5941 87.7463 17.3988C87.3237 17.1999 86.9881 16.9141 86.7395 16.5412C86.4909 16.1648 86.3666 15.7102 86.3666 15.1776C86.3666 14.7088 86.459 14.3288 86.6436 14.0376C86.8283 13.7429 87.0751 13.5121 87.384 13.3452C87.693 13.1783 88.0339 13.054 88.4068 12.9723C88.7832 12.8871 89.1614 12.8196 89.5414 12.7699C90.0385 12.706 90.4416 12.658 90.7505 12.6261C91.063 12.5906 91.2903 12.532 91.4323 12.4503C91.5779 12.3686 91.6507 12.2266 91.6507 12.0241V11.9815C91.6507 11.456 91.5069 11.0476 91.2193 10.7564C90.9352 10.4652 90.5037 10.3196 89.9249 10.3196C89.3247 10.3196 88.8542 10.451 88.5133 10.7138C88.1724 10.9766 87.9327 11.2571 87.7942 11.5554L86.601 11.1293C86.8141 10.6321 87.0982 10.245 87.4533 9.96804C87.812 9.6875 88.2026 9.49219 88.6252 9.3821C89.0513 9.26847 89.4703 9.21165 89.8823 9.21165C90.1451 9.21165 90.4469 9.24361 90.7878 9.30753C91.1323 9.3679 91.4643 9.49396 91.7839 9.68572C92.1071 9.87749 92.3752 10.1669 92.5882 10.554C92.8013 10.9411 92.9078 11.4595 92.9078 12.1094V17.5H91.6507V16.392H91.5868C91.5016 16.5696 91.3595 16.7596 91.1607 16.962C90.9618 17.1644 90.6973 17.3366 90.367 17.4787C90.0367 17.6207 89.6337 17.6918 89.1578 17.6918ZM89.3496 16.5625C89.8468 16.5625 90.2658 16.4648 90.6067 16.2695C90.9512 16.0742 91.2104 15.8221 91.3844 15.5131C91.562 15.2042 91.6507 14.8793 91.6507 14.5384V13.3878C91.5975 13.4517 91.4803 13.5103 91.2992 13.5636C91.1216 13.6133 90.9157 13.6577 90.6813 13.6967C90.4505 13.7322 90.225 13.7642 90.0048 13.7926C89.7882 13.8175 89.6124 13.8388 89.4774 13.8565C89.1507 13.8991 88.8453 13.9684 88.5612 14.0643C88.2807 14.1566 88.0534 14.2969 87.8794 14.4851C87.709 14.6697 87.6237 14.9219 87.6237 15.2415C87.6237 15.6783 87.7853 16.0085 88.1085 16.2322C88.4352 16.4524 88.8489 16.5625 89.3496 16.5625ZM89.4348 8.21023L87.7729 5.73864H89.2431L90.5428 8.21023H89.4348ZM102.617 15.5824V8.55114H103.81V15.5824H102.617ZM99.6981 12.6634V11.4702H106.729V12.6634H99.6981ZM113.506 17.5V16.5412L117.107 12.5994C117.53 12.1378 117.878 11.7365 118.151 11.3956C118.425 11.0511 118.627 10.728 118.758 10.4261C118.893 10.1207 118.961 9.80114 118.961 9.46733C118.961 9.08381 118.868 8.75178 118.684 8.47124C118.503 8.1907 118.254 7.97408 117.938 7.82138C117.622 7.66868 117.267 7.59233 116.873 7.59233C116.454 7.59233 116.088 7.67933 115.775 7.85334C115.466 8.02379 115.227 8.26349 115.056 8.57244C114.889 8.88139 114.806 9.24361 114.806 9.65909H113.549C113.549 9.01989 113.696 8.45881 113.991 7.97585C114.286 7.4929 114.687 7.11648 115.195 6.84659C115.706 6.57671 116.28 6.44176 116.915 6.44176C117.555 6.44176 118.121 6.57671 118.615 6.84659C119.108 7.11648 119.495 7.48047 119.776 7.93857C120.056 8.39666 120.197 8.90625 120.197 9.46733C120.197 9.86861 120.124 10.261 119.978 10.6445C119.836 11.0245 119.588 11.4489 119.232 11.9176C118.881 12.3828 118.393 12.951 117.768 13.6222L115.317 16.2429V16.3281H120.388V17.5H113.506ZM124.485 16.0085L124.399 16.5838C124.339 16.9886 124.247 17.4219 124.122 17.8835C124.002 18.3452 123.876 18.7802 123.744 19.1886C123.613 19.5969 123.504 19.9219 123.419 20.1634H122.46C122.507 19.9361 122.567 19.636 122.642 19.2631C122.716 18.8903 122.791 18.473 122.865 18.0114C122.943 17.5533 123.007 17.0845 123.057 16.6051L123.121 16.0085H124.485ZM129.982 17.6491C129.357 17.6491 128.794 17.5249 128.293 17.2763C127.792 17.0277 127.391 16.6868 127.089 16.2536C126.787 15.8203 126.622 15.3267 126.594 14.7727H127.872C127.922 15.2663 128.146 15.6747 128.543 15.9979C128.945 16.3175 129.424 16.4773 129.982 16.4773C130.429 16.4773 130.827 16.3725 131.175 16.163C131.526 15.9535 131.802 15.6658 132.001 15.3001C132.203 14.9308 132.304 14.5135 132.304 14.0483C132.304 13.5724 132.199 13.1481 131.99 12.7752C131.784 12.3988 131.5 12.1023 131.138 11.8857C130.775 11.669 130.362 11.5589 129.896 11.5554C129.563 11.5518 129.22 11.6033 128.868 11.7099C128.517 11.8129 128.227 11.946 128 12.1094L126.764 11.9602L127.425 6.59091H133.092V7.76279H128.533L128.149 10.9801H128.213C128.437 10.8026 128.717 10.6552 129.055 10.538C129.392 10.4208 129.744 10.3622 130.11 10.3622C130.777 10.3622 131.372 10.522 131.894 10.8416C132.42 11.1577 132.831 11.5909 133.13 12.1413C133.432 12.6918 133.583 13.3203 133.583 14.027C133.583 14.723 133.426 15.3445 133.114 15.8913C132.805 16.4347 132.379 16.8643 131.835 17.1804C131.292 17.4929 130.674 17.6491 129.982 17.6491ZM137.978 11.4063C137.527 11.4063 137.115 11.2962 136.743 11.076C136.373 10.8558 136.079 10.5611 135.858 10.1918C135.638 9.81889 135.528 9.40696 135.528 8.95597C135.528 8.50497 135.638 8.09482 135.858 7.7255C136.079 7.35263 136.373 7.05611 136.743 6.83594C137.115 6.61577 137.527 6.50568 137.978 6.50568C138.429 6.50568 138.84 6.61577 139.209 6.83594C139.582 7.05611 139.878 7.35263 140.098 7.7255C140.319 8.09482 140.429 8.50497 140.429 8.95597C140.429 9.40696 140.319 9.81889 140.098 10.1918C139.878 10.5611 139.582 10.8558 139.209 11.076C138.84 11.2962 138.429 11.4063 137.978 11.4063ZM137.978 10.3409C138.234 10.3409 138.467 10.2788 138.676 10.1545C138.886 10.0302 139.053 9.86328 139.177 9.65377C139.301 9.44425 139.363 9.21165 139.363 8.95597C139.363 8.70028 139.301 8.46769 139.177 8.25817C139.053 8.04865 138.886 7.88175 138.676 7.75746C138.467 7.63317 138.234 7.57102 137.978 7.57102C137.723 7.57102 137.49 7.63317 137.281 7.75746C137.071 7.88175 136.904 8.04865 136.78 8.25817C136.656 8.46769 136.593 8.70028 136.593 8.95597C136.593 9.21165 136.656 9.44425 136.78 9.65377C136.904 9.86328 137.071 10.0302 137.281 10.1545C137.49 10.2788 137.723 10.3409 137.978 10.3409ZM151.304 10H149.983C149.905 9.62003 149.769 9.28622 149.573 8.99858C149.382 8.71094 149.147 8.46946 148.87 8.27415C148.597 8.07529 148.293 7.92614 147.959 7.82671C147.626 7.72727 147.278 7.67756 146.915 7.67756C146.255 7.67756 145.656 7.84446 145.12 8.17827C144.588 8.51207 144.163 9.00391 143.847 9.65377C143.535 10.3036 143.378 11.1009 143.378 12.0455C143.378 12.9901 143.535 13.7873 143.847 14.4371C144.163 15.087 144.588 15.5788 145.12 15.9126C145.656 16.2464 146.255 16.4134 146.915 16.4134C147.278 16.4134 147.626 16.3636 147.959 16.2642C148.293 16.1648 148.597 16.0174 148.87 15.8221C149.147 15.6232 149.382 15.38 149.573 15.0923C149.769 14.8011 149.905 14.4673 149.983 14.0909H151.304C151.205 14.6484 151.024 15.1474 150.761 15.5877C150.498 16.0281 150.172 16.4027 149.781 16.7116C149.39 17.017 148.952 17.2496 148.465 17.4094C147.982 17.5692 147.466 17.6491 146.915 17.6491C145.985 17.6491 145.157 17.4219 144.433 16.9673C143.709 16.5128 143.139 15.8665 142.723 15.0284C142.308 14.1903 142.1 13.196 142.1 12.0455C142.1 10.8949 142.308 9.90057 142.723 9.0625C143.139 8.22443 143.709 7.57813 144.433 7.12358C145.157 6.66904 145.985 6.44176 146.915 6.44176C147.466 6.44176 147.982 6.52166 148.465 6.68146C148.952 6.84127 149.39 7.07564 149.781 7.38459C150.172 7.68999 150.498 8.06286 150.761 8.5032C151.024 8.93999 151.205 9.43892 151.304 10Z" fill="black"/>
<path d="M388.281 0H363.281V25H388.281V0Z" fill="#94DB34"/>
<path d="M397.662 17.6705C396.98 17.6705 396.378 17.4982 395.856 17.1538C395.334 16.8058 394.926 16.3157 394.631 15.6836C394.336 15.0479 394.189 14.2969 394.189 13.4304C394.189 12.571 394.336 11.8253 394.631 11.1932C394.926 10.5611 395.336 10.0728 395.862 9.72834C396.387 9.38388 396.994 9.21165 397.683 9.21165C398.216 9.21165 398.637 9.30043 398.946 9.47798C399.258 9.65199 399.496 9.85085 399.659 10.0746C399.826 10.2947 399.956 10.4759 400.048 10.6179H400.155V6.59091H401.412V17.5H400.197V16.2429H400.048C399.956 16.392 399.825 16.5803 399.654 16.8075C399.484 17.0313 399.24 17.2319 398.924 17.4094C398.608 17.5835 398.187 17.6705 397.662 17.6705ZM397.832 16.5412C398.337 16.5412 398.763 16.4098 399.111 16.147C399.459 15.8807 399.723 15.5131 399.904 15.0444C400.086 14.5721 400.176 14.027 400.176 13.4091C400.176 12.7983 400.087 12.2638 399.91 11.8058C399.732 11.3441 399.469 10.9854 399.121 10.7298C398.773 10.4705 398.344 10.3409 397.832 10.3409C397.3 10.3409 396.856 10.4776 396.501 10.7511C396.149 11.021 395.885 11.3885 395.707 11.8537C395.533 12.3153 395.446 12.8338 395.446 13.4091C395.446 13.9915 395.535 14.5206 395.712 14.9964C395.893 15.4688 396.16 15.8452 396.511 16.1257C396.866 16.4027 397.307 16.5412 397.832 16.5412ZM407.319 17.6705C406.531 17.6705 405.851 17.4964 405.279 17.1484C404.711 16.7969 404.272 16.3068 403.963 15.6783C403.658 15.0462 403.505 14.3111 403.505 13.473C403.505 12.6349 403.658 11.8963 403.963 11.2571C404.272 10.6143 404.702 10.1136 405.252 9.75497C405.806 9.39276 406.453 9.21165 407.191 9.21165C407.618 9.21165 408.038 9.28267 408.454 9.42472C408.869 9.56676 409.248 9.79759 409.588 10.1172C409.929 10.4332 410.201 10.8523 410.403 11.3743C410.606 11.8963 410.707 12.5391 410.707 13.3026V13.8352H404.4V12.7486H409.429C409.429 12.2869 409.336 11.875 409.152 11.5128C408.971 11.1506 408.711 10.8647 408.374 10.6552C408.04 10.4457 407.646 10.3409 407.191 10.3409C406.691 10.3409 406.257 10.4652 405.892 10.7138C405.529 10.9588 405.251 11.2784 405.055 11.6726C404.86 12.0668 404.762 12.4893 404.762 12.9403V13.6648C404.762 14.2827 404.869 14.8065 405.082 15.2362C405.299 15.6623 405.599 15.9872 405.982 16.2109C406.366 16.4311 406.811 16.5412 407.319 16.5412C407.65 16.5412 407.948 16.495 408.214 16.4027C408.484 16.3068 408.717 16.1648 408.912 15.9766C409.107 15.7848 409.258 15.5469 409.365 15.2628L410.579 15.6037C410.451 16.0156 410.237 16.3778 409.935 16.6903C409.633 16.9993 409.26 17.2408 408.816 17.4148C408.372 17.5852 407.873 17.6705 407.319 17.6705ZM420.034 15.5824V8.55114H421.227V15.5824H420.034ZM417.115 12.6634V11.4702H424.146V12.6634H417.115ZM434.609 17.6491C433.906 17.6491 433.279 17.5284 432.729 17.2869C432.182 17.0455 431.747 16.7099 431.424 16.2802C431.104 15.8469 430.93 15.3445 430.902 14.7727H432.244C432.273 15.1243 432.393 15.4279 432.606 15.6836C432.82 15.9357 433.098 16.131 433.443 16.2695C433.787 16.408 434.169 16.4773 434.588 16.4773C435.057 16.4773 435.472 16.3956 435.834 16.2322C436.197 16.0689 436.481 15.8416 436.687 15.5504C436.893 15.2592 436.996 14.9219 436.996 14.5384C436.996 14.1371 436.896 13.7837 436.697 13.4783C436.498 13.1694 436.207 12.9279 435.824 12.7539C435.44 12.5799 434.971 12.4929 434.418 12.4929H433.544V11.321H434.418C434.851 11.321 435.231 11.2429 435.557 11.0866C435.888 10.9304 436.145 10.7102 436.33 10.4261C436.518 10.142 436.612 9.80824 436.612 9.42472C436.612 9.0554 436.53 8.73402 436.367 8.46058C436.204 8.18715 435.973 7.97408 435.675 7.82138C435.38 7.66868 435.032 7.59233 434.631 7.59233C434.254 7.59233 433.899 7.66158 433.565 7.80007C433.235 7.93502 432.965 8.1321 432.756 8.39134C432.546 8.64702 432.432 8.95597 432.415 9.31818H431.136C431.158 8.74645 431.33 8.24574 431.653 7.81605C431.976 7.38281 432.399 7.04546 432.921 6.80398C433.446 6.5625 434.023 6.44176 434.652 6.44176C435.327 6.44176 435.905 6.57848 436.388 6.85192C436.871 7.1218 437.242 7.47869 437.502 7.92259C437.761 8.36648 437.891 8.84588 437.891 9.3608C437.891 9.97514 437.729 10.4989 437.406 10.9322C437.086 11.3654 436.651 11.6655 436.101 11.8324V11.9176C436.79 12.0313 437.328 12.3242 437.715 12.7965C438.102 13.2653 438.295 13.8459 438.295 14.5384C438.295 15.1314 438.134 15.6641 437.811 16.1364C437.491 16.6051 437.054 16.9744 436.5 17.2443C435.946 17.5142 435.316 17.6491 434.609 17.6491ZM442.754 11.4063C442.303 11.4063 441.891 11.2962 441.518 11.076C441.149 10.8558 440.854 10.5611 440.634 10.1918C440.414 9.81889 440.304 9.40696 440.304 8.95597C440.304 8.50497 440.414 8.09482 440.634 7.7255C440.854 7.35263 441.149 7.05611 441.518 6.83594C441.891 6.61577 442.303 6.50568 442.754 6.50568C443.205 6.50568 443.615 6.61577 443.984 6.83594C444.357 7.05611 444.654 7.35263 444.874 7.7255C445.094 8.09482 445.204 8.50497 445.204 8.95597C445.204 9.40696 445.094 9.81889 444.874 10.1918C444.654 10.5611 444.357 10.8558 443.984 11.076C443.615 11.2962 443.205 11.4063 442.754 11.4063ZM442.754 10.3409C443.009 10.3409 443.242 10.2788 443.452 10.1545C443.661 10.0302 443.828 9.86328 443.952 9.65377C444.077 9.44425 444.139 9.21165 444.139 8.95597C444.139 8.70028 444.077 8.46769 443.952 8.25817C443.828 8.04865 443.661 7.88175 443.452 7.75746C443.242 7.63317 443.009 7.57102 442.754 7.57102C442.498 7.57102 442.266 7.63317 442.056 7.75746C441.846 7.88175 441.68 8.04865 441.555 8.25817C441.431 8.46769 441.369 8.70028 441.369 8.95597C441.369 9.21165 441.431 9.44425 441.555 9.65377C441.68 9.86328 441.846 10.0302 442.056 10.1545C442.266 10.2788 442.498 10.3409 442.754 10.3409ZM456.08 10H454.759C454.681 9.62003 454.544 9.28622 454.349 8.99858C454.157 8.71094 453.923 8.46946 453.646 8.27415C453.372 8.07529 453.069 7.92614 452.735 7.82671C452.401 7.72727 452.053 7.67756 451.691 7.67756C451.03 7.67756 450.432 7.84446 449.896 8.17827C449.363 8.51207 448.939 9.00391 448.623 9.65377C448.31 10.3036 448.154 11.1009 448.154 12.0455C448.154 12.9901 448.31 13.7873 448.623 14.4371C448.939 15.087 449.363 15.5788 449.896 15.9126C450.432 16.2464 451.03 16.4134 451.691 16.4134C452.053 16.4134 452.401 16.3636 452.735 16.2642C453.069 16.1648 453.372 16.0174 453.646 15.8221C453.923 15.6232 454.157 15.38 454.349 15.0923C454.544 14.8011 454.681 14.4673 454.759 14.0909H456.08C455.98 14.6484 455.799 15.1474 455.537 15.5877C455.274 16.0281 454.947 16.4027 454.556 16.7116C454.166 17.017 453.727 17.2496 453.241 17.4094C452.758 17.5692 452.241 17.6491 451.691 17.6491C450.76 17.6491 449.933 17.4219 449.208 16.9673C448.484 16.5128 447.914 15.8665 447.499 15.0284C447.083 14.1903 446.875 13.196 446.875 12.0455C446.875 10.8949 447.083 9.90057 447.499 9.0625C447.914 8.22443 448.484 7.57813 449.208 7.12358C449.933 6.66904 450.76 6.44176 451.691 6.44176C452.241 6.44176 452.758 6.52166 453.241 6.68146C453.727 6.84127 454.166 7.07564 454.556 7.38459C454.947 7.68999 455.274 8.06286 455.537 8.5032C455.799 8.93999 455.98 9.43892 456.08 10ZM464.671 17.6918C464.152 17.6918 463.682 17.5941 463.259 17.3988C462.836 17.1999 462.501 16.9141 462.252 16.5412C462.004 16.1648 461.879 15.7102 461.879 15.1776C461.879 14.7088 461.972 14.3288 462.156 14.0376C462.341 13.7429 462.588 13.5121 462.897 13.3452C463.206 13.1783 463.547 13.054 463.919 12.9723C464.296 12.8871 464.674 12.8196 465.054 12.7699C465.551 12.706 465.954 12.658 466.263 12.6261C466.576 12.5906 466.803 12.532 466.945 12.4503C467.091 12.3686 467.163 12.2266 467.163 12.0241V11.9815C467.163 11.456 467.02 11.0476 466.732 10.7564C466.448 10.4652 466.016 10.3196 465.438 10.3196C464.837 10.3196 464.367 10.451 464.026 10.7138C463.685 10.9766 463.445 11.2571 463.307 11.5554L462.114 11.1293C462.327 10.6321 462.611 10.245 462.966 9.96804C463.325 9.6875 463.715 9.49219 464.138 9.3821C464.564 9.26847 464.983 9.21165 465.395 9.21165C465.658 9.21165 465.96 9.24361 466.301 9.30753C466.645 9.3679 466.977 9.49396 467.297 9.68572C467.62 9.87749 467.888 10.1669 468.101 10.554C468.314 10.9411 468.421 11.4595 468.421 12.1094V17.5H467.163V16.392H467.1C467.014 16.5696 466.872 16.7596 466.673 16.962C466.475 17.1644 466.21 17.3366 465.88 17.4787C465.549 17.6207 465.146 17.6918 464.671 17.6918ZM464.862 16.5625C465.359 16.5625 465.778 16.4648 466.119 16.2695C466.464 16.0742 466.723 15.8221 466.897 15.5131C467.075 15.2042 467.163 14.8793 467.163 14.5384V13.3878C467.11 13.4517 466.993 13.5103 466.812 13.5636C466.634 13.6133 466.428 13.6577 466.194 13.6967C465.963 13.7322 465.738 13.7642 465.517 13.7926C465.301 13.8175 465.125 13.8388 464.99 13.8565C464.663 13.8991 464.358 13.9684 464.074 14.0643C463.793 14.1566 463.566 14.2969 463.392 14.4851C463.222 14.6697 463.136 14.9219 463.136 15.2415C463.136 15.6783 463.298 16.0085 463.621 16.2322C463.948 16.4524 464.362 16.5625 464.862 16.5625ZM464.948 8.21023L463.286 5.73864H464.756L466.055 8.21023H464.948ZM478.13 15.5824V8.55114H479.323V15.5824H478.13ZM475.211 12.6634V11.4702H482.242V12.6634H475.211ZM492.705 17.6491C492.002 17.6491 491.375 17.5284 490.825 17.2869C490.278 17.0455 489.843 16.7099 489.52 16.2802C489.2 15.8469 489.026 15.3445 488.998 14.7727H490.34C490.368 15.1243 490.489 15.4279 490.702 15.6836C490.915 15.9357 491.194 16.131 491.538 16.2695C491.883 16.408 492.265 16.4773 492.684 16.4773C493.152 16.4773 493.568 16.3956 493.93 16.2322C494.292 16.0689 494.576 15.8416 494.782 15.5504C494.988 15.2592 495.091 14.9219 495.091 14.5384C495.091 14.1371 494.992 13.7837 494.793 13.4783C494.594 13.1694 494.303 12.9279 493.919 12.7539C493.536 12.5799 493.067 12.4929 492.513 12.4929H491.64V11.321H492.513C492.946 11.321 493.326 11.2429 493.653 11.0866C493.983 10.9304 494.241 10.7102 494.426 10.4261C494.614 10.142 494.708 9.80824 494.708 9.42472C494.708 9.0554 494.626 8.73402 494.463 8.46058C494.299 8.18715 494.069 7.97408 493.77 7.82138C493.476 7.66868 493.128 7.59233 492.726 7.59233C492.35 7.59233 491.995 7.66158 491.661 7.80007C491.331 7.93502 491.061 8.1321 490.851 8.39134C490.642 8.64702 490.528 8.95597 490.51 9.31818H489.232C489.253 8.74645 489.426 8.24574 489.749 7.81605C490.072 7.38281 490.494 7.04546 491.016 6.80398C491.542 6.5625 492.119 6.44176 492.748 6.44176C493.422 6.44176 494.001 6.57848 494.484 6.85192C494.967 7.1218 495.338 7.47869 495.597 7.92259C495.857 8.36648 495.986 8.84588 495.986 9.3608C495.986 9.97514 495.825 10.4989 495.502 10.9322C495.182 11.3654 494.747 11.6655 494.196 11.8324V11.9176C494.885 12.0313 495.423 12.3242 495.81 12.7965C496.198 13.2653 496.391 13.8459 496.391 14.5384C496.391 15.1314 496.229 15.6641 495.906 16.1364C495.587 16.6051 495.15 16.9744 494.596 17.2443C494.042 17.5142 493.412 17.6491 492.705 17.6491ZM500.129 16.0085L500.044 16.5838C499.983 16.9886 499.891 17.4219 499.767 17.8835C499.646 18.3452 499.52 18.7802 499.389 19.1886C499.257 19.5969 499.149 19.9219 499.064 20.1634H498.105C498.151 19.9361 498.211 19.636 498.286 19.2631C498.361 18.8903 498.435 18.473 498.51 18.0114C498.588 17.5533 498.652 17.0845 498.702 16.6051L498.765 16.0085H500.129ZM505.626 17.6491C505.001 17.6491 504.438 17.5249 503.938 17.2763C503.437 17.0277 503.036 16.6868 502.734 16.2536C502.432 15.8203 502.267 15.3267 502.238 14.7727H503.517C503.567 15.2663 503.79 15.6747 504.188 15.9979C504.589 16.3175 505.069 16.4773 505.626 16.4773C506.074 16.4773 506.471 16.3725 506.819 16.163C507.171 15.9535 507.446 15.6658 507.645 15.3001C507.847 14.9308 507.949 14.5135 507.949 14.0483C507.949 13.5724 507.844 13.1481 507.634 12.7752C507.428 12.3988 507.144 12.1023 506.782 11.8857C506.42 11.669 506.006 11.5589 505.541 11.5554C505.207 11.5518 504.865 11.6033 504.513 11.7099C504.161 11.8129 503.872 11.946 503.645 12.1094L502.409 11.9602L503.069 6.59091H508.737V7.76279H504.177L503.794 10.9801H503.858C504.081 10.8026 504.362 10.6552 504.699 10.538C505.037 10.4208 505.388 10.3622 505.754 10.3622C506.422 10.3622 507.016 10.522 507.539 10.8416C508.064 11.1577 508.476 11.5909 508.774 12.1413C509.076 12.6918 509.227 13.3203 509.227 14.027C509.227 14.723 509.071 15.3445 508.758 15.8913C508.449 16.4347 508.023 16.8643 507.48 17.1804C506.937 17.4929 506.319 17.6491 505.626 17.6491ZM513.623 11.4063C513.172 11.4063 512.76 11.2962 512.387 11.076C512.018 10.8558 511.723 10.5611 511.503 10.1918C511.283 9.81889 511.173 9.40696 511.173 8.95597C511.173 8.50497 511.283 8.09482 511.503 7.7255C511.723 7.35263 512.018 7.05611 512.387 6.83594C512.76 6.61577 513.172 6.50568 513.623 6.50568C514.074 6.50568 514.484 6.61577 514.853 6.83594C515.226 7.05611 515.523 7.35263 515.743 7.7255C515.963 8.09482 516.073 8.50497 516.073 8.95597C516.073 9.40696 515.963 9.81889 515.743 10.1918C515.523 10.5611 515.226 10.8558 514.853 11.076C514.484 11.2962 514.074 11.4063 513.623 11.4063ZM513.623 10.3409C513.879 10.3409 514.111 10.2788 514.321 10.1545C514.53 10.0302 514.697 9.86328 514.821 9.65377C514.946 9.44425 515.008 9.21165 515.008 8.95597C515.008 8.70028 514.946 8.46769 514.821 8.25817C514.697 8.04865 514.53 7.88175 514.321 7.75746C514.111 7.63317 513.879 7.57102 513.623 7.57102C513.367 7.57102 513.135 7.63317 512.925 7.75746C512.716 7.88175 512.549 8.04865 512.424 8.25817C512.3 8.46769 512.238 8.70028 512.238 8.95597C512.238 9.21165 512.3 9.44425 512.424 9.65377C512.549 9.86328 512.716 10.0302 512.925 10.1545C513.135 10.2788 513.367 10.3409 513.623 10.3409ZM526.949 10H525.628C525.55 9.62003 525.413 9.28622 525.218 8.99858C525.026 8.71094 524.792 8.46946 524.515 8.27415C524.241 8.07529 523.938 7.92614 523.604 7.82671C523.27 7.72727 522.922 7.67756 522.56 7.67756C521.899 7.67756 521.301 7.84446 520.765 8.17827C520.232 8.51207 519.808 9.00391 519.492 9.65377C519.179 10.3036 519.023 11.1009 519.023 12.0455C519.023 12.9901 519.179 13.7873 519.492 14.4371C519.808 15.087 520.232 15.5788 520.765 15.9126C521.301 16.2464 521.899 16.4134 522.56 16.4134C522.922 16.4134 523.27 16.3636 523.604 16.2642C523.938 16.1648 524.241 16.0174 524.515 15.8221C524.792 15.6232 525.026 15.38 525.218 15.0923C525.413 14.8011 525.55 14.4673 525.628 14.0909H526.949C526.85 14.6484 526.668 15.1474 526.406 15.5877C526.143 16.0281 525.816 16.4027 525.426 16.7116C525.035 17.017 524.596 17.2496 524.11 17.4094C523.627 17.5692 523.11 17.6491 522.56 17.6491C521.629 17.6491 520.802 17.4219 520.078 16.9673C519.353 16.5128 518.783 15.8665 518.368 15.0284C517.952 14.1903 517.744 13.196 517.744 12.0455C517.744 10.8949 517.952 9.90057 518.368 9.0625C518.783 8.22443 519.353 7.57813 520.078 7.12358C520.802 6.66904 521.629 6.44176 522.56 6.44176C523.11 6.44176 523.627 6.52166 524.11 6.68146C524.596 6.84127 525.035 7.07564 525.426 7.38459C525.816 7.68999 526.143 8.06286 526.406 8.5032C526.668 8.93999 526.85 9.43892 526.949 10Z" fill="black"/>
<path d="M583.422 0H558.422V25H583.422V0Z" fill="#F3E053"/>
<path d="M592.803 17.6705C592.121 17.6705 591.519 17.4982 590.997 17.1538C590.475 16.8058 590.066 16.3157 589.772 15.6836C589.477 15.0479 589.33 14.2969 589.33 13.4304C589.33 12.571 589.477 11.8253 589.772 11.1932C590.066 10.5611 590.477 10.0728 591.002 9.72834C591.528 9.38388 592.135 9.21165 592.824 9.21165C593.357 9.21165 593.777 9.30043 594.086 9.47798C594.399 9.65199 594.637 9.85085 594.8 10.0746C594.967 10.2947 595.097 10.4759 595.189 10.6179H595.295V6.59091H596.553V17.5H595.338V16.2429H595.189C595.097 16.392 594.965 16.5803 594.795 16.8075C594.624 17.0313 594.381 17.2319 594.065 17.4094C593.749 17.5835 593.328 17.6705 592.803 17.6705ZM592.973 16.5412C593.477 16.5412 593.903 16.4098 594.251 16.147C594.599 15.8807 594.864 15.5131 595.045 15.0444C595.226 14.5721 595.317 14.027 595.317 13.4091C595.317 12.7983 595.228 12.2638 595.05 11.8058C594.873 11.3441 594.61 10.9854 594.262 10.7298C593.914 10.4705 593.484 10.3409 592.973 10.3409C592.44 10.3409 591.996 10.4776 591.641 10.7511C591.29 11.021 591.025 11.3885 590.848 11.8537C590.674 12.3153 590.587 12.8338 590.587 13.4091C590.587 13.9915 590.675 14.5206 590.853 14.9964C591.034 15.4688 591.3 15.8452 591.652 16.1257C592.007 16.4027 592.447 16.5412 592.973 16.5412ZM602.46 17.6705C601.672 17.6705 600.991 17.4964 600.42 17.1484C599.852 16.7969 599.413 16.3068 599.104 15.6783C598.799 15.0462 598.646 14.3111 598.646 13.473C598.646 12.6349 598.799 11.8963 599.104 11.2571C599.413 10.6143 599.843 10.1136 600.393 9.75497C600.947 9.39276 601.593 9.21165 602.332 9.21165C602.758 9.21165 603.179 9.28267 603.594 9.42472C604.01 9.56676 604.388 9.79759 604.729 10.1172C605.07 10.4332 605.342 10.8523 605.544 11.3743C605.746 11.8963 605.848 12.5391 605.848 13.3026V13.8352H599.541V12.7486H604.569C604.569 12.2869 604.477 11.875 604.292 11.5128C604.111 11.1506 603.852 10.8647 603.515 10.6552C603.181 10.4457 602.787 10.3409 602.332 10.3409C601.831 10.3409 601.398 10.4652 601.032 10.7138C600.67 10.9588 600.391 11.2784 600.196 11.6726C600.001 12.0668 599.903 12.4893 599.903 12.9403V13.6648C599.903 14.2827 600.01 14.8065 600.223 15.2362C600.439 15.6623 600.739 15.9872 601.123 16.2109C601.506 16.4311 601.952 16.5412 602.46 16.5412C602.79 16.5412 603.088 16.495 603.355 16.4027C603.625 16.3068 603.857 16.1648 604.053 15.9766C604.248 15.7848 604.399 15.5469 604.505 15.2628L605.72 15.6037C605.592 16.0156 605.377 16.3778 605.075 16.6903C604.773 16.9993 604.401 17.2408 603.957 17.4148C603.513 17.5852 603.014 17.6705 602.46 17.6705ZM615.175 15.5824V8.55114H616.368V15.5824H615.175ZM612.256 12.6634V11.4702H619.287V12.6634H612.256ZM629.75 17.6491C629.047 17.6491 628.42 17.5284 627.87 17.2869C627.323 17.0455 626.888 16.7099 626.565 16.2802C626.245 15.8469 626.071 15.3445 626.043 14.7727H627.385C627.413 15.1243 627.534 15.4279 627.747 15.6836C627.96 15.9357 628.239 16.131 628.583 16.2695C628.928 16.408 629.31 16.4773 629.729 16.4773C630.197 16.4773 630.613 16.3956 630.975 16.2322C631.337 16.0689 631.621 15.8416 631.827 15.5504C632.033 15.2592 632.136 14.9219 632.136 14.5384C632.136 14.1371 632.037 13.7837 631.838 13.4783C631.639 13.1694 631.348 12.9279 630.964 12.7539C630.581 12.5799 630.112 12.4929 629.558 12.4929H628.685V11.321H629.558C629.991 11.321 630.371 11.2429 630.698 11.0866C631.028 10.9304 631.286 10.7102 631.47 10.4261C631.659 10.142 631.753 9.80824 631.753 9.42472C631.753 9.0554 631.671 8.73402 631.508 8.46058C631.344 8.18715 631.114 7.97408 630.815 7.82138C630.521 7.66868 630.172 7.59233 629.771 7.59233C629.395 7.59233 629.04 7.66158 628.706 7.80007C628.376 7.93502 628.106 8.1321 627.896 8.39134C627.687 8.64702 627.573 8.95597 627.555 9.31818H626.277C626.298 8.74645 626.47 8.24574 626.794 7.81605C627.117 7.38281 627.539 7.04546 628.061 6.80398C628.587 6.5625 629.164 6.44176 629.793 6.44176C630.467 6.44176 631.046 6.57848 631.529 6.85192C632.012 7.1218 632.383 7.47869 632.642 7.92259C632.902 8.36648 633.031 8.84588 633.031 9.3608C633.031 9.97514 632.87 10.4989 632.546 10.9322C632.227 11.3654 631.792 11.6655 631.241 11.8324V11.9176C631.93 12.0313 632.468 12.3242 632.855 12.7965C633.242 13.2653 633.436 13.8459 633.436 14.5384C633.436 15.1314 633.274 15.6641 632.951 16.1364C632.632 16.6051 632.195 16.9744 631.641 17.2443C631.087 17.5142 630.457 17.6491 629.75 17.6491ZM637.174 16.0085L637.089 16.5838C637.028 16.9886 636.936 17.4219 636.812 17.8835C636.691 18.3452 636.565 18.7802 636.434 19.1886C636.302 19.5969 636.194 19.9219 636.109 20.1634H635.15C635.196 19.9361 635.256 19.636 635.331 19.2631C635.406 18.8903 635.48 18.473 635.555 18.0114C635.633 17.5533 635.697 17.0845 635.746 16.6051L635.81 16.0085H637.174ZM642.671 17.6491C642.046 17.6491 641.483 17.5249 640.983 17.2763C640.482 17.0277 640.081 16.6868 639.779 16.2536C639.477 15.8203 639.312 15.3267 639.283 14.7727H640.562C640.612 15.2663 640.835 15.6747 641.233 15.9979C641.634 16.3175 642.114 16.4773 642.671 16.4773C643.119 16.4773 643.516 16.3725 643.864 16.163C644.216 15.9535 644.491 15.6658 644.69 15.3001C644.892 14.9308 644.994 14.5135 644.994 14.0483C644.994 13.5724 644.889 13.1481 644.679 12.7752C644.473 12.3988 644.189 12.1023 643.827 11.8857C643.465 11.669 643.051 11.5589 642.586 11.5554C642.252 11.5518 641.909 11.6033 641.558 11.7099C641.206 11.8129 640.917 11.946 640.69 12.1094L639.454 11.9602L640.114 6.59091H645.782V7.76279H641.222L640.839 10.9801H640.903C641.126 10.8026 641.407 10.6552 641.744 10.538C642.082 10.4208 642.433 10.3622 642.799 10.3622C643.467 10.3622 644.061 10.522 644.583 10.8416C645.109 11.1577 645.521 11.5909 645.819 12.1413C646.121 12.6918 646.272 13.3203 646.272 14.027C646.272 14.723 646.116 15.3445 645.803 15.8913C645.494 16.4347 645.068 16.8643 644.525 17.1804C643.982 17.4929 643.364 17.6491 642.671 17.6491ZM650.668 11.4063C650.217 11.4063 649.805 11.2962 649.432 11.076C649.063 10.8558 648.768 10.5611 648.548 10.1918C648.328 9.81889 648.218 9.40696 648.218 8.95597C648.218 8.50497 648.328 8.09482 648.548 7.7255C648.768 7.35263 649.063 7.05611 649.432 6.83594C649.805 6.61577 650.217 6.50568 650.668 6.50568C651.119 6.50568 651.529 6.61577 651.898 6.83594C652.271 7.05611 652.568 7.35263 652.788 7.7255C653.008 8.09482 653.118 8.50497 653.118 8.95597C653.118 9.40696 653.008 9.81889 652.788 10.1918C652.568 10.5611 652.271 10.8558 651.898 11.076C651.529 11.2962 651.119 11.4063 650.668 11.4063ZM650.668 10.3409C650.924 10.3409 651.156 10.2788 651.366 10.1545C651.575 10.0302 651.742 9.86328 651.866 9.65377C651.991 9.44425 652.053 9.21165 652.053 8.95597C652.053 8.70028 651.991 8.46769 651.866 8.25817C651.742 8.04865 651.575 7.88175 651.366 7.75746C651.156 7.63317 650.924 7.57102 650.668 7.57102C650.412 7.57102 650.18 7.63317 649.97 7.75746C649.761 7.88175 649.594 8.04865 649.469 8.25817C649.345 8.46769 649.283 8.70028 649.283 8.95597C649.283 9.21165 649.345 9.44425 649.469 9.65377C649.594 9.86328 649.761 10.0302 649.97 10.1545C650.18 10.2788 650.412 10.3409 650.668 10.3409ZM663.994 10H662.673C662.595 9.62003 662.458 9.28622 662.263 8.99858C662.071 8.71094 661.837 8.46946 661.56 8.27415C661.286 8.07529 660.983 7.92614 660.649 7.82671C660.315 7.72727 659.967 7.67756 659.605 7.67756C658.944 7.67756 658.346 7.84446 657.81 8.17827C657.277 8.51207 656.853 9.00391 656.537 9.65377C656.224 10.3036 656.068 11.1009 656.068 12.0455C656.068 12.9901 656.224 13.7873 656.537 14.4371C656.853 15.087 657.277 15.5788 657.81 15.9126C658.346 16.2464 658.944 16.4134 659.605 16.4134C659.967 16.4134 660.315 16.3636 660.649 16.2642C660.983 16.1648 661.286 16.0174 661.56 15.8221C661.837 15.6232 662.071 15.38 662.263 15.0923C662.458 14.8011 662.595 14.4673 662.673 14.0909H663.994C663.895 14.6484 663.713 15.1474 663.451 15.5877C663.188 16.0281 662.861 16.4027 662.471 16.7116C662.08 17.017 661.641 17.2496 661.155 17.4094C660.672 17.5692 660.155 17.6491 659.605 17.6491C658.674 17.6491 657.847 17.4219 657.123 16.9673C656.398 16.5128 655.828 15.8665 655.413 15.0284C654.997 14.1903 654.789 13.196 654.789 12.0455C654.789 10.8949 654.997 9.90057 655.413 9.0625C655.828 8.22443 656.398 7.57813 657.123 7.12358C657.847 6.66904 658.674 6.44176 659.605 6.44176C660.155 6.44176 660.672 6.52166 661.155 6.68146C661.641 6.84127 662.08 7.07564 662.471 7.38459C662.861 7.68999 663.188 8.06286 663.451 8.5032C663.713 8.93999 663.895 9.43892 663.994 10ZM672.585 17.6918C672.066 17.6918 671.596 17.5941 671.173 17.3988C670.75 17.1999 670.415 16.9141 670.166 16.5412C669.918 16.1648 669.793 15.7102 669.793 15.1776C669.793 14.7088 669.886 14.3288 670.07 14.0376C670.255 13.7429 670.502 13.5121 670.811 13.3452C671.12 13.1783 671.461 13.054 671.834 12.9723C672.21 12.8871 672.588 12.8196 672.968 12.7699C673.465 12.706 673.868 12.658 674.177 12.6261C674.49 12.5906 674.717 12.532 674.859 12.4503C675.005 12.3686 675.077 12.2266 675.077 12.0241V11.9815C675.077 11.456 674.934 11.0476 674.646 10.7564C674.362 10.4652 673.93 10.3196 673.352 10.3196C672.752 10.3196 672.281 10.451 671.94 10.7138C671.599 10.9766 671.359 11.2571 671.221 11.5554L670.028 11.1293C670.241 10.6321 670.525 10.245 670.88 9.96804C671.239 9.6875 671.629 9.49219 672.052 9.3821C672.478 9.26847 672.897 9.21165 673.309 9.21165C673.572 9.21165 673.874 9.24361 674.215 9.30753C674.559 9.3679 674.891 9.49396 675.211 9.68572C675.534 9.87749 675.802 10.1669 676.015 10.554C676.228 10.9411 676.335 11.4595 676.335 12.1094V17.5H675.077V16.392H675.014C674.928 16.5696 674.786 16.7596 674.587 16.962C674.389 17.1644 674.124 17.3366 673.794 17.4787C673.464 17.6207 673.06 17.6918 672.585 17.6918ZM672.776 16.5625C673.274 16.5625 673.693 16.4648 674.033 16.2695C674.378 16.0742 674.637 15.8221 674.811 15.5131C674.989 15.2042 675.077 14.8793 675.077 14.5384V13.3878C675.024 13.4517 674.907 13.5103 674.726 13.5636C674.548 13.6133 674.342 13.6577 674.108 13.6967C673.877 13.7322 673.652 13.7642 673.432 13.7926C673.215 13.8175 673.039 13.8388 672.904 13.8565C672.577 13.8991 672.272 13.9684 671.988 14.0643C671.707 14.1566 671.48 14.2969 671.306 14.4851C671.136 14.6697 671.051 14.9219 671.051 15.2415C671.051 15.6783 671.212 16.0085 671.535 16.2322C671.862 16.4524 672.276 16.5625 672.776 16.5625ZM672.862 8.21023L671.2 5.73864H672.67L673.97 8.21023H672.862ZM686.044 15.5824V8.55114H687.237V15.5824H686.044ZM683.125 12.6634V11.4702H690.156V12.6634H683.125ZM696.677 15.2628V14.1761L701.471 6.59091H702.26V8.27415H701.727L698.105 14.0057V14.0909H704.561V15.2628H696.677ZM701.812 17.5V14.9325V14.4265V6.59091H703.069V17.5H701.812ZM708.837 11.4063C708.386 11.4063 707.974 11.2962 707.601 11.076C707.232 10.8558 706.937 10.5611 706.717 10.1918C706.497 9.81889 706.387 9.40696 706.387 8.95597C706.387 8.50497 706.497 8.09482 706.717 7.7255C706.937 7.35263 707.232 7.05611 707.601 6.83594C707.974 6.61577 708.386 6.50568 708.837 6.50568C709.288 6.50568 709.698 6.61577 710.067 6.83594C710.44 7.05611 710.737 7.35263 710.957 7.7255C711.177 8.09482 711.287 8.50497 711.287 8.95597C711.287 9.40696 711.177 9.81889 710.957 10.1918C710.737 10.5611 710.44 10.8558 710.067 11.076C709.698 11.2962 709.288 11.4063 708.837 11.4063ZM708.837 10.3409C709.092 10.3409 709.325 10.2788 709.535 10.1545C709.744 10.0302 709.911 9.86328 710.035 9.65377C710.16 9.44425 710.222 9.21165 710.222 8.95597C710.222 8.70028 710.16 8.46769 710.035 8.25817C709.911 8.04865 709.744 7.88175 709.535 7.75746C709.325 7.63317 709.092 7.57102 708.837 7.57102C708.581 7.57102 708.349 7.63317 708.139 7.75746C707.929 7.88175 707.763 8.04865 707.638 8.25817C707.514 8.46769 707.452 8.70028 707.452 8.95597C707.452 9.21165 707.514 9.44425 707.638 9.65377C707.763 9.86328 707.929 10.0302 708.139 10.1545C708.349 10.2788 708.581 10.3409 708.837 10.3409ZM722.163 10H720.842C720.764 9.62003 720.627 9.28622 720.432 8.99858C720.24 8.71094 720.006 8.46946 719.729 8.27415C719.455 8.07529 719.152 7.92614 718.818 7.82671C718.484 7.72727 718.136 7.67756 717.774 7.67756C717.113 7.67756 716.515 7.84446 715.979 8.17827C715.446 8.51207 715.022 9.00391 714.706 9.65377C714.393 10.3036 714.237 11.1009 714.237 12.0455C714.237 12.9901 714.393 13.7873 714.706 14.4371C715.022 15.087 715.446 15.5788 715.979 15.9126C716.515 16.2464 717.113 16.4134 717.774 16.4134C718.136 16.4134 718.484 16.3636 718.818 16.2642C719.152 16.1648 719.455 16.0174 719.729 15.8221C720.006 15.6232 720.24 15.38 720.432 15.0923C720.627 14.8011 720.764 14.4673 720.842 14.0909H722.163C722.063 14.6484 721.882 15.1474 721.62 15.5877C721.357 16.0281 721.03 16.4027 720.639 16.7116C720.249 17.017 719.81 17.2496 719.324 17.4094C718.841 17.5692 718.324 17.6491 717.774 17.6491C716.843 17.6491 716.016 17.4219 715.291 16.9673C714.567 16.5128 713.997 15.8665 713.582 15.0284C713.166 14.1903 712.958 13.196 712.958 12.0455C712.958 10.8949 713.166 9.90057 713.582 9.0625C713.997 8.22443 714.567 7.57813 715.291 7.12358C716.016 6.66904 716.843 6.44176 717.774 6.44176C718.324 6.44176 718.841 6.52166 719.324 6.68146C719.81 6.84127 720.249 7.07564 720.639 7.38459C721.03 7.68999 721.357 8.06286 721.62 8.5032C721.882 8.93999 722.063 9.43892 722.163 10Z" fill="black"/>
<path d="M778.562 0H753.562V25H778.562V0Z" fill="#DC9447"/>
<path d="M787.943 17.6705C787.261 17.6705 786.659 17.4982 786.137 17.1538C785.615 16.8058 785.207 16.3157 784.912 15.6836C784.618 15.0479 784.47 14.2969 784.47 13.4304C784.47 12.571 784.618 11.8253 784.912 11.1932C785.207 10.5611 785.617 10.0728 786.143 9.72834C786.668 9.38388 787.276 9.21165 787.964 9.21165C788.497 9.21165 788.918 9.30043 789.227 9.47798C789.539 9.65199 789.777 9.85085 789.941 10.0746C790.108 10.2947 790.237 10.4759 790.33 10.6179H790.436V6.59091H791.693V17.5H790.479V16.2429H790.33C790.237 16.392 790.106 16.5803 789.935 16.8075C789.765 17.0313 789.522 17.2319 789.206 17.4094C788.89 17.5835 788.469 17.6705 787.943 17.6705ZM788.114 16.5412C788.618 16.5412 789.044 16.4098 789.392 16.147C789.74 15.8807 790.005 15.5131 790.186 15.0444C790.367 14.5721 790.457 14.027 790.457 13.4091C790.457 12.7983 790.369 12.2638 790.191 11.8058C790.013 11.3441 789.751 10.9854 789.403 10.7298C789.055 10.4705 788.625 10.3409 788.114 10.3409C787.581 10.3409 787.137 10.4776 786.782 10.7511C786.43 11.021 786.166 11.3885 785.988 11.8537C785.814 12.3153 785.727 12.8338 785.727 13.4091C785.727 13.9915 785.816 14.5206 785.994 14.9964C786.175 15.4688 786.441 15.8452 786.793 16.1257C787.148 16.4027 787.588 16.5412 788.114 16.5412ZM797.6 17.6705C796.812 17.6705 796.132 17.4964 795.56 17.1484C794.992 16.7969 794.554 16.3068 794.245 15.6783C793.939 15.0462 793.787 14.3111 793.787 13.473C793.787 12.6349 793.939 11.8963 794.245 11.2571C794.554 10.6143 794.983 10.1136 795.534 9.75497C796.088 9.39276 796.734 9.21165 797.473 9.21165C797.899 9.21165 798.32 9.28267 798.735 9.42472C799.151 9.56676 799.529 9.79759 799.87 10.1172C800.211 10.4332 800.482 10.8523 800.685 11.3743C800.887 11.8963 800.988 12.5391 800.988 13.3026V13.8352H794.681V12.7486H799.71C799.71 12.2869 799.618 11.875 799.433 11.5128C799.252 11.1506 798.993 10.8647 798.655 10.6552C798.321 10.4457 797.927 10.3409 797.473 10.3409C796.972 10.3409 796.539 10.4652 796.173 10.7138C795.811 10.9588 795.532 11.2784 795.337 11.6726C795.141 12.0668 795.044 12.4893 795.044 12.9403V13.6648C795.044 14.2827 795.15 14.8065 795.363 15.2362C795.58 15.6623 795.88 15.9872 796.263 16.2109C796.647 16.4311 797.093 16.5412 797.6 16.5412C797.931 16.5412 798.229 16.495 798.495 16.4027C798.765 16.3068 798.998 16.1648 799.193 15.9766C799.388 15.7848 799.539 15.5469 799.646 15.2628L800.86 15.6037C800.733 16.0156 800.518 16.3778 800.216 16.6903C799.914 16.9993 799.541 17.2408 799.097 17.4148C798.653 17.5852 798.154 17.6705 797.6 17.6705ZM810.315 15.5824V8.55114H811.509V15.5824H810.315ZM807.396 12.6634V11.4702H814.428V12.6634H807.396ZM820.949 15.2628V14.1761L825.743 6.59091H826.531V8.27415H825.998L822.376 14.0057V14.0909H828.832V15.2628H820.949ZM826.084 17.5V14.9325V14.4265V6.59091H827.341V17.5H826.084ZM833.108 11.4063C832.657 11.4063 832.245 11.2962 831.873 11.076C831.503 10.8558 831.208 10.5611 830.988 10.1918C830.768 9.81889 830.658 9.40696 830.658 8.95597C830.658 8.50497 830.768 8.09482 830.988 7.7255C831.208 7.35263 831.503 7.05611 831.873 6.83594C832.245 6.61577 832.657 6.50568 833.108 6.50568C833.559 6.50568 833.969 6.61577 834.339 6.83594C834.712 7.05611 835.008 7.35263 835.228 7.7255C835.449 8.09482 835.559 8.50497 835.559 8.95597C835.559 9.40696 835.449 9.81889 835.228 10.1918C835.008 10.5611 834.712 10.8558 834.339 11.076C833.969 11.2962 833.559 11.4063 833.108 11.4063ZM833.108 10.3409C833.364 10.3409 833.597 10.2788 833.806 10.1545C834.016 10.0302 834.183 9.86328 834.307 9.65377C834.431 9.44425 834.493 9.21165 834.493 8.95597C834.493 8.70028 834.431 8.46769 834.307 8.25817C834.183 8.04865 834.016 7.88175 833.806 7.75746C833.597 7.63317 833.364 7.57102 833.108 7.57102C832.853 7.57102 832.62 7.63317 832.411 7.75746C832.201 7.88175 832.034 8.04865 831.91 8.25817C831.786 8.46769 831.723 8.70028 831.723 8.95597C831.723 9.21165 831.786 9.44425 831.91 9.65377C832.034 9.86328 832.201 10.0302 832.411 10.1545C832.62 10.2788 832.853 10.3409 833.108 10.3409ZM846.434 10H845.113C845.035 9.62003 844.899 9.28622 844.703 8.99858C844.511 8.71094 844.277 8.46946 844 8.27415C843.727 8.07529 843.423 7.92614 843.089 7.82671C842.755 7.72727 842.407 7.67756 842.045 7.67756C841.385 7.67756 840.786 7.84446 840.25 8.17827C839.717 8.51207 839.293 9.00391 838.977 9.65377C838.664 10.3036 838.508 11.1009 838.508 12.0455C838.508 12.9901 838.664 13.7873 838.977 14.4371C839.293 15.087 839.717 15.5788 840.25 15.9126C840.786 16.2464 841.385 16.4134 842.045 16.4134C842.407 16.4134 842.755 16.3636 843.089 16.2642C843.423 16.1648 843.727 16.0174 844 15.8221C844.277 15.6232 844.511 15.38 844.703 15.0923C844.899 14.8011 845.035 14.4673 845.113 14.0909H846.434C846.335 14.6484 846.154 15.1474 845.891 15.5877C845.628 16.0281 845.302 16.4027 844.911 16.7116C844.52 17.017 844.082 17.2496 843.595 17.4094C843.112 17.5692 842.596 17.6491 842.045 17.6491C841.115 17.6491 840.287 17.4219 839.563 16.9673C838.839 16.5128 838.269 15.8665 837.853 15.0284C837.438 14.1903 837.23 13.196 837.23 12.0455C837.23 10.8949 837.438 9.90057 837.853 9.0625C838.269 8.22443 838.839 7.57813 839.563 7.12358C840.287 6.66904 841.115 6.44176 842.045 6.44176C842.596 6.44176 843.112 6.52166 843.595 6.68146C844.082 6.84127 844.52 7.07564 844.911 7.38459C845.302 7.68999 845.628 8.06286 845.891 8.5032C846.154 8.93999 846.335 9.43892 846.434 10ZM855.025 17.6918C854.507 17.6918 854.036 17.5941 853.613 17.3988C853.191 17.1999 852.855 16.9141 852.607 16.5412C852.358 16.1648 852.234 15.7102 852.234 15.1776C852.234 14.7088 852.326 14.3288 852.511 14.0376C852.695 13.7429 852.942 13.5121 853.251 13.3452C853.56 13.1783 853.901 13.054 854.274 12.9723C854.65 12.8871 855.029 12.8196 855.409 12.7699C855.906 12.706 856.309 12.658 856.618 12.6261C856.93 12.5906 857.157 12.532 857.3 12.4503C857.445 12.3686 857.518 12.2266 857.518 12.0241V11.9815C857.518 11.456 857.374 11.0476 857.086 10.7564C856.802 10.4652 856.371 10.3196 855.792 10.3196C855.192 10.3196 854.721 10.451 854.38 10.7138C854.04 10.9766 853.8 11.2571 853.661 11.5554L852.468 11.1293C852.681 10.6321 852.965 10.245 853.32 9.96804C853.679 9.6875 854.07 9.49219 854.492 9.3821C854.918 9.26847 855.338 9.21165 855.749 9.21165C856.012 9.21165 856.314 9.24361 856.655 9.30753C856.999 9.3679 857.331 9.49396 857.651 9.68572C857.974 9.87749 858.242 10.1669 858.455 10.554C858.668 10.9411 858.775 11.4595 858.775 12.1094V17.5H857.518V16.392H857.454C857.369 16.5696 857.227 16.7596 857.028 16.962C856.829 17.1644 856.564 17.3366 856.234 17.4787C855.904 17.6207 855.501 17.6918 855.025 17.6918ZM855.217 16.5625C855.714 16.5625 856.133 16.4648 856.474 16.2695C856.818 16.0742 857.078 15.8221 857.252 15.5131C857.429 15.2042 857.518 14.8793 857.518 14.5384V13.3878C857.465 13.4517 857.347 13.5103 857.166 13.5636C856.989 13.6133 856.783 13.6577 856.548 13.6967C856.318 13.7322 856.092 13.7642 855.872 13.7926C855.655 13.8175 855.48 13.8388 855.345 13.8565C855.018 13.8991 854.713 13.9684 854.428 14.0643C854.148 14.1566 853.921 14.2969 853.747 14.4851C853.576 14.6697 853.491 14.9219 853.491 15.2415C853.491 15.6783 853.653 16.0085 853.976 16.2322C854.302 16.4524 854.716 16.5625 855.217 16.5625ZM855.302 8.21023L853.64 5.73864H855.11L856.41 8.21023H855.302ZM868.484 15.5824V8.55114H869.677V15.5824H868.484ZM865.565 12.6634V11.4702H872.596V12.6634H865.565ZM879.118 15.2628V14.1761L883.912 6.59091H884.7V8.27415H884.167L880.545 14.0057V14.0909H887.001V15.2628H879.118ZM884.253 17.5V14.9325V14.4265V6.59091H885.51V17.5H884.253ZM890.381 16.0085L890.296 16.5838C890.235 16.9886 890.143 17.4219 890.019 17.8835C889.898 18.3452 889.772 18.7802 889.641 19.1886C889.509 19.5969 889.401 19.9219 889.316 20.1634H888.357C888.403 19.9361 888.463 19.636 888.538 19.2631C888.613 18.8903 888.687 18.473 888.762 18.0114C888.84 17.5533 888.904 17.0845 888.953 16.6051L889.017 16.0085H890.381ZM895.878 17.6491C895.253 17.6491 894.69 17.5249 894.19 17.2763C893.689 17.0277 893.288 16.6868 892.986 16.2536C892.684 15.8203 892.519 15.3267 892.49 14.7727H893.769C893.819 15.2663 894.042 15.6747 894.44 15.9979C894.841 16.3175 895.321 16.4773 895.878 16.4773C896.326 16.4773 896.723 16.3725 897.071 16.163C897.423 15.9535 897.698 15.6658 897.897 15.3001C898.099 14.9308 898.201 14.5135 898.201 14.0483C898.201 13.5724 898.096 13.1481 897.886 12.7752C897.68 12.3988 897.396 12.1023 897.034 11.8857C896.672 11.669 896.258 11.5589 895.793 11.5554C895.459 11.5518 895.116 11.6033 894.765 11.7099C894.413 11.8129 894.124 11.946 893.897 12.1094L892.661 11.9602L893.321 6.59091H898.989V7.76279H894.429L894.046 10.9801H894.11C894.333 10.8026 894.614 10.6552 894.951 10.538C895.289 10.4208 895.64 10.3622 896.006 10.3622C896.674 10.3622 897.268 10.522 897.79 10.8416C898.316 11.1577 898.728 11.5909 899.026 12.1413C899.328 12.6918 899.479 13.3203 899.479 14.027C899.479 14.723 899.323 15.3445 899.01 15.8913C898.701 16.4347 898.275 16.8643 897.732 17.1804C897.189 17.4929 896.571 17.6491 895.878 17.6491ZM903.875 11.4063C903.424 11.4063 903.012 11.2962 902.639 11.076C902.27 10.8558 901.975 10.5611 901.755 10.1918C901.535 9.81889 901.425 9.40696 901.425 8.95597C901.425 8.50497 901.535 8.09482 901.755 7.7255C901.975 7.35263 902.27 7.05611 902.639 6.83594C903.012 6.61577 903.424 6.50568 903.875 6.50568C904.326 6.50568 904.736 6.61577 905.105 6.83594C905.478 7.05611 905.775 7.35263 905.995 7.7255C906.215 8.09482 906.325 8.50497 906.325 8.95597C906.325 9.40696 906.215 9.81889 905.995 10.1918C905.775 10.5611 905.478 10.8558 905.105 11.076C904.736 11.2962 904.326 11.4063 903.875 11.4063ZM903.875 10.3409C904.131 10.3409 904.363 10.2788 904.573 10.1545C904.782 10.0302 904.949 9.86328 905.073 9.65377C905.198 9.44425 905.26 9.21165 905.26 8.95597C905.26 8.70028 905.198 8.46769 905.073 8.25817C904.949 8.04865 904.782 7.88175 904.573 7.75746C904.363 7.63317 904.131 7.57102 903.875 7.57102C903.619 7.57102 903.387 7.63317 903.177 7.75746C902.968 7.88175 902.801 8.04865 902.676 8.25817C902.552 8.46769 902.49 8.70028 902.49 8.95597C902.49 9.21165 902.552 9.44425 902.676 9.65377C902.801 9.86328 902.968 10.0302 903.177 10.1545C903.387 10.2788 903.619 10.3409 903.875 10.3409ZM917.201 10H915.88C915.802 9.62003 915.665 9.28622 915.47 8.99858C915.278 8.71094 915.044 8.46946 914.767 8.27415C914.493 8.07529 914.19 7.92614 913.856 7.82671C913.522 7.72727 913.174 7.67756 912.812 7.67756C912.151 7.67756 911.553 7.84446 911.017 8.17827C910.484 8.51207 910.06 9.00391 909.744 9.65377C909.431 10.3036 909.275 11.1009 909.275 12.0455C909.275 12.9901 909.431 13.7873 909.744 14.4371C910.06 15.087 910.484 15.5788 911.017 15.9126C911.553 16.2464 912.151 16.4134 912.812 16.4134C913.174 16.4134 913.522 16.3636 913.856 16.2642C914.19 16.1648 914.493 16.0174 914.767 15.8221C915.044 15.6232 915.278 15.38 915.47 15.0923C915.665 14.8011 915.802 14.4673 915.88 14.0909H917.201C917.102 14.6484 916.92 15.1474 916.658 15.5877C916.395 16.0281 916.068 16.4027 915.678 16.7116C915.287 17.017 914.848 17.2496 914.362 17.4094C913.879 17.5692 913.362 17.6491 912.812 17.6491C911.881 17.6491 911.054 17.4219 910.33 16.9673C909.605 16.5128 909.035 15.8665 908.62 15.0284C908.204 14.1903 907.996 13.196 907.996 12.0455C907.996 10.8949 908.204 9.90057 908.62 9.0625C909.035 8.22443 909.605 7.57813 910.33 7.12358C911.054 6.66904 911.881 6.44176 912.812 6.44176C913.362 6.44176 913.879 6.52166 914.362 6.68146C914.848 6.84127 915.287 7.07564 915.678 7.38459C916.068 7.68999 916.395 8.06286 916.658 8.5032C916.92 8.93999 917.102 9.43892 917.201 10Z" fill="black"/>
<path d="M975.187 0H948.703V25H975.187V0Z" fill="#E84A58"/>
<path d="M984.56 17.6705C983.879 17.6705 983.277 17.4982 982.755 17.1538C982.233 16.8058 981.824 16.3157 981.529 15.6836C981.235 15.0479 981.087 14.2969 981.087 13.4304C981.087 12.571 981.235 11.8253 981.529 11.1932C981.824 10.5611 982.234 10.0728 982.76 9.72834C983.286 9.38388 983.893 9.21165 984.582 9.21165C985.114 9.21165 985.535 9.30043 985.844 9.47798C986.157 9.65199 986.395 9.85085 986.558 10.0746C986.725 10.2947 986.854 10.4759 986.947 10.6179H987.053V6.59091H988.31V17.5H987.096V16.2429H986.947C986.854 16.392 986.723 16.5803 986.553 16.8075C986.382 17.0313 986.139 17.2319 985.823 17.4094C985.507 17.5835 985.086 17.6705 984.56 17.6705ZM984.731 16.5412C985.235 16.5412 985.661 16.4098 986.009 16.147C986.357 15.8807 986.622 15.5131 986.803 15.0444C986.984 14.5721 987.075 14.027 987.075 13.4091C987.075 12.7983 986.986 12.2638 986.808 11.8058C986.631 11.3441 986.368 10.9854 986.02 10.7298C985.672 10.4705 985.242 10.3409 984.731 10.3409C984.198 10.3409 983.754 10.4776 983.399 10.7511C983.048 11.021 982.783 11.3885 982.605 11.8537C982.431 12.3153 982.344 12.8338 982.344 13.4091C982.344 13.9915 982.433 14.5206 982.611 14.9964C982.792 15.4688 983.058 15.8452 983.41 16.1257C983.765 16.4027 984.205 16.5412 984.731 16.5412ZM994.218 17.6705C993.429 17.6705 992.749 17.4964 992.178 17.1484C991.609 16.7969 991.171 16.3068 990.862 15.6783C990.556 15.0462 990.404 14.3111 990.404 13.473C990.404 12.6349 990.556 11.8963 990.862 11.2571C991.171 10.6143 991.6 10.1136 992.151 9.75497C992.705 9.39276 993.351 9.21165 994.09 9.21165C994.516 9.21165 994.937 9.28267 995.352 9.42472C995.768 9.56676 996.146 9.79759 996.487 10.1172C996.828 10.4332 997.099 10.8523 997.302 11.3743C997.504 11.8963 997.605 12.5391 997.605 13.3026V13.8352H991.299V12.7486H996.327C996.327 12.2869 996.235 11.875 996.05 11.5128C995.869 11.1506 995.61 10.8647 995.272 10.6552C994.939 10.4457 994.544 10.3409 994.09 10.3409C993.589 10.3409 993.156 10.4652 992.79 10.7138C992.428 10.9588 992.149 11.2784 991.954 11.6726C991.759 12.0668 991.661 12.4893 991.661 12.9403V13.6648C991.661 14.2827 991.767 14.8065 991.98 15.2362C992.197 15.6623 992.497 15.9872 992.881 16.2109C993.264 16.4311 993.71 16.5412 994.218 16.5412C994.548 16.5412 994.846 16.495 995.113 16.4027C995.382 16.3068 995.615 16.1648 995.81 15.9766C996.006 15.7848 996.157 15.5469 996.263 15.2628L997.478 15.6037C997.35 16.0156 997.135 16.3778 996.833 16.6903C996.531 16.9993 996.158 17.2408 995.714 17.4148C995.271 17.5852 994.772 17.6705 994.218 17.6705ZM1006.93 15.5824V8.55114H1008.13V15.5824H1006.93ZM1004.01 12.6634V11.4702H1011.04V12.6634H1004.01ZM1017.57 15.2628V14.1761L1022.36 6.59091H1023.15V8.27415H1022.62L1018.99 14.0057V14.0909H1025.45V15.2628H1017.57ZM1022.7 17.5V14.9325V14.4265V6.59091H1023.96V17.5H1022.7ZM1028.83 16.0085L1028.74 16.5838C1028.68 16.9886 1028.59 17.4219 1028.47 17.8835C1028.35 18.3452 1028.22 18.7802 1028.09 19.1886C1027.96 19.5969 1027.85 19.9219 1027.76 20.1634H1026.81C1026.85 19.9361 1026.91 19.636 1026.99 19.2631C1027.06 18.8903 1027.14 18.473 1027.21 18.0114C1027.29 17.5533 1027.35 17.0845 1027.4 16.6051L1027.47 16.0085H1028.83ZM1034.33 17.6491C1033.7 17.6491 1033.14 17.5249 1032.64 17.2763C1032.14 17.0277 1031.74 16.6868 1031.43 16.2536C1031.13 15.8203 1030.97 15.3267 1030.94 14.7727H1032.22C1032.27 15.2663 1032.49 15.6747 1032.89 15.9979C1033.29 16.3175 1033.77 16.4773 1034.33 16.4773C1034.77 16.4773 1035.17 16.3725 1035.52 16.163C1035.87 15.9535 1036.15 15.6658 1036.35 15.3001C1036.55 14.9308 1036.65 14.5135 1036.65 14.0483C1036.65 13.5724 1036.54 13.1481 1036.33 12.7752C1036.13 12.3988 1035.84 12.1023 1035.48 11.8857C1035.12 11.669 1034.71 11.5589 1034.24 11.5554C1033.91 11.5518 1033.56 11.6033 1033.21 11.7099C1032.86 11.8129 1032.57 11.946 1032.34 12.1094L1031.11 11.9602L1031.77 6.59091H1037.44V7.76279H1032.88L1032.49 10.9801H1032.56C1032.78 10.8026 1033.06 10.6552 1033.4 10.538C1033.74 10.4208 1034.09 10.3622 1034.45 10.3622C1035.12 10.3622 1035.72 10.522 1036.24 10.8416C1036.76 11.1577 1037.18 11.5909 1037.47 12.1413C1037.78 12.6918 1037.93 13.3203 1037.93 14.027C1037.93 14.723 1037.77 15.3445 1037.46 15.8913C1037.15 16.4347 1036.72 16.8643 1036.18 17.1804C1035.64 17.4929 1035.02 17.6491 1034.33 17.6491ZM1042.32 11.4063C1041.87 11.4063 1041.46 11.2962 1041.09 11.076C1040.72 10.8558 1040.42 10.5611 1040.2 10.1918C1039.98 9.81889 1039.87 9.40696 1039.87 8.95597C1039.87 8.50497 1039.98 8.09482 1040.2 7.7255C1040.42 7.35263 1040.72 7.05611 1041.09 6.83594C1041.46 6.61577 1041.87 6.50568 1042.32 6.50568C1042.77 6.50568 1043.18 6.61577 1043.55 6.83594C1043.93 7.05611 1044.22 7.35263 1044.44 7.7255C1044.66 8.09482 1044.77 8.50497 1044.77 8.95597C1044.77 9.40696 1044.66 9.81889 1044.44 10.1918C1044.22 10.5611 1043.93 10.8558 1043.55 11.076C1043.18 11.2962 1042.77 11.4063 1042.32 11.4063ZM1042.32 10.3409C1042.58 10.3409 1042.81 10.2788 1043.02 10.1545C1043.23 10.0302 1043.4 9.86328 1043.52 9.65377C1043.65 9.44425 1043.71 9.21165 1043.71 8.95597C1043.71 8.70028 1043.65 8.46769 1043.52 8.25817C1043.4 8.04865 1043.23 7.88175 1043.02 7.75746C1042.81 7.63317 1042.58 7.57102 1042.32 7.57102C1042.07 7.57102 1041.83 7.63317 1041.63 7.75746C1041.42 7.88175 1041.25 8.04865 1041.12 8.25817C1041 8.46769 1040.94 8.70028 1040.94 8.95597C1040.94 9.21165 1041 9.44425 1041.12 9.65377C1041.25 9.86328 1041.42 10.0302 1041.63 10.1545C1041.83 10.2788 1042.07 10.3409 1042.32 10.3409ZM1055.65 10H1054.33C1054.25 9.62003 1054.11 9.28622 1053.92 8.99858C1053.73 8.71094 1053.49 8.46946 1053.21 8.27415C1052.94 8.07529 1052.64 7.92614 1052.3 7.82671C1051.97 7.72727 1051.62 7.67756 1051.26 7.67756C1050.6 7.67756 1050 7.84446 1049.46 8.17827C1048.93 8.51207 1048.51 9.00391 1048.19 9.65377C1047.88 10.3036 1047.72 11.1009 1047.72 12.0455C1047.72 12.9901 1047.88 13.7873 1048.19 14.4371C1048.51 15.087 1048.93 15.5788 1049.46 15.9126C1050 16.2464 1050.6 16.4134 1051.26 16.4134C1051.62 16.4134 1051.97 16.3636 1052.3 16.2642C1052.64 16.1648 1052.94 16.0174 1053.21 15.8221C1053.49 15.6232 1053.73 15.38 1053.92 15.0923C1054.11 14.8011 1054.25 14.4673 1054.33 14.0909H1055.65C1055.55 14.6484 1055.37 15.1474 1055.11 15.5877C1054.84 16.0281 1054.52 16.4027 1054.13 16.7116C1053.74 17.017 1053.3 17.2496 1052.81 17.4094C1052.33 17.5692 1051.81 17.6491 1051.26 17.6491C1050.33 17.6491 1049.5 17.4219 1048.78 16.9673C1048.05 16.5128 1047.48 15.8665 1047.07 15.0284C1046.65 14.1903 1046.44 13.196 1046.44 12.0455C1046.44 10.8949 1046.65 9.90057 1047.07 9.0625C1047.48 8.22443 1048.05 7.57813 1048.78 7.12358C1049.5 6.66904 1050.33 6.44176 1051.26 6.44176C1051.81 6.44176 1052.33 6.52166 1052.81 6.68146C1053.3 6.84127 1053.74 7.07564 1054.13 7.38459C1054.52 7.68999 1054.84 8.06286 1055.11 8.5032C1055.37 8.93999 1055.55 9.43892 1055.65 10ZM1064.24 17.6918C1063.72 17.6918 1063.25 17.5941 1062.83 17.3988C1062.41 17.1999 1062.07 16.9141 1061.82 16.5412C1061.57 16.1648 1061.45 15.7102 1061.45 15.1776C1061.45 14.7088 1061.54 14.3288 1061.73 14.0376C1061.91 13.7429 1062.16 13.5121 1062.47 13.3452C1062.78 13.1783 1063.12 13.054 1063.49 12.9723C1063.87 12.8871 1064.24 12.8196 1064.62 12.7699C1065.12 12.706 1065.52 12.658 1065.83 12.6261C1066.15 12.5906 1066.37 12.532 1066.51 12.4503C1066.66 12.3686 1066.73 12.2266 1066.73 12.0241V11.9815C1066.73 11.456 1066.59 11.0476 1066.3 10.7564C1066.02 10.4652 1065.59 10.3196 1065.01 10.3196C1064.41 10.3196 1063.94 10.451 1063.6 10.7138C1063.25 10.9766 1063.01 11.2571 1062.88 11.5554L1061.68 11.1293C1061.9 10.6321 1062.18 10.245 1062.54 9.96804C1062.89 9.6875 1063.28 9.49219 1063.71 9.3821C1064.13 9.26847 1064.55 9.21165 1064.96 9.21165C1065.23 9.21165 1065.53 9.24361 1065.87 9.30753C1066.21 9.3679 1066.55 9.49396 1066.87 9.68572C1067.19 9.87749 1067.46 10.1669 1067.67 10.554C1067.88 10.9411 1067.99 11.4595 1067.99 12.1094V17.5H1066.73V16.392H1066.67C1066.58 16.5696 1066.44 16.7596 1066.24 16.962C1066.04 17.1644 1065.78 17.3366 1065.45 17.4787C1065.12 17.6207 1064.72 17.6918 1064.24 17.6918ZM1064.43 16.5625C1064.93 16.5625 1065.35 16.4648 1065.69 16.2695C1066.03 16.0742 1066.29 15.8221 1066.47 15.5131C1066.64 15.2042 1066.73 14.8793 1066.73 14.5384V13.3878C1066.68 13.4517 1066.56 13.5103 1066.38 13.5636C1066.2 13.6133 1066 13.6577 1065.76 13.6967C1065.53 13.7322 1065.31 13.7642 1065.09 13.7926C1064.87 13.8175 1064.69 13.8388 1064.56 13.8565C1064.23 13.8991 1063.93 13.9684 1063.64 14.0643C1063.36 14.1566 1063.14 14.2969 1062.96 14.4851C1062.79 14.6697 1062.71 14.9219 1062.71 15.2415C1062.71 15.6783 1062.87 16.0085 1063.19 16.2322C1063.52 16.4524 1063.93 16.5625 1064.43 16.5625ZM1064.52 8.21023L1062.85 5.73864H1064.33L1065.62 8.21023H1064.52ZM1077.7 15.5824V8.55114H1078.89V15.5824H1077.7ZM1074.78 12.6634V11.4702H1081.81V12.6634H1074.78ZM1092 17.6491C1091.37 17.6491 1090.81 17.5249 1090.31 17.2763C1089.81 17.0277 1089.41 16.6868 1089.1 16.2536C1088.8 15.8203 1088.64 15.3267 1088.61 14.7727H1089.89C1089.94 15.2663 1090.16 15.6747 1090.56 15.9979C1090.96 16.3175 1091.44 16.4773 1092 16.4773C1092.44 16.4773 1092.84 16.3725 1093.19 16.163C1093.54 15.9535 1093.82 15.6658 1094.02 15.3001C1094.22 14.9308 1094.32 14.5135 1094.32 14.0483C1094.32 13.5724 1094.22 13.1481 1094.01 12.7752C1093.8 12.3988 1093.52 12.1023 1093.15 11.8857C1092.79 11.669 1092.38 11.5589 1091.91 11.5554C1091.58 11.5518 1091.24 11.6033 1090.88 11.7099C1090.53 11.8129 1090.24 11.946 1090.02 12.1094L1088.78 11.9602L1089.44 6.59091H1095.11V7.76279H1090.55L1090.16 10.9801H1090.23C1090.45 10.8026 1090.73 10.6552 1091.07 10.538C1091.41 10.4208 1091.76 10.3622 1092.13 10.3622C1092.79 10.3622 1093.39 10.522 1093.91 10.8416C1094.44 11.1577 1094.85 11.5909 1095.15 12.1413C1095.45 12.6918 1095.6 13.3203 1095.6 14.027C1095.6 14.723 1095.44 15.3445 1095.13 15.8913C1094.82 16.4347 1094.39 16.8643 1093.85 17.1804C1093.31 17.4929 1092.69 17.6491 1092 17.6491ZM1099.2 16.0085L1099.12 16.5838C1099.05 16.9886 1098.96 17.4219 1098.84 17.8835C1098.72 18.3452 1098.59 18.7802 1098.46 19.1886C1098.33 19.5969 1098.22 19.9219 1098.14 20.1634H1097.18C1097.22 19.9361 1097.28 19.636 1097.36 19.2631C1097.43 18.8903 1097.51 18.473 1097.58 18.0114C1097.66 17.5533 1097.72 17.0845 1097.77 16.6051L1097.84 16.0085H1099.2ZM1104.04 6.59091V17.5H1102.72V7.97585H1102.65L1099.99 9.74432V8.40199L1102.72 6.59091H1104.04ZM1109.46 11.4063C1109.01 11.4063 1108.59 11.2962 1108.22 11.076C1107.85 10.8558 1107.56 10.5611 1107.34 10.1918C1107.12 9.81889 1107.01 9.40696 1107.01 8.95597C1107.01 8.50497 1107.12 8.09482 1107.34 7.7255C1107.56 7.35263 1107.85 7.05611 1108.22 6.83594C1108.59 6.61577 1109.01 6.50568 1109.46 6.50568C1109.91 6.50568 1110.32 6.61577 1110.69 6.83594C1111.06 7.05611 1111.36 7.35263 1111.58 7.7255C1111.8 8.09482 1111.91 8.50497 1111.91 8.95597C1111.91 9.40696 1111.8 9.81889 1111.58 10.1918C1111.36 10.5611 1111.06 10.8558 1110.69 11.076C1110.32 11.2962 1109.91 11.4063 1109.46 11.4063ZM1109.46 10.3409C1109.71 10.3409 1109.95 10.2788 1110.15 10.1545C1110.36 10.0302 1110.53 9.86328 1110.66 9.65377C1110.78 9.44425 1110.84 9.21165 1110.84 8.95597C1110.84 8.70028 1110.78 8.46769 1110.66 8.25817C1110.53 8.04865 1110.36 7.88175 1110.15 7.75746C1109.95 7.63317 1109.71 7.57102 1109.46 7.57102C1109.2 7.57102 1108.97 7.63317 1108.76 7.75746C1108.55 7.88175 1108.38 8.04865 1108.26 8.25817C1108.13 8.46769 1108.07 8.70028 1108.07 8.95597C1108.07 9.21165 1108.13 9.44425 1108.26 9.65377C1108.38 9.86328 1108.55 10.0302 1108.76 10.1545C1108.97 10.2788 1109.2 10.3409 1109.46 10.3409ZM1122.78 10H1121.46C1121.38 9.62003 1121.25 9.28622 1121.05 8.99858C1120.86 8.71094 1120.63 8.46946 1120.35 8.27415C1120.08 8.07529 1119.77 7.92614 1119.44 7.82671C1119.1 7.72727 1118.76 7.67756 1118.39 7.67756C1117.73 7.67756 1117.13 7.84446 1116.6 8.17827C1116.07 8.51207 1115.64 9.00391 1115.33 9.65377C1115.01 10.3036 1114.86 11.1009 1114.86 12.0455C1114.86 12.9901 1115.01 13.7873 1115.33 14.4371C1115.64 15.087 1116.07 15.5788 1116.6 15.9126C1117.13 16.2464 1117.73 16.4134 1118.39 16.4134C1118.76 16.4134 1119.1 16.3636 1119.44 16.2642C1119.77 16.1648 1120.08 16.0174 1120.35 15.8221C1120.63 15.6232 1120.86 15.38 1121.05 15.0923C1121.25 14.8011 1121.38 14.4673 1121.46 14.0909H1122.78C1122.68 14.6484 1122.5 15.1474 1122.24 15.5877C1121.98 16.0281 1121.65 16.4027 1121.26 16.7116C1120.87 17.017 1120.43 17.2496 1119.94 17.4094C1119.46 17.5692 1118.94 17.6491 1118.39 17.6491C1117.46 17.6491 1116.64 17.4219 1115.91 16.9673C1115.19 16.5128 1114.62 15.8665 1114.2 15.0284C1113.79 14.1903 1113.58 13.196 1113.58 12.0455C1113.58 10.8949 1113.79 9.90057 1114.2 9.0625C1114.62 8.22443 1115.19 7.57813 1115.91 7.12358C1116.64 6.66904 1117.46 6.44176 1118.39 6.44176C1118.94 6.44176 1119.46 6.52166 1119.94 6.68146C1120.43 6.84127 1120.87 7.07564 1121.26 7.38459C1121.65 7.68999 1121.98 8.06286 1122.24 8.5032C1122.5 8.93999 1122.68 9.43892 1122.78 10Z" fill="black"/>
</svg>
