<svg width="935" height="25" viewBox="0 0 935 25" fill="none" xmlns="http://www.w3.org/2000/svg">
<path d="M25 0H0V25H25V0Z" fill="#81F7E9"/>
<path d="M34.3807 17.6705C33.6989 17.6705 33.0969 17.4982 32.5749 17.1538C32.0529 16.8058 31.6445 16.3157 31.3498 15.6836C31.055 15.0479 30.9077 14.2969 30.9077 13.4304C30.9077 12.571 31.055 11.8253 31.3498 11.1932C31.6445 10.5611 32.0547 10.0728 32.5803 9.72834C33.1058 9.38388 33.7131 9.21165 34.402 9.21165C34.9347 9.21165 35.3555 9.30043 35.6644 9.47798C35.9769 9.65199 36.2148 9.85085 36.3782 10.0746C36.5451 10.2947 36.6747 10.4759 36.767 10.6179H36.8736V6.59091H38.1307V17.5H36.9162V16.2429H36.767C36.6747 16.392 36.5433 16.5803 36.3729 16.8075C36.2024 17.0313 35.9592 17.2319 35.6431 17.4094C35.3271 17.5835 34.9062 17.6705 34.3807 17.6705ZM34.5511 16.5412C35.0554 16.5412 35.4815 16.4098 35.8295 16.147C36.1776 15.8807 36.4421 15.5131 36.6232 15.0444C36.8043 14.5721 36.8949 14.027 36.8949 13.4091C36.8949 12.7983 36.8061 12.2638 36.6286 11.8058C36.451 11.3441 36.1882 10.9854 35.8402 10.7298C35.4922 10.4705 35.0625 10.3409 34.5511 10.3409C34.0185 10.3409 33.5746 10.4776 33.2195 10.7511C32.8679 11.021 32.6033 11.3885 32.4258 11.8537C32.2518 12.3153 32.1648 12.8338 32.1648 13.4091C32.1648 13.9915 32.2536 14.5206 32.4311 14.9964C32.6122 15.4688 32.8786 15.8452 33.2301 16.1257C33.5852 16.4027 34.0256 16.5412 34.5511 16.5412ZM44.038 17.6705C43.2496 17.6705 42.5696 17.4964 41.9979 17.1484C41.4297 16.7969 40.9911 16.3068 40.6822 15.6783C40.3768 15.0462 40.2241 14.3111 40.2241 13.473C40.2241 12.6349 40.3768 11.8963 40.6822 11.2571C40.9911 10.6143 41.4208 10.1136 41.9712 9.75497C42.5252 9.39276 43.1715 9.21165 43.9102 9.21165C44.3363 9.21165 44.7571 9.28267 45.1726 9.42472C45.5881 9.56676 45.9663 9.79759 46.3072 10.1172C46.6481 10.4332 46.9197 10.8523 47.1222 11.3743C47.3246 11.8963 47.4258 12.5391 47.4258 13.3026V13.8352H41.119V12.7486H46.1474C46.1474 12.2869 46.055 11.875 45.8704 11.5128C45.6893 11.1506 45.43 10.8647 45.0927 10.6552C44.7589 10.4457 44.3647 10.3409 43.9102 10.3409C43.4094 10.3409 42.9762 10.4652 42.6104 10.7138C42.2482 10.9588 41.9695 11.2784 41.7741 11.6726C41.5788 12.0668 41.4812 12.4893 41.4812 12.9403V13.6648C41.4812 14.2827 41.5877 14.8065 41.8008 15.2362C42.0174 15.6623 42.3175 15.9872 42.701 16.2109C43.0845 16.4311 43.5302 16.5412 44.038 16.5412C44.3683 16.5412 44.6665 16.495 44.9329 16.4027C45.2028 16.3068 45.4354 16.1648 45.6307 15.9766C45.826 15.7848 45.9769 15.5469 46.0835 15.2628L47.2979 15.6037C47.1701 16.0156 46.9553 16.3778 46.6534 16.6903C46.3516 16.9993 45.9787 17.2408 45.5348 17.4148C45.0909 17.5852 44.592 17.6705 44.038 17.6705ZM62.9318 12.0455C62.9318 13.196 62.7241 14.1903 62.3086 15.0284C61.8931 15.8665 61.3232 16.5128 60.5987 16.9673C59.8743 17.4219 59.0469 17.6491 58.1165 17.6491C57.1861 17.6491 56.3587 17.4219 55.6342 16.9673C54.9098 16.5128 54.3398 15.8665 53.9244 15.0284C53.5089 14.1903 53.3011 13.196 53.3011 12.0455C53.3011 10.8949 53.5089 9.90057 53.9244 9.0625C54.3398 8.22443 54.9098 7.57813 55.6342 7.12358C56.3587 6.66904 57.1861 6.44176 58.1165 6.44176C59.0469 6.44176 59.8743 6.66904 60.5987 7.12358C61.3232 7.57813 61.8931 8.22443 62.3086 9.0625C62.7241 9.90057 62.9318 10.8949 62.9318 12.0455ZM61.6534 12.0455C61.6534 11.1009 61.4954 10.3036 61.1793 9.65377C60.8668 9.00391 60.4425 8.51207 59.9062 8.17827C59.3736 7.84446 58.777 7.67756 58.1165 7.67756C57.456 7.67756 56.8576 7.84446 56.3214 8.17827C55.7887 8.51207 55.3643 9.00391 55.0483 9.65377C54.7358 10.3036 54.5795 11.1009 54.5795 12.0455C54.5795 12.9901 54.7358 13.7873 55.0483 14.4371C55.3643 15.087 55.7887 15.5788 56.3214 15.9126C56.8576 16.2464 57.456 16.4134 58.1165 16.4134C58.777 16.4134 59.3736 16.2464 59.9062 15.9126C60.4425 15.5788 60.8668 15.087 61.1793 14.4371C61.4954 13.7873 61.6534 12.9901 61.6534 12.0455ZM67.2411 11.4063C66.7901 11.4063 66.3782 11.2962 66.0053 11.076C65.636 10.8558 65.3413 10.5611 65.1211 10.1918C64.9009 9.81889 64.7908 9.40696 64.7908 8.95597C64.7908 8.50497 64.9009 8.09482 65.1211 7.7255C65.3413 7.35263 65.636 7.05611 66.0053 6.83594C66.3782 6.61577 66.7901 6.50568 67.2411 6.50568C67.6921 6.50568 68.1023 6.61577 68.4716 6.83594C68.8445 7.05611 69.141 7.35263 69.3611 7.7255C69.5813 8.09482 69.6914 8.50497 69.6914 8.95597C69.6914 9.40696 69.5813 9.81889 69.3611 10.1918C69.141 10.5611 68.8445 10.8558 68.4716 11.076C68.1023 11.2962 67.6921 11.4063 67.2411 11.4063ZM67.2411 10.3409C67.4968 10.3409 67.7294 10.2788 67.9389 10.1545C68.1484 10.0302 68.3153 9.86328 68.4396 9.65377C68.5639 9.44425 68.6261 9.21165 68.6261 8.95597C68.6261 8.70028 68.5639 8.46769 68.4396 8.25817C68.3153 8.04865 68.1484 7.88175 67.9389 7.75746C67.7294 7.63317 67.4968 7.57102 67.2411 7.57102C66.9854 7.57102 66.7528 7.63317 66.5433 7.75746C66.3338 7.88175 66.1669 8.04865 66.0426 8.25817C65.9183 8.46769 65.8562 8.70028 65.8562 8.95597C65.8562 9.21165 65.9183 9.44425 66.0426 9.65377C66.1669 9.86328 66.3338 10.0302 66.5433 10.1545C66.7528 10.2788 66.9854 10.3409 67.2411 10.3409ZM80.5672 10H79.2462C79.1681 9.62003 79.0313 9.28622 78.836 8.99858C78.6443 8.71094 78.4099 8.46946 78.1329 8.27415C77.8595 8.07529 77.5558 7.92614 77.222 7.82671C76.8882 7.72727 76.5402 7.67756 76.178 7.67756C75.5175 7.67756 74.9191 7.84446 74.3829 8.17827C73.8502 8.51207 73.4259 9.00391 73.1098 9.65377C72.7973 10.3036 72.6411 11.1009 72.6411 12.0455C72.6411 12.9901 72.7973 13.7873 73.1098 14.4371C73.4259 15.087 73.8502 15.5788 74.3829 15.9126C74.9191 16.2464 75.5175 16.4134 76.178 16.4134C76.5402 16.4134 76.8882 16.3636 77.222 16.2642C77.5558 16.1648 77.8595 16.0174 78.1329 15.8221C78.4099 15.6232 78.6443 15.38 78.836 15.0923C79.0313 14.8011 79.1681 14.4673 79.2462 14.0909H80.5672C80.4678 14.6484 80.2867 15.1474 80.0239 15.5877C79.7611 16.0281 79.4344 16.4027 79.0438 16.7116C78.6531 17.017 78.2146 17.2496 77.7281 17.4094C77.2451 17.5692 76.7284 17.6491 76.178 17.6491C75.2476 17.6491 74.4202 17.4219 73.6958 16.9673C72.9713 16.5128 72.4014 15.8665 71.9859 15.0284C71.5704 14.1903 71.3627 13.196 71.3627 12.0455C71.3627 10.8949 71.5704 9.90057 71.9859 9.0625C72.4014 8.22443 72.9713 7.57813 73.6958 7.12358C74.4202 6.66904 75.2476 6.44176 76.178 6.44176C76.7284 6.44176 77.2451 6.52166 77.7281 6.68146C78.2146 6.84127 78.6531 7.07564 79.0438 7.38459C79.4344 7.68999 79.7611 8.06286 80.0239 8.5032C80.2867 8.93999 80.4678 9.43892 80.5672 10ZM89.1578 17.6918C88.6394 17.6918 88.1688 17.5941 87.7463 17.3988C87.3237 17.1999 86.9881 16.9141 86.7395 16.5412C86.4909 16.1648 86.3666 15.7102 86.3666 15.1776C86.3666 14.7088 86.459 14.3288 86.6436 14.0376C86.8283 13.7429 87.0751 13.5121 87.384 13.3452C87.693 13.1783 88.0339 13.054 88.4068 12.9723C88.7832 12.8871 89.1614 12.8196 89.5414 12.7699C90.0385 12.706 90.4416 12.658 90.7505 12.6261C91.063 12.5906 91.2903 12.532 91.4323 12.4503C91.5779 12.3686 91.6507 12.2266 91.6507 12.0241V11.9815C91.6507 11.456 91.5069 11.0476 91.2193 10.7564C90.9352 10.4652 90.5037 10.3196 89.9249 10.3196C89.3247 10.3196 88.8542 10.451 88.5133 10.7138C88.1724 10.9766 87.9327 11.2571 87.7942 11.5554L86.601 11.1293C86.8141 10.6321 87.0982 10.245 87.4533 9.96804C87.812 9.6875 88.2026 9.49219 88.6252 9.3821C89.0513 9.26847 89.4703 9.21165 89.8823 9.21165C90.1451 9.21165 90.4469 9.24361 90.7878 9.30753C91.1323 9.3679 91.4643 9.49396 91.7839 9.68572C92.1071 9.87749 92.3752 10.1669 92.5882 10.554C92.8013 10.9411 92.9078 11.4595 92.9078 12.1094V17.5H91.6507V16.392H91.5868C91.5016 16.5696 91.3595 16.7596 91.1607 16.962C90.9618 17.1644 90.6973 17.3366 90.367 17.4787C90.0367 17.6207 89.6337 17.6918 89.1578 17.6918ZM89.3496 16.5625C89.8468 16.5625 90.2658 16.4648 90.6067 16.2695C90.9512 16.0742 91.2104 15.8221 91.3844 15.5131C91.562 15.2042 91.6507 14.8793 91.6507 14.5384V13.3878C91.5975 13.4517 91.4803 13.5103 91.2992 13.5636C91.1216 13.6133 90.9157 13.6577 90.6813 13.6967C90.4505 13.7322 90.225 13.7642 90.0048 13.7926C89.7882 13.8175 89.6124 13.8388 89.4774 13.8565C89.1507 13.8991 88.8453 13.9684 88.5612 14.0643C88.2807 14.1566 88.0534 14.2969 87.8794 14.4851C87.709 14.6697 87.6237 14.9219 87.6237 15.2415C87.6237 15.6783 87.7853 16.0085 88.1085 16.2322C88.4352 16.4524 88.8489 16.5625 89.3496 16.5625ZM89.4348 8.21023L87.7729 5.73864H89.2431L90.5428 8.21023H89.4348ZM102.617 15.5824V8.55114H103.81V15.5824H102.617ZM99.6981 12.6634V11.4702H106.729V12.6634H99.6981ZM117.192 17.6491C116.489 17.6491 115.862 17.5284 115.312 17.2869C114.765 17.0455 114.33 16.7099 114.007 16.2802C113.687 15.8469 113.513 15.3445 113.485 14.7727H114.827C114.856 15.1243 114.976 15.4279 115.189 15.6836C115.403 15.9357 115.681 16.131 116.026 16.2695C116.37 16.408 116.752 16.4773 117.171 16.4773C117.64 16.4773 118.055 16.3956 118.417 16.2322C118.78 16.0689 119.064 15.8416 119.27 15.5504C119.476 15.2592 119.579 14.9219 119.579 14.5384C119.579 14.1371 119.479 13.7837 119.28 13.4783C119.081 13.1694 118.79 12.9279 118.407 12.7539C118.023 12.5799 117.555 12.4929 117.001 12.4929H116.127V11.321H117.001C117.434 11.321 117.814 11.2429 118.14 11.0866C118.471 10.9304 118.728 10.7102 118.913 10.4261C119.101 10.142 119.195 9.80824 119.195 9.42472C119.195 9.0554 119.113 8.73402 118.95 8.46058C118.787 8.18715 118.556 7.97408 118.258 7.82138C117.963 7.66868 117.615 7.59233 117.214 7.59233C116.837 7.59233 116.482 7.66158 116.148 7.80007C115.818 7.93502 115.548 8.1321 115.339 8.39134C115.129 8.64702 115.015 8.95597 114.998 9.31818H113.719C113.741 8.74645 113.913 8.24574 114.236 7.81605C114.559 7.38281 114.982 7.04546 115.504 6.80398C116.029 6.5625 116.606 6.44176 117.235 6.44176C117.91 6.44176 118.488 6.57848 118.971 6.85192C119.454 7.1218 119.825 7.47869 120.085 7.92259C120.344 8.36648 120.474 8.84588 120.474 9.3608C120.474 9.97514 120.312 10.4989 119.989 10.9322C119.669 11.3654 119.234 11.6655 118.684 11.8324V11.9176C119.373 12.0313 119.911 12.3242 120.298 12.7965C120.685 13.2653 120.878 13.8459 120.878 14.5384C120.878 15.1314 120.717 15.6641 120.394 16.1364C120.074 16.6051 119.637 16.9744 119.083 17.2443C118.529 17.5142 117.899 17.6491 117.192 17.6491ZM129.556 11.4063C129.105 11.4063 128.693 11.2962 128.32 11.076C127.95 10.8558 127.656 10.5611 127.436 10.1918C127.215 9.81889 127.105 9.40696 127.105 8.95597C127.105 8.50497 127.215 8.09482 127.436 7.7255C127.656 7.35263 127.95 7.05611 128.32 6.83594C128.693 6.61577 129.105 6.50568 129.556 6.50568C130.007 6.50568 130.417 6.61577 130.786 6.83594C131.159 7.05611 131.455 7.35263 131.676 7.7255C131.896 8.09482 132.006 8.50497 132.006 8.95597C132.006 9.40696 131.896 9.81889 131.676 10.1918C131.455 10.5611 131.159 10.8558 130.786 11.076C130.417 11.2962 130.007 11.4063 129.556 11.4063ZM129.556 10.3409C129.811 10.3409 130.044 10.2788 130.253 10.1545C130.463 10.0302 130.63 9.86328 130.754 9.65377C130.878 9.44425 130.941 9.21165 130.941 8.95597C130.941 8.70028 130.878 8.46769 130.754 8.25817C130.63 8.04865 130.463 7.88175 130.253 7.75746C130.044 7.63317 129.811 7.57102 129.556 7.57102C129.3 7.57102 129.067 7.63317 128.858 7.75746C128.648 7.88175 128.481 8.04865 128.357 8.25817C128.233 8.46769 128.171 8.70028 128.171 8.95597C128.171 9.21165 128.233 9.44425 128.357 9.65377C128.481 9.86328 128.648 10.0302 128.858 10.1545C129.067 10.2788 129.3 10.3409 129.556 10.3409ZM142.882 10H141.561C141.482 9.62003 141.346 9.28622 141.15 8.99858C140.959 8.71094 140.724 8.46946 140.447 8.27415C140.174 8.07529 139.87 7.92614 139.536 7.82671C139.203 7.72727 138.855 7.67756 138.492 7.67756C137.832 7.67756 137.234 7.84446 136.697 8.17827C136.165 8.51207 135.74 9.00391 135.424 9.65377C135.112 10.3036 134.956 11.1009 134.956 12.0455C134.956 12.9901 135.112 13.7873 135.424 14.4371C135.74 15.087 136.165 15.5788 136.697 15.9126C137.234 16.2464 137.832 16.4134 138.492 16.4134C138.855 16.4134 139.203 16.3636 139.536 16.2642C139.87 16.1648 140.174 16.0174 140.447 15.8221C140.724 15.6232 140.959 15.38 141.15 15.0923C141.346 14.8011 141.482 14.4673 141.561 14.0909H142.882C142.782 14.6484 142.601 15.1474 142.338 15.5877C142.076 16.0281 141.749 16.4027 141.358 16.7116C140.968 17.017 140.529 17.2496 140.043 17.4094C139.56 17.5692 139.043 17.6491 138.492 17.6491C137.562 17.6491 136.735 17.4219 136.01 16.9673C135.286 16.5128 134.716 15.8665 134.3 15.0284C133.885 14.1903 133.677 13.196 133.677 12.0455C133.677 10.8949 133.885 9.90057 134.3 9.0625C134.716 8.22443 135.286 7.57813 136.01 7.12358C136.735 6.66904 137.562 6.44176 138.492 6.44176C139.043 6.44176 139.56 6.52166 140.043 6.68146C140.529 6.84127 140.968 7.07564 141.358 7.38459C141.749 7.68999 142.076 8.06286 142.338 8.5032C142.601 8.93999 142.782 9.43892 142.882 10Z" fill="black"/>
<path d="M199 0H174V25H199V0Z" fill="#94DB34"/>
<path d="M208.381 17.6705C207.699 17.6705 207.097 17.4982 206.575 17.1538C206.053 16.8058 205.645 16.3157 205.35 15.6836C205.055 15.0479 204.908 14.2969 204.908 13.4304C204.908 12.571 205.055 11.8253 205.35 11.1932C205.645 10.5611 206.055 10.0728 206.58 9.72834C207.106 9.38388 207.713 9.21165 208.402 9.21165C208.935 9.21165 209.355 9.30043 209.664 9.47798C209.977 9.65199 210.215 9.85085 210.378 10.0746C210.545 10.2947 210.675 10.4759 210.767 10.6179H210.874V6.59091H212.131V17.5H210.916V16.2429H210.767C210.675 16.392 210.543 16.5803 210.373 16.8075C210.202 17.0313 209.959 17.2319 209.643 17.4094C209.327 17.5835 208.906 17.6705 208.381 17.6705ZM208.551 16.5412C209.055 16.5412 209.482 16.4098 209.83 16.147C210.178 15.8807 210.442 15.5131 210.623 15.0444C210.804 14.5721 210.895 14.027 210.895 13.4091C210.895 12.7983 210.806 12.2638 210.629 11.8058C210.451 11.3441 210.188 10.9854 209.84 10.7298C209.492 10.4705 209.062 10.3409 208.551 10.3409C208.018 10.3409 207.575 10.4776 207.219 10.7511C206.868 11.021 206.603 11.3885 206.426 11.8537C206.252 12.3153 206.165 12.8338 206.165 13.4091C206.165 13.9915 206.254 14.5206 206.431 14.9964C206.612 15.4688 206.879 15.8452 207.23 16.1257C207.585 16.4027 208.026 16.5412 208.551 16.5412ZM218.038 17.6705C217.25 17.6705 216.57 17.4964 215.998 17.1484C215.43 16.7969 214.991 16.3068 214.682 15.6783C214.377 15.0462 214.224 14.3111 214.224 13.473C214.224 12.6349 214.377 11.8963 214.682 11.2571C214.991 10.6143 215.421 10.1136 215.971 9.75497C216.525 9.39276 217.172 9.21165 217.91 9.21165C218.336 9.21165 218.757 9.28267 219.173 9.42472C219.588 9.56676 219.966 9.79759 220.307 10.1172C220.648 10.4332 220.92 10.8523 221.122 11.3743C221.325 11.8963 221.426 12.5391 221.426 13.3026V13.8352H215.119V12.7486H220.147C220.147 12.2869 220.055 11.875 219.87 11.5128C219.689 11.1506 219.43 10.8647 219.093 10.6552C218.759 10.4457 218.365 10.3409 217.91 10.3409C217.409 10.3409 216.976 10.4652 216.61 10.7138C216.248 10.9588 215.969 11.2784 215.774 11.6726C215.579 12.0668 215.481 12.4893 215.481 12.9403V13.6648C215.481 14.2827 215.588 14.8065 215.801 15.2362C216.017 15.6623 216.317 15.9872 216.701 16.2109C217.085 16.4311 217.53 16.5412 218.038 16.5412C218.368 16.5412 218.667 16.495 218.933 16.4027C219.203 16.3068 219.435 16.1648 219.631 15.9766C219.826 15.7848 219.977 15.5469 220.083 15.2628L221.298 15.6037C221.17 16.0156 220.955 16.3778 220.653 16.6903C220.352 16.9993 219.979 17.2408 219.535 17.4148C219.091 17.5852 218.592 17.6705 218.038 17.6705ZM230.753 15.5824V8.55114H231.946V15.5824H230.753ZM227.834 12.6634V11.4702H234.865V12.6634H227.834ZM245.328 17.6491C244.625 17.6491 243.998 17.5284 243.448 17.2869C242.901 17.0455 242.466 16.7099 242.143 16.2802C241.823 15.8469 241.649 15.3445 241.621 14.7727H242.963C242.991 15.1243 243.112 15.4279 243.325 15.6836C243.538 15.9357 243.817 16.131 244.161 16.2695C244.506 16.408 244.888 16.4773 245.307 16.4773C245.775 16.4773 246.191 16.3956 246.553 16.2322C246.915 16.0689 247.199 15.8416 247.405 15.5504C247.611 15.2592 247.714 14.9219 247.714 14.5384C247.714 14.1371 247.615 13.7837 247.416 13.4783C247.217 13.1694 246.926 12.9279 246.543 12.7539C246.159 12.5799 245.69 12.4929 245.136 12.4929H244.263V11.321H245.136C245.57 11.321 245.949 11.2429 246.276 11.0866C246.606 10.9304 246.864 10.7102 247.049 10.4261C247.237 10.142 247.331 9.80824 247.331 9.42472C247.331 9.0554 247.249 8.73402 247.086 8.46058C246.922 8.18715 246.692 7.97408 246.393 7.82138C246.099 7.66868 245.751 7.59233 245.349 7.59233C244.973 7.59233 244.618 7.66158 244.284 7.80007C243.954 7.93502 243.684 8.1321 243.474 8.39134C243.265 8.64702 243.151 8.95597 243.133 9.31818H241.855C241.876 8.74645 242.049 8.24574 242.372 7.81605C242.695 7.38281 243.117 7.04546 243.639 6.80398C244.165 6.5625 244.742 6.44176 245.371 6.44176C246.045 6.44176 246.624 6.57848 247.107 6.85192C247.59 7.1218 247.961 7.47869 248.22 7.92259C248.48 8.36648 248.609 8.84588 248.609 9.3608C248.609 9.97514 248.448 10.4989 248.125 10.9322C247.805 11.3654 247.37 11.6655 246.82 11.8324V11.9176C247.508 12.0313 248.046 12.3242 248.434 12.7965C248.821 13.2653 249.014 13.8459 249.014 14.5384C249.014 15.1314 248.853 15.6641 248.529 16.1364C248.21 16.6051 247.773 16.9744 247.219 17.2443C246.665 17.5142 246.035 17.6491 245.328 17.6491ZM253.473 11.4063C253.022 11.4063 252.61 11.2962 252.237 11.076C251.867 10.8558 251.573 10.5611 251.353 10.1918C251.132 9.81889 251.022 9.40696 251.022 8.95597C251.022 8.50497 251.132 8.09482 251.353 7.7255C251.573 7.35263 251.867 7.05611 252.237 6.83594C252.61 6.61577 253.022 6.50568 253.473 6.50568C253.924 6.50568 254.334 6.61577 254.703 6.83594C255.076 7.05611 255.372 7.35263 255.593 7.7255C255.813 8.09482 255.923 8.50497 255.923 8.95597C255.923 9.40696 255.813 9.81889 255.593 10.1918C255.372 10.5611 255.076 10.8558 254.703 11.076C254.334 11.2962 253.924 11.4063 253.473 11.4063ZM253.473 10.3409C253.728 10.3409 253.961 10.2788 254.17 10.1545C254.38 10.0302 254.547 9.86328 254.671 9.65377C254.795 9.44425 254.858 9.21165 254.858 8.95597C254.858 8.70028 254.795 8.46769 254.671 8.25817C254.547 8.04865 254.38 7.88175 254.17 7.75746C253.961 7.63317 253.728 7.57102 253.473 7.57102C253.217 7.57102 252.984 7.63317 252.775 7.75746C252.565 7.88175 252.398 8.04865 252.274 8.25817C252.15 8.46769 252.088 8.70028 252.088 8.95597C252.088 9.21165 252.15 9.44425 252.274 9.65377C252.398 9.86328 252.565 10.0302 252.775 10.1545C252.984 10.2788 253.217 10.3409 253.473 10.3409ZM266.799 10H265.478C265.399 9.62003 265.263 9.28622 265.067 8.99858C264.876 8.71094 264.641 8.46946 264.364 8.27415C264.091 8.07529 263.787 7.92614 263.453 7.82671C263.12 7.72727 262.772 7.67756 262.409 7.67756C261.749 7.67756 261.151 7.84446 260.614 8.17827C260.082 8.51207 259.657 9.00391 259.341 9.65377C259.029 10.3036 258.873 11.1009 258.873 12.0455C258.873 12.9901 259.029 13.7873 259.341 14.4371C259.657 15.087 260.082 15.5788 260.614 15.9126C261.151 16.2464 261.749 16.4134 262.409 16.4134C262.772 16.4134 263.12 16.3636 263.453 16.2642C263.787 16.1648 264.091 16.0174 264.364 15.8221C264.641 15.6232 264.876 15.38 265.067 15.0923C265.263 14.8011 265.399 14.4673 265.478 14.0909H266.799C266.699 14.6484 266.518 15.1474 266.255 15.5877C265.993 16.0281 265.666 16.4027 265.275 16.7116C264.885 17.017 264.446 17.2496 263.96 17.4094C263.477 17.5692 262.96 17.6491 262.409 17.6491C261.479 17.6491 260.652 17.4219 259.927 16.9673C259.203 16.5128 258.633 15.8665 258.217 15.0284C257.802 14.1903 257.594 13.196 257.594 12.0455C257.594 10.8949 257.802 9.90057 258.217 9.0625C258.633 8.22443 259.203 7.57813 259.927 7.12358C260.652 6.66904 261.479 6.44176 262.409 6.44176C262.96 6.44176 263.477 6.52166 263.96 6.68146C264.446 6.84127 264.885 7.07564 265.275 7.38459C265.666 7.68999 265.993 8.06286 266.255 8.5032C266.518 8.93999 266.699 9.43892 266.799 10ZM275.389 17.6918C274.871 17.6918 274.4 17.5941 273.978 17.3988C273.555 17.1999 273.22 16.9141 272.971 16.5412C272.722 16.1648 272.598 15.7102 272.598 15.1776C272.598 14.7088 272.69 14.3288 272.875 14.0376C273.06 13.7429 273.307 13.5121 273.615 13.3452C273.924 13.1783 274.265 13.054 274.638 12.9723C275.015 12.8871 275.393 12.8196 275.773 12.7699C276.27 12.706 276.673 12.658 276.982 12.6261C277.294 12.5906 277.522 12.532 277.664 12.4503C277.809 12.3686 277.882 12.2266 277.882 12.0241V11.9815C277.882 11.456 277.738 11.0476 277.451 10.7564C277.167 10.4652 276.735 10.3196 276.156 10.3196C275.556 10.3196 275.086 10.451 274.745 10.7138C274.404 10.9766 274.164 11.2571 274.026 11.5554L272.832 11.1293C273.046 10.6321 273.33 10.245 273.685 9.96804C274.043 9.6875 274.434 9.49219 274.857 9.3821C275.283 9.26847 275.702 9.21165 276.114 9.21165C276.377 9.21165 276.678 9.24361 277.019 9.30753C277.364 9.3679 277.696 9.49396 278.015 9.68572C278.339 9.87749 278.607 10.1669 278.82 10.554C279.033 10.9411 279.139 11.4595 279.139 12.1094V17.5H277.882V16.392H277.818C277.733 16.5696 277.591 16.7596 277.392 16.962C277.193 17.1644 276.929 17.3366 276.598 17.4787C276.268 17.6207 275.865 17.6918 275.389 17.6918ZM275.581 16.5625C276.078 16.5625 276.497 16.4648 276.838 16.2695C277.183 16.0742 277.442 15.8221 277.616 15.5131C277.793 15.2042 277.882 14.8793 277.882 14.5384V13.3878C277.829 13.4517 277.712 13.5103 277.531 13.5636C277.353 13.6133 277.147 13.6577 276.913 13.6967C276.682 13.7322 276.456 13.7642 276.236 13.7926C276.02 13.8175 275.844 13.8388 275.709 13.8565C275.382 13.8991 275.077 13.9684 274.793 14.0643C274.512 14.1566 274.285 14.2969 274.111 14.4851C273.94 14.6697 273.855 14.9219 273.855 15.2415C273.855 15.6783 274.017 16.0085 274.34 16.2322C274.667 16.4524 275.08 16.5625 275.581 16.5625ZM275.666 8.21023L274.004 5.73864H275.475L276.774 8.21023H275.666ZM288.849 15.5824V8.55114H290.042V15.5824H288.849ZM285.93 12.6634V11.4702H292.961V12.6634H285.93ZM303.424 17.6491C302.721 17.6491 302.094 17.5284 301.543 17.2869C300.997 17.0455 300.562 16.7099 300.238 16.2802C299.919 15.8469 299.745 15.3445 299.716 14.7727H301.059C301.087 15.1243 301.208 15.4279 301.421 15.6836C301.634 15.9357 301.913 16.131 302.257 16.2695C302.602 16.408 302.983 16.4773 303.402 16.4773C303.871 16.4773 304.287 16.3956 304.649 16.2322C305.011 16.0689 305.295 15.8416 305.501 15.5504C305.707 15.2592 305.81 14.9219 305.81 14.5384C305.81 14.1371 305.711 13.7837 305.512 13.4783C305.313 13.1694 305.022 12.9279 304.638 12.7539C304.255 12.5799 303.786 12.4929 303.232 12.4929H302.358V11.321H303.232C303.665 11.321 304.045 11.2429 304.372 11.0866C304.702 10.9304 304.96 10.7102 305.144 10.4261C305.332 10.142 305.427 9.80824 305.427 9.42472C305.427 9.0554 305.345 8.73402 305.182 8.46058C305.018 8.18715 304.787 7.97408 304.489 7.82138C304.194 7.66868 303.846 7.59233 303.445 7.59233C303.069 7.59233 302.714 7.66158 302.38 7.80007C302.049 7.93502 301.78 8.1321 301.57 8.39134C301.361 8.64702 301.247 8.95597 301.229 9.31818H299.951C299.972 8.74645 300.144 8.24574 300.467 7.81605C300.791 7.38281 301.213 7.04546 301.735 6.80398C302.261 6.5625 302.838 6.44176 303.466 6.44176C304.141 6.44176 304.72 6.57848 305.203 6.85192C305.686 7.1218 306.057 7.47869 306.316 7.92259C306.575 8.36648 306.705 8.84588 306.705 9.3608C306.705 9.97514 306.543 10.4989 306.22 10.9322C305.901 11.3654 305.466 11.6655 304.915 11.8324V11.9176C305.604 12.0313 306.142 12.3242 306.529 12.7965C306.916 13.2653 307.11 13.8459 307.11 14.5384C307.11 15.1314 306.948 15.6641 306.625 16.1364C306.305 16.6051 305.869 16.9744 305.315 17.2443C304.761 17.5142 304.13 17.6491 303.424 17.6491ZM310.848 16.0085L310.763 16.5838C310.702 16.9886 310.61 17.4219 310.486 17.8835C310.365 18.3452 310.239 18.7802 310.107 19.1886C309.976 19.5969 309.868 19.9219 309.782 20.1634H308.824C308.87 19.9361 308.93 19.636 309.005 19.2631C309.079 18.8903 309.154 18.473 309.229 18.0114C309.307 17.5533 309.371 17.0845 309.42 16.6051L309.484 16.0085H310.848ZM316.345 17.6491C315.72 17.6491 315.157 17.5249 314.656 17.2763C314.156 17.0277 313.754 16.6868 313.453 16.2536C313.151 15.8203 312.986 15.3267 312.957 14.7727H314.236C314.285 15.2663 314.509 15.6747 314.907 15.9979C315.308 16.3175 315.787 16.4773 316.345 16.4773C316.792 16.4773 317.19 16.3725 317.538 16.163C317.89 15.9535 318.165 15.6658 318.364 15.3001C318.566 14.9308 318.667 14.5135 318.667 14.0483C318.667 13.5724 318.563 13.1481 318.353 12.7752C318.147 12.3988 317.863 12.1023 317.501 11.8857C317.139 11.669 316.725 11.5589 316.26 11.5554C315.926 11.5518 315.583 11.6033 315.232 11.7099C314.88 11.8129 314.591 11.946 314.363 12.1094L313.128 11.9602L313.788 6.59091H319.456V7.76279H314.896L314.513 10.9801H314.577C314.8 10.8026 315.081 10.6552 315.418 10.538C315.755 10.4208 316.107 10.3622 316.473 10.3622C317.14 10.3622 317.735 10.522 318.257 10.8416C318.783 11.1577 319.195 11.5909 319.493 12.1413C319.795 12.6918 319.946 13.3203 319.946 14.027C319.946 14.723 319.79 15.3445 319.477 15.8913C319.168 16.4347 318.742 16.8643 318.199 17.1804C317.655 17.4929 317.037 17.6491 316.345 17.6491ZM324.342 11.4063C323.891 11.4063 323.479 11.2962 323.106 11.076C322.737 10.8558 322.442 10.5611 322.222 10.1918C322.001 9.81889 321.891 9.40696 321.891 8.95597C321.891 8.50497 322.001 8.09482 322.222 7.7255C322.442 7.35263 322.737 7.05611 323.106 6.83594C323.479 6.61577 323.891 6.50568 324.342 6.50568C324.793 6.50568 325.203 6.61577 325.572 6.83594C325.945 7.05611 326.242 7.35263 326.462 7.7255C326.682 8.09482 326.792 8.50497 326.792 8.95597C326.792 9.40696 326.682 9.81889 326.462 10.1918C326.242 10.5611 325.945 10.8558 325.572 11.076C325.203 11.2962 324.793 11.4063 324.342 11.4063ZM324.342 10.3409C324.597 10.3409 324.83 10.2788 325.039 10.1545C325.249 10.0302 325.416 9.86328 325.54 9.65377C325.664 9.44425 325.727 9.21165 325.727 8.95597C325.727 8.70028 325.664 8.46769 325.54 8.25817C325.416 8.04865 325.249 7.88175 325.039 7.75746C324.83 7.63317 324.597 7.57102 324.342 7.57102C324.086 7.57102 323.853 7.63317 323.644 7.75746C323.434 7.88175 323.267 8.04865 323.143 8.25817C323.019 8.46769 322.957 8.70028 322.957 8.95597C322.957 9.21165 323.019 9.44425 323.143 9.65377C323.267 9.86328 323.434 10.0302 323.644 10.1545C323.853 10.2788 324.086 10.3409 324.342 10.3409ZM337.668 10H336.347C336.269 9.62003 336.132 9.28622 335.937 8.99858C335.745 8.71094 335.51 8.46946 335.233 8.27415C334.96 8.07529 334.656 7.92614 334.323 7.82671C333.989 7.72727 333.641 7.67756 333.279 7.67756C332.618 7.67756 332.02 7.84446 331.483 8.17827C330.951 8.51207 330.526 9.00391 330.21 9.65377C329.898 10.3036 329.742 11.1009 329.742 12.0455C329.742 12.9901 329.898 13.7873 330.21 14.4371C330.526 15.087 330.951 15.5788 331.483 15.9126C332.02 16.2464 332.618 16.4134 333.279 16.4134C333.641 16.4134 333.989 16.3636 334.323 16.2642C334.656 16.1648 334.96 16.0174 335.233 15.8221C335.51 15.6232 335.745 15.38 335.937 15.0923C336.132 14.8011 336.269 14.4673 336.347 14.0909H337.668C337.568 14.6484 337.387 15.1474 337.124 15.5877C336.862 16.0281 336.535 16.4027 336.144 16.7116C335.754 17.017 335.315 17.2496 334.829 17.4094C334.346 17.5692 333.829 17.6491 333.279 17.6491C332.348 17.6491 331.521 17.4219 330.796 16.9673C330.072 16.5128 329.502 15.8665 329.086 15.0284C328.671 14.1903 328.463 13.196 328.463 12.0455C328.463 10.8949 328.671 9.90057 329.086 9.0625C329.502 8.22443 330.072 7.57813 330.796 7.12358C331.521 6.66904 332.348 6.44176 333.279 6.44176C333.829 6.44176 334.346 6.52166 334.829 6.68146C335.315 6.84127 335.754 7.07564 336.144 7.38459C336.535 7.68999 336.862 8.06286 337.124 8.5032C337.387 8.93999 337.568 9.43892 337.668 10Z" fill="black"/>
<path d="M394 0H369V25H394V0Z" fill="#F3E053"/>
<path d="M403.381 17.6705C402.699 17.6705 402.097 17.4982 401.575 17.1538C401.053 16.8058 400.645 16.3157 400.35 15.6836C400.055 15.0479 399.908 14.2969 399.908 13.4304C399.908 12.571 400.055 11.8253 400.35 11.1932C400.645 10.5611 401.055 10.0728 401.58 9.72834C402.106 9.38388 402.713 9.21165 403.402 9.21165C403.935 9.21165 404.355 9.30043 404.664 9.47798C404.977 9.65199 405.215 9.85085 405.378 10.0746C405.545 10.2947 405.675 10.4759 405.767 10.6179H405.874V6.59091H407.131V17.5H405.916V16.2429H405.767C405.675 16.392 405.543 16.5803 405.373 16.8075C405.202 17.0313 404.959 17.2319 404.643 17.4094C404.327 17.5835 403.906 17.6705 403.381 17.6705ZM403.551 16.5412C404.055 16.5412 404.482 16.4098 404.83 16.147C405.178 15.8807 405.442 15.5131 405.623 15.0444C405.804 14.5721 405.895 14.027 405.895 13.4091C405.895 12.7983 405.806 12.2638 405.629 11.8058C405.451 11.3441 405.188 10.9854 404.84 10.7298C404.492 10.4705 404.062 10.3409 403.551 10.3409C403.018 10.3409 402.575 10.4776 402.219 10.7511C401.868 11.021 401.603 11.3885 401.426 11.8537C401.252 12.3153 401.165 12.8338 401.165 13.4091C401.165 13.9915 401.254 14.5206 401.431 14.9964C401.612 15.4688 401.879 15.8452 402.23 16.1257C402.585 16.4027 403.026 16.5412 403.551 16.5412ZM413.038 17.6705C412.25 17.6705 411.57 17.4964 410.998 17.1484C410.43 16.7969 409.991 16.3068 409.682 15.6783C409.377 15.0462 409.224 14.3111 409.224 13.473C409.224 12.6349 409.377 11.8963 409.682 11.2571C409.991 10.6143 410.421 10.1136 410.971 9.75497C411.525 9.39276 412.172 9.21165 412.91 9.21165C413.336 9.21165 413.757 9.28267 414.173 9.42472C414.588 9.56676 414.966 9.79759 415.307 10.1172C415.648 10.4332 415.92 10.8523 416.122 11.3743C416.325 11.8963 416.426 12.5391 416.426 13.3026V13.8352H410.119V12.7486H415.147C415.147 12.2869 415.055 11.875 414.87 11.5128C414.689 11.1506 414.43 10.8647 414.093 10.6552C413.759 10.4457 413.365 10.3409 412.91 10.3409C412.409 10.3409 411.976 10.4652 411.61 10.7138C411.248 10.9588 410.969 11.2784 410.774 11.6726C410.579 12.0668 410.481 12.4893 410.481 12.9403V13.6648C410.481 14.2827 410.588 14.8065 410.801 15.2362C411.017 15.6623 411.317 15.9872 411.701 16.2109C412.085 16.4311 412.53 16.5412 413.038 16.5412C413.368 16.5412 413.667 16.495 413.933 16.4027C414.203 16.3068 414.435 16.1648 414.631 15.9766C414.826 15.7848 414.977 15.5469 415.083 15.2628L416.298 15.6037C416.17 16.0156 415.955 16.3778 415.653 16.6903C415.352 16.9993 414.979 17.2408 414.535 17.4148C414.091 17.5852 413.592 17.6705 413.038 17.6705ZM425.753 15.5824V8.55114H426.946V15.5824H425.753ZM422.834 12.6634V11.4702H429.865V12.6634H422.834ZM440.328 17.6491C439.625 17.6491 438.998 17.5284 438.448 17.2869C437.901 17.0455 437.466 16.7099 437.143 16.2802C436.823 15.8469 436.649 15.3445 436.621 14.7727H437.963C437.991 15.1243 438.112 15.4279 438.325 15.6836C438.538 15.9357 438.817 16.131 439.161 16.2695C439.506 16.408 439.888 16.4773 440.307 16.4773C440.775 16.4773 441.191 16.3956 441.553 16.2322C441.915 16.0689 442.199 15.8416 442.405 15.5504C442.611 15.2592 442.714 14.9219 442.714 14.5384C442.714 14.1371 442.615 13.7837 442.416 13.4783C442.217 13.1694 441.926 12.9279 441.543 12.7539C441.159 12.5799 440.69 12.4929 440.136 12.4929H439.263V11.321H440.136C440.57 11.321 440.949 11.2429 441.276 11.0866C441.606 10.9304 441.864 10.7102 442.049 10.4261C442.237 10.142 442.331 9.80824 442.331 9.42472C442.331 9.0554 442.249 8.73402 442.086 8.46058C441.922 8.18715 441.692 7.97408 441.393 7.82138C441.099 7.66868 440.751 7.59233 440.349 7.59233C439.973 7.59233 439.618 7.66158 439.284 7.80007C438.954 7.93502 438.684 8.1321 438.474 8.39134C438.265 8.64702 438.151 8.95597 438.133 9.31818H436.855C436.876 8.74645 437.049 8.24574 437.372 7.81605C437.695 7.38281 438.117 7.04546 438.639 6.80398C439.165 6.5625 439.742 6.44176 440.371 6.44176C441.045 6.44176 441.624 6.57848 442.107 6.85192C442.59 7.1218 442.961 7.47869 443.22 7.92259C443.48 8.36648 443.609 8.84588 443.609 9.3608C443.609 9.97514 443.448 10.4989 443.125 10.9322C442.805 11.3654 442.37 11.6655 441.82 11.8324V11.9176C442.508 12.0313 443.046 12.3242 443.434 12.7965C443.821 13.2653 444.014 13.8459 444.014 14.5384C444.014 15.1314 443.853 15.6641 443.529 16.1364C443.21 16.6051 442.773 16.9744 442.219 17.2443C441.665 17.5142 441.035 17.6491 440.328 17.6491ZM447.752 16.0085L447.667 16.5838C447.607 16.9886 447.514 17.4219 447.39 17.8835C447.269 18.3452 447.143 18.7802 447.012 19.1886C446.88 19.5969 446.772 19.9219 446.687 20.1634H445.728C445.774 19.9361 445.835 19.636 445.909 19.2631C445.984 18.8903 446.058 18.473 446.133 18.0114C446.211 17.5533 446.275 17.0845 446.325 16.6051L446.388 16.0085H447.752ZM453.249 17.6491C452.624 17.6491 452.061 17.5249 451.561 17.2763C451.06 17.0277 450.659 16.6868 450.357 16.2536C450.055 15.8203 449.89 15.3267 449.862 14.7727H451.14C451.19 15.2663 451.413 15.6747 451.811 15.9979C452.212 16.3175 452.692 16.4773 453.249 16.4773C453.697 16.4773 454.094 16.3725 454.442 16.163C454.794 15.9535 455.069 15.6658 455.268 15.3001C455.471 14.9308 455.572 14.5135 455.572 14.0483C455.572 13.5724 455.467 13.1481 455.257 12.7752C455.051 12.3988 454.767 12.1023 454.405 11.8857C454.043 11.669 453.629 11.5589 453.164 11.5554C452.83 11.5518 452.488 11.6033 452.136 11.7099C451.784 11.8129 451.495 11.946 451.268 12.1094L450.032 11.9602L450.692 6.59091H456.36V7.76279H451.8L451.417 10.9801H451.481C451.705 10.8026 451.985 10.6552 452.322 10.538C452.66 10.4208 453.011 10.3622 453.377 10.3622C454.045 10.3622 454.64 10.522 455.162 10.8416C455.687 11.1577 456.099 11.5909 456.397 12.1413C456.699 12.6918 456.85 13.3203 456.85 14.027C456.85 14.723 456.694 15.3445 456.381 15.8913C456.072 16.4347 455.646 16.8643 455.103 17.1804C454.56 17.4929 453.942 17.6491 453.249 17.6491ZM461.246 11.4063C460.795 11.4063 460.383 11.2962 460.01 11.076C459.641 10.8558 459.346 10.5611 459.126 10.1918C458.906 9.81889 458.796 9.40696 458.796 8.95597C458.796 8.50497 458.906 8.09482 459.126 7.7255C459.346 7.35263 459.641 7.05611 460.01 6.83594C460.383 6.61577 460.795 6.50568 461.246 6.50568C461.697 6.50568 462.107 6.61577 462.476 6.83594C462.849 7.05611 463.146 7.35263 463.366 7.7255C463.586 8.09482 463.696 8.50497 463.696 8.95597C463.696 9.40696 463.586 9.81889 463.366 10.1918C463.146 10.5611 462.849 10.8558 462.476 11.076C462.107 11.2962 461.697 11.4063 461.246 11.4063ZM461.246 10.3409C461.502 10.3409 461.734 10.2788 461.944 10.1545C462.153 10.0302 462.32 9.86328 462.445 9.65377C462.569 9.44425 462.631 9.21165 462.631 8.95597C462.631 8.70028 462.569 8.46769 462.445 8.25817C462.32 8.04865 462.153 7.88175 461.944 7.75746C461.734 7.63317 461.502 7.57102 461.246 7.57102C460.99 7.57102 460.758 7.63317 460.548 7.75746C460.339 7.88175 460.172 8.04865 460.047 8.25817C459.923 8.46769 459.861 8.70028 459.861 8.95597C459.861 9.21165 459.923 9.44425 460.047 9.65377C460.172 9.86328 460.339 10.0302 460.548 10.1545C460.758 10.2788 460.99 10.3409 461.246 10.3409ZM474.572 10H473.251C473.173 9.62003 473.036 9.28622 472.841 8.99858C472.649 8.71094 472.415 8.46946 472.138 8.27415C471.864 8.07529 471.561 7.92614 471.227 7.82671C470.893 7.72727 470.545 7.67756 470.183 7.67756C469.522 7.67756 468.924 7.84446 468.388 8.17827C467.855 8.51207 467.431 9.00391 467.115 9.65377C466.802 10.3036 466.646 11.1009 466.646 12.0455C466.646 12.9901 466.802 13.7873 467.115 14.4371C467.431 15.087 467.855 15.5788 468.388 15.9126C468.924 16.2464 469.522 16.4134 470.183 16.4134C470.545 16.4134 470.893 16.3636 471.227 16.2642C471.561 16.1648 471.864 16.0174 472.138 15.8221C472.415 15.6232 472.649 15.38 472.841 15.0923C473.036 14.8011 473.173 14.4673 473.251 14.0909H474.572C474.473 14.6484 474.292 15.1474 474.029 15.5877C473.766 16.0281 473.439 16.4027 473.049 16.7116C472.658 17.017 472.219 17.2496 471.733 17.4094C471.25 17.5692 470.733 17.6491 470.183 17.6491C469.252 17.6491 468.425 17.4219 467.701 16.9673C466.976 16.5128 466.406 15.8665 465.991 15.0284C465.575 14.1903 465.368 13.196 465.368 12.0455C465.368 10.8949 465.575 9.90057 465.991 9.0625C466.406 8.22443 466.976 7.57813 467.701 7.12358C468.425 6.66904 469.252 6.44176 470.183 6.44176C470.733 6.44176 471.25 6.52166 471.733 6.68146C472.219 6.84127 472.658 7.07564 473.049 7.38459C473.439 7.68999 473.766 8.06286 474.029 8.5032C474.292 8.93999 474.473 9.43892 474.572 10ZM483.163 17.6918C482.644 17.6918 482.174 17.5941 481.751 17.3988C481.329 17.1999 480.993 16.9141 480.744 16.5412C480.496 16.1648 480.372 15.7102 480.372 15.1776C480.372 14.7088 480.464 14.3288 480.649 14.0376C480.833 13.7429 481.08 13.5121 481.389 13.3452C481.698 13.1783 482.039 13.054 482.412 12.9723C482.788 12.8871 483.166 12.8196 483.546 12.7699C484.043 12.706 484.446 12.658 484.755 12.6261C485.068 12.5906 485.295 12.532 485.437 12.4503C485.583 12.3686 485.656 12.2266 485.656 12.0241V11.9815C485.656 11.456 485.512 11.0476 485.224 10.7564C484.94 10.4652 484.509 10.3196 483.93 10.3196C483.33 10.3196 482.859 10.451 482.518 10.7138C482.177 10.9766 481.938 11.2571 481.799 11.5554L480.606 11.1293C480.819 10.6321 481.103 10.245 481.458 9.96804C481.817 9.6875 482.207 9.49219 482.63 9.3821C483.056 9.26847 483.475 9.21165 483.887 9.21165C484.15 9.21165 484.452 9.24361 484.793 9.30753C485.137 9.3679 485.469 9.49396 485.789 9.68572C486.112 9.87749 486.38 10.1669 486.593 10.554C486.806 10.9411 486.913 11.4595 486.913 12.1094V17.5H485.656V16.392H485.592C485.506 16.5696 485.364 16.7596 485.166 16.962C484.967 17.1644 484.702 17.3366 484.372 17.4787C484.042 17.6207 483.639 17.6918 483.163 17.6918ZM483.354 16.5625C483.852 16.5625 484.271 16.4648 484.612 16.2695C484.956 16.0742 485.215 15.8221 485.389 15.5131C485.567 15.2042 485.656 14.8793 485.656 14.5384V13.3878C485.602 13.4517 485.485 13.5103 485.304 13.5636C485.127 13.6133 484.921 13.6577 484.686 13.6967C484.455 13.7322 484.23 13.7642 484.01 13.7926C483.793 13.8175 483.617 13.8388 483.482 13.8565C483.156 13.8991 482.85 13.9684 482.566 14.0643C482.286 14.1566 482.058 14.2969 481.884 14.4851C481.714 14.6697 481.629 14.9219 481.629 15.2415C481.629 15.6783 481.79 16.0085 482.113 16.2322C482.44 16.4524 482.854 16.5625 483.354 16.5625ZM483.44 8.21023L481.778 5.73864H483.248L484.548 8.21023H483.44ZM496.622 15.5824V8.55114H497.815V15.5824H496.622ZM493.703 12.6634V11.4702H500.734V12.6634H493.703ZM507.255 15.2628V14.1761L512.049 6.59091H512.838V8.27415H512.305L508.683 14.0057V14.0909H515.139V15.2628H507.255ZM512.39 17.5V14.9325V14.4265V6.59091H513.647V17.5H512.39ZM519.415 11.4063C518.964 11.4063 518.552 11.2962 518.179 11.076C517.81 10.8558 517.515 10.5611 517.295 10.1918C517.075 9.81889 516.965 9.40696 516.965 8.95597C516.965 8.50497 517.075 8.09482 517.295 7.7255C517.515 7.35263 517.81 7.05611 518.179 6.83594C518.552 6.61577 518.964 6.50568 519.415 6.50568C519.866 6.50568 520.276 6.61577 520.645 6.83594C521.018 7.05611 521.315 7.35263 521.535 7.7255C521.755 8.09482 521.865 8.50497 521.865 8.95597C521.865 9.40696 521.755 9.81889 521.535 10.1918C521.315 10.5611 521.018 10.8558 520.645 11.076C520.276 11.2962 519.866 11.4063 519.415 11.4063ZM519.415 10.3409C519.671 10.3409 519.903 10.2788 520.113 10.1545C520.322 10.0302 520.489 9.86328 520.613 9.65377C520.738 9.44425 520.8 9.21165 520.8 8.95597C520.8 8.70028 520.738 8.46769 520.613 8.25817C520.489 8.04865 520.322 7.88175 520.113 7.75746C519.903 7.63317 519.671 7.57102 519.415 7.57102C519.159 7.57102 518.927 7.63317 518.717 7.75746C518.508 7.88175 518.341 8.04865 518.216 8.25817C518.092 8.46769 518.03 8.70028 518.03 8.95597C518.03 9.21165 518.092 9.44425 518.216 9.65377C518.341 9.86328 518.508 10.0302 518.717 10.1545C518.927 10.2788 519.159 10.3409 519.415 10.3409ZM532.741 10H531.42C531.342 9.62003 531.205 9.28622 531.01 8.99858C530.818 8.71094 530.584 8.46946 530.307 8.27415C530.033 8.07529 529.73 7.92614 529.396 7.82671C529.062 7.72727 528.714 7.67756 528.352 7.67756C527.691 7.67756 527.093 7.84446 526.557 8.17827C526.024 8.51207 525.6 9.00391 525.284 9.65377C524.971 10.3036 524.815 11.1009 524.815 12.0455C524.815 12.9901 524.971 13.7873 525.284 14.4371C525.6 15.087 526.024 15.5788 526.557 15.9126C527.093 16.2464 527.691 16.4134 528.352 16.4134C528.714 16.4134 529.062 16.3636 529.396 16.2642C529.73 16.1648 530.033 16.0174 530.307 15.8221C530.584 15.6232 530.818 15.38 531.01 15.0923C531.205 14.8011 531.342 14.4673 531.42 14.0909H532.741C532.642 14.6484 532.46 15.1474 532.198 15.5877C531.935 16.0281 531.608 16.4027 531.218 16.7116C530.827 17.017 530.388 17.2496 529.902 17.4094C529.419 17.5692 528.902 17.6491 528.352 17.6491C527.421 17.6491 526.594 17.4219 525.87 16.9673C525.145 16.5128 524.575 15.8665 524.16 15.0284C523.744 14.1903 523.536 13.196 523.536 12.0455C523.536 10.8949 523.744 9.90057 524.16 9.0625C524.575 8.22443 525.145 7.57813 525.87 7.12358C526.594 6.66904 527.421 6.44176 528.352 6.44176C528.902 6.44176 529.419 6.52166 529.902 6.68146C530.388 6.84127 530.827 7.07564 531.218 7.38459C531.608 7.68999 531.935 8.06286 532.198 8.5032C532.46 8.93999 532.642 9.43892 532.741 10Z" fill="black"/>
<path d="M589 0H564V25H589V0Z" fill="#DC9447"/>
<path d="M598.381 17.6705C597.699 17.6705 597.097 17.4982 596.575 17.1538C596.053 16.8058 595.645 16.3157 595.35 15.6836C595.055 15.0479 594.908 14.2969 594.908 13.4304C594.908 12.571 595.055 11.8253 595.35 11.1932C595.645 10.5611 596.055 10.0728 596.58 9.72834C597.106 9.38388 597.713 9.21165 598.402 9.21165C598.935 9.21165 599.355 9.30043 599.664 9.47798C599.977 9.65199 600.215 9.85085 600.378 10.0746C600.545 10.2947 600.675 10.4759 600.767 10.6179H600.874V6.59091H602.131V17.5H600.916V16.2429H600.767C600.675 16.392 600.543 16.5803 600.373 16.8075C600.202 17.0313 599.959 17.2319 599.643 17.4094C599.327 17.5835 598.906 17.6705 598.381 17.6705ZM598.551 16.5412C599.055 16.5412 599.482 16.4098 599.83 16.147C600.178 15.8807 600.442 15.5131 600.623 15.0444C600.804 14.5721 600.895 14.027 600.895 13.4091C600.895 12.7983 600.806 12.2638 600.629 11.8058C600.451 11.3441 600.188 10.9854 599.84 10.7298C599.492 10.4705 599.062 10.3409 598.551 10.3409C598.018 10.3409 597.575 10.4776 597.219 10.7511C596.868 11.021 596.603 11.3885 596.426 11.8537C596.252 12.3153 596.165 12.8338 596.165 13.4091C596.165 13.9915 596.254 14.5206 596.431 14.9964C596.612 15.4688 596.879 15.8452 597.23 16.1257C597.585 16.4027 598.026 16.5412 598.551 16.5412ZM608.038 17.6705C607.25 17.6705 606.57 17.4964 605.998 17.1484C605.43 16.7969 604.991 16.3068 604.682 15.6783C604.377 15.0462 604.224 14.3111 604.224 13.473C604.224 12.6349 604.377 11.8963 604.682 11.2571C604.991 10.6143 605.421 10.1136 605.971 9.75497C606.525 9.39276 607.172 9.21165 607.91 9.21165C608.336 9.21165 608.757 9.28267 609.173 9.42472C609.588 9.56676 609.966 9.79759 610.307 10.1172C610.648 10.4332 610.92 10.8523 611.122 11.3743C611.325 11.8963 611.426 12.5391 611.426 13.3026V13.8352H605.119V12.7486H610.147C610.147 12.2869 610.055 11.875 609.87 11.5128C609.689 11.1506 609.43 10.8647 609.093 10.6552C608.759 10.4457 608.365 10.3409 607.91 10.3409C607.409 10.3409 606.976 10.4652 606.61 10.7138C606.248 10.9588 605.969 11.2784 605.774 11.6726C605.579 12.0668 605.481 12.4893 605.481 12.9403V13.6648C605.481 14.2827 605.588 14.8065 605.801 15.2362C606.017 15.6623 606.317 15.9872 606.701 16.2109C607.085 16.4311 607.53 16.5412 608.038 16.5412C608.368 16.5412 608.667 16.495 608.933 16.4027C609.203 16.3068 609.435 16.1648 609.631 15.9766C609.826 15.7848 609.977 15.5469 610.083 15.2628L611.298 15.6037C611.17 16.0156 610.955 16.3778 610.653 16.6903C610.352 16.9993 609.979 17.2408 609.535 17.4148C609.091 17.5852 608.592 17.6705 608.038 17.6705ZM620.753 15.5824V8.55114H621.946V15.5824H620.753ZM617.834 12.6634V11.4702H624.865V12.6634H617.834ZM631.386 15.2628V14.1761L636.18 6.59091H636.969V8.27415H636.436L632.814 14.0057V14.0909H639.27V15.2628H631.386ZM636.521 17.5V14.9325V14.4265V6.59091H637.778V17.5H636.521ZM643.546 11.4063C643.095 11.4063 642.683 11.2962 642.31 11.076C641.941 10.8558 641.646 10.5611 641.426 10.1918C641.206 9.81889 641.096 9.40696 641.096 8.95597C641.096 8.50497 641.206 8.09482 641.426 7.7255C641.646 7.35263 641.941 7.05611 642.31 6.83594C642.683 6.61577 643.095 6.50568 643.546 6.50568C643.997 6.50568 644.407 6.61577 644.776 6.83594C645.149 7.05611 645.446 7.35263 645.666 7.7255C645.886 8.09482 645.996 8.50497 645.996 8.95597C645.996 9.40696 645.886 9.81889 645.666 10.1918C645.446 10.5611 645.149 10.8558 644.776 11.076C644.407 11.2962 643.997 11.4063 643.546 11.4063ZM643.546 10.3409C643.801 10.3409 644.034 10.2788 644.244 10.1545C644.453 10.0302 644.62 9.86328 644.744 9.65377C644.869 9.44425 644.931 9.21165 644.931 8.95597C644.931 8.70028 644.869 8.46769 644.744 8.25817C644.62 8.04865 644.453 7.88175 644.244 7.75746C644.034 7.63317 643.801 7.57102 643.546 7.57102C643.29 7.57102 643.058 7.63317 642.848 7.75746C642.638 7.88175 642.472 8.04865 642.347 8.25817C642.223 8.46769 642.161 8.70028 642.161 8.95597C642.161 9.21165 642.223 9.44425 642.347 9.65377C642.472 9.86328 642.638 10.0302 642.848 10.1545C643.058 10.2788 643.29 10.3409 643.546 10.3409ZM656.872 10H655.551C655.473 9.62003 655.336 9.28622 655.141 8.99858C654.949 8.71094 654.715 8.46946 654.438 8.27415C654.164 8.07529 653.861 7.92614 653.527 7.82671C653.193 7.72727 652.845 7.67756 652.483 7.67756C651.822 7.67756 651.224 7.84446 650.688 8.17827C650.155 8.51207 649.731 9.00391 649.414 9.65377C649.102 10.3036 648.946 11.1009 648.946 12.0455C648.946 12.9901 649.102 13.7873 649.414 14.4371C649.731 15.087 650.155 15.5788 650.688 15.9126C651.224 16.2464 651.822 16.4134 652.483 16.4134C652.845 16.4134 653.193 16.3636 653.527 16.2642C653.861 16.1648 654.164 16.0174 654.438 15.8221C654.715 15.6232 654.949 15.38 655.141 15.0923C655.336 14.8011 655.473 14.4673 655.551 14.0909H656.872C656.772 14.6484 656.591 15.1474 656.329 15.5877C656.066 16.0281 655.739 16.4027 655.348 16.7116C654.958 17.017 654.519 17.2496 654.033 17.4094C653.55 17.5692 653.033 17.6491 652.483 17.6491C651.552 17.6491 650.725 17.4219 650 16.9673C649.276 16.5128 648.706 15.8665 648.291 15.0284C647.875 14.1903 647.667 13.196 647.667 12.0455C647.667 10.8949 647.875 9.90057 648.291 9.0625C648.706 8.22443 649.276 7.57813 650 7.12358C650.725 6.66904 651.552 6.44176 652.483 6.44176C653.033 6.44176 653.55 6.52166 654.033 6.68146C654.519 6.84127 654.958 7.07564 655.348 7.38459C655.739 7.68999 656.066 8.06286 656.329 8.5032C656.591 8.93999 656.772 9.43892 656.872 10ZM665.463 17.6918C664.944 17.6918 664.474 17.5941 664.051 17.3988C663.628 17.1999 663.293 16.9141 663.044 16.5412C662.796 16.1648 662.671 15.7102 662.671 15.1776C662.671 14.7088 662.764 14.3288 662.948 14.0376C663.133 13.7429 663.38 13.5121 663.689 13.3452C663.998 13.1783 664.339 13.054 664.711 12.9723C665.088 12.8871 665.466 12.8196 665.846 12.7699C666.343 12.706 666.746 12.658 667.055 12.6261C667.368 12.5906 667.595 12.532 667.737 12.4503C667.883 12.3686 667.955 12.2266 667.955 12.0241V11.9815C667.955 11.456 667.812 11.0476 667.524 10.7564C667.24 10.4652 666.808 10.3196 666.23 10.3196C665.629 10.3196 665.159 10.451 664.818 10.7138C664.477 10.9766 664.237 11.2571 664.099 11.5554L662.906 11.1293C663.119 10.6321 663.403 10.245 663.758 9.96804C664.117 9.6875 664.507 9.49219 664.93 9.3821C665.356 9.26847 665.775 9.21165 666.187 9.21165C666.45 9.21165 666.752 9.24361 667.092 9.30753C667.437 9.3679 667.769 9.49396 668.089 9.68572C668.412 9.87749 668.68 10.1669 668.893 10.554C669.106 10.9411 669.213 11.4595 669.213 12.1094V17.5H667.955V16.392H667.892C667.806 16.5696 667.664 16.7596 667.465 16.962C667.267 17.1644 667.002 17.3366 666.672 17.4787C666.341 17.6207 665.938 17.6918 665.463 17.6918ZM665.654 16.5625C666.151 16.5625 666.57 16.4648 666.911 16.2695C667.256 16.0742 667.515 15.8221 667.689 15.5131C667.867 15.2042 667.955 14.8793 667.955 14.5384V13.3878C667.902 13.4517 667.785 13.5103 667.604 13.5636C667.426 13.6133 667.22 13.6577 666.986 13.6967C666.755 13.7322 666.53 13.7642 666.309 13.7926C666.093 13.8175 665.917 13.8388 665.782 13.8565C665.455 13.8991 665.15 13.9684 664.866 14.0643C664.585 14.1566 664.358 14.2969 664.184 14.4851C664.014 14.6697 663.928 14.9219 663.928 15.2415C663.928 15.6783 664.09 16.0085 664.413 16.2322C664.74 16.4524 665.154 16.5625 665.654 16.5625ZM665.74 8.21023L664.078 5.73864H665.548L666.847 8.21023H665.74ZM678.922 15.5824V8.55114H680.115V15.5824H678.922ZM676.003 12.6634V11.4702H683.034V12.6634H676.003ZM689.555 15.2628V14.1761L694.349 6.59091H695.138V8.27415H694.605L690.983 14.0057V14.0909H697.439V15.2628H689.555ZM694.69 17.5V14.9325V14.4265V6.59091H695.947V17.5H694.69ZM700.819 16.0085L700.733 16.5838C700.673 16.9886 700.581 17.4219 700.456 17.8835C700.336 18.3452 700.21 18.7802 700.078 19.1886C699.947 19.5969 699.838 19.9219 699.753 20.1634H698.794C698.841 19.9361 698.901 19.636 698.975 19.2631C699.05 18.8903 699.125 18.473 699.199 18.0114C699.277 17.5533 699.341 17.0845 699.391 16.6051L699.455 16.0085H700.819ZM706.316 17.6491C705.691 17.6491 705.128 17.5249 704.627 17.2763C704.126 17.0277 703.725 16.6868 703.423 16.2536C703.121 15.8203 702.956 15.3267 702.928 14.7727H704.206C704.256 15.2663 704.48 15.6747 704.877 15.9979C705.279 16.3175 705.758 16.4773 706.316 16.4773C706.763 16.4773 707.161 16.3725 707.509 16.163C707.86 15.9535 708.136 15.6658 708.335 15.3001C708.537 14.9308 708.638 14.5135 708.638 14.0483C708.638 13.5724 708.533 13.1481 708.324 12.7752C708.118 12.3988 707.834 12.1023 707.472 11.8857C707.109 11.669 706.696 11.5589 706.23 11.5554C705.897 11.5518 705.554 11.6033 705.202 11.7099C704.851 11.8129 704.561 11.946 704.334 12.1094L703.098 11.9602L703.759 6.59091H709.426V7.76279H704.867L704.483 10.9801H704.547C704.771 10.8026 705.051 10.6552 705.389 10.538C705.726 10.4208 706.078 10.3622 706.444 10.3622C707.111 10.3622 707.706 10.522 708.228 10.8416C708.754 11.1577 709.165 11.5909 709.464 12.1413C709.766 12.6918 709.917 13.3203 709.917 14.027C709.917 14.723 709.76 15.3445 709.448 15.8913C709.139 16.4347 708.713 16.8643 708.169 17.1804C707.626 17.4929 707.008 17.6491 706.316 17.6491ZM714.312 11.4063C713.861 11.4063 713.449 11.2962 713.077 11.076C712.707 10.8558 712.413 10.5611 712.192 10.1918C711.972 9.81889 711.862 9.40696 711.862 8.95597C711.862 8.50497 711.972 8.09482 712.192 7.7255C712.413 7.35263 712.707 7.05611 713.077 6.83594C713.449 6.61577 713.861 6.50568 714.312 6.50568C714.763 6.50568 715.174 6.61577 715.543 6.83594C715.916 7.05611 716.212 7.35263 716.432 7.7255C716.653 8.09482 716.763 8.50497 716.763 8.95597C716.763 9.40696 716.653 9.81889 716.432 10.1918C716.212 10.5611 715.916 10.8558 715.543 11.076C715.174 11.2962 714.763 11.4063 714.312 11.4063ZM714.312 10.3409C714.568 10.3409 714.801 10.2788 715.01 10.1545C715.22 10.0302 715.387 9.86328 715.511 9.65377C715.635 9.44425 715.697 9.21165 715.697 8.95597C715.697 8.70028 715.635 8.46769 715.511 8.25817C715.387 8.04865 715.22 7.88175 715.01 7.75746C714.801 7.63317 714.568 7.57102 714.312 7.57102C714.057 7.57102 713.824 7.63317 713.615 7.75746C713.405 7.88175 713.238 8.04865 713.114 8.25817C712.99 8.46769 712.927 8.70028 712.927 8.95597C712.927 9.21165 712.99 9.44425 713.114 9.65377C713.238 9.86328 713.405 10.0302 713.615 10.1545C713.824 10.2788 714.057 10.3409 714.312 10.3409ZM727.638 10H726.317C726.239 9.62003 726.103 9.28622 725.907 8.99858C725.716 8.71094 725.481 8.46946 725.204 8.27415C724.931 8.07529 724.627 7.92614 724.293 7.82671C723.96 7.72727 723.611 7.67756 723.249 7.67756C722.589 7.67756 721.99 7.84446 721.454 8.17827C720.922 8.51207 720.497 9.00391 720.181 9.65377C719.869 10.3036 719.712 11.1009 719.712 12.0455C719.712 12.9901 719.869 13.7873 720.181 14.4371C720.497 15.087 720.922 15.5788 721.454 15.9126C721.99 16.2464 722.589 16.4134 723.249 16.4134C723.611 16.4134 723.96 16.3636 724.293 16.2642C724.627 16.1648 724.931 16.0174 725.204 15.8221C725.481 15.6232 725.716 15.38 725.907 15.0923C726.103 14.8011 726.239 14.4673 726.317 14.0909H727.638C727.539 14.6484 727.358 15.1474 727.095 15.5877C726.832 16.0281 726.506 16.4027 726.115 16.7116C725.724 17.017 725.286 17.2496 724.799 17.4094C724.316 17.5692 723.8 17.6491 723.249 17.6491C722.319 17.6491 721.491 17.4219 720.767 16.9673C720.043 16.5128 719.473 15.8665 719.057 15.0284C718.642 14.1903 718.434 13.196 718.434 12.0455C718.434 10.8949 718.642 9.90057 719.057 9.0625C719.473 8.22443 720.043 7.57813 720.767 7.12358C721.491 6.66904 722.319 6.44176 723.249 6.44176C723.8 6.44176 724.316 6.52166 724.799 6.68146C725.286 6.84127 725.724 7.07564 726.115 7.38459C726.506 7.68999 726.832 8.06286 727.095 8.5032C727.358 8.93999 727.539 9.43892 727.638 10Z" fill="black"/>
<path d="M785.484 0H759V25H785.484V0Z" fill="#E84A58"/>
<path d="M794.857 17.6705C794.175 17.6705 793.574 17.4982 793.051 17.1538C792.529 16.8058 792.121 16.3157 791.826 15.6836C791.532 15.0479 791.384 14.2969 791.384 13.4304C791.384 12.571 791.532 11.8253 791.826 11.1932C792.121 10.5611 792.531 10.0728 793.057 9.72834C793.582 9.38388 794.19 9.21165 794.879 9.21165C795.411 9.21165 795.832 9.30043 796.141 9.47798C796.453 9.65199 796.691 9.85085 796.855 10.0746C797.022 10.2947 797.151 10.4759 797.244 10.6179H797.35V6.59091H798.607V17.5H797.393V16.2429H797.244C797.151 16.392 797.02 16.5803 796.849 16.8075C796.679 17.0313 796.436 17.2319 796.12 17.4094C795.804 17.5835 795.383 17.6705 794.857 17.6705ZM795.028 16.5412C795.532 16.5412 795.958 16.4098 796.306 16.147C796.654 15.8807 796.919 15.5131 797.1 15.0444C797.281 14.5721 797.371 14.027 797.371 13.4091C797.371 12.7983 797.283 12.2638 797.105 11.8058C796.928 11.3441 796.665 10.9854 796.317 10.7298C795.969 10.4705 795.539 10.3409 795.028 10.3409C794.495 10.3409 794.051 10.4776 793.696 10.7511C793.344 11.021 793.08 11.3885 792.902 11.8537C792.728 12.3153 792.641 12.8338 792.641 13.4091C792.641 13.9915 792.73 14.5206 792.908 14.9964C793.089 15.4688 793.355 15.8452 793.707 16.1257C794.062 16.4027 794.502 16.5412 795.028 16.5412ZM804.515 17.6705C803.726 17.6705 803.046 17.4964 802.474 17.1484C801.906 16.7969 801.468 16.3068 801.159 15.6783C800.853 15.0462 800.701 14.3111 800.701 13.473C800.701 12.6349 800.853 11.8963 801.159 11.2571C801.468 10.6143 801.897 10.1136 802.448 9.75497C803.002 9.39276 803.648 9.21165 804.387 9.21165C804.813 9.21165 805.234 9.28267 805.649 9.42472C806.065 9.56676 806.443 9.79759 806.784 10.1172C807.125 10.4332 807.396 10.8523 807.599 11.3743C807.801 11.8963 807.902 12.5391 807.902 13.3026V13.8352H801.596V12.7486H806.624C806.624 12.2869 806.532 11.875 806.347 11.5128C806.166 11.1506 805.907 10.8647 805.569 10.6552C805.235 10.4457 804.841 10.3409 804.387 10.3409C803.886 10.3409 803.453 10.4652 803.087 10.7138C802.725 10.9588 802.446 11.2784 802.251 11.6726C802.055 12.0668 801.958 12.4893 801.958 12.9403V13.6648C801.958 14.2827 802.064 14.8065 802.277 15.2362C802.494 15.6623 802.794 15.9872 803.178 16.2109C803.561 16.4311 804.007 16.5412 804.515 16.5412C804.845 16.5412 805.143 16.495 805.409 16.4027C805.679 16.3068 805.912 16.1648 806.107 15.9766C806.303 15.7848 806.453 15.5469 806.56 15.2628L807.775 15.6037C807.647 16.0156 807.432 16.3778 807.13 16.6903C806.828 16.9993 806.455 17.2408 806.011 17.4148C805.567 17.5852 805.069 17.6705 804.515 17.6705ZM817.229 15.5824V8.55114H818.423V15.5824H817.229ZM814.31 12.6634V11.4702H821.342V12.6634H814.31ZM827.863 15.2628V14.1761L832.657 6.59091H833.445V8.27415H832.913L829.29 14.0057V14.0909H835.746V15.2628H827.863ZM832.998 17.5V14.9325V14.4265V6.59091H834.255V17.5H832.998ZM839.126 16.0085L839.041 16.5838C838.981 16.9886 838.888 17.4219 838.764 17.8835C838.643 18.3452 838.517 18.7802 838.386 19.1886C838.254 19.5969 838.146 19.9219 838.061 20.1634H837.102C837.148 19.9361 837.209 19.636 837.283 19.2631C837.358 18.8903 837.432 18.473 837.507 18.0114C837.585 17.5533 837.649 17.0845 837.699 16.6051L837.763 16.0085H839.126ZM844.623 17.6491C843.998 17.6491 843.435 17.5249 842.935 17.2763C842.434 17.0277 842.033 16.6868 841.731 16.2536C841.429 15.8203 841.264 15.3267 841.236 14.7727H842.514C842.564 15.2663 842.787 15.6747 843.185 15.9979C843.586 16.3175 844.066 16.4773 844.623 16.4773C845.071 16.4773 845.468 16.3725 845.816 16.163C846.168 15.9535 846.443 15.6658 846.642 15.3001C846.845 14.9308 846.946 14.5135 846.946 14.0483C846.946 13.5724 846.841 13.1481 846.631 12.7752C846.426 12.3988 846.141 12.1023 845.779 11.8857C845.417 11.669 845.003 11.5589 844.538 11.5554C844.204 11.5518 843.862 11.6033 843.51 11.7099C843.158 11.8129 842.869 11.946 842.642 12.1094L841.406 11.9602L842.066 6.59091H847.734V7.76279H843.174L842.791 10.9801H842.855C843.079 10.8026 843.359 10.6552 843.696 10.538C844.034 10.4208 844.385 10.3622 844.751 10.3622C845.419 10.3622 846.014 10.522 846.536 10.8416C847.061 11.1577 847.473 11.5909 847.771 12.1413C848.073 12.6918 848.224 13.3203 848.224 14.027C848.224 14.723 848.068 15.3445 847.755 15.8913C847.446 16.4347 847.02 16.8643 846.477 17.1804C845.934 17.4929 845.316 17.6491 844.623 17.6491ZM852.62 11.4063C852.169 11.4063 851.757 11.2962 851.384 11.076C851.015 10.8558 850.72 10.5611 850.5 10.1918C850.28 9.81889 850.17 9.40696 850.17 8.95597C850.17 8.50497 850.28 8.09482 850.5 7.7255C850.72 7.35263 851.015 7.05611 851.384 6.83594C851.757 6.61577 852.169 6.50568 852.62 6.50568C853.071 6.50568 853.481 6.61577 853.85 6.83594C854.223 7.05611 854.52 7.35263 854.74 7.7255C854.96 8.09482 855.07 8.50497 855.07 8.95597C855.07 9.40696 854.96 9.81889 854.74 10.1918C854.52 10.5611 854.223 10.8558 853.85 11.076C853.481 11.2962 853.071 11.4063 852.62 11.4063ZM852.62 10.3409C852.876 10.3409 853.108 10.2788 853.318 10.1545C853.527 10.0302 853.694 9.86328 853.819 9.65377C853.943 9.44425 854.005 9.21165 854.005 8.95597C854.005 8.70028 853.943 8.46769 853.819 8.25817C853.694 8.04865 853.527 7.88175 853.318 7.75746C853.108 7.63317 852.876 7.57102 852.62 7.57102C852.364 7.57102 852.132 7.63317 851.922 7.75746C851.713 7.88175 851.546 8.04865 851.422 8.25817C851.297 8.46769 851.235 8.70028 851.235 8.95597C851.235 9.21165 851.297 9.44425 851.422 9.65377C851.546 9.86328 851.713 10.0302 851.922 10.1545C852.132 10.2788 852.364 10.3409 852.62 10.3409ZM865.946 10H864.625C864.547 9.62003 864.41 9.28622 864.215 8.99858C864.023 8.71094 863.789 8.46946 863.512 8.27415C863.238 8.07529 862.935 7.92614 862.601 7.82671C862.267 7.72727 861.919 7.67756 861.557 7.67756C860.896 7.67756 860.298 7.84446 859.762 8.17827C859.229 8.51207 858.805 9.00391 858.489 9.65377C858.176 10.3036 858.02 11.1009 858.02 12.0455C858.02 12.9901 858.176 13.7873 858.489 14.4371C858.805 15.087 859.229 15.5788 859.762 15.9126C860.298 16.2464 860.896 16.4134 861.557 16.4134C861.919 16.4134 862.267 16.3636 862.601 16.2642C862.935 16.1648 863.238 16.0174 863.512 15.8221C863.789 15.6232 864.023 15.38 864.215 15.0923C864.41 14.8011 864.547 14.4673 864.625 14.0909H865.946C865.847 14.6484 865.666 15.1474 865.403 15.5877C865.14 16.0281 864.813 16.4027 864.423 16.7116C864.032 17.017 863.593 17.2496 863.107 17.4094C862.624 17.5692 862.107 17.6491 861.557 17.6491C860.627 17.6491 859.799 17.4219 859.075 16.9673C858.35 16.5128 857.78 15.8665 857.365 15.0284C856.949 14.1903 856.742 13.196 856.742 12.0455C856.742 10.8949 856.949 9.90057 857.365 9.0625C857.78 8.22443 858.35 7.57813 859.075 7.12358C859.799 6.66904 860.627 6.44176 861.557 6.44176C862.107 6.44176 862.624 6.52166 863.107 6.68146C863.593 6.84127 864.032 7.07564 864.423 7.38459C864.813 7.68999 865.14 8.06286 865.403 8.5032C865.666 8.93999 865.847 9.43892 865.946 10ZM874.537 17.6918C874.018 17.6918 873.548 17.5941 873.125 17.3988C872.703 17.1999 872.367 16.9141 872.118 16.5412C871.87 16.1648 871.746 15.7102 871.746 15.1776C871.746 14.7088 871.838 14.3288 872.023 14.0376C872.207 13.7429 872.454 13.5121 872.763 13.3452C873.072 13.1783 873.413 13.054 873.786 12.9723C874.162 12.8871 874.54 12.8196 874.92 12.7699C875.417 12.706 875.82 12.658 876.129 12.6261C876.442 12.5906 876.669 12.532 876.811 12.4503C876.957 12.3686 877.03 12.2266 877.03 12.0241V11.9815C877.03 11.456 876.886 11.0476 876.598 10.7564C876.314 10.4652 875.883 10.3196 875.304 10.3196C874.704 10.3196 874.233 10.451 873.892 10.7138C873.551 10.9766 873.312 11.2571 873.173 11.5554L871.98 11.1293C872.193 10.6321 872.477 10.245 872.832 9.96804C873.191 9.6875 873.581 9.49219 874.004 9.3821C874.43 9.26847 874.849 9.21165 875.261 9.21165C875.524 9.21165 875.826 9.24361 876.167 9.30753C876.511 9.3679 876.843 9.49396 877.163 9.68572C877.486 9.87749 877.754 10.1669 877.967 10.554C878.18 10.9411 878.287 11.4595 878.287 12.1094V17.5H877.03V16.392H876.966C876.88 16.5696 876.738 16.7596 876.54 16.962C876.341 17.1644 876.076 17.3366 875.746 17.4787C875.416 17.6207 875.013 17.6918 874.537 17.6918ZM874.729 16.5625C875.226 16.5625 875.645 16.4648 875.986 16.2695C876.33 16.0742 876.589 15.8221 876.763 15.5131C876.941 15.2042 877.03 14.8793 877.03 14.5384V13.3878C876.976 13.4517 876.859 13.5103 876.678 13.5636C876.501 13.6133 876.295 13.6577 876.06 13.6967C875.829 13.7322 875.604 13.7642 875.384 13.7926C875.167 13.8175 874.991 13.8388 874.856 13.8565C874.53 13.8991 874.224 13.9684 873.94 14.0643C873.66 14.1566 873.432 14.2969 873.258 14.4851C873.088 14.6697 873.003 14.9219 873.003 15.2415C873.003 15.6783 873.164 16.0085 873.487 16.2322C873.814 16.4524 874.228 16.5625 874.729 16.5625ZM874.814 8.21023L873.152 5.73864H874.622L875.922 8.21023H874.814ZM887.996 15.5824V8.55114H889.189V15.5824H887.996ZM885.077 12.6634V11.4702H892.108V12.6634H885.077ZM902.294 17.6491C901.669 17.6491 901.106 17.5249 900.606 17.2763C900.105 17.0277 899.704 16.6868 899.402 16.2536C899.1 15.8203 898.935 15.3267 898.906 14.7727H900.185C900.235 15.2663 900.458 15.6747 900.856 15.9979C901.257 16.3175 901.737 16.4773 902.294 16.4773C902.742 16.4773 903.139 16.3725 903.487 16.163C903.839 15.9535 904.114 15.6658 904.313 15.3001C904.515 14.9308 904.617 14.5135 904.617 14.0483C904.617 13.5724 904.512 13.1481 904.302 12.7752C904.096 12.3988 903.812 12.1023 903.45 11.8857C903.088 11.669 902.674 11.5589 902.209 11.5554C901.875 11.5518 901.532 11.6033 901.181 11.7099C900.829 11.8129 900.54 11.946 900.313 12.1094L899.077 11.9602L899.737 6.59091H905.405V7.76279H900.845L900.462 10.9801H900.526C900.749 10.8026 901.03 10.6552 901.367 10.538C901.705 10.4208 902.056 10.3622 902.422 10.3622C903.09 10.3622 903.684 10.522 904.206 10.8416C904.732 11.1577 905.144 11.5909 905.442 12.1413C905.744 12.6918 905.895 13.3203 905.895 14.027C905.895 14.723 905.739 15.3445 905.426 15.8913C905.117 16.4347 904.691 16.8643 904.148 17.1804C903.605 17.4929 902.987 17.6491 902.294 17.6491ZM909.497 16.0085L909.412 16.5838C909.352 16.9886 909.259 17.4219 909.135 17.8835C909.014 18.3452 908.888 18.7802 908.757 19.1886C908.625 19.5969 908.517 19.9219 908.432 20.1634H907.473C907.519 19.9361 907.58 19.636 907.654 19.2631C907.729 18.8903 907.803 18.473 907.878 18.0114C907.956 17.5533 908.02 17.0845 908.07 16.6051L908.134 16.0085H909.497ZM914.337 6.59091V17.5H913.016V7.97585H912.952L910.288 9.74432V8.40199L913.016 6.59091H914.337ZM919.754 11.4063C919.303 11.4063 918.891 11.2962 918.518 11.076C918.149 10.8558 917.854 10.5611 917.634 10.1918C917.414 9.81889 917.304 9.40696 917.304 8.95597C917.304 8.50497 917.414 8.09482 917.634 7.7255C917.854 7.35263 918.149 7.05611 918.518 6.83594C918.891 6.61577 919.303 6.50568 919.754 6.50568C920.205 6.50568 920.615 6.61577 920.984 6.83594C921.357 7.05611 921.654 7.35263 921.874 7.7255C922.094 8.09482 922.204 8.50497 922.204 8.95597C922.204 9.40696 922.094 9.81889 921.874 10.1918C921.654 10.5611 921.357 10.8558 920.984 11.076C920.615 11.2962 920.205 11.4063 919.754 11.4063ZM919.754 10.3409C920.009 10.3409 920.242 10.2788 920.452 10.1545C920.661 10.0302 920.828 9.86328 920.952 9.65377C921.077 9.44425 921.139 9.21165 921.139 8.95597C921.139 8.70028 921.077 8.46769 920.952 8.25817C920.828 8.04865 920.661 7.88175 920.452 7.75746C920.242 7.63317 920.009 7.57102 919.754 7.57102C919.498 7.57102 919.266 7.63317 919.056 7.75746C918.846 7.88175 918.68 8.04865 918.555 8.25817C918.431 8.46769 918.369 8.70028 918.369 8.95597C918.369 9.21165 918.431 9.44425 918.555 9.65377C918.68 9.86328 918.846 10.0302 919.056 10.1545C919.266 10.2788 919.498 10.3409 919.754 10.3409ZM933.08 10H931.759C931.681 9.62003 931.544 9.28622 931.349 8.99858C931.157 8.71094 930.923 8.46946 930.646 8.27415C930.372 8.07529 930.069 7.92614 929.735 7.82671C929.401 7.72727 929.053 7.67756 928.691 7.67756C928.03 7.67756 927.432 7.84446 926.896 8.17827C926.363 8.51207 925.939 9.00391 925.622 9.65377C925.31 10.3036 925.154 11.1009 925.154 12.0455C925.154 12.9901 925.31 13.7873 925.622 14.4371C925.939 15.087 926.363 15.5788 926.896 15.9126C927.432 16.2464 928.03 16.4134 928.691 16.4134C929.053 16.4134 929.401 16.3636 929.735 16.2642C930.069 16.1648 930.372 16.0174 930.646 15.8221C930.923 15.6232 931.157 15.38 931.349 15.0923C931.544 14.8011 931.681 14.4673 931.759 14.0909H933.08C932.98 14.6484 932.799 15.1474 932.537 15.5877C932.274 16.0281 931.947 16.4027 931.556 16.7116C931.166 17.017 930.727 17.2496 930.241 17.4094C929.758 17.5692 929.241 17.6491 928.691 17.6491C927.76 17.6491 926.933 17.4219 926.208 16.9673C925.484 16.5128 924.914 15.8665 924.499 15.0284C924.083 14.1903 923.875 13.196 923.875 12.0455C923.875 10.8949 924.083 9.90057 924.499 9.0625C924.914 8.22443 925.484 7.57813 926.208 7.12358C926.933 6.66904 927.76 6.44176 928.691 6.44176C929.241 6.44176 929.758 6.52166 930.241 6.68146C930.727 6.84127 931.166 7.07564 931.556 7.38459C931.947 7.68999 932.274 8.06286 932.537 8.5032C932.799 8.93999 932.98 9.43892 933.08 10Z" fill="black"/>
</svg>
