<svg width="39" height="30" viewBox="0 0 39 30" fill="none" xmlns="http://www.w3.org/2000/svg">
<g clip-path="url(#clip0_876_1287)">
<path d="M38.0616 5.75781H0.414062V28.789H38.0616V5.75781Z" fill="#939598"/>
<path d="M24.0856 12.3652H19.5234V28.7927H24.0856V12.3652Z" fill="white" stroke="#005E7F" stroke-width="0.768474" stroke-linecap="round" stroke-linejoin="round"/>
<path d="M20.8193 13.2949V28.5671" stroke="#005E7F" stroke-width="0.768474" stroke-linecap="round" stroke-linejoin="round"/>
<path d="M22.6133 13.2949V28.5671" stroke="#005E7F" stroke-width="0.768474" stroke-linecap="round" stroke-linejoin="round"/>
<path d="M19.5234 13.293H24.0831" stroke="#005E7F" stroke-width="0.768474" stroke-linecap="round" stroke-linejoin="round"/>
<path d="M22.4486 9.03125H21.1602V12.287H22.4486V9.03125Z" fill="white" stroke="#005E7F" stroke-width="0.768474" stroke-linecap="round" stroke-linejoin="round"/>
<path d="M23.6655 9.03202H19.9435L19.7744 8.09961H23.832L23.6655 9.03202Z" fill="white" stroke="#005E7F" stroke-width="0.768474" stroke-linecap="round" stroke-linejoin="round"/>
<path d="M19.9434 12.118V9.03125" stroke="#005E7F" stroke-width="0.768474" stroke-linecap="round" stroke-linejoin="round"/>
<path d="M23.666 12.118V9.03125" stroke="#005E7F" stroke-width="0.768474" stroke-linecap="round" stroke-linejoin="round"/>
<path d="M22.4486 5.75781H21.1602V7.90186H22.4486V5.75781Z" fill="white" stroke="#005E7F" stroke-width="0.768474" stroke-linecap="round" stroke-linejoin="round"/>
<path d="M21.1602 5.75802V3.89062" stroke="#005E7F" stroke-width="0.768474" stroke-linecap="round" stroke-linejoin="round"/>
<path d="M22.4473 5.75802V3.89062" stroke="#005E7F" stroke-width="0.768474" stroke-linecap="round" stroke-linejoin="round"/>
<path d="M22.4486 2.91211H21.1602V3.89063H22.4486V2.91211Z" fill="white" stroke="#005E7F" stroke-width="0.768474" stroke-linecap="round" stroke-linejoin="round"/>
<path d="M21.8031 2.20312C21.4471 2.20312 21.1602 2.49258 21.1602 2.84608H22.4486C22.4486 2.49002 22.1592 2.20312 21.8057 2.20312H21.8031Z" fill="white" stroke="#005E7F" stroke-width="0.768474" stroke-linecap="round" stroke-linejoin="round"/>
<path d="M21.8027 2.20308V0.986328" stroke="#005E7F" stroke-width="0.768474" stroke-linecap="round" stroke-linejoin="round"/>
<path d="M21.8035 1.31206C22.0596 1.31206 22.2671 1.10448 22.2671 0.848412C22.2671 0.592347 22.0596 0.384766 21.8035 0.384766C21.5474 0.384766 21.3398 0.592347 21.3398 0.848412C21.3398 1.10448 21.5474 1.31206 21.8035 1.31206Z" fill="white" stroke="#005E7F" stroke-width="0.768474" stroke-linecap="round" stroke-linejoin="round"/>
<path d="M8.33703 6.20898H0.414062V28.7893H8.33703V6.20898Z" fill="white" stroke="#005E7F" stroke-width="0.768474" stroke-linecap="round" stroke-linejoin="round"/>
<path d="M16.2599 11.752H8.33691V28.789H16.2599V11.752Z" fill="white" stroke="#005E7F" stroke-width="0.768474" stroke-linecap="round" stroke-linejoin="round"/>
<path d="M3.39453 14.2852H13.1618" stroke="#005E7F" stroke-width="0.768474" stroke-linecap="round" stroke-linejoin="round"/>
<path d="M3.39453 11.752H8.33582" stroke="#005E7F" stroke-width="0.768474" stroke-linecap="round" stroke-linejoin="round"/>
<path d="M3.39453 9.22461H8.33582" stroke="#005E7F" stroke-width="0.768474" stroke-linecap="round" stroke-linejoin="round"/>
<path d="M3.39453 16.7852H13.1618" stroke="#005E7F" stroke-width="0.768474" stroke-linecap="round" stroke-linejoin="round"/>
<path d="M3.39453 19.1348H13.1618" stroke="#005E7F" stroke-width="0.768474" stroke-linecap="round" stroke-linejoin="round"/>
<path d="M3.39453 21.5898H13.1618" stroke="#005E7F" stroke-width="0.768474" stroke-linecap="round" stroke-linejoin="round"/>
<path d="M6.50429 24.7285H3.39453V28.7886H6.50429V24.7285Z" stroke="#005E7F" stroke-width="0.768474" stroke-linecap="round" stroke-linejoin="round"/>
<path d="M38.0616 13.1953H30.1387V28.7902H38.0616V13.1953Z" fill="white" stroke="#005E7F" stroke-width="0.768474" stroke-linecap="round" stroke-linejoin="round"/>
<path d="M30.3408 16.7852H38.0563" stroke="#005E7F" stroke-width="0.768474" stroke-linecap="round" stroke-linejoin="round"/>
<path d="M33.417 19.1348H38.056" stroke="#005E7F" stroke-width="0.768474" stroke-linecap="round" stroke-linejoin="round"/>
<path d="M33.417 21.5898H38.056" stroke="#005E7F" stroke-width="0.768474" stroke-linecap="round" stroke-linejoin="round"/>
<path d="M19.6526 21.3496H11.0508V28.791H19.6526V21.3496Z" fill="white" stroke="#005E7F" stroke-width="0.768474" stroke-linecap="round" stroke-linejoin="round"/>
<path d="M20.6153 23.0489H9.83105L11.0068 19.1348H19.4395L20.6153 23.0489Z" stroke="#005E7F" stroke-width="0.768474" stroke-linecap="round" stroke-linejoin="round"/>
<path d="M14.6831 25.1816H12.6953V28.7883H14.6831V25.1816Z" stroke="#005E7F" stroke-width="0.768474" stroke-linecap="round" stroke-linejoin="round"/>
<path d="M33.9641 21.3496H25.3623V28.791H33.9641V21.3496Z" fill="white" stroke="#005E7F" stroke-width="0.768474" stroke-linecap="round" stroke-linejoin="round"/>
<path d="M35.183 23.0508H24.1426L25.3183 19.1367H34.0072L35.183 23.0508Z" stroke="#005E7F" stroke-width="0.768474" stroke-linecap="round" stroke-linejoin="round"/>
<path d="M30.6567 25.1836H28.6689V28.7903H30.6567V25.1836Z" stroke="#005E7F" stroke-width="0.768474" stroke-linecap="round" stroke-linejoin="round"/>
<path d="M28.2202 16.7871H26.5449V20.7268H28.2202V16.7871Z" fill="white" stroke="#005E7F" stroke-width="0.768474" stroke-linecap="round" stroke-linejoin="round"/>
<g clip-path="url(#clip1_876_1287)">
<path d="M37.6621 5.70312H0.380859V28.5102H37.6621V5.70312Z" fill="#939598"/>
<path d="M23.8215 12.2422H19.3037V28.5098H23.8215V12.2422Z" fill="white" stroke="#005E7F" stroke-width="0.760997" stroke-linecap="round" stroke-linejoin="round"/>
<path d="M20.5869 13.1641V28.2876" stroke="#005E7F" stroke-width="0.760997" stroke-linecap="round" stroke-linejoin="round"/>
<path d="M22.3623 13.1641V28.2876" stroke="#005E7F" stroke-width="0.760997" stroke-linecap="round" stroke-linejoin="round"/>
<path d="M19.3037 13.1621H23.819" stroke="#005E7F" stroke-width="0.760997" stroke-linecap="round" stroke-linejoin="round"/>
<path d="M22.2007 8.94531H20.9248V12.1694H22.2007V8.94531Z" fill="white" stroke="#005E7F" stroke-width="0.760997" stroke-linecap="round" stroke-linejoin="round"/>
<path d="M23.4059 8.94287H19.7202L19.5527 8.01953H23.5708L23.4059 8.94287Z" fill="white" stroke="#005E7F" stroke-width="0.760997" stroke-linecap="round" stroke-linejoin="round"/>
<path d="M19.7197 12.002V8.94531" stroke="#005E7F" stroke-width="0.760997" stroke-linecap="round" stroke-linejoin="round"/>
<path d="M23.4053 12.002V8.94531" stroke="#005E7F" stroke-width="0.760997" stroke-linecap="round" stroke-linejoin="round"/>
<path d="M22.2007 5.70312H20.9248V7.82631H22.2007V5.70312Z" fill="white" stroke="#005E7F" stroke-width="0.760997" stroke-linecap="round" stroke-linejoin="round"/>
<path d="M20.9248 5.70274V3.85352" stroke="#005E7F" stroke-width="0.760997" stroke-linecap="round" stroke-linejoin="round"/>
<path d="M22.1982 5.70274V3.85352" stroke="#005E7F" stroke-width="0.760997" stroke-linecap="round" stroke-linejoin="round"/>
<path d="M22.2007 2.88477H20.9248V3.85377H22.2007V2.88477Z" fill="white" stroke="#005E7F" stroke-width="0.760997" stroke-linecap="round" stroke-linejoin="round"/>
<path d="M21.5615 2.18164C21.2089 2.18164 20.9248 2.46828 20.9248 2.81834H22.2007C22.2007 2.46575 21.9141 2.18164 21.564 2.18164H21.5615Z" fill="white" stroke="#005E7F" stroke-width="0.760997" stroke-linecap="round" stroke-linejoin="round"/>
<path d="M21.5615 2.18148V0.976562" stroke="#005E7F" stroke-width="0.760997" stroke-linecap="round" stroke-linejoin="round"/>
<path d="M21.5607 1.29913C21.8143 1.29913 22.0198 1.09357 22.0198 0.839995C22.0198 0.586421 21.8143 0.380859 21.5607 0.380859C21.3071 0.380859 21.1016 0.586421 21.1016 0.839995C21.1016 1.09357 21.3071 1.29913 21.5607 1.29913Z" fill="white" stroke="#005E7F" stroke-width="0.760997" stroke-linecap="round" stroke-linejoin="round"/>
<path d="M8.22674 6.14844H0.380859V28.5091H8.22674V6.14844Z" fill="white" stroke="#005E7F" stroke-width="0.760997" stroke-linecap="round" stroke-linejoin="round"/>
<path d="M16.0715 11.6387H8.22559V28.51H16.0715V11.6387Z" fill="white" stroke="#005E7F" stroke-width="0.760997" stroke-linecap="round" stroke-linejoin="round"/>
<path d="M3.33301 14.1445H13.0053" stroke="#005E7F" stroke-width="0.760997" stroke-linecap="round" stroke-linejoin="round"/>
<path d="M3.33301 11.6387H8.22622" stroke="#005E7F" stroke-width="0.760997" stroke-linecap="round" stroke-linejoin="round"/>
<path d="M3.33301 9.13477H8.22622" stroke="#005E7F" stroke-width="0.760997" stroke-linecap="round" stroke-linejoin="round"/>
<path d="M3.33301 16.623H13.0053" stroke="#005E7F" stroke-width="0.760997" stroke-linecap="round" stroke-linejoin="round"/>
<path d="M3.33301 18.9492H13.0053" stroke="#005E7F" stroke-width="0.760997" stroke-linecap="round" stroke-linejoin="round"/>
<path d="M3.33301 21.3809H13.0053" stroke="#005E7F" stroke-width="0.760997" stroke-linecap="round" stroke-linejoin="round"/>
<path d="M6.41251 24.4883H3.33301V28.5089H6.41251V24.4883Z" stroke="#005E7F" stroke-width="0.760997" stroke-linecap="round" stroke-linejoin="round"/>
<path d="M37.6613 13.0664H29.8154V28.5096H37.6613V13.0664Z" fill="white" stroke="#005E7F" stroke-width="0.760997" stroke-linecap="round" stroke-linejoin="round"/>
<path d="M30.0166 16.623H37.657" stroke="#005E7F" stroke-width="0.760997" stroke-linecap="round" stroke-linejoin="round"/>
<path d="M33.0625 18.9492H37.6564" stroke="#005E7F" stroke-width="0.760997" stroke-linecap="round" stroke-linejoin="round"/>
<path d="M33.0625 21.3809H37.6564" stroke="#005E7F" stroke-width="0.760997" stroke-linecap="round" stroke-linejoin="round"/>
<path d="M19.4302 21.1387H10.9121V28.5077H19.4302V21.1387Z" fill="white" stroke="#005E7F" stroke-width="0.760997" stroke-linecap="round" stroke-linejoin="round"/>
<path d="M20.3844 22.8233H9.70508L10.8694 18.9473H19.2201L20.3844 22.8233Z" stroke="#005E7F" stroke-width="0.760997" stroke-linecap="round" stroke-linejoin="round"/>
<path d="M14.5095 24.9355H12.541V28.5072H14.5095V24.9355Z" stroke="#005E7F" stroke-width="0.760997" stroke-linecap="round" stroke-linejoin="round"/>
<path d="M33.6031 21.1406H25.085V28.5096H33.6031V21.1406Z" fill="white" stroke="#005E7F" stroke-width="0.760997" stroke-linecap="round" stroke-linejoin="round"/>
<path d="M34.8109 22.8252H23.8779L25.0423 18.9492H33.6466L34.8109 22.8252Z" stroke="#005E7F" stroke-width="0.760997" stroke-linecap="round" stroke-linejoin="round"/>
<path d="M30.3288 24.9375H28.3604V28.5091H30.3288V24.9375Z" stroke="#005E7F" stroke-width="0.760997" stroke-linecap="round" stroke-linejoin="round"/>
<path d="M27.9158 16.623H26.2568V20.5244H27.9158V16.623Z" fill="white" stroke="#005E7F" stroke-width="0.760997" stroke-linecap="round" stroke-linejoin="round"/>
</g>
</g>
<defs>
<clipPath id="clip0_876_1287">
<rect width="38.416" height="29.1738" fill="white" transform="translate(0.0292969)"/>
</clipPath>
<clipPath id="clip1_876_1287">
<rect width="38.0423" height="28.89" fill="white"/>
</clipPath>
</defs>
</svg>
