<svg width="566" height="78" viewBox="0 0 566 78" fill="none" xmlns="http://www.w3.org/2000/svg">
<path d="M226.141 0H201.141V25H226.141V0Z" fill="#81F7E9"/>
<path d="M235.521 17.6705C234.839 17.6705 234.238 17.4982 233.716 17.1538C233.194 16.8058 232.785 16.3157 232.49 15.6836C232.196 15.0479 232.048 14.2969 232.048 13.4304C232.048 12.571 232.196 11.8253 232.49 11.1932C232.785 10.5611 233.195 10.0728 233.721 9.72834C234.246 9.38388 234.854 9.21165 235.543 9.21165C236.075 9.21165 236.496 9.30043 236.805 9.47798C237.118 9.65199 237.355 9.85085 237.519 10.0746C237.686 10.2947 237.815 10.4759 237.908 10.6179H238.014V6.59091H239.271V17.5H238.057V16.2429H237.908C237.815 16.392 237.684 16.5803 237.513 16.8075C237.343 17.0313 237.1 17.2319 236.784 17.4094C236.468 17.5835 236.047 17.6705 235.521 17.6705ZM235.692 16.5412C236.196 16.5412 236.622 16.4098 236.97 16.147C237.318 15.8807 237.583 15.5131 237.764 15.0444C237.945 14.5721 238.036 14.027 238.036 13.4091C238.036 12.7983 237.947 12.2638 237.769 11.8058C237.592 11.3441 237.329 10.9854 236.981 10.7298C236.633 10.4705 236.203 10.3409 235.692 10.3409C235.159 10.3409 234.715 10.4776 234.36 10.7511C234.009 11.021 233.744 11.3885 233.566 11.8537C233.392 12.3153 233.305 12.8338 233.305 13.4091C233.305 13.9915 233.394 14.5206 233.572 14.9964C233.753 15.4688 234.019 15.8452 234.371 16.1257C234.726 16.4027 235.166 16.5412 235.692 16.5412ZM245.179 17.6705C244.39 17.6705 243.71 17.4964 243.138 17.1484C242.57 16.7969 242.132 16.3068 241.823 15.6783C241.517 15.0462 241.365 14.3111 241.365 13.473C241.365 12.6349 241.517 11.8963 241.823 11.2571C242.132 10.6143 242.561 10.1136 243.112 9.75497C243.666 9.39276 244.312 9.21165 245.051 9.21165C245.477 9.21165 245.898 9.28267 246.313 9.42472C246.729 9.56676 247.107 9.79759 247.448 10.1172C247.789 10.4332 248.06 10.8523 248.263 11.3743C248.465 11.8963 248.566 12.5391 248.566 13.3026V13.8352H242.26V12.7486H247.288C247.288 12.2869 247.196 11.875 247.011 11.5128C246.83 11.1506 246.571 10.8647 246.233 10.6552C245.9 10.4457 245.505 10.3409 245.051 10.3409C244.55 10.3409 244.117 10.4652 243.751 10.7138C243.389 10.9588 243.11 11.2784 242.915 11.6726C242.719 12.0668 242.622 12.4893 242.622 12.9403V13.6648C242.622 14.2827 242.728 14.8065 242.941 15.2362C243.158 15.6623 243.458 15.9872 243.842 16.2109C244.225 16.4311 244.671 16.5412 245.179 16.5412C245.509 16.5412 245.807 16.495 246.074 16.4027C246.343 16.3068 246.576 16.1648 246.771 15.9766C246.967 15.7848 247.118 15.5469 247.224 15.2628L248.439 15.6037C248.311 16.0156 248.096 16.3778 247.794 16.6903C247.492 16.9993 247.119 17.2408 246.675 17.4148C246.232 17.5852 245.733 17.6705 245.179 17.6705ZM254.676 17.5V16.5412L258.277 12.5994C258.7 12.1378 259.048 11.7365 259.321 11.3956C259.594 11.0511 259.797 10.728 259.928 10.4261C260.063 10.1207 260.131 9.80114 260.131 9.46733C260.131 9.08381 260.038 8.75178 259.854 8.47124C259.673 8.1907 259.424 7.97408 259.108 7.82138C258.792 7.66868 258.437 7.59233 258.043 7.59233C257.624 7.59233 257.258 7.67933 256.945 7.85334C256.636 8.02379 256.397 8.26349 256.226 8.57244C256.059 8.88139 255.976 9.24361 255.976 9.65909H254.719C254.719 9.01989 254.866 8.45881 255.161 7.97585C255.456 7.4929 255.857 7.11648 256.365 6.84659C256.876 6.57671 257.45 6.44176 258.085 6.44176C258.724 6.44176 259.291 6.57671 259.784 6.84659C260.278 7.11648 260.665 7.48047 260.946 7.93857C261.226 8.39666 261.366 8.90625 261.366 9.46733C261.366 9.86861 261.294 10.261 261.148 10.6445C261.006 11.0245 260.757 11.4489 260.402 11.9176C260.051 12.3828 259.562 12.951 258.937 13.6222L256.487 16.2429V16.3281H261.558V17.5H254.676ZM265.654 16.0085L265.569 16.5838C265.509 16.9886 265.417 17.4219 265.292 17.8835C265.172 18.3452 265.045 18.7802 264.914 19.1886C264.783 19.5969 264.674 19.9219 264.589 20.1634H263.63C263.676 19.9361 263.737 19.636 263.811 19.2631C263.886 18.8903 263.961 18.473 264.035 18.0114C264.113 17.5533 264.177 17.0845 264.227 16.6051L264.291 16.0085H265.654ZM271.152 17.6491C270.527 17.6491 269.964 17.5249 269.463 17.2763C268.962 17.0277 268.561 16.6868 268.259 16.2536C267.957 15.8203 267.792 15.3267 267.764 14.7727H269.042C269.092 15.2663 269.316 15.6747 269.713 15.9979C270.115 16.3175 270.594 16.4773 271.152 16.4773C271.599 16.4773 271.997 16.3725 272.345 16.163C272.696 15.9535 272.972 15.6658 273.17 15.3001C273.373 14.9308 273.474 14.5135 273.474 14.0483C273.474 13.5724 273.369 13.1481 273.16 12.7752C272.954 12.3988 272.67 12.1023 272.308 11.8857C271.945 11.669 271.532 11.5589 271.066 11.5554C270.733 11.5518 270.39 11.6033 270.038 11.7099C269.687 11.8129 269.397 11.946 269.17 12.1094L267.934 11.9602L268.595 6.59091H274.262V7.76279H269.703L269.319 10.9801H269.383C269.607 10.8026 269.887 10.6552 270.225 10.538C270.562 10.4208 270.914 10.3622 271.279 10.3622C271.947 10.3622 272.542 10.522 273.064 10.8416C273.589 11.1577 274.001 11.5909 274.3 12.1413C274.602 12.6918 274.752 13.3203 274.752 14.027C274.752 14.723 274.596 15.3445 274.284 15.8913C273.975 16.4347 273.549 16.8643 273.005 17.1804C272.462 17.4929 271.844 17.6491 271.152 17.6491ZM279.148 11.4063C278.697 11.4063 278.285 11.2962 277.913 11.076C277.543 10.8558 277.248 10.5611 277.028 10.1918C276.808 9.81889 276.698 9.40696 276.698 8.95597C276.698 8.50497 276.808 8.09482 277.028 7.7255C277.248 7.35263 277.543 7.05611 277.913 6.83594C278.285 6.61577 278.697 6.50568 279.148 6.50568C279.599 6.50568 280.009 6.61577 280.379 6.83594C280.752 7.05611 281.048 7.35263 281.268 7.7255C281.489 8.09482 281.599 8.50497 281.599 8.95597C281.599 9.40696 281.489 9.81889 281.268 10.1918C281.048 10.5611 280.752 10.8558 280.379 11.076C280.009 11.2962 279.599 11.4063 279.148 11.4063ZM279.148 10.3409C279.404 10.3409 279.637 10.2788 279.846 10.1545C280.056 10.0302 280.223 9.86328 280.347 9.65377C280.471 9.44425 280.533 9.21165 280.533 8.95597C280.533 8.70028 280.471 8.46769 280.347 8.25817C280.223 8.04865 280.056 7.88175 279.846 7.75746C279.637 7.63317 279.404 7.57102 279.148 7.57102C278.893 7.57102 278.66 7.63317 278.451 7.75746C278.241 7.88175 278.074 8.04865 277.95 8.25817C277.826 8.46769 277.763 8.70028 277.763 8.95597C277.763 9.21165 277.826 9.44425 277.95 9.65377C278.074 9.86328 278.241 10.0302 278.451 10.1545C278.66 10.2788 278.893 10.3409 279.148 10.3409ZM292.474 10H291.153C291.075 9.62003 290.939 9.28622 290.743 8.99858C290.551 8.71094 290.317 8.46946 290.04 8.27415C289.767 8.07529 289.463 7.92614 289.129 7.82671C288.795 7.72727 288.447 7.67756 288.085 7.67756C287.425 7.67756 286.826 7.84446 286.29 8.17827C285.757 8.51207 285.333 9.00391 285.017 9.65377C284.705 10.3036 284.548 11.1009 284.548 12.0455C284.548 12.9901 284.705 13.7873 285.017 14.4371C285.333 15.087 285.757 15.5788 286.29 15.9126C286.826 16.2464 287.425 16.4134 288.085 16.4134C288.447 16.4134 288.795 16.3636 289.129 16.2642C289.463 16.1648 289.767 16.0174 290.04 15.8221C290.317 15.6232 290.551 15.38 290.743 15.0923C290.939 14.8011 291.075 14.4673 291.153 14.0909H292.474C292.375 14.6484 292.194 15.1474 291.931 15.5877C291.668 16.0281 291.342 16.4027 290.951 16.7116C290.56 17.017 290.122 17.2496 289.635 17.4094C289.152 17.5692 288.636 17.6491 288.085 17.6491C287.155 17.6491 286.327 17.4219 285.603 16.9673C284.879 16.5128 284.309 15.8665 283.893 15.0284C283.478 14.1903 283.27 13.196 283.27 12.0455C283.27 10.8949 283.478 9.90057 283.893 9.0625C284.309 8.22443 284.879 7.57813 285.603 7.12358C286.327 6.66904 287.155 6.44176 288.085 6.44176C288.636 6.44176 289.152 6.52166 289.635 6.68146C290.122 6.84127 290.56 7.07564 290.951 7.38459C291.342 7.68999 291.668 8.06286 291.931 8.5032C292.194 8.93999 292.375 9.43892 292.474 10ZM301.065 17.6918C300.547 17.6918 300.076 17.5941 299.653 17.3988C299.231 17.1999 298.895 16.9141 298.647 16.5412C298.398 16.1648 298.274 15.7102 298.274 15.1776C298.274 14.7088 298.366 14.3288 298.551 14.0376C298.736 13.7429 298.982 13.5121 299.291 13.3452C299.6 13.1783 299.941 13.054 300.314 12.9723C300.69 12.8871 301.069 12.8196 301.449 12.7699C301.946 12.706 302.349 12.658 302.658 12.6261C302.97 12.5906 303.198 12.532 303.34 12.4503C303.485 12.3686 303.558 12.2266 303.558 12.0241V11.9815C303.558 11.456 303.414 11.0476 303.127 10.7564C302.842 10.4652 302.411 10.3196 301.832 10.3196C301.232 10.3196 300.761 10.451 300.421 10.7138C300.08 10.9766 299.84 11.2571 299.701 11.5554L298.508 11.1293C298.721 10.6321 299.005 10.245 299.361 9.96804C299.719 9.6875 300.11 9.49219 300.532 9.3821C300.959 9.26847 301.378 9.21165 301.789 9.21165C302.052 9.21165 302.354 9.24361 302.695 9.30753C303.039 9.3679 303.372 9.49396 303.691 9.68572C304.014 9.87749 304.282 10.1669 304.495 10.554C304.709 10.9411 304.815 11.4595 304.815 12.1094V17.5H303.558V16.392H303.494C303.409 16.5696 303.267 16.7596 303.068 16.962C302.869 17.1644 302.604 17.3366 302.274 17.4787C301.944 17.6207 301.541 17.6918 301.065 17.6918ZM301.257 16.5625C301.754 16.5625 302.173 16.4648 302.514 16.2695C302.858 16.0742 303.118 15.8221 303.292 15.5131C303.469 15.2042 303.558 14.8793 303.558 14.5384V13.3878C303.505 13.4517 303.388 13.5103 303.206 13.5636C303.029 13.6133 302.823 13.6577 302.589 13.6967C302.358 13.7322 302.132 13.7642 301.912 13.7926C301.695 13.8175 301.52 13.8388 301.385 13.8565C301.058 13.8991 300.753 13.9684 300.468 14.0643C300.188 14.1566 299.961 14.2969 299.787 14.4851C299.616 14.6697 299.531 14.9219 299.531 15.2415C299.531 15.6783 299.693 16.0085 300.016 16.2322C300.342 16.4524 300.756 16.5625 301.257 16.5625ZM301.342 8.21023L299.68 5.73864H301.15L302.45 8.21023H301.342ZM314.524 15.5824V8.55114H315.717V15.5824H314.524ZM311.605 12.6634V11.4702H318.637V12.6634H311.605ZM329.1 17.6491C328.396 17.6491 327.77 17.5284 327.219 17.2869C326.672 17.0455 326.237 16.7099 325.914 16.2802C325.595 15.8469 325.421 15.3445 325.392 14.7727H326.734C326.763 15.1243 326.884 15.4279 327.097 15.6836C327.31 15.9357 327.589 16.131 327.933 16.2695C328.277 16.408 328.659 16.4773 329.078 16.4773C329.547 16.4773 329.962 16.3956 330.325 16.2322C330.687 16.0689 330.971 15.8416 331.177 15.5504C331.383 15.2592 331.486 14.9219 331.486 14.5384C331.486 14.1371 331.386 13.7837 331.188 13.4783C330.989 13.1694 330.698 12.9279 330.314 12.7539C329.93 12.5799 329.462 12.4929 328.908 12.4929H328.034V11.321H328.908C329.341 11.321 329.721 11.2429 330.048 11.0866C330.378 10.9304 330.635 10.7102 330.82 10.4261C331.008 10.142 331.102 9.80824 331.102 9.42472C331.102 9.0554 331.021 8.73402 330.857 8.46058C330.694 8.18715 330.463 7.97408 330.165 7.82138C329.87 7.66868 329.522 7.59233 329.121 7.59233C328.744 7.59233 328.389 7.66158 328.055 7.80007C327.725 7.93502 327.455 8.1321 327.246 8.39134C327.036 8.64702 326.923 8.95597 326.905 9.31818H325.627C325.648 8.74645 325.82 8.24574 326.143 7.81605C326.466 7.38281 326.889 7.04546 327.411 6.80398C327.937 6.5625 328.514 6.44176 329.142 6.44176C329.817 6.44176 330.396 6.57848 330.879 6.85192C331.362 7.1218 331.733 7.47869 331.992 7.92259C332.251 8.36648 332.381 8.84588 332.381 9.3608C332.381 9.97514 332.219 10.4989 331.896 10.9322C331.576 11.3654 331.141 11.6655 330.591 11.8324V11.9176C331.28 12.0313 331.818 12.3242 332.205 12.7965C332.592 13.2653 332.786 13.8459 332.786 14.5384C332.786 15.1314 332.624 15.6641 332.301 16.1364C331.981 16.6051 331.544 16.9744 330.99 17.2443C330.437 17.5142 329.806 17.6491 329.1 17.6491ZM337.244 11.4063C336.793 11.4063 336.381 11.2962 336.008 11.076C335.639 10.8558 335.344 10.5611 335.124 10.1918C334.904 9.81889 334.794 9.40696 334.794 8.95597C334.794 8.50497 334.904 8.09482 335.124 7.7255C335.344 7.35263 335.639 7.05611 336.008 6.83594C336.381 6.61577 336.793 6.50568 337.244 6.50568C337.695 6.50568 338.105 6.61577 338.475 6.83594C338.847 7.05611 339.144 7.35263 339.364 7.7255C339.584 8.09482 339.694 8.50497 339.694 8.95597C339.694 9.40696 339.584 9.81889 339.364 10.1918C339.144 10.5611 338.847 10.8558 338.475 11.076C338.105 11.2962 337.695 11.4063 337.244 11.4063ZM337.244 10.3409C337.5 10.3409 337.732 10.2788 337.942 10.1545C338.151 10.0302 338.318 9.86328 338.443 9.65377C338.567 9.44425 338.629 9.21165 338.629 8.95597C338.629 8.70028 338.567 8.46769 338.443 8.25817C338.318 8.04865 338.151 7.88175 337.942 7.75746C337.732 7.63317 337.5 7.57102 337.244 7.57102C336.988 7.57102 336.756 7.63317 336.546 7.75746C336.337 7.88175 336.17 8.04865 336.046 8.25817C335.921 8.46769 335.859 8.70028 335.859 8.95597C335.859 9.21165 335.921 9.44425 336.046 9.65377C336.17 9.86328 336.337 10.0302 336.546 10.1545C336.756 10.2788 336.988 10.3409 337.244 10.3409ZM350.57 10H349.249C349.171 9.62003 349.034 9.28622 348.839 8.99858C348.647 8.71094 348.413 8.46946 348.136 8.27415C347.862 8.07529 347.559 7.92614 347.225 7.82671C346.891 7.72727 346.543 7.67756 346.181 7.67756C345.52 7.67756 344.922 7.84446 344.386 8.17827C343.853 8.51207 343.429 9.00391 343.113 9.65377C342.8 10.3036 342.644 11.1009 342.644 12.0455C342.644 12.9901 342.8 13.7873 343.113 14.4371C343.429 15.087 343.853 15.5788 344.386 15.9126C344.922 16.2464 345.52 16.4134 346.181 16.4134C346.543 16.4134 346.891 16.3636 347.225 16.2642C347.559 16.1648 347.862 16.0174 348.136 15.8221C348.413 15.6232 348.647 15.38 348.839 15.0923C349.034 14.8011 349.171 14.4673 349.249 14.0909H350.57C350.471 14.6484 350.29 15.1474 350.027 15.5877C349.764 16.0281 349.437 16.4027 349.047 16.7116C348.656 17.017 348.217 17.2496 347.731 17.4094C347.248 17.5692 346.731 17.6491 346.181 17.6491C345.251 17.6491 344.423 17.4219 343.699 16.9673C342.974 16.5128 342.404 15.8665 341.989 15.0284C341.573 14.1903 341.366 13.196 341.366 12.0455C341.366 10.8949 341.573 9.90057 341.989 9.0625C342.404 8.22443 342.974 7.57813 343.699 7.12358C344.423 6.66904 345.251 6.44176 346.181 6.44176C346.731 6.44176 347.248 6.52166 347.731 6.68146C348.217 6.84127 348.656 7.07564 349.047 7.38459C349.437 7.68999 349.764 8.06286 350.027 8.5032C350.29 8.93999 350.471 9.43892 350.57 10Z" fill="black"/>
<path d="M44 0H19V25H44V0Z" fill="#7E86AC"/>
<path d="M53.3807 17.6705C52.6989 17.6705 52.0969 17.4982 51.5749 17.1538C51.0529 16.8058 50.6445 16.3157 50.3498 15.6836C50.055 15.0479 49.9077 14.2969 49.9077 13.4304C49.9077 12.571 50.055 11.8253 50.3498 11.1932C50.6445 10.5611 51.0547 10.0728 51.5803 9.72834C52.1058 9.38388 52.7131 9.21165 53.402 9.21165C53.9347 9.21165 54.3555 9.30043 54.6644 9.47798C54.9769 9.65199 55.2148 9.85085 55.3782 10.0746C55.5451 10.2947 55.6747 10.4759 55.767 10.6179H55.8736V6.59091H57.1307V17.5H55.9162V16.2429H55.767C55.6747 16.392 55.5433 16.5803 55.3729 16.8075C55.2024 17.0313 54.9592 17.2319 54.6431 17.4094C54.3271 17.5835 53.9062 17.6705 53.3807 17.6705ZM53.5511 16.5412C54.0554 16.5412 54.4815 16.4098 54.8295 16.147C55.1776 15.8807 55.4421 15.5131 55.6232 15.0444C55.8043 14.5721 55.8949 14.027 55.8949 13.4091C55.8949 12.7983 55.8061 12.2638 55.6286 11.8058C55.451 11.3441 55.1882 10.9854 54.8402 10.7298C54.4922 10.4705 54.0625 10.3409 53.5511 10.3409C53.0185 10.3409 52.5746 10.4776 52.2195 10.7511C51.8679 11.021 51.6033 11.3885 51.4258 11.8537C51.2518 12.3153 51.1648 12.8338 51.1648 13.4091C51.1648 13.9915 51.2536 14.5206 51.4311 14.9964C51.6122 15.4688 51.8786 15.8452 52.2301 16.1257C52.5852 16.4027 53.0256 16.5412 53.5511 16.5412ZM63.038 17.6705C62.2496 17.6705 61.5696 17.4964 60.9979 17.1484C60.4297 16.7969 59.9911 16.3068 59.6822 15.6783C59.3768 15.0462 59.2241 14.3111 59.2241 13.473C59.2241 12.6349 59.3768 11.8963 59.6822 11.2571C59.9911 10.6143 60.4208 10.1136 60.9712 9.75497C61.5252 9.39276 62.1715 9.21165 62.9102 9.21165C63.3363 9.21165 63.7571 9.28267 64.1726 9.42472C64.5881 9.56676 64.9663 9.79759 65.3072 10.1172C65.6481 10.4332 65.9197 10.8523 66.1222 11.3743C66.3246 11.8963 66.4258 12.5391 66.4258 13.3026V13.8352H60.119V12.7486H65.1474C65.1474 12.2869 65.055 11.875 64.8704 11.5128C64.6893 11.1506 64.43 10.8647 64.0927 10.6552C63.7589 10.4457 63.3647 10.3409 62.9102 10.3409C62.4094 10.3409 61.9762 10.4652 61.6104 10.7138C61.2482 10.9588 60.9695 11.2784 60.7741 11.6726C60.5788 12.0668 60.4812 12.4893 60.4812 12.9403V13.6648C60.4812 14.2827 60.5877 14.8065 60.8008 15.2362C61.0174 15.6623 61.3175 15.9872 61.701 16.2109C62.0845 16.4311 62.5302 16.5412 63.038 16.5412C63.3683 16.5412 63.6665 16.495 63.9329 16.4027C64.2028 16.3068 64.4354 16.1648 64.6307 15.9766C64.826 15.7848 64.9769 15.5469 65.0835 15.2628L66.2979 15.6037C66.1701 16.0156 65.9553 16.3778 65.6534 16.6903C65.3516 16.9993 64.9787 17.2408 64.5348 17.4148C64.0909 17.5852 63.592 17.6705 63.038 17.6705ZM81.9318 12.0455C81.9318 13.196 81.7241 14.1903 81.3086 15.0284C80.8931 15.8665 80.3232 16.5128 79.5987 16.9673C78.8743 17.4219 78.0469 17.6491 77.1165 17.6491C76.1861 17.6491 75.3587 17.4219 74.6342 16.9673C73.9098 16.5128 73.3398 15.8665 72.9244 15.0284C72.5089 14.1903 72.3011 13.196 72.3011 12.0455C72.3011 10.8949 72.5089 9.90057 72.9244 9.0625C73.3398 8.22443 73.9098 7.57813 74.6342 7.12358C75.3587 6.66904 76.1861 6.44176 77.1165 6.44176C78.0469 6.44176 78.8743 6.66904 79.5987 7.12358C80.3232 7.57813 80.8931 8.22443 81.3086 9.0625C81.7241 9.90057 81.9318 10.8949 81.9318 12.0455ZM80.6534 12.0455C80.6534 11.1009 80.4954 10.3036 80.1793 9.65377C79.8668 9.00391 79.4425 8.51207 78.9062 8.17827C78.3736 7.84446 77.777 7.67756 77.1165 7.67756C76.456 7.67756 75.8576 7.84446 75.3214 8.17827C74.7887 8.51207 74.3643 9.00391 74.0483 9.65377C73.7358 10.3036 73.5795 11.1009 73.5795 12.0455C73.5795 12.9901 73.7358 13.7873 74.0483 14.4371C74.3643 15.087 74.7887 15.5788 75.3214 15.9126C75.8576 16.2464 76.456 16.4134 77.1165 16.4134C77.777 16.4134 78.3736 16.2464 78.9062 15.9126C79.4425 15.5788 79.8668 15.087 80.1793 14.4371C80.4954 13.7873 80.6534 12.9901 80.6534 12.0455ZM86.2411 11.4063C85.7901 11.4063 85.3782 11.2962 85.0053 11.076C84.636 10.8558 84.3413 10.5611 84.1211 10.1918C83.9009 9.81889 83.7908 9.40696 83.7908 8.95597C83.7908 8.50497 83.9009 8.09482 84.1211 7.7255C84.3413 7.35263 84.636 7.05611 85.0053 6.83594C85.3782 6.61577 85.7901 6.50568 86.2411 6.50568C86.6921 6.50568 87.1023 6.61577 87.4716 6.83594C87.8445 7.05611 88.141 7.35263 88.3611 7.7255C88.5813 8.09482 88.6914 8.50497 88.6914 8.95597C88.6914 9.40696 88.5813 9.81889 88.3611 10.1918C88.141 10.5611 87.8445 10.8558 87.4716 11.076C87.1023 11.2962 86.6921 11.4063 86.2411 11.4063ZM86.2411 10.3409C86.4968 10.3409 86.7294 10.2788 86.9389 10.1545C87.1484 10.0302 87.3153 9.86328 87.4396 9.65377C87.5639 9.44425 87.6261 9.21165 87.6261 8.95597C87.6261 8.70028 87.5639 8.46769 87.4396 8.25817C87.3153 8.04865 87.1484 7.88175 86.9389 7.75746C86.7294 7.63317 86.4968 7.57102 86.2411 7.57102C85.9854 7.57102 85.7528 7.63317 85.5433 7.75746C85.3338 7.88175 85.1669 8.04865 85.0426 8.25817C84.9183 8.46769 84.8562 8.70028 84.8562 8.95597C84.8562 9.21165 84.9183 9.44425 85.0426 9.65377C85.1669 9.86328 85.3338 10.0302 85.5433 10.1545C85.7528 10.2788 85.9854 10.3409 86.2411 10.3409ZM99.5672 10H98.2462C98.1681 9.62003 98.0313 9.28622 97.836 8.99858C97.6443 8.71094 97.4099 8.46946 97.1329 8.27415C96.8595 8.07529 96.5558 7.92614 96.222 7.82671C95.8882 7.72727 95.5402 7.67756 95.178 7.67756C94.5175 7.67756 93.9191 7.84446 93.3829 8.17827C92.8502 8.51207 92.4259 9.00391 92.1098 9.65377C91.7973 10.3036 91.6411 11.1009 91.6411 12.0455C91.6411 12.9901 91.7973 13.7873 92.1098 14.4371C92.4259 15.087 92.8502 15.5788 93.3829 15.9126C93.9191 16.2464 94.5175 16.4134 95.178 16.4134C95.5402 16.4134 95.8882 16.3636 96.222 16.2642C96.5558 16.1648 96.8595 16.0174 97.1329 15.8221C97.4099 15.6232 97.6443 15.38 97.836 15.0923C98.0313 14.8011 98.1681 14.4673 98.2462 14.0909H99.5672C99.4678 14.6484 99.2867 15.1474 99.0239 15.5877C98.7611 16.0281 98.4344 16.4027 98.0438 16.7116C97.6531 17.017 97.2146 17.2496 96.7281 17.4094C96.2451 17.5692 95.7284 17.6491 95.178 17.6491C94.2476 17.6491 93.4202 17.4219 92.6958 16.9673C91.9713 16.5128 91.4014 15.8665 90.9859 15.0284C90.5704 14.1903 90.3627 13.196 90.3627 12.0455C90.3627 10.8949 90.5704 9.90057 90.9859 9.0625C91.4014 8.22443 91.9713 7.57813 92.6958 7.12358C93.4202 6.66904 94.2476 6.44176 95.178 6.44176C95.7284 6.44176 96.2451 6.52166 96.7281 6.68146C97.2146 6.84127 97.6531 7.07564 98.0438 7.38459C98.4344 7.68999 98.7611 8.06286 99.0239 8.5032C99.2867 8.93999 99.4678 9.43892 99.5672 10ZM108.158 17.6918C107.639 17.6918 107.169 17.5941 106.746 17.3988C106.324 17.1999 105.988 16.9141 105.74 16.5412C105.491 16.1648 105.367 15.7102 105.367 15.1776C105.367 14.7088 105.459 14.3288 105.644 14.0376C105.828 13.7429 106.075 13.5121 106.384 13.3452C106.693 13.1783 107.034 13.054 107.407 12.9723C107.783 12.8871 108.161 12.8196 108.541 12.7699C109.039 12.706 109.442 12.658 109.751 12.6261C110.063 12.5906 110.29 12.532 110.432 12.4503C110.578 12.3686 110.651 12.2266 110.651 12.0241V11.9815C110.651 11.456 110.507 11.0476 110.219 10.7564C109.935 10.4652 109.504 10.3196 108.925 10.3196C108.325 10.3196 107.854 10.451 107.513 10.7138C107.172 10.9766 106.933 11.2571 106.794 11.5554L105.601 11.1293C105.814 10.6321 106.098 10.245 106.453 9.96804C106.812 9.6875 107.203 9.49219 107.625 9.3821C108.051 9.26847 108.47 9.21165 108.882 9.21165C109.145 9.21165 109.447 9.24361 109.788 9.30753C110.132 9.3679 110.464 9.49396 110.784 9.68572C111.107 9.87749 111.375 10.1669 111.588 10.554C111.801 10.9411 111.908 11.4595 111.908 12.1094V17.5H110.651V16.392H110.587C110.502 16.5696 110.36 16.7596 110.161 16.962C109.962 17.1644 109.697 17.3366 109.367 17.4787C109.037 17.6207 108.634 17.6918 108.158 17.6918ZM108.35 16.5625C108.847 16.5625 109.266 16.4648 109.607 16.2695C109.951 16.0742 110.21 15.8221 110.384 15.5131C110.562 15.2042 110.651 14.8793 110.651 14.5384V13.3878C110.597 13.4517 110.48 13.5103 110.299 13.5636C110.122 13.6133 109.916 13.6577 109.681 13.6967C109.45 13.7322 109.225 13.7642 109.005 13.7926C108.788 13.8175 108.612 13.8388 108.477 13.8565C108.151 13.8991 107.845 13.9684 107.561 14.0643C107.281 14.1566 107.053 14.2969 106.879 14.4851C106.709 14.6697 106.624 14.9219 106.624 15.2415C106.624 15.6783 106.785 16.0085 107.108 16.2322C107.435 16.4524 107.849 16.5625 108.35 16.5625ZM108.435 8.21023L106.773 5.73864H108.243L109.543 8.21023H108.435ZM121.617 15.5824V8.55114H122.81V15.5824H121.617ZM118.698 12.6634V11.4702H125.729V12.6634H118.698ZM132.506 17.5V16.5412L136.107 12.5994C136.53 12.1378 136.878 11.7365 137.151 11.3956C137.425 11.0511 137.627 10.728 137.758 10.4261C137.893 10.1207 137.961 9.80114 137.961 9.46733C137.961 9.08381 137.868 8.75178 137.684 8.47124C137.503 8.1907 137.254 7.97408 136.938 7.82138C136.622 7.66868 136.267 7.59233 135.873 7.59233C135.454 7.59233 135.088 7.67933 134.775 7.85334C134.466 8.02379 134.227 8.26349 134.056 8.57244C133.889 8.88139 133.806 9.24361 133.806 9.65909H132.549C132.549 9.01989 132.696 8.45881 132.991 7.97585C133.286 7.4929 133.687 7.11648 134.195 6.84659C134.706 6.57671 135.28 6.44176 135.915 6.44176C136.555 6.44176 137.121 6.57671 137.615 6.84659C138.108 7.11648 138.495 7.48047 138.776 7.93857C139.056 8.39666 139.197 8.90625 139.197 9.46733C139.197 9.86861 139.124 10.261 138.978 10.6445C138.836 11.0245 138.588 11.4489 138.232 11.9176C137.881 12.3828 137.393 12.951 136.768 13.6222L134.317 16.2429V16.3281H139.388V17.5H132.506ZM143.485 16.0085L143.399 16.5838C143.339 16.9886 143.247 17.4219 143.122 17.8835C143.002 18.3452 142.876 18.7802 142.744 19.1886C142.613 19.5969 142.504 19.9219 142.419 20.1634H141.46C141.507 19.9361 141.567 19.636 141.642 19.2631C141.716 18.8903 141.791 18.473 141.865 18.0114C141.943 17.5533 142.007 17.0845 142.057 16.6051L142.121 16.0085H143.485ZM148.982 17.6491C148.357 17.6491 147.794 17.5249 147.293 17.2763C146.792 17.0277 146.391 16.6868 146.089 16.2536C145.787 15.8203 145.622 15.3267 145.594 14.7727H146.872C146.922 15.2663 147.146 15.6747 147.543 15.9979C147.945 16.3175 148.424 16.4773 148.982 16.4773C149.429 16.4773 149.827 16.3725 150.175 16.163C150.526 15.9535 150.802 15.6658 151.001 15.3001C151.203 14.9308 151.304 14.5135 151.304 14.0483C151.304 13.5724 151.199 13.1481 150.99 12.7752C150.784 12.3988 150.5 12.1023 150.138 11.8857C149.775 11.669 149.362 11.5589 148.896 11.5554C148.563 11.5518 148.22 11.6033 147.868 11.7099C147.517 11.8129 147.227 11.946 147 12.1094L145.764 11.9602L146.425 6.59091H152.092V7.76279H147.533L147.149 10.9801H147.213C147.437 10.8026 147.717 10.6552 148.055 10.538C148.392 10.4208 148.744 10.3622 149.11 10.3622C149.777 10.3622 150.372 10.522 150.894 10.8416C151.42 11.1577 151.831 11.5909 152.13 12.1413C152.432 12.6918 152.583 13.3203 152.583 14.027C152.583 14.723 152.426 15.3445 152.114 15.8913C151.805 16.4347 151.379 16.8643 150.835 17.1804C150.292 17.4929 149.674 17.6491 148.982 17.6491ZM156.978 11.4063C156.527 11.4063 156.115 11.2962 155.743 11.076C155.373 10.8558 155.079 10.5611 154.858 10.1918C154.638 9.81889 154.528 9.40696 154.528 8.95597C154.528 8.50497 154.638 8.09482 154.858 7.7255C155.079 7.35263 155.373 7.05611 155.743 6.83594C156.115 6.61577 156.527 6.50568 156.978 6.50568C157.429 6.50568 157.84 6.61577 158.209 6.83594C158.582 7.05611 158.878 7.35263 159.098 7.7255C159.319 8.09482 159.429 8.50497 159.429 8.95597C159.429 9.40696 159.319 9.81889 159.098 10.1918C158.878 10.5611 158.582 10.8558 158.209 11.076C157.84 11.2962 157.429 11.4063 156.978 11.4063ZM156.978 10.3409C157.234 10.3409 157.467 10.2788 157.676 10.1545C157.886 10.0302 158.053 9.86328 158.177 9.65377C158.301 9.44425 158.363 9.21165 158.363 8.95597C158.363 8.70028 158.301 8.46769 158.177 8.25817C158.053 8.04865 157.886 7.88175 157.676 7.75746C157.467 7.63317 157.234 7.57102 156.978 7.57102C156.723 7.57102 156.49 7.63317 156.281 7.75746C156.071 7.88175 155.904 8.04865 155.78 8.25817C155.656 8.46769 155.593 8.70028 155.593 8.95597C155.593 9.21165 155.656 9.44425 155.78 9.65377C155.904 9.86328 156.071 10.0302 156.281 10.1545C156.49 10.2788 156.723 10.3409 156.978 10.3409ZM170.304 10H168.983C168.905 9.62003 168.769 9.28622 168.573 8.99858C168.382 8.71094 168.147 8.46946 167.87 8.27415C167.597 8.07529 167.293 7.92614 166.959 7.82671C166.626 7.72727 166.278 7.67756 165.915 7.67756C165.255 7.67756 164.656 7.84446 164.12 8.17827C163.588 8.51207 163.163 9.00391 162.847 9.65377C162.535 10.3036 162.378 11.1009 162.378 12.0455C162.378 12.9901 162.535 13.7873 162.847 14.4371C163.163 15.087 163.588 15.5788 164.12 15.9126C164.656 16.2464 165.255 16.4134 165.915 16.4134C166.278 16.4134 166.626 16.3636 166.959 16.2642C167.293 16.1648 167.597 16.0174 167.87 15.8221C168.147 15.6232 168.382 15.38 168.573 15.0923C168.769 14.8011 168.905 14.4673 168.983 14.0909H170.304C170.205 14.6484 170.024 15.1474 169.761 15.5877C169.498 16.0281 169.172 16.4027 168.781 16.7116C168.39 17.017 167.952 17.2496 167.465 17.4094C166.982 17.5692 166.466 17.6491 165.915 17.6491C164.985 17.6491 164.157 17.4219 163.433 16.9673C162.709 16.5128 162.139 15.8665 161.723 15.0284C161.308 14.1903 161.1 13.196 161.1 12.0455C161.1 10.8949 161.308 9.90057 161.723 9.0625C162.139 8.22443 162.709 7.57813 163.433 7.12358C164.157 6.66904 164.985 6.44176 165.915 6.44176C166.466 6.44176 166.982 6.52166 167.465 6.68146C167.952 6.84127 168.39 7.07564 168.781 7.38459C169.172 7.68999 169.498 8.06286 169.761 8.5032C170.024 8.93999 170.205 9.43892 170.304 10Z" fill="black"/>
<path d="M407.281 0H382.281V25H407.281V0Z" fill="#94DB34"/>
<path d="M416.662 17.6705C415.98 17.6705 415.378 17.4982 414.856 17.1538C414.334 16.8058 413.926 16.3157 413.631 15.6836C413.336 15.0479 413.189 14.2969 413.189 13.4304C413.189 12.571 413.336 11.8253 413.631 11.1932C413.926 10.5611 414.336 10.0728 414.862 9.72834C415.387 9.38388 415.994 9.21165 416.683 9.21165C417.216 9.21165 417.637 9.30043 417.946 9.47798C418.258 9.65199 418.496 9.85085 418.659 10.0746C418.826 10.2947 418.956 10.4759 419.048 10.6179H419.155V6.59091H420.412V17.5H419.197V16.2429H419.048C418.956 16.392 418.825 16.5803 418.654 16.8075C418.484 17.0313 418.24 17.2319 417.924 17.4094C417.608 17.5835 417.187 17.6705 416.662 17.6705ZM416.832 16.5412C417.337 16.5412 417.763 16.4098 418.111 16.147C418.459 15.8807 418.723 15.5131 418.904 15.0444C419.086 14.5721 419.176 14.027 419.176 13.4091C419.176 12.7983 419.087 12.2638 418.91 11.8058C418.732 11.3441 418.469 10.9854 418.121 10.7298C417.773 10.4705 417.344 10.3409 416.832 10.3409C416.3 10.3409 415.856 10.4776 415.501 10.7511C415.149 11.021 414.885 11.3885 414.707 11.8537C414.533 12.3153 414.446 12.8338 414.446 13.4091C414.446 13.9915 414.535 14.5206 414.712 14.9964C414.893 15.4688 415.16 15.8452 415.511 16.1257C415.866 16.4027 416.307 16.5412 416.832 16.5412ZM426.319 17.6705C425.531 17.6705 424.851 17.4964 424.279 17.1484C423.711 16.7969 423.272 16.3068 422.963 15.6783C422.658 15.0462 422.505 14.3111 422.505 13.473C422.505 12.6349 422.658 11.8963 422.963 11.2571C423.272 10.6143 423.702 10.1136 424.252 9.75497C424.806 9.39276 425.453 9.21165 426.191 9.21165C426.618 9.21165 427.038 9.28267 427.454 9.42472C427.869 9.56676 428.248 9.79759 428.588 10.1172C428.929 10.4332 429.201 10.8523 429.403 11.3743C429.606 11.8963 429.707 12.5391 429.707 13.3026V13.8352H423.4V12.7486H428.429C428.429 12.2869 428.336 11.875 428.152 11.5128C427.971 11.1506 427.711 10.8647 427.374 10.6552C427.04 10.4457 426.646 10.3409 426.191 10.3409C425.691 10.3409 425.257 10.4652 424.892 10.7138C424.529 10.9588 424.251 11.2784 424.055 11.6726C423.86 12.0668 423.762 12.4893 423.762 12.9403V13.6648C423.762 14.2827 423.869 14.8065 424.082 15.2362C424.299 15.6623 424.599 15.9872 424.982 16.2109C425.366 16.4311 425.811 16.5412 426.319 16.5412C426.65 16.5412 426.948 16.495 427.214 16.4027C427.484 16.3068 427.717 16.1648 427.912 15.9766C428.107 15.7848 428.258 15.5469 428.365 15.2628L429.579 15.6037C429.451 16.0156 429.237 16.3778 428.935 16.6903C428.633 16.9993 428.26 17.2408 427.816 17.4148C427.372 17.5852 426.873 17.6705 426.319 17.6705ZM439.034 15.5824V8.55114H440.227V15.5824H439.034ZM436.115 12.6634V11.4702H443.146V12.6634H436.115ZM453.609 17.6491C452.906 17.6491 452.279 17.5284 451.729 17.2869C451.182 17.0455 450.747 16.7099 450.424 16.2802C450.104 15.8469 449.93 15.3445 449.902 14.7727H451.244C451.273 15.1243 451.393 15.4279 451.606 15.6836C451.82 15.9357 452.098 16.131 452.443 16.2695C452.787 16.408 453.169 16.4773 453.588 16.4773C454.057 16.4773 454.472 16.3956 454.834 16.2322C455.197 16.0689 455.481 15.8416 455.687 15.5504C455.893 15.2592 455.996 14.9219 455.996 14.5384C455.996 14.1371 455.896 13.7837 455.697 13.4783C455.498 13.1694 455.207 12.9279 454.824 12.7539C454.44 12.5799 453.971 12.4929 453.418 12.4929H452.544V11.321H453.418C453.851 11.321 454.231 11.2429 454.557 11.0866C454.888 10.9304 455.145 10.7102 455.33 10.4261C455.518 10.142 455.612 9.80824 455.612 9.42472C455.612 9.0554 455.53 8.73402 455.367 8.46058C455.204 8.18715 454.973 7.97408 454.675 7.82138C454.38 7.66868 454.032 7.59233 453.631 7.59233C453.254 7.59233 452.899 7.66158 452.565 7.80007C452.235 7.93502 451.965 8.1321 451.756 8.39134C451.546 8.64702 451.432 8.95597 451.415 9.31818H450.136C450.158 8.74645 450.33 8.24574 450.653 7.81605C450.976 7.38281 451.399 7.04546 451.921 6.80398C452.446 6.5625 453.023 6.44176 453.652 6.44176C454.327 6.44176 454.905 6.57848 455.388 6.85192C455.871 7.1218 456.242 7.47869 456.502 7.92259C456.761 8.36648 456.891 8.84588 456.891 9.3608C456.891 9.97514 456.729 10.4989 456.406 10.9322C456.086 11.3654 455.651 11.6655 455.101 11.8324V11.9176C455.79 12.0313 456.328 12.3242 456.715 12.7965C457.102 13.2653 457.295 13.8459 457.295 14.5384C457.295 15.1314 457.134 15.6641 456.811 16.1364C456.491 16.6051 456.054 16.9744 455.5 17.2443C454.946 17.5142 454.316 17.6491 453.609 17.6491ZM461.754 11.4063C461.303 11.4063 460.891 11.2962 460.518 11.076C460.149 10.8558 459.854 10.5611 459.634 10.1918C459.414 9.81889 459.304 9.40696 459.304 8.95597C459.304 8.50497 459.414 8.09482 459.634 7.7255C459.854 7.35263 460.149 7.05611 460.518 6.83594C460.891 6.61577 461.303 6.50568 461.754 6.50568C462.205 6.50568 462.615 6.61577 462.984 6.83594C463.357 7.05611 463.654 7.35263 463.874 7.7255C464.094 8.09482 464.204 8.50497 464.204 8.95597C464.204 9.40696 464.094 9.81889 463.874 10.1918C463.654 10.5611 463.357 10.8558 462.984 11.076C462.615 11.2962 462.205 11.4063 461.754 11.4063ZM461.754 10.3409C462.009 10.3409 462.242 10.2788 462.452 10.1545C462.661 10.0302 462.828 9.86328 462.952 9.65377C463.077 9.44425 463.139 9.21165 463.139 8.95597C463.139 8.70028 463.077 8.46769 462.952 8.25817C462.828 8.04865 462.661 7.88175 462.452 7.75746C462.242 7.63317 462.009 7.57102 461.754 7.57102C461.498 7.57102 461.266 7.63317 461.056 7.75746C460.846 7.88175 460.68 8.04865 460.555 8.25817C460.431 8.46769 460.369 8.70028 460.369 8.95597C460.369 9.21165 460.431 9.44425 460.555 9.65377C460.68 9.86328 460.846 10.0302 461.056 10.1545C461.266 10.2788 461.498 10.3409 461.754 10.3409ZM475.08 10H473.759C473.681 9.62003 473.544 9.28622 473.349 8.99858C473.157 8.71094 472.923 8.46946 472.646 8.27415C472.372 8.07529 472.069 7.92614 471.735 7.82671C471.401 7.72727 471.053 7.67756 470.691 7.67756C470.03 7.67756 469.432 7.84446 468.896 8.17827C468.363 8.51207 467.939 9.00391 467.623 9.65377C467.31 10.3036 467.154 11.1009 467.154 12.0455C467.154 12.9901 467.31 13.7873 467.623 14.4371C467.939 15.087 468.363 15.5788 468.896 15.9126C469.432 16.2464 470.03 16.4134 470.691 16.4134C471.053 16.4134 471.401 16.3636 471.735 16.2642C472.069 16.1648 472.372 16.0174 472.646 15.8221C472.923 15.6232 473.157 15.38 473.349 15.0923C473.544 14.8011 473.681 14.4673 473.759 14.0909H475.08C474.98 14.6484 474.799 15.1474 474.537 15.5877C474.274 16.0281 473.947 16.4027 473.556 16.7116C473.166 17.017 472.727 17.2496 472.241 17.4094C471.758 17.5692 471.241 17.6491 470.691 17.6491C469.76 17.6491 468.933 17.4219 468.208 16.9673C467.484 16.5128 466.914 15.8665 466.499 15.0284C466.083 14.1903 465.875 13.196 465.875 12.0455C465.875 10.8949 466.083 9.90057 466.499 9.0625C466.914 8.22443 467.484 7.57813 468.208 7.12358C468.933 6.66904 469.76 6.44176 470.691 6.44176C471.241 6.44176 471.758 6.52166 472.241 6.68146C472.727 6.84127 473.166 7.07564 473.556 7.38459C473.947 7.68999 474.274 8.06286 474.537 8.5032C474.799 8.93999 474.98 9.43892 475.08 10ZM483.671 17.6918C483.152 17.6918 482.682 17.5941 482.259 17.3988C481.836 17.1999 481.501 16.9141 481.252 16.5412C481.004 16.1648 480.879 15.7102 480.879 15.1776C480.879 14.7088 480.972 14.3288 481.156 14.0376C481.341 13.7429 481.588 13.5121 481.897 13.3452C482.206 13.1783 482.547 13.054 482.919 12.9723C483.296 12.8871 483.674 12.8196 484.054 12.7699C484.551 12.706 484.954 12.658 485.263 12.6261C485.576 12.5906 485.803 12.532 485.945 12.4503C486.091 12.3686 486.163 12.2266 486.163 12.0241V11.9815C486.163 11.456 486.02 11.0476 485.732 10.7564C485.448 10.4652 485.016 10.3196 484.438 10.3196C483.837 10.3196 483.367 10.451 483.026 10.7138C482.685 10.9766 482.445 11.2571 482.307 11.5554L481.114 11.1293C481.327 10.6321 481.611 10.245 481.966 9.96804C482.325 9.6875 482.715 9.49219 483.138 9.3821C483.564 9.26847 483.983 9.21165 484.395 9.21165C484.658 9.21165 484.96 9.24361 485.301 9.30753C485.645 9.3679 485.977 9.49396 486.297 9.68572C486.62 9.87749 486.888 10.1669 487.101 10.554C487.314 10.9411 487.421 11.4595 487.421 12.1094V17.5H486.163V16.392H486.1C486.014 16.5696 485.872 16.7596 485.673 16.962C485.475 17.1644 485.21 17.3366 484.88 17.4787C484.549 17.6207 484.146 17.6918 483.671 17.6918ZM483.862 16.5625C484.359 16.5625 484.778 16.4648 485.119 16.2695C485.464 16.0742 485.723 15.8221 485.897 15.5131C486.075 15.2042 486.163 14.8793 486.163 14.5384V13.3878C486.11 13.4517 485.993 13.5103 485.812 13.5636C485.634 13.6133 485.428 13.6577 485.194 13.6967C484.963 13.7322 484.738 13.7642 484.517 13.7926C484.301 13.8175 484.125 13.8388 483.99 13.8565C483.663 13.8991 483.358 13.9684 483.074 14.0643C482.793 14.1566 482.566 14.2969 482.392 14.4851C482.222 14.6697 482.136 14.9219 482.136 15.2415C482.136 15.6783 482.298 16.0085 482.621 16.2322C482.948 16.4524 483.362 16.5625 483.862 16.5625ZM483.948 8.21023L482.286 5.73864H483.756L485.055 8.21023H483.948ZM497.13 15.5824V8.55114H498.323V15.5824H497.13ZM494.211 12.6634V11.4702H501.242V12.6634H494.211ZM511.705 17.6491C511.002 17.6491 510.375 17.5284 509.825 17.2869C509.278 17.0455 508.843 16.7099 508.52 16.2802C508.2 15.8469 508.026 15.3445 507.998 14.7727H509.34C509.368 15.1243 509.489 15.4279 509.702 15.6836C509.915 15.9357 510.194 16.131 510.538 16.2695C510.883 16.408 511.265 16.4773 511.684 16.4773C512.152 16.4773 512.568 16.3956 512.93 16.2322C513.292 16.0689 513.576 15.8416 513.782 15.5504C513.988 15.2592 514.091 14.9219 514.091 14.5384C514.091 14.1371 513.992 13.7837 513.793 13.4783C513.594 13.1694 513.303 12.9279 512.919 12.7539C512.536 12.5799 512.067 12.4929 511.513 12.4929H510.64V11.321H511.513C511.946 11.321 512.326 11.2429 512.653 11.0866C512.983 10.9304 513.241 10.7102 513.426 10.4261C513.614 10.142 513.708 9.80824 513.708 9.42472C513.708 9.0554 513.626 8.73402 513.463 8.46058C513.299 8.18715 513.069 7.97408 512.77 7.82138C512.476 7.66868 512.128 7.59233 511.726 7.59233C511.35 7.59233 510.995 7.66158 510.661 7.80007C510.331 7.93502 510.061 8.1321 509.851 8.39134C509.642 8.64702 509.528 8.95597 509.51 9.31818H508.232C508.253 8.74645 508.426 8.24574 508.749 7.81605C509.072 7.38281 509.494 7.04546 510.016 6.80398C510.542 6.5625 511.119 6.44176 511.748 6.44176C512.422 6.44176 513.001 6.57848 513.484 6.85192C513.967 7.1218 514.338 7.47869 514.597 7.92259C514.857 8.36648 514.986 8.84588 514.986 9.3608C514.986 9.97514 514.825 10.4989 514.502 10.9322C514.182 11.3654 513.747 11.6655 513.196 11.8324V11.9176C513.885 12.0313 514.423 12.3242 514.81 12.7965C515.198 13.2653 515.391 13.8459 515.391 14.5384C515.391 15.1314 515.229 15.6641 514.906 16.1364C514.587 16.6051 514.15 16.9744 513.596 17.2443C513.042 17.5142 512.412 17.6491 511.705 17.6491ZM519.129 16.0085L519.044 16.5838C518.983 16.9886 518.891 17.4219 518.767 17.8835C518.646 18.3452 518.52 18.7802 518.389 19.1886C518.257 19.5969 518.149 19.9219 518.064 20.1634H517.105C517.151 19.9361 517.211 19.636 517.286 19.2631C517.361 18.8903 517.435 18.473 517.51 18.0114C517.588 17.5533 517.652 17.0845 517.702 16.6051L517.765 16.0085H519.129ZM524.626 17.6491C524.001 17.6491 523.438 17.5249 522.938 17.2763C522.437 17.0277 522.036 16.6868 521.734 16.2536C521.432 15.8203 521.267 15.3267 521.238 14.7727H522.517C522.567 15.2663 522.79 15.6747 523.188 15.9979C523.589 16.3175 524.069 16.4773 524.626 16.4773C525.074 16.4773 525.471 16.3725 525.819 16.163C526.171 15.9535 526.446 15.6658 526.645 15.3001C526.847 14.9308 526.949 14.5135 526.949 14.0483C526.949 13.5724 526.844 13.1481 526.634 12.7752C526.428 12.3988 526.144 12.1023 525.782 11.8857C525.42 11.669 525.006 11.5589 524.541 11.5554C524.207 11.5518 523.865 11.6033 523.513 11.7099C523.161 11.8129 522.872 11.946 522.645 12.1094L521.409 11.9602L522.069 6.59091H527.737V7.76279H523.177L522.794 10.9801H522.858C523.081 10.8026 523.362 10.6552 523.699 10.538C524.037 10.4208 524.388 10.3622 524.754 10.3622C525.422 10.3622 526.016 10.522 526.539 10.8416C527.064 11.1577 527.476 11.5909 527.774 12.1413C528.076 12.6918 528.227 13.3203 528.227 14.027C528.227 14.723 528.071 15.3445 527.758 15.8913C527.449 16.4347 527.023 16.8643 526.48 17.1804C525.937 17.4929 525.319 17.6491 524.626 17.6491ZM532.623 11.4063C532.172 11.4063 531.76 11.2962 531.387 11.076C531.018 10.8558 530.723 10.5611 530.503 10.1918C530.283 9.81889 530.173 9.40696 530.173 8.95597C530.173 8.50497 530.283 8.09482 530.503 7.7255C530.723 7.35263 531.018 7.05611 531.387 6.83594C531.76 6.61577 532.172 6.50568 532.623 6.50568C533.074 6.50568 533.484 6.61577 533.853 6.83594C534.226 7.05611 534.523 7.35263 534.743 7.7255C534.963 8.09482 535.073 8.50497 535.073 8.95597C535.073 9.40696 534.963 9.81889 534.743 10.1918C534.523 10.5611 534.226 10.8558 533.853 11.076C533.484 11.2962 533.074 11.4063 532.623 11.4063ZM532.623 10.3409C532.879 10.3409 533.111 10.2788 533.321 10.1545C533.53 10.0302 533.697 9.86328 533.821 9.65377C533.946 9.44425 534.008 9.21165 534.008 8.95597C534.008 8.70028 533.946 8.46769 533.821 8.25817C533.697 8.04865 533.53 7.88175 533.321 7.75746C533.111 7.63317 532.879 7.57102 532.623 7.57102C532.367 7.57102 532.135 7.63317 531.925 7.75746C531.716 7.88175 531.549 8.04865 531.424 8.25817C531.3 8.46769 531.238 8.70028 531.238 8.95597C531.238 9.21165 531.3 9.44425 531.424 9.65377C531.549 9.86328 531.716 10.0302 531.925 10.1545C532.135 10.2788 532.367 10.3409 532.623 10.3409ZM545.949 10H544.628C544.55 9.62003 544.413 9.28622 544.218 8.99858C544.026 8.71094 543.792 8.46946 543.515 8.27415C543.241 8.07529 542.938 7.92614 542.604 7.82671C542.27 7.72727 541.922 7.67756 541.56 7.67756C540.899 7.67756 540.301 7.84446 539.765 8.17827C539.232 8.51207 538.808 9.00391 538.492 9.65377C538.179 10.3036 538.023 11.1009 538.023 12.0455C538.023 12.9901 538.179 13.7873 538.492 14.4371C538.808 15.087 539.232 15.5788 539.765 15.9126C540.301 16.2464 540.899 16.4134 541.56 16.4134C541.922 16.4134 542.27 16.3636 542.604 16.2642C542.938 16.1648 543.241 16.0174 543.515 15.8221C543.792 15.6232 544.026 15.38 544.218 15.0923C544.413 14.8011 544.55 14.4673 544.628 14.0909H545.949C545.85 14.6484 545.668 15.1474 545.406 15.5877C545.143 16.0281 544.816 16.4027 544.426 16.7116C544.035 17.017 543.596 17.2496 543.11 17.4094C542.627 17.5692 542.11 17.6491 541.56 17.6491C540.629 17.6491 539.802 17.4219 539.078 16.9673C538.353 16.5128 537.783 15.8665 537.368 15.0284C536.952 14.1903 536.744 13.196 536.744 12.0455C536.744 10.8949 536.952 9.90057 537.368 9.0625C537.783 8.22443 538.353 7.57813 539.078 7.12358C539.802 6.66904 540.629 6.44176 541.56 6.44176C542.11 6.44176 542.627 6.52166 543.11 6.68146C543.596 6.84127 544.035 7.07564 544.426 7.38459C544.816 7.68999 545.143 8.06286 545.406 8.5032C545.668 8.93999 545.85 9.43892 545.949 10Z" fill="black"/>
<path d="M25 53H0V78H25V53Z" fill="#F3E053"/>
<path d="M34.3807 70.6705C33.6989 70.6705 33.0969 70.4982 32.5749 70.1538C32.0529 69.8058 31.6445 69.3157 31.3498 68.6836C31.055 68.0479 30.9077 67.2969 30.9077 66.4304C30.9077 65.571 31.055 64.8253 31.3498 64.1932C31.6445 63.5611 32.0547 63.0728 32.5803 62.7283C33.1058 62.3839 33.7131 62.2116 34.402 62.2116C34.9347 62.2116 35.3555 62.3004 35.6644 62.478C35.9769 62.652 36.2148 62.8509 36.3782 63.0746C36.5451 63.2947 36.6747 63.4759 36.767 63.6179H36.8736V59.5909H38.1307V70.5H36.9162V69.2429H36.767C36.6747 69.392 36.5433 69.5803 36.3729 69.8075C36.2024 70.0313 35.9592 70.2319 35.6431 70.4094C35.3271 70.5835 34.9062 70.6705 34.3807 70.6705ZM34.5511 69.5412C35.0554 69.5412 35.4815 69.4098 35.8295 69.147C36.1776 68.8807 36.4421 68.5131 36.6232 68.0444C36.8043 67.5721 36.8949 67.027 36.8949 66.4091C36.8949 65.7983 36.8061 65.2638 36.6286 64.8058C36.451 64.3441 36.1882 63.9854 35.8402 63.7298C35.4922 63.4705 35.0625 63.3409 34.5511 63.3409C34.0185 63.3409 33.5746 63.4776 33.2195 63.7511C32.8679 64.021 32.6033 64.3885 32.4258 64.8537C32.2518 65.3153 32.1648 65.8338 32.1648 66.4091C32.1648 66.9915 32.2536 67.5206 32.4311 67.9964C32.6122 68.4688 32.8786 68.8452 33.2301 69.1257C33.5852 69.4027 34.0256 69.5412 34.5511 69.5412ZM44.038 70.6705C43.2496 70.6705 42.5696 70.4964 41.9979 70.1484C41.4297 69.7969 40.9911 69.3068 40.6822 68.6783C40.3768 68.0462 40.2241 67.3111 40.2241 66.473C40.2241 65.6349 40.3768 64.8963 40.6822 64.2571C40.9911 63.6143 41.4208 63.1136 41.9712 62.755C42.5252 62.3928 43.1715 62.2116 43.9102 62.2116C44.3363 62.2116 44.7571 62.2827 45.1726 62.4247C45.5881 62.5668 45.9663 62.7976 46.3072 63.1172C46.6481 63.4332 46.9197 63.8523 47.1222 64.3743C47.3246 64.8963 47.4258 65.5391 47.4258 66.3026V66.8352H41.119V65.7486H46.1474C46.1474 65.2869 46.055 64.875 45.8704 64.5128C45.6893 64.1506 45.43 63.8647 45.0927 63.6552C44.7589 63.4457 44.3647 63.3409 43.9102 63.3409C43.4094 63.3409 42.9762 63.4652 42.6104 63.7138C42.2482 63.9588 41.9695 64.2784 41.7741 64.6726C41.5788 65.0668 41.4812 65.4893 41.4812 65.9403V66.6648C41.4812 67.2827 41.5877 67.8065 41.8008 68.2362C42.0174 68.6623 42.3175 68.9872 42.701 69.2109C43.0845 69.4311 43.5302 69.5412 44.038 69.5412C44.3683 69.5412 44.6665 69.495 44.9329 69.4027C45.2028 69.3068 45.4354 69.1648 45.6307 68.9766C45.826 68.7848 45.9769 68.5469 46.0835 68.2628L47.2979 68.6037C47.1701 69.0156 46.9553 69.3778 46.6534 69.6903C46.3516 69.9993 45.9787 70.2408 45.5348 70.4148C45.0909 70.5852 44.592 70.6705 44.038 70.6705ZM56.7528 68.5824V61.5511H57.946V68.5824H56.7528ZM53.8338 65.6634V64.4702H60.8651V65.6634H53.8338ZM71.328 70.6491C70.6249 70.6491 69.9981 70.5284 69.4477 70.2869C68.9008 70.0455 68.4658 69.7099 68.1427 69.2802C67.8231 68.8469 67.6491 68.3445 67.6206 67.7727H68.963C68.9914 68.1243 69.1121 68.4279 69.3252 68.6836C69.5383 68.9357 69.817 69.131 70.1615 69.2695C70.5059 69.408 70.8877 69.4773 71.3067 69.4773C71.7755 69.4773 72.191 69.3956 72.5532 69.2322C72.9154 69.0689 73.1995 68.8416 73.4054 68.5504C73.6114 68.2592 73.7144 67.9219 73.7144 67.5384C73.7144 67.1371 73.615 66.7837 73.4161 66.4783C73.2172 66.1694 72.926 65.9279 72.5425 65.7539C72.159 65.5799 71.6902 65.4929 71.1363 65.4929H70.2627V64.321H71.1363C71.5695 64.321 71.9495 64.2429 72.2762 64.0866C72.6064 63.9304 72.8639 63.7102 73.0486 63.4261C73.2368 63.142 73.3309 62.8082 73.3309 62.4247C73.3309 62.0554 73.2492 61.734 73.0858 61.4606C72.9225 61.1871 72.6917 60.9741 72.3934 60.8214C72.0986 60.6687 71.7506 60.5923 71.3493 60.5923C70.9729 60.5923 70.6178 60.6616 70.284 60.8001C69.9537 60.935 69.6839 61.1321 69.4743 61.3913C69.2648 61.647 69.1512 61.956 69.1334 62.3182H67.855C67.8763 61.7464 68.0486 61.2457 68.3717 60.8161C68.6949 60.3828 69.1174 60.0455 69.6395 59.804C70.165 59.5625 70.7421 59.4418 71.3706 59.4418C72.0454 59.4418 72.6242 59.5785 73.1072 59.8519C73.5901 60.1218 73.9612 60.4787 74.2204 60.9226C74.4797 61.3665 74.6093 61.8459 74.6093 62.3608C74.6093 62.9751 74.4477 63.4989 74.1246 63.9322C73.8049 64.3654 73.3699 64.6655 72.8195 64.8324V64.9176C73.5084 65.0313 74.0464 65.3242 74.4335 65.7965C74.8206 66.2653 75.0141 66.8459 75.0141 67.5384C75.0141 68.1314 74.8525 68.6641 74.5294 69.1364C74.2098 69.6051 73.773 69.9744 73.219 70.2443C72.665 70.5142 72.0347 70.6491 71.328 70.6491ZM78.7521 69.0085L78.6669 69.5838C78.6065 69.9886 78.5142 70.4219 78.3899 70.8835C78.2692 71.3452 78.1431 71.7802 78.0117 72.1886C77.8803 72.5969 77.772 72.9219 77.6868 73.1634H76.728C76.7741 72.9361 76.8345 72.636 76.9091 72.2631C76.9837 71.8903 77.0582 71.473 77.1328 71.0114C77.2109 70.5533 77.2749 70.0845 77.3246 69.6051L77.3885 69.0085H78.7521ZM84.2493 70.6491C83.6243 70.6491 83.0614 70.5249 82.5607 70.2763C82.06 70.0277 81.6587 69.6868 81.3569 69.2536C81.055 68.8203 80.8899 68.3267 80.8615 67.7727H82.1399C82.1896 68.2663 82.4133 68.6747 82.8111 68.9979C83.2124 69.3175 83.6918 69.4773 84.2493 69.4773C84.6967 69.4773 85.0945 69.3725 85.4425 69.163C85.794 68.9535 86.0692 68.6658 86.2681 68.3001C86.4705 67.9308 86.5717 67.5135 86.5717 67.0483C86.5717 66.5724 86.467 66.1481 86.2575 65.7752C86.0515 65.3988 85.7674 65.1023 85.4052 64.8857C85.043 64.669 84.6293 64.5589 84.1641 64.5554C83.8303 64.5518 83.4876 64.6033 83.136 64.7099C82.7844 64.8129 82.495 64.946 82.2678 65.1094L81.032 64.9602L81.6925 59.5909H87.3601V60.7628H82.8004L82.4169 63.9801H82.4808C82.7045 63.8026 82.9851 63.6552 83.3224 63.538C83.6598 63.4208 84.0114 63.3622 84.3771 63.3622C85.0447 63.3622 85.6396 63.522 86.1616 63.8416C86.6871 64.1577 87.0991 64.5909 87.3974 65.1413C87.6992 65.6918 87.8501 66.3203 87.8501 67.027C87.8501 67.723 87.6939 68.3445 87.3814 68.8913C87.0724 69.4347 86.6463 69.8643 86.103 70.1804C85.5597 70.4929 84.9418 70.6491 84.2493 70.6491ZM92.246 64.4063C91.795 64.4063 91.3831 64.2962 91.0102 64.076C90.6409 63.8558 90.3461 63.5611 90.126 63.1918C89.9058 62.8189 89.7957 62.407 89.7957 61.956C89.7957 61.505 89.9058 61.0948 90.126 60.7255C90.3461 60.3526 90.6409 60.0561 91.0102 59.8359C91.3831 59.6158 91.795 59.5057 92.246 59.5057C92.697 59.5057 93.1071 59.6158 93.4765 59.8359C93.8493 60.0561 94.1459 60.3526 94.366 60.7255C94.5862 61.0948 94.6963 61.505 94.6963 61.956C94.6963 62.407 94.5862 62.8189 94.366 63.1918C94.1459 63.5611 93.8493 63.8558 93.4765 64.076C93.1071 64.2962 92.697 64.4063 92.246 64.4063ZM92.246 63.3409C92.5017 63.3409 92.7343 63.2788 92.9438 63.1545C93.1533 63.0302 93.3202 62.8633 93.4445 62.6538C93.5688 62.4442 93.6309 62.2116 93.6309 61.956C93.6309 61.7003 93.5688 61.4677 93.4445 61.2582C93.3202 61.0487 93.1533 60.8817 92.9438 60.7575C92.7343 60.6332 92.5017 60.571 92.246 60.571C91.9903 60.571 91.7577 60.6332 91.5482 60.7575C91.3387 60.8817 91.1718 61.0487 91.0475 61.2582C90.9232 61.4677 90.8611 61.7003 90.8611 61.956C90.8611 62.2116 90.9232 62.4442 91.0475 62.6538C91.1718 62.8633 91.3387 63.0302 91.5482 63.1545C91.7577 63.2788 91.9903 63.3409 92.246 63.3409ZM105.572 63H104.251C104.173 62.62 104.036 62.2862 103.841 61.9986C103.649 61.7109 103.415 61.4695 103.138 61.2741C102.864 61.0753 102.561 60.9261 102.227 60.8267C101.893 60.7273 101.545 60.6776 101.183 60.6776C100.522 60.6776 99.924 60.8445 99.3878 61.1783C98.8551 61.5121 98.4307 62.0039 98.1147 62.6538C97.8022 63.3036 97.6459 64.1009 97.6459 65.0455C97.6459 65.9901 97.8022 66.7873 98.1147 67.4371C98.4307 68.087 98.8551 68.5788 99.3878 68.9126C99.924 69.2464 100.522 69.4134 101.183 69.4134C101.545 69.4134 101.893 69.3636 102.227 69.2642C102.561 69.1648 102.864 69.0174 103.138 68.8221C103.415 68.6232 103.649 68.38 103.841 68.0923C104.036 67.8011 104.173 67.4673 104.251 67.0909H105.572C105.473 67.6484 105.292 68.1474 105.029 68.5877C104.766 69.0281 104.439 69.4027 104.049 69.7116C103.658 70.017 103.219 70.2496 102.733 70.4094C102.25 70.5692 101.733 70.6491 101.183 70.6491C100.252 70.6491 99.4251 70.4219 98.7006 69.9673C97.9762 69.5128 97.4062 68.8665 96.9908 68.0284C96.5753 67.1903 96.3675 66.196 96.3675 65.0455C96.3675 63.8949 96.5753 62.9006 96.9908 62.0625C97.4062 61.2244 97.9762 60.5781 98.7006 60.1236C99.4251 59.669 100.252 59.4418 101.183 59.4418C101.733 59.4418 102.25 59.5217 102.733 59.6815C103.219 59.8413 103.658 60.0756 104.049 60.3846C104.439 60.69 104.766 61.0629 105.029 61.5032C105.292 61.94 105.473 62.4389 105.572 63ZM114.163 70.6918C113.644 70.6918 113.174 70.5941 112.751 70.3988C112.329 70.1999 111.993 69.9141 111.744 69.5412C111.496 69.1648 111.372 68.7102 111.372 68.1776C111.372 67.7088 111.464 67.3288 111.649 67.0376C111.833 66.7429 112.08 66.5121 112.389 66.3452C112.698 66.1783 113.039 66.054 113.412 65.9723C113.788 65.8871 114.166 65.8196 114.546 65.7699C115.043 65.706 115.446 65.658 115.755 65.6261C116.068 65.5906 116.295 65.532 116.437 65.4503C116.583 65.3686 116.656 65.2266 116.656 65.0241V64.9815C116.656 64.456 116.512 64.0476 116.224 63.7564C115.94 63.4652 115.509 63.3196 114.93 63.3196C114.33 63.3196 113.859 63.451 113.518 63.7138C113.177 63.9766 112.938 64.2571 112.799 64.5554L111.606 64.1293C111.819 63.6321 112.103 63.245 112.458 62.968C112.817 62.6875 113.207 62.4922 113.63 62.3821C114.056 62.2685 114.475 62.2116 114.887 62.2116C115.15 62.2116 115.452 62.2436 115.793 62.3075C116.137 62.3679 116.469 62.494 116.789 62.6857C117.112 62.8775 117.38 63.1669 117.593 63.554C117.806 63.9411 117.913 64.4595 117.913 65.1094V70.5H116.656V69.392H116.592C116.506 69.5696 116.364 69.7596 116.166 69.962C115.967 70.1644 115.702 70.3366 115.372 70.4787C115.042 70.6207 114.639 70.6918 114.163 70.6918ZM114.354 69.5625C114.852 69.5625 115.271 69.4648 115.612 69.2695C115.956 69.0742 116.215 68.8221 116.389 68.5131C116.567 68.2042 116.656 67.8793 116.656 67.5384V66.3878C116.602 66.4517 116.485 66.5103 116.304 66.5636C116.127 66.6133 115.921 66.6577 115.686 66.6967C115.455 66.7322 115.23 66.7642 115.01 66.7926C114.793 66.8175 114.617 66.8388 114.482 66.8565C114.156 66.8991 113.85 66.9684 113.566 67.0643C113.286 67.1566 113.058 67.2969 112.884 67.4851C112.714 67.6697 112.629 67.9219 112.629 68.2415C112.629 68.6783 112.79 69.0085 113.113 69.2322C113.44 69.4524 113.854 69.5625 114.354 69.5625ZM114.44 61.2102L112.778 58.7386H114.248L115.548 61.2102H114.44ZM127.622 68.5824V61.5511H128.815V68.5824H127.622ZM124.703 65.6634V64.4702H131.734V65.6634H124.703ZM138.255 68.2628V67.1761L143.049 59.5909H143.838V61.2741H143.305L139.683 67.0057V67.0909H146.139V68.2628H138.255ZM143.39 70.5V67.9325V67.4265V59.5909H144.647V70.5H143.39ZM150.415 64.4063C149.964 64.4063 149.552 64.2962 149.179 64.076C148.81 63.8558 148.515 63.5611 148.295 63.1918C148.075 62.8189 147.965 62.407 147.965 61.956C147.965 61.505 148.075 61.0948 148.295 60.7255C148.515 60.3526 148.81 60.0561 149.179 59.8359C149.552 59.6158 149.964 59.5057 150.415 59.5057C150.866 59.5057 151.276 59.6158 151.645 59.8359C152.018 60.0561 152.315 60.3526 152.535 60.7255C152.755 61.0948 152.865 61.505 152.865 61.956C152.865 62.407 152.755 62.8189 152.535 63.1918C152.315 63.5611 152.018 63.8558 151.645 64.076C151.276 64.2962 150.866 64.4063 150.415 64.4063ZM150.415 63.3409C150.671 63.3409 150.903 63.2788 151.113 63.1545C151.322 63.0302 151.489 62.8633 151.613 62.6538C151.738 62.4442 151.8 62.2116 151.8 61.956C151.8 61.7003 151.738 61.4677 151.613 61.2582C151.489 61.0487 151.322 60.8817 151.113 60.7575C150.903 60.6332 150.671 60.571 150.415 60.571C150.159 60.571 149.927 60.6332 149.717 60.7575C149.508 60.8817 149.341 61.0487 149.216 61.2582C149.092 61.4677 149.03 61.7003 149.03 61.956C149.03 62.2116 149.092 62.4442 149.216 62.6538C149.341 62.8633 149.508 63.0302 149.717 63.1545C149.927 63.2788 150.159 63.3409 150.415 63.3409ZM163.741 63H162.42C162.342 62.62 162.205 62.2862 162.01 61.9986C161.818 61.7109 161.584 61.4695 161.307 61.2741C161.033 61.0753 160.73 60.9261 160.396 60.8267C160.062 60.7273 159.714 60.6776 159.352 60.6776C158.691 60.6776 158.093 60.8445 157.557 61.1783C157.024 61.5121 156.6 62.0039 156.284 62.6538C155.971 63.3036 155.815 64.1009 155.815 65.0455C155.815 65.9901 155.971 66.7873 156.284 67.4371C156.6 68.087 157.024 68.5788 157.557 68.9126C158.093 69.2464 158.691 69.4134 159.352 69.4134C159.714 69.4134 160.062 69.3636 160.396 69.2642C160.73 69.1648 161.033 69.0174 161.307 68.8221C161.584 68.6232 161.818 68.38 162.01 68.0923C162.205 67.8011 162.342 67.4673 162.42 67.0909H163.741C163.642 67.6484 163.46 68.1474 163.198 68.5877C162.935 69.0281 162.608 69.4027 162.218 69.7116C161.827 70.017 161.388 70.2496 160.902 70.4094C160.419 70.5692 159.902 70.6491 159.352 70.6491C158.421 70.6491 157.594 70.4219 156.87 69.9673C156.145 69.5128 155.575 68.8665 155.16 68.0284C154.744 67.1903 154.536 66.196 154.536 65.0455C154.536 63.8949 154.744 62.9006 155.16 62.0625C155.575 61.2244 156.145 60.5781 156.87 60.1236C157.594 59.669 158.421 59.4418 159.352 59.4418C159.902 59.4418 160.419 59.5217 160.902 59.6815C161.388 59.8413 161.827 60.0756 162.218 60.3846C162.608 60.69 162.935 61.0629 163.198 61.5032C163.46 61.94 163.642 62.4389 163.741 63Z" fill="black"/>
<path d="M220.141 53H195.141V78H220.141V53Z" fill="#DC9447"/>
<path d="M229.521 70.6705C228.839 70.6705 228.238 70.4982 227.716 70.1538C227.194 69.8058 226.785 69.3157 226.49 68.6836C226.196 68.0479 226.048 67.2969 226.048 66.4304C226.048 65.571 226.196 64.8253 226.49 64.1932C226.785 63.5611 227.195 63.0728 227.721 62.7283C228.246 62.3839 228.854 62.2116 229.543 62.2116C230.075 62.2116 230.496 62.3004 230.805 62.478C231.118 62.652 231.355 62.8509 231.519 63.0746C231.686 63.2947 231.815 63.4759 231.908 63.6179H232.014V59.5909H233.271V70.5H232.057V69.2429H231.908C231.815 69.392 231.684 69.5803 231.513 69.8075C231.343 70.0313 231.1 70.2319 230.784 70.4094C230.468 70.5835 230.047 70.6705 229.521 70.6705ZM229.692 69.5412C230.196 69.5412 230.622 69.4098 230.97 69.147C231.318 68.8807 231.583 68.5131 231.764 68.0444C231.945 67.5721 232.036 67.027 232.036 66.4091C232.036 65.7983 231.947 65.2638 231.769 64.8058C231.592 64.3441 231.329 63.9854 230.981 63.7298C230.633 63.4705 230.203 63.3409 229.692 63.3409C229.159 63.3409 228.715 63.4776 228.36 63.7511C228.009 64.021 227.744 64.3885 227.566 64.8537C227.392 65.3153 227.305 65.8338 227.305 66.4091C227.305 66.9915 227.394 67.5206 227.572 67.9964C227.753 68.4688 228.019 68.8452 228.371 69.1257C228.726 69.4027 229.166 69.5412 229.692 69.5412ZM239.179 70.6705C238.39 70.6705 237.71 70.4964 237.138 70.1484C236.57 69.7969 236.132 69.3068 235.823 68.6783C235.517 68.0462 235.365 67.3111 235.365 66.473C235.365 65.6349 235.517 64.8963 235.823 64.2571C236.132 63.6143 236.561 63.1136 237.112 62.755C237.666 62.3928 238.312 62.2116 239.051 62.2116C239.477 62.2116 239.898 62.2827 240.313 62.4247C240.729 62.5668 241.107 62.7976 241.448 63.1172C241.789 63.4332 242.06 63.8523 242.263 64.3743C242.465 64.8963 242.566 65.5391 242.566 66.3026V66.8352H236.26V65.7486H241.288C241.288 65.2869 241.196 64.875 241.011 64.5128C240.83 64.1506 240.571 63.8647 240.233 63.6552C239.9 63.4457 239.505 63.3409 239.051 63.3409C238.55 63.3409 238.117 63.4652 237.751 63.7138C237.389 63.9588 237.11 64.2784 236.915 64.6726C236.719 65.0668 236.622 65.4893 236.622 65.9403V66.6648C236.622 67.2827 236.728 67.8065 236.941 68.2362C237.158 68.6623 237.458 68.9872 237.842 69.2109C238.225 69.4311 238.671 69.5412 239.179 69.5412C239.509 69.5412 239.807 69.495 240.074 69.4027C240.343 69.3068 240.576 69.1648 240.771 68.9766C240.967 68.7848 241.118 68.5469 241.224 68.2628L242.439 68.6037C242.311 69.0156 242.096 69.3778 241.794 69.6903C241.492 69.9993 241.119 70.2408 240.675 70.4148C240.232 70.5852 239.733 70.6705 239.179 70.6705ZM251.893 68.5824V61.5511H253.087V68.5824H251.893ZM248.974 65.6634V64.4702H256.006V65.6634H248.974ZM262.527 68.2628V67.1761L267.321 59.5909H268.109V61.2741H267.577L263.954 67.0057V67.0909H270.41V68.2628H262.527ZM267.662 70.5V67.9325V67.4265V59.5909H268.919V70.5H267.662ZM274.686 64.4063C274.235 64.4063 273.824 64.2962 273.451 64.076C273.081 63.8558 272.787 63.5611 272.566 63.1918C272.346 62.8189 272.236 62.407 272.236 61.956C272.236 61.505 272.346 61.0948 272.566 60.7255C272.787 60.3526 273.081 60.0561 273.451 59.8359C273.824 59.6158 274.235 59.5057 274.686 59.5057C275.137 59.5057 275.548 59.6158 275.917 59.8359C276.29 60.0561 276.586 60.3526 276.806 60.7255C277.027 61.0948 277.137 61.505 277.137 61.956C277.137 62.407 277.027 62.8189 276.806 63.1918C276.586 63.5611 276.29 63.8558 275.917 64.076C275.548 64.2962 275.137 64.4063 274.686 64.4063ZM274.686 63.3409C274.942 63.3409 275.175 63.2788 275.384 63.1545C275.594 63.0302 275.761 62.8633 275.885 62.6538C276.009 62.4442 276.071 62.2116 276.071 61.956C276.071 61.7003 276.009 61.4677 275.885 61.2582C275.761 61.0487 275.594 60.8817 275.384 60.7575C275.175 60.6332 274.942 60.571 274.686 60.571C274.431 60.571 274.198 60.6332 273.989 60.7575C273.779 60.8817 273.612 61.0487 273.488 61.2582C273.364 61.4677 273.301 61.7003 273.301 61.956C273.301 62.2116 273.364 62.4442 273.488 62.6538C273.612 62.8633 273.779 63.0302 273.989 63.1545C274.198 63.2788 274.431 63.3409 274.686 63.3409ZM288.013 63H286.691C286.613 62.62 286.477 62.2862 286.281 61.9986C286.09 61.7109 285.855 61.4695 285.578 61.2741C285.305 61.0753 285.001 60.9261 284.667 60.8267C284.334 60.7273 283.986 60.6776 283.623 60.6776C282.963 60.6776 282.364 60.8445 281.828 61.1783C281.296 61.5121 280.871 62.0039 280.555 62.6538C280.243 63.3036 280.086 64.1009 280.086 65.0455C280.086 65.9901 280.243 66.7873 280.555 67.4371C280.871 68.087 281.296 68.5788 281.828 68.9126C282.364 69.2464 282.963 69.4134 283.623 69.4134C283.986 69.4134 284.334 69.3636 284.667 69.2642C285.001 69.1648 285.305 69.0174 285.578 68.8221C285.855 68.6232 286.09 68.38 286.281 68.0923C286.477 67.8011 286.613 67.4673 286.691 67.0909H288.013C287.913 67.6484 287.732 68.1474 287.469 68.5877C287.206 69.0281 286.88 69.4027 286.489 69.7116C286.098 70.017 285.66 70.2496 285.173 70.4094C284.69 70.5692 284.174 70.6491 283.623 70.6491C282.693 70.6491 281.865 70.4219 281.141 69.9673C280.417 69.5128 279.847 68.8665 279.431 68.0284C279.016 67.1903 278.808 66.196 278.808 65.0455C278.808 63.8949 279.016 62.9006 279.431 62.0625C279.847 61.2244 280.417 60.5781 281.141 60.1236C281.865 59.669 282.693 59.4418 283.623 59.4418C284.174 59.4418 284.69 59.5217 285.173 59.6815C285.66 59.8413 286.098 60.0756 286.489 60.3846C286.88 60.69 287.206 61.0629 287.469 61.5032C287.732 61.94 287.913 62.4389 288.013 63ZM296.603 70.6918C296.085 70.6918 295.614 70.5941 295.192 70.3988C294.769 70.1999 294.433 69.9141 294.185 69.5412C293.936 69.1648 293.812 68.7102 293.812 68.1776C293.812 67.7088 293.904 67.3288 294.089 67.0376C294.274 66.7429 294.52 66.5121 294.829 66.3452C295.138 66.1783 295.479 66.054 295.852 65.9723C296.229 65.8871 296.607 65.8196 296.987 65.7699C297.484 65.706 297.887 65.658 298.196 65.6261C298.508 65.5906 298.736 65.532 298.878 65.4503C299.023 65.3686 299.096 65.2266 299.096 65.0241V64.9815C299.096 64.456 298.952 64.0476 298.665 63.7564C298.38 63.4652 297.949 63.3196 297.37 63.3196C296.77 63.3196 296.3 63.451 295.959 63.7138C295.618 63.9766 295.378 64.2571 295.24 64.5554L294.046 64.1293C294.259 63.6321 294.543 63.245 294.899 62.968C295.257 62.6875 295.648 62.4922 296.07 62.3821C296.497 62.2685 296.916 62.2116 297.328 62.2116C297.59 62.2116 297.892 62.2436 298.233 62.3075C298.578 62.3679 298.91 62.494 299.229 62.6857C299.552 62.8775 299.82 63.1669 300.034 63.554C300.247 63.9411 300.353 64.4595 300.353 65.1094V70.5H299.096V69.392H299.032C298.947 69.5696 298.805 69.7596 298.606 69.962C298.407 70.1644 298.143 70.3366 297.812 70.4787C297.482 70.6207 297.079 70.6918 296.603 70.6918ZM296.795 69.5625C297.292 69.5625 297.711 69.4648 298.052 69.2695C298.396 69.0742 298.656 68.8221 298.83 68.5131C299.007 68.2042 299.096 67.8793 299.096 67.5384V66.3878C299.043 66.4517 298.926 66.5103 298.744 66.5636C298.567 66.6133 298.361 66.6577 298.127 66.6967C297.896 66.7322 297.67 66.7642 297.45 66.7926C297.233 66.8175 297.058 66.8388 296.923 66.8565C296.596 66.8991 296.291 66.9684 296.007 67.0643C295.726 67.1566 295.499 67.2969 295.325 67.4851C295.154 67.6697 295.069 67.9219 295.069 68.2415C295.069 68.6783 295.231 69.0085 295.554 69.2322C295.88 69.4524 296.294 69.5625 296.795 69.5625ZM296.88 61.2102L295.218 58.7386H296.688L297.988 61.2102H296.88ZM310.062 68.5824V61.5511H311.256V68.5824H310.062ZM307.143 65.6634V64.4702H314.175V65.6634H307.143ZM320.696 68.2628V67.1761L325.49 59.5909H326.278V61.2741H325.746L322.123 67.0057V67.0909H328.579V68.2628H320.696ZM325.831 70.5V67.9325V67.4265V59.5909H327.088V70.5H325.831ZM331.959 69.0085L331.874 69.5838C331.814 69.9886 331.721 70.4219 331.597 70.8835C331.476 71.3452 331.35 71.7802 331.219 72.1886C331.087 72.5969 330.979 72.9219 330.894 73.1634H329.935C329.981 72.9361 330.042 72.636 330.116 72.2631C330.191 71.8903 330.265 71.473 330.34 71.0114C330.418 70.5533 330.482 70.0845 330.532 69.6051L330.596 69.0085H331.959ZM337.456 70.6491C336.831 70.6491 336.268 70.5249 335.768 70.2763C335.267 70.0277 334.866 69.6868 334.564 69.2536C334.262 68.8203 334.097 68.3267 334.069 67.7727H335.347C335.397 68.2663 335.62 68.6747 336.018 68.9979C336.419 69.3175 336.899 69.4773 337.456 69.4773C337.904 69.4773 338.301 69.3725 338.649 69.163C339.001 68.9535 339.276 68.6658 339.475 68.3001C339.678 67.9308 339.779 67.5135 339.779 67.0483C339.779 66.5724 339.674 66.1481 339.464 65.7752C339.259 65.3988 338.974 65.1023 338.612 64.8857C338.25 64.669 337.836 64.5589 337.371 64.5554C337.037 64.5518 336.695 64.6033 336.343 64.7099C335.991 64.8129 335.702 64.946 335.475 65.1094L334.239 64.9602L334.899 59.5909H340.567V60.7628H336.007L335.624 63.9801H335.688C335.912 63.8026 336.192 63.6552 336.529 63.538C336.867 63.4208 337.218 63.3622 337.584 63.3622C338.252 63.3622 338.847 63.522 339.369 63.8416C339.894 64.1577 340.306 64.5909 340.604 65.1413C340.906 65.6918 341.057 66.3203 341.057 67.027C341.057 67.723 340.901 68.3445 340.588 68.8913C340.279 69.4347 339.853 69.8643 339.31 70.1804C338.767 70.4929 338.149 70.6491 337.456 70.6491ZM345.453 64.4063C345.002 64.4063 344.59 64.2962 344.217 64.076C343.848 63.8558 343.553 63.5611 343.333 63.1918C343.113 62.8189 343.003 62.407 343.003 61.956C343.003 61.505 343.113 61.0948 343.333 60.7255C343.553 60.3526 343.848 60.0561 344.217 59.8359C344.59 59.6158 345.002 59.5057 345.453 59.5057C345.904 59.5057 346.314 59.6158 346.683 59.8359C347.056 60.0561 347.353 60.3526 347.573 60.7255C347.793 61.0948 347.903 61.505 347.903 61.956C347.903 62.407 347.793 62.8189 347.573 63.1918C347.353 63.5611 347.056 63.8558 346.683 64.076C346.314 64.2962 345.904 64.4063 345.453 64.4063ZM345.453 63.3409C345.709 63.3409 345.941 63.2788 346.151 63.1545C346.36 63.0302 346.527 62.8633 346.652 62.6538C346.776 62.4442 346.838 62.2116 346.838 61.956C346.838 61.7003 346.776 61.4677 346.652 61.2582C346.527 61.0487 346.36 60.8817 346.151 60.7575C345.941 60.6332 345.709 60.571 345.453 60.571C345.197 60.571 344.965 60.6332 344.755 60.7575C344.546 60.8817 344.379 61.0487 344.255 61.2582C344.13 61.4677 344.068 61.7003 344.068 61.956C344.068 62.2116 344.13 62.4442 344.255 62.6538C344.379 62.8633 344.546 63.0302 344.755 63.1545C344.965 63.2788 345.197 63.3409 345.453 63.3409ZM358.779 63H357.458C357.38 62.62 357.243 62.2862 357.048 61.9986C356.856 61.7109 356.622 61.4695 356.345 61.2741C356.071 61.0753 355.768 60.9261 355.434 60.8267C355.1 60.7273 354.752 60.6776 354.39 60.6776C353.729 60.6776 353.131 60.8445 352.595 61.1783C352.062 61.5121 351.638 62.0039 351.322 62.6538C351.009 63.3036 350.853 64.1009 350.853 65.0455C350.853 65.9901 351.009 66.7873 351.322 67.4371C351.638 68.087 352.062 68.5788 352.595 68.9126C353.131 69.2464 353.729 69.4134 354.39 69.4134C354.752 69.4134 355.1 69.3636 355.434 69.2642C355.768 69.1648 356.071 69.0174 356.345 68.8221C356.622 68.6232 356.856 68.38 357.048 68.0923C357.243 67.8011 357.38 67.4673 357.458 67.0909H358.779C358.68 67.6484 358.499 68.1474 358.236 68.5877C357.973 69.0281 357.646 69.4027 357.256 69.7116C356.865 70.017 356.426 70.2496 355.94 70.4094C355.457 70.5692 354.94 70.6491 354.39 70.6491C353.46 70.6491 352.632 70.4219 351.908 69.9673C351.183 69.5128 350.613 68.8665 350.198 68.0284C349.782 67.1903 349.575 66.196 349.575 65.0455C349.575 63.8949 349.782 62.9006 350.198 62.0625C350.613 61.2244 351.183 60.5781 351.908 60.1236C352.632 59.669 353.46 59.4418 354.39 59.4418C354.94 59.4418 355.457 59.5217 355.94 59.6815C356.426 59.8413 356.865 60.0756 357.256 60.3846C357.646 60.69 357.973 61.0629 358.236 61.5032C358.499 61.94 358.68 62.4389 358.779 63Z" fill="black"/>
<path d="M416.765 53H390.281V78H416.765V53Z" fill="#E84A58"/>
<path d="M426.138 70.6705C425.457 70.6705 424.855 70.4982 424.333 70.1538C423.811 69.8058 423.402 69.3157 423.108 68.6836C422.813 68.0479 422.665 67.2969 422.665 66.4304C422.665 65.571 422.813 64.8253 423.108 64.1932C423.402 63.5611 423.812 63.0728 424.338 62.7283C424.864 62.3839 425.471 62.2116 426.16 62.2116C426.692 62.2116 427.113 62.3004 427.422 62.478C427.735 62.652 427.973 62.8509 428.136 63.0746C428.303 63.2947 428.433 63.4759 428.525 63.6179H428.631V59.5909H429.888V70.5H428.674V69.2429H428.525C428.433 69.392 428.301 69.5803 428.131 69.8075C427.96 70.0313 427.717 70.2319 427.401 70.4094C427.085 70.5835 426.664 70.6705 426.138 70.6705ZM426.309 69.5412C426.813 69.5412 427.239 69.4098 427.587 69.147C427.935 68.8807 428.2 68.5131 428.381 68.0444C428.562 67.5721 428.653 67.027 428.653 66.4091C428.653 65.7983 428.564 65.2638 428.386 64.8058C428.209 64.3441 427.946 63.9854 427.598 63.7298C427.25 63.4705 426.82 63.3409 426.309 63.3409C425.776 63.3409 425.332 63.4776 424.977 63.7511C424.626 64.021 424.361 64.3885 424.184 64.8537C424.01 65.3153 423.923 65.8338 423.923 66.4091C423.923 66.9915 424.011 67.5206 424.189 67.9964C424.37 68.4688 424.636 68.8452 424.988 69.1257C425.343 69.4027 425.783 69.5412 426.309 69.5412ZM435.796 70.6705C435.007 70.6705 434.327 70.4964 433.756 70.1484C433.187 69.7969 432.749 69.3068 432.44 68.6783C432.135 68.0462 431.982 67.3111 431.982 66.473C431.982 65.6349 432.135 64.8963 432.44 64.2571C432.749 63.6143 433.179 63.1136 433.729 62.755C434.283 62.3928 434.929 62.2116 435.668 62.2116C436.094 62.2116 436.515 62.2827 436.93 62.4247C437.346 62.5668 437.724 62.7976 438.065 63.1172C438.406 63.4332 438.678 63.8523 438.88 64.3743C439.082 64.8963 439.184 65.5391 439.184 66.3026V66.8352H432.877V65.7486H437.905C437.905 65.2869 437.813 64.875 437.628 64.5128C437.447 64.1506 437.188 63.8647 436.85 63.6552C436.517 63.4457 436.123 63.3409 435.668 63.3409C435.167 63.3409 434.734 63.4652 434.368 63.7138C434.006 63.9588 433.727 64.2784 433.532 64.6726C433.337 65.0668 433.239 65.4893 433.239 65.9403V66.6648C433.239 67.2827 433.346 67.8065 433.559 68.2362C433.775 68.6623 434.075 68.9872 434.459 69.2109C434.842 69.4311 435.288 69.5412 435.796 69.5412C436.126 69.5412 436.424 69.495 436.691 69.4027C436.961 69.3068 437.193 69.1648 437.388 68.9766C437.584 68.7848 437.735 68.5469 437.841 68.2628L439.056 68.6037C438.928 69.0156 438.713 69.3778 438.411 69.6903C438.109 69.9993 437.737 70.2408 437.293 70.4148C436.849 70.5852 436.35 70.6705 435.796 70.6705ZM448.511 68.5824V61.5511H449.704V68.5824H448.511ZM445.592 65.6634V64.4702H452.623V65.6634H445.592ZM459.144 68.2628V67.1761L463.938 59.5909H464.726V61.2741H464.194L460.572 67.0057V67.0909H467.028V68.2628H459.144ZM464.279 70.5V67.9325V67.4265V59.5909H465.536V70.5H464.279ZM470.407 69.0085L470.322 69.5838C470.262 69.9886 470.169 70.4219 470.045 70.8835C469.924 71.3452 469.798 71.7802 469.667 72.1886C469.536 72.5969 469.427 72.9219 469.342 73.1634H468.383C468.429 72.9361 468.49 72.636 468.564 72.2631C468.639 71.8903 468.714 71.473 468.788 71.0114C468.866 70.5533 468.93 70.0845 468.98 69.6051L469.044 69.0085H470.407ZM475.905 70.6491C475.28 70.6491 474.717 70.5249 474.216 70.2763C473.715 70.0277 473.314 69.6868 473.012 69.2536C472.71 68.8203 472.545 68.3267 472.517 67.7727H473.795C473.845 68.2663 474.069 68.6747 474.466 68.9979C474.868 69.3175 475.347 69.4773 475.905 69.4773C476.352 69.4773 476.75 69.3725 477.098 69.163C477.449 68.9535 477.725 68.6658 477.923 68.3001C478.126 67.9308 478.227 67.5135 478.227 67.0483C478.227 66.5724 478.122 66.1481 477.913 65.7752C477.707 65.3988 477.423 65.1023 477.06 64.8857C476.698 64.669 476.285 64.5589 475.819 64.5554C475.486 64.5518 475.143 64.6033 474.791 64.7099C474.44 64.8129 474.15 64.946 473.923 65.1094L472.687 64.9602L473.348 59.5909H479.015V60.7628H474.456L474.072 63.9801H474.136C474.36 63.8026 474.64 63.6552 474.978 63.538C475.315 63.4208 475.667 63.3622 476.032 63.3622C476.7 63.3622 477.295 63.522 477.817 63.8416C478.342 64.1577 478.754 64.5909 479.053 65.1413C479.354 65.6918 479.505 66.3203 479.505 67.027C479.505 67.723 479.349 68.3445 479.037 68.8913C478.728 69.4347 478.302 69.8643 477.758 70.1804C477.215 70.4929 476.597 70.6491 475.905 70.6491ZM483.901 64.4063C483.45 64.4063 483.038 64.2962 482.665 64.076C482.296 63.8558 482.001 63.5611 481.781 63.1918C481.561 62.8189 481.451 62.407 481.451 61.956C481.451 61.505 481.561 61.0948 481.781 60.7255C482.001 60.3526 482.296 60.0561 482.665 59.8359C483.038 59.6158 483.45 59.5057 483.901 59.5057C484.352 59.5057 484.762 59.6158 485.132 59.8359C485.505 60.0561 485.801 60.3526 486.021 60.7255C486.241 61.0948 486.352 61.505 486.352 61.956C486.352 62.407 486.241 62.8189 486.021 63.1918C485.801 63.5611 485.505 63.8558 485.132 64.076C484.762 64.2962 484.352 64.4063 483.901 64.4063ZM483.901 63.3409C484.157 63.3409 484.39 63.2788 484.599 63.1545C484.809 63.0302 484.975 62.8633 485.1 62.6538C485.224 62.4442 485.286 62.2116 485.286 61.956C485.286 61.7003 485.224 61.4677 485.1 61.2582C484.975 61.0487 484.809 60.8817 484.599 60.7575C484.39 60.6332 484.157 60.571 483.901 60.571C483.646 60.571 483.413 60.6332 483.203 60.7575C482.994 60.8817 482.827 61.0487 482.703 61.2582C482.578 61.4677 482.516 61.7003 482.516 61.956C482.516 62.2116 482.578 62.4442 482.703 62.6538C482.827 62.8633 482.994 63.0302 483.203 63.1545C483.413 63.2788 483.646 63.3409 483.901 63.3409ZM497.227 63H495.906C495.828 62.62 495.691 62.2862 495.496 61.9986C495.304 61.7109 495.07 61.4695 494.793 61.2741C494.52 61.0753 494.216 60.9261 493.882 60.8267C493.548 60.7273 493.2 60.6776 492.838 60.6776C492.178 60.6776 491.579 60.8445 491.043 61.1783C490.51 61.5121 490.086 62.0039 489.77 62.6538C489.457 63.3036 489.301 64.1009 489.301 65.0455C489.301 65.9901 489.457 66.7873 489.77 67.4371C490.086 68.087 490.51 68.5788 491.043 68.9126C491.579 69.2464 492.178 69.4134 492.838 69.4134C493.2 69.4134 493.548 69.3636 493.882 69.2642C494.216 69.1648 494.52 69.0174 494.793 68.8221C495.07 68.6232 495.304 68.38 495.496 68.0923C495.691 67.8011 495.828 67.4673 495.906 67.0909H497.227C497.128 67.6484 496.947 68.1474 496.684 68.5877C496.421 69.0281 496.095 69.4027 495.704 69.7116C495.313 70.017 494.875 70.2496 494.388 70.4094C493.905 70.5692 493.389 70.6491 492.838 70.6491C491.908 70.6491 491.08 70.4219 490.356 69.9673C489.631 69.5128 489.062 68.8665 488.646 68.0284C488.231 67.1903 488.023 66.196 488.023 65.0455C488.023 63.8949 488.231 62.9006 488.646 62.0625C489.062 61.2244 489.631 60.5781 490.356 60.1236C491.08 59.669 491.908 59.4418 492.838 59.4418C493.389 59.4418 493.905 59.5217 494.388 59.6815C494.875 59.8413 495.313 60.0756 495.704 60.3846C496.095 60.69 496.421 61.0629 496.684 61.5032C496.947 61.94 497.128 62.4389 497.227 63ZM505.818 70.6918C505.3 70.6918 504.829 70.5941 504.406 70.3988C503.984 70.1999 503.648 69.9141 503.4 69.5412C503.151 69.1648 503.027 68.7102 503.027 68.1776C503.027 67.7088 503.119 67.3288 503.304 67.0376C503.488 66.7429 503.735 66.5121 504.044 66.3452C504.353 66.1783 504.694 66.054 505.067 65.9723C505.443 65.8871 505.822 65.8196 506.202 65.7699C506.699 65.706 507.102 65.658 507.411 65.6261C507.723 65.5906 507.95 65.532 508.092 65.4503C508.238 65.3686 508.311 65.2266 508.311 65.0241V64.9815C508.311 64.456 508.167 64.0476 507.879 63.7564C507.595 63.4652 507.164 63.3196 506.585 63.3196C505.985 63.3196 505.514 63.451 505.173 63.7138C504.833 63.9766 504.593 64.2571 504.454 64.5554L503.261 64.1293C503.474 63.6321 503.758 63.245 504.113 62.968C504.472 62.6875 504.863 62.4922 505.285 62.3821C505.711 62.2685 506.13 62.2116 506.542 62.2116C506.805 62.2116 507.107 62.2436 507.448 62.3075C507.792 62.3679 508.124 62.494 508.444 62.6857C508.767 62.8775 509.035 63.1669 509.248 63.554C509.461 63.9411 509.568 64.4595 509.568 65.1094V70.5H508.311V69.392H508.247C508.162 69.5696 508.02 69.7596 507.821 69.962C507.622 70.1644 507.357 70.3366 507.027 70.4787C506.697 70.6207 506.294 70.6918 505.818 70.6918ZM506.01 69.5625C506.507 69.5625 506.926 69.4648 507.267 69.2695C507.611 69.0742 507.871 68.8221 508.045 68.5131C508.222 68.2042 508.311 67.8793 508.311 67.5384V66.3878C508.258 66.4517 508.14 66.5103 507.959 66.5636C507.782 66.6133 507.576 66.6577 507.341 66.6967C507.111 66.7322 506.885 66.7642 506.665 66.7926C506.448 66.8175 506.273 66.8388 506.138 66.8565C505.811 66.8991 505.505 66.9684 505.221 67.0643C504.941 67.1566 504.714 67.2969 504.54 67.4851C504.369 67.6697 504.284 67.9219 504.284 68.2415C504.284 68.6783 504.445 69.0085 504.769 69.2322C505.095 69.4524 505.509 69.5625 506.01 69.5625ZM506.095 61.2102L504.433 58.7386H505.903L507.203 61.2102H506.095ZM519.277 68.5824V61.5511H520.47V68.5824H519.277ZM516.358 65.6634V64.4702H523.389V65.6634H516.358ZM533.575 70.6491C532.95 70.6491 532.388 70.5249 531.887 70.2763C531.386 70.0277 530.985 69.6868 530.683 69.2536C530.381 68.8203 530.216 68.3267 530.188 67.7727H531.466C531.516 68.2663 531.74 68.6747 532.137 68.9979C532.539 69.3175 533.018 69.4773 533.575 69.4773C534.023 69.4773 534.421 69.3725 534.769 69.163C535.12 68.9535 535.395 68.6658 535.594 68.3001C535.797 67.9308 535.898 67.5135 535.898 67.0483C535.898 66.5724 535.793 66.1481 535.584 65.7752C535.378 65.3988 535.094 65.1023 534.731 64.8857C534.369 64.669 533.955 64.5589 533.49 64.5554C533.156 64.5518 532.814 64.6033 532.462 64.7099C532.111 64.8129 531.821 64.946 531.594 65.1094L530.358 64.9602L531.019 59.5909H536.686V60.7628H532.127L531.743 63.9801H531.807C532.031 63.8026 532.311 63.6552 532.649 63.538C532.986 63.4208 533.338 63.3622 533.703 63.3622C534.371 63.3622 534.966 63.522 535.488 63.8416C536.013 64.1577 536.425 64.5909 536.724 65.1413C537.025 65.6918 537.176 66.3203 537.176 67.027C537.176 67.723 537.02 68.3445 536.708 68.8913C536.399 69.4347 535.972 69.8643 535.429 70.1804C534.886 70.4929 534.268 70.6491 533.575 70.6491ZM540.778 69.0085L540.693 69.5838C540.633 69.9886 540.541 70.4219 540.416 70.8835C540.296 71.3452 540.169 71.7802 540.038 72.1886C539.907 72.5969 539.798 72.9219 539.713 73.1634H538.754C538.8 72.9361 538.861 72.636 538.935 72.2631C539.01 71.8903 539.085 71.473 539.159 71.0114C539.237 70.5533 539.301 70.0845 539.351 69.6051L539.415 69.0085H540.778ZM545.618 59.5909V70.5H544.297V60.9759H544.233L541.569 62.7443V61.402L544.297 59.5909H545.618ZM551.035 64.4063C550.584 64.4063 550.172 64.2962 549.799 64.076C549.43 63.8558 549.135 63.5611 548.915 63.1918C548.695 62.8189 548.585 62.407 548.585 61.956C548.585 61.505 548.695 61.0948 548.915 60.7255C549.135 60.3526 549.43 60.0561 549.799 59.8359C550.172 59.6158 550.584 59.5057 551.035 59.5057C551.486 59.5057 551.896 59.6158 552.266 59.8359C552.638 60.0561 552.935 60.3526 553.155 60.7255C553.375 61.0948 553.485 61.505 553.485 61.956C553.485 62.407 553.375 62.8189 553.155 63.1918C552.935 63.5611 552.638 63.8558 552.266 64.076C551.896 64.2962 551.486 64.4063 551.035 64.4063ZM551.035 63.3409C551.291 63.3409 551.523 63.2788 551.733 63.1545C551.942 63.0302 552.109 62.8633 552.234 62.6538C552.358 62.4442 552.42 62.2116 552.42 61.956C552.42 61.7003 552.358 61.4677 552.234 61.2582C552.109 61.0487 551.942 60.8817 551.733 60.7575C551.523 60.6332 551.291 60.571 551.035 60.571C550.779 60.571 550.547 60.6332 550.337 60.7575C550.128 60.8817 549.961 61.0487 549.837 61.2582C549.712 61.4677 549.65 61.7003 549.65 61.956C549.65 62.2116 549.712 62.4442 549.837 62.6538C549.961 62.8633 550.128 63.0302 550.337 63.1545C550.547 63.2788 550.779 63.3409 551.035 63.3409ZM564.361 63H563.04C562.962 62.62 562.825 62.2862 562.63 61.9986C562.438 61.7109 562.204 61.4695 561.927 61.2741C561.653 61.0753 561.35 60.9261 561.016 60.8267C560.682 60.7273 560.334 60.6776 559.972 60.6776C559.311 60.6776 558.713 60.8445 558.177 61.1783C557.644 61.5121 557.22 62.0039 556.904 62.6538C556.591 63.3036 556.435 64.1009 556.435 65.0455C556.435 65.9901 556.591 66.7873 556.904 67.4371C557.22 68.087 557.644 68.5788 558.177 68.9126C558.713 69.2464 559.311 69.4134 559.972 69.4134C560.334 69.4134 560.682 69.3636 561.016 69.2642C561.35 69.1648 561.653 69.0174 561.927 68.8221C562.204 68.6232 562.438 68.38 562.63 68.0923C562.825 67.8011 562.962 67.4673 563.04 67.0909H564.361C564.262 67.6484 564.081 68.1474 563.818 68.5877C563.555 69.0281 563.228 69.4027 562.838 69.7116C562.447 70.017 562.009 70.2496 561.522 70.4094C561.039 70.5692 560.522 70.6491 559.972 70.6491C559.042 70.6491 558.214 70.4219 557.49 69.9673C556.765 69.5128 556.195 68.8665 555.78 68.0284C555.364 67.1903 555.157 66.196 555.157 65.0455C555.157 63.8949 555.364 62.9006 555.78 62.0625C556.195 61.2244 556.765 60.5781 557.49 60.1236C558.214 59.669 559.042 59.4418 559.972 59.4418C560.522 59.4418 561.039 59.5217 561.522 59.6815C562.009 59.8413 562.447 60.0756 562.838 60.3846C563.228 60.69 563.555 61.0629 563.818 61.5032C564.081 61.94 564.262 62.4389 564.361 63Z" fill="black"/>
</svg>
