<svg width="800" height="800" viewBox="0 0 800 800" fill="none" xmlns="http://www.w3.org/2000/svg">
<g clip-path="url(#clip0_1361_2960)">
<path d="M420.66 799.07C188.71 799.07 0 610.38 0 378.43C0 217.79 89.43 73.4603 233.39 1.77025C239.87 -1.43975 247.66 -0.199746 252.76 4.90025C257.86 10.0003 259.17 17.7903 255.99 24.2503C229.72 77.6303 216.41 135.01 216.41 194.77C216.41 408.17 390.01 581.77 603.41 581.77C663.82 581.77 721.76 568.16 775.66 541.33C782.16 538.12 789.93 539.36 795.03 544.46C800.15 549.56 801.44 557.35 798.26 563.81C726.91 708.9 582.2 799.07 420.65 799.07H420.66Z" fill="#010002"/>
</g>
<defs>
<clipPath id="clip0_1361_2960">
<rect width="799.99" height="799.07" fill="white"/>
</clipPath>
</defs>
</svg>
