<svg width="594" height="439" viewBox="0 0 594 439" fill="none" xmlns="http://www.w3.org/2000/svg">
<path d="M0 91C0 46.8172 35.8172 11 80 11H514C558.183 11 594 46.8172 594 91V359C594 403.183 558.183 439 514 439H80C35.8172 439 0 403.183 0 359V91Z" fill="#2F4858" fill-opacity="0.95"/>
<g filter="url(#filter0_dd_1370_3048)">
<rect x="158" y="37" width="277.318" height="277.318" rx="64.7703" fill="#EA9A28"/>
<path d="M256.864 134.282C270.198 111.187 276.865 99.6393 285.664 95.9405C292.694 92.9857 300.616 92.9857 307.646 95.9405C316.445 99.6393 323.112 111.187 336.446 134.282L368.759 190.25C382.093 213.345 388.76 224.893 387.564 234.362C386.608 241.927 382.647 248.789 376.573 253.399C368.97 259.17 355.636 259.17 328.968 259.17H264.342C237.674 259.17 224.34 259.17 216.737 253.399C210.664 248.789 206.702 241.927 205.746 234.362C204.55 224.893 211.217 213.345 224.551 190.25L256.864 134.282Z" fill="white"/>
<rect x="287.555" y="138.151" width="18.2018" height="67.0865" rx="5.67292" fill="#EA9A28"/>
<rect x="287.555" y="218.24" width="18.2018" height="18.2018" rx="5.67292" fill="#EA9A28"/>
</g>
<path d="M139.332 346.561V344.454H141.957C142.291 344.454 142.596 344.385 142.872 344.247C143.149 344.109 143.368 343.907 143.529 343.642C143.69 343.377 143.771 343.055 143.771 342.675C143.771 342.307 143.69 341.99 143.529 341.725C143.368 341.46 143.149 341.259 142.872 341.121C142.596 340.983 142.291 340.913 141.957 340.913H139.332V338.806H142.354C143.126 338.806 143.822 338.962 144.444 339.273C145.066 339.584 145.555 340.033 145.912 340.62C146.281 341.196 146.465 341.881 146.465 342.675C146.465 343.47 146.281 344.16 145.912 344.748C145.555 345.323 145.066 345.772 144.444 346.095C143.822 346.406 143.126 346.561 142.354 346.561H139.332ZM137.259 351V338.806H139.971V351H137.259ZM154.616 351.207C153.695 351.207 152.843 351.046 152.06 350.724C151.288 350.401 150.609 349.952 150.022 349.376C149.434 348.801 148.98 348.133 148.657 347.373C148.335 346.602 148.174 345.772 148.174 344.886C148.174 343.988 148.335 343.159 148.657 342.399C148.98 341.639 149.429 340.977 150.004 340.413C150.58 339.837 151.254 339.394 152.025 339.083C152.808 338.76 153.66 338.599 154.581 338.599C155.491 338.599 156.331 338.76 157.103 339.083C157.886 339.394 158.565 339.837 159.141 340.413C159.728 340.977 160.183 341.645 160.505 342.416C160.828 343.176 160.989 344.005 160.989 344.903C160.989 345.79 160.828 346.619 160.505 347.39C160.183 348.15 159.734 348.818 159.158 349.394C158.583 349.958 157.903 350.401 157.12 350.724C156.349 351.046 155.514 351.207 154.616 351.207ZM154.581 348.737C155.307 348.737 155.94 348.576 156.481 348.254C157.034 347.931 157.46 347.482 157.759 346.907C158.059 346.319 158.208 345.646 158.208 344.886C158.208 344.31 158.122 343.792 157.949 343.331C157.777 342.859 157.529 342.456 157.207 342.122C156.884 341.777 156.498 341.518 156.049 341.345C155.612 341.161 155.122 341.069 154.581 341.069C153.856 341.069 153.217 341.23 152.664 341.552C152.123 341.863 151.703 342.307 151.403 342.882C151.104 343.447 150.954 344.114 150.954 344.886C150.954 345.462 151.041 345.985 151.213 346.458C151.386 346.93 151.628 347.338 151.939 347.684C152.261 348.018 152.647 348.277 153.096 348.461C153.545 348.645 154.04 348.737 154.581 348.737ZM168.306 351.19C167.305 351.19 166.418 350.977 165.647 350.551C164.887 350.125 164.288 349.538 163.85 348.789C163.424 348.029 163.211 347.166 163.211 346.199V338.806H165.94V346.354C165.94 346.838 166.044 347.258 166.251 347.615C166.458 347.972 166.74 348.248 167.097 348.444C167.466 348.628 167.869 348.72 168.306 348.72C168.767 348.72 169.17 348.628 169.515 348.444C169.861 348.248 170.131 347.977 170.327 347.632C170.534 347.275 170.638 346.855 170.638 346.371V338.806H173.367V346.216C173.367 347.183 173.154 348.041 172.728 348.789C172.302 349.538 171.709 350.125 170.949 350.551C170.189 350.977 169.308 351.19 168.306 351.19ZM178.292 345.974V343.97H180.865C181.406 343.97 181.821 343.832 182.109 343.556C182.408 343.28 182.558 342.905 182.558 342.433C182.558 341.996 182.414 341.633 182.126 341.345C181.838 341.057 181.424 340.913 180.883 340.913H178.292V338.806H181.193C181.999 338.806 182.708 338.962 183.318 339.273C183.928 339.572 184.406 339.992 184.751 340.533C185.097 341.075 185.27 341.696 185.27 342.399C185.27 343.113 185.097 343.74 184.751 344.281C184.406 344.811 183.922 345.226 183.301 345.525C182.679 345.824 181.948 345.974 181.107 345.974H178.292ZM176.219 351V338.806H178.931V351H176.219ZM182.852 351L179.052 345.749L181.539 345.076L186.064 351H182.852ZM195.957 351L191.259 338.806H194.16L197.736 348.668H196.544L200.171 338.806H203.038L198.288 351H195.957ZM205.161 351V338.806H207.872V351H205.161ZM214.337 351.19C213.335 351.19 212.472 351.029 211.746 350.706C211.032 350.372 210.376 349.872 209.777 349.204L211.539 347.459C211.93 347.908 212.362 348.26 212.834 348.513C213.318 348.755 213.876 348.876 214.51 348.876C215.085 348.876 215.529 348.772 215.839 348.565C216.162 348.357 216.323 348.07 216.323 347.701C216.323 347.367 216.219 347.097 216.012 346.889C215.805 346.682 215.529 346.504 215.183 346.354C214.849 346.204 214.475 346.06 214.061 345.922C213.658 345.784 213.255 345.629 212.852 345.456C212.449 345.272 212.074 345.047 211.729 344.782C211.395 344.506 211.124 344.166 210.917 343.763C210.71 343.349 210.606 342.831 210.606 342.209C210.606 341.46 210.785 340.816 211.142 340.274C211.51 339.733 212.017 339.324 212.662 339.048C213.306 338.76 214.049 338.616 214.89 338.616C215.742 338.616 216.519 338.766 217.221 339.065C217.935 339.365 218.522 339.774 218.983 340.292L217.221 342.036C216.853 341.656 216.479 341.374 216.099 341.19C215.73 341.006 215.31 340.913 214.838 340.913C214.366 340.913 213.991 341.006 213.715 341.19C213.439 341.362 213.301 341.616 213.301 341.95C213.301 342.261 213.404 342.514 213.611 342.71C213.819 342.894 214.089 343.055 214.423 343.193C214.769 343.331 215.143 343.47 215.546 343.608C215.96 343.746 216.369 343.907 216.772 344.091C217.175 344.276 217.544 344.512 217.878 344.8C218.223 345.076 218.499 345.433 218.707 345.87C218.914 346.296 219.017 346.826 219.017 347.459C219.017 348.622 218.603 349.538 217.774 350.206C216.945 350.862 215.799 351.19 214.337 351.19ZM226.543 351.19C225.541 351.19 224.655 350.977 223.883 350.551C223.123 350.125 222.525 349.538 222.087 348.789C221.661 348.029 221.448 347.166 221.448 346.199V338.806H224.177V346.354C224.177 346.838 224.281 347.258 224.488 347.615C224.695 347.972 224.977 348.248 225.334 348.444C225.703 348.628 226.106 348.72 226.543 348.72C227.004 348.72 227.407 348.628 227.752 348.444C228.098 348.248 228.368 347.977 228.564 347.632C228.771 347.275 228.875 346.855 228.875 346.371V338.806H231.604V346.216C231.604 347.183 231.391 348.041 230.965 348.789C230.539 349.538 229.946 350.125 229.186 350.551C228.426 350.977 227.545 351.19 226.543 351.19ZM233.085 351L237.921 338.806H240.374L245.158 351H242.291L238.629 340.879H239.614L235.9 351H233.085ZM235.831 348.789V346.578H242.481V348.789H235.831ZM247.139 351V338.806H249.851V351H247.139ZM249.229 351V348.617H255.257V351H249.229ZM257.511 351V338.806H260.223V351H257.511ZM266.688 351.19C265.686 351.19 264.822 351.029 264.097 350.706C263.383 350.372 262.727 349.872 262.128 349.204L263.89 347.459C264.281 347.908 264.713 348.26 265.185 348.513C265.669 348.755 266.227 348.876 266.861 348.876C267.436 348.876 267.88 348.772 268.19 348.565C268.513 348.357 268.674 348.07 268.674 347.701C268.674 347.367 268.57 347.097 268.363 346.889C268.156 346.682 267.88 346.504 267.534 346.354C267.2 346.204 266.826 346.06 266.411 345.922C266.008 345.784 265.605 345.629 265.202 345.456C264.799 345.272 264.425 345.047 264.08 344.782C263.746 344.506 263.475 344.166 263.268 343.763C263.061 343.349 262.957 342.831 262.957 342.209C262.957 341.46 263.136 340.816 263.493 340.274C263.861 339.733 264.368 339.324 265.012 339.048C265.657 338.76 266.4 338.616 267.24 338.616C268.093 338.616 268.87 338.766 269.572 339.065C270.286 339.365 270.873 339.774 271.334 340.292L269.572 342.036C269.204 341.656 268.829 341.374 268.449 341.19C268.081 341.006 267.661 340.913 267.189 340.913C266.717 340.913 266.342 341.006 266.066 341.19C265.79 341.362 265.652 341.616 265.652 341.95C265.652 342.261 265.755 342.514 265.962 342.71C266.17 342.894 266.44 343.055 266.774 343.193C267.12 343.331 267.494 343.47 267.897 343.608C268.311 343.746 268.72 343.907 269.123 344.091C269.526 344.276 269.895 344.512 270.228 344.8C270.574 345.076 270.85 345.433 271.058 345.87C271.265 346.296 271.368 346.826 271.368 347.459C271.368 348.622 270.954 349.538 270.125 350.206C269.296 350.862 268.15 351.19 266.688 351.19ZM273.787 351V338.806H276.498V351H273.787ZM275.859 351V348.651H282.543V351H275.859ZM275.859 345.905V343.642H281.939V345.905H275.859ZM275.859 341.138V338.806H282.457V341.138H275.859ZM287.176 345.974V343.97H289.749C290.291 343.97 290.705 343.832 290.993 343.556C291.292 343.28 291.442 342.905 291.442 342.433C291.442 341.996 291.298 341.633 291.01 341.345C290.722 341.057 290.308 340.913 289.767 340.913H287.176V338.806H290.078C290.884 338.806 291.592 338.962 292.202 339.273C292.812 339.572 293.29 339.992 293.636 340.533C293.981 341.075 294.154 341.696 294.154 342.399C294.154 343.113 293.981 343.74 293.636 344.281C293.29 344.811 292.807 345.226 292.185 345.525C291.563 345.824 290.832 345.974 289.991 345.974H287.176ZM285.103 351V338.806H287.815V351H285.103ZM291.736 351L287.936 345.749L290.423 345.076L294.948 351H291.736ZM301.041 351V338.806H303.753V351H301.041ZM303.131 351V348.617H309.159V351H303.131ZM311.413 351V338.806H314.125V351H311.413ZM313.486 351V348.651H320.17V351H313.486ZM313.486 345.905V343.642H319.566V345.905H313.486ZM313.486 341.138V338.806H320.084V341.138H313.486ZM326.088 351.19C325.087 351.19 324.223 351.029 323.498 350.706C322.784 350.372 322.127 349.872 321.529 349.204L323.29 347.459C323.682 347.908 324.114 348.26 324.586 348.513C325.069 348.755 325.628 348.876 326.261 348.876C326.837 348.876 327.28 348.772 327.591 348.565C327.913 348.357 328.075 348.07 328.075 347.701C328.075 347.367 327.971 347.097 327.764 346.889C327.556 346.682 327.28 346.504 326.935 346.354C326.601 346.204 326.227 346.06 325.812 345.922C325.409 345.784 325.006 345.629 324.603 345.456C324.2 345.272 323.826 345.047 323.48 344.782C323.146 344.506 322.876 344.166 322.669 343.763C322.461 343.349 322.358 342.831 322.358 342.209C322.358 341.46 322.536 340.816 322.893 340.274C323.262 339.733 323.768 339.324 324.413 339.048C325.058 338.76 325.801 338.616 326.641 338.616C327.493 338.616 328.27 338.766 328.973 339.065C329.687 339.365 330.274 339.774 330.734 340.292L328.973 342.036C328.604 341.656 328.23 341.374 327.85 341.19C327.482 341.006 327.061 340.913 326.589 340.913C326.117 340.913 325.743 341.006 325.467 341.19C325.19 341.362 325.052 341.616 325.052 341.95C325.052 342.261 325.156 342.514 325.363 342.71C325.57 342.894 325.841 343.055 326.175 343.193C326.52 343.331 326.894 343.47 327.297 343.608C327.712 343.746 328.121 343.907 328.524 344.091C328.927 344.276 329.295 344.512 329.629 344.8C329.974 345.076 330.251 345.433 330.458 345.87C330.665 346.296 330.769 346.826 330.769 347.459C330.769 348.622 330.354 349.538 329.525 350.206C328.696 350.862 327.551 351.19 326.088 351.19ZM342.918 351.19C342.032 351.19 341.197 351.029 340.414 350.706C339.643 350.384 338.969 349.941 338.393 349.376C337.818 348.801 337.363 348.133 337.029 347.373C336.706 346.602 336.545 345.772 336.545 344.886C336.545 343.999 336.712 343.176 337.046 342.416C337.38 341.656 337.841 340.994 338.428 340.43C339.027 339.854 339.723 339.411 340.518 339.1C341.312 338.778 342.164 338.616 343.074 338.616C344.122 338.616 345.072 338.806 345.924 339.186C346.787 339.566 347.501 340.09 348.065 340.758L346.217 342.606C345.826 342.099 345.365 341.719 344.836 341.466C344.306 341.213 343.707 341.086 343.039 341.086C342.325 341.086 341.686 341.247 341.122 341.57C340.558 341.881 340.115 342.324 339.792 342.9C339.481 343.464 339.326 344.126 339.326 344.886C339.326 345.646 339.481 346.314 339.792 346.889C340.103 347.465 340.529 347.914 341.07 348.237C341.612 348.559 342.233 348.72 342.936 348.72C343.65 348.72 344.254 348.588 344.749 348.323C345.256 348.047 345.642 347.655 345.906 347.148C346.183 346.63 346.321 346.003 346.321 345.266L348.117 346.475L342.677 346.389V344.091H349.084V344.489C349.084 345.951 348.819 347.183 348.29 348.185C347.772 349.175 347.046 349.923 346.114 350.43C345.192 350.937 344.127 351.19 342.918 351.19ZM353.491 345.974V343.97H356.065C356.606 343.97 357.02 343.832 357.308 343.556C357.608 343.28 357.757 342.905 357.757 342.433C357.757 341.996 357.613 341.633 357.326 341.345C357.038 341.057 356.623 340.913 356.082 340.913H353.491V338.806H356.393C357.199 338.806 357.907 338.962 358.517 339.273C359.128 339.572 359.605 339.992 359.951 340.533C360.296 341.075 360.469 341.696 360.469 342.399C360.469 343.113 360.296 343.74 359.951 344.281C359.605 344.811 359.122 345.226 358.5 345.525C357.878 345.824 357.147 345.974 356.307 345.974H353.491ZM351.419 351V338.806H354.13V351H351.419ZM358.051 351L354.251 345.749L356.738 345.076L361.263 351H358.051ZM361.837 351L366.673 338.806H369.126L373.91 351H371.043L367.381 340.879H368.366L364.652 351H361.837ZM364.583 348.789V346.578H371.233V348.789H364.583ZM377.964 346.561V344.454H380.589C380.923 344.454 381.228 344.385 381.504 344.247C381.781 344.109 381.999 343.907 382.161 343.642C382.322 343.377 382.402 343.055 382.402 342.675C382.402 342.307 382.322 341.99 382.161 341.725C381.999 341.46 381.781 341.259 381.504 341.121C381.228 340.983 380.923 340.913 380.589 340.913H377.964V338.806H380.986C381.758 338.806 382.454 338.962 383.076 339.273C383.698 339.584 384.187 340.033 384.544 340.62C384.912 341.196 385.097 341.881 385.097 342.675C385.097 343.47 384.912 344.16 384.544 344.748C384.187 345.323 383.698 345.772 383.076 346.095C382.454 346.406 381.758 346.561 380.986 346.561H377.964ZM375.891 351V338.806H378.603V351H375.891ZM387.309 351V338.806H390.021V351H387.309ZM394.857 351V338.806H397.586V351H394.857ZM388.933 345.905V343.556H395.755V345.905H388.933ZM400.616 351V338.806H403.328V351H400.616ZM412.188 351.207C411.278 351.207 410.432 351.046 409.649 350.724C408.866 350.401 408.181 349.952 407.593 349.376C407.018 348.801 406.563 348.133 406.229 347.373C405.907 346.602 405.745 345.772 405.745 344.886C405.745 343.988 405.907 343.159 406.229 342.399C406.551 341.639 407 340.977 407.576 340.413C408.163 339.837 408.843 339.394 409.614 339.083C410.397 338.76 411.243 338.599 412.153 338.599C413.074 338.599 413.921 338.76 414.692 339.083C415.475 339.394 416.154 339.837 416.73 340.413C417.317 340.977 417.772 341.645 418.094 342.416C418.417 343.176 418.578 344.005 418.578 344.903C418.578 345.79 418.417 346.619 418.094 347.39C417.772 348.15 417.317 348.818 416.73 349.394C416.154 349.958 415.481 350.401 414.709 350.724C413.938 351.046 413.097 351.207 412.188 351.207ZM412.153 348.737C412.89 348.737 413.529 348.576 414.07 348.254C414.611 347.931 415.032 347.482 415.331 346.907C415.642 346.319 415.797 345.646 415.797 344.886C415.797 344.31 415.711 343.792 415.538 343.331C415.366 342.859 415.118 342.456 414.796 342.122C414.473 341.777 414.087 341.518 413.638 341.345C413.201 341.161 412.706 341.069 412.153 341.069C411.428 341.069 410.794 341.23 410.253 341.552C409.712 341.863 409.286 342.307 408.975 342.882C408.676 343.447 408.526 344.114 408.526 344.886C408.526 345.462 408.612 345.985 408.785 346.458C408.958 346.93 409.205 347.338 409.528 347.684C409.85 348.018 410.23 348.277 410.668 348.461C411.117 348.645 411.612 348.737 412.153 348.737ZM417.628 351.967L411.929 346.268L413.5 344.696L419.2 350.395L417.628 351.967ZM426.114 351.19C425.112 351.19 424.226 350.977 423.454 350.551C422.694 350.125 422.096 349.538 421.658 348.789C421.232 348.029 421.019 347.166 421.019 346.199V338.806H423.748V346.354C423.748 346.838 423.852 347.258 424.059 347.615C424.266 347.972 424.548 348.248 424.905 348.444C425.274 348.628 425.677 348.72 426.114 348.72C426.575 348.72 426.978 348.628 427.323 348.444C427.669 348.248 427.939 347.977 428.135 347.632C428.342 347.275 428.446 346.855 428.446 346.371V338.806H431.175V346.216C431.175 347.183 430.962 348.041 430.536 348.789C430.11 349.538 429.517 350.125 428.757 350.551C427.997 350.977 427.116 351.19 426.114 351.19ZM434.027 351V338.806H436.739V351H434.027ZM436.1 351V348.651H442.784V351H436.1ZM436.1 345.905V343.642H442.179V345.905H436.1ZM436.1 341.138V338.806H442.697V341.138H436.1ZM448.702 351.19C447.7 351.19 446.837 351.029 446.111 350.706C445.397 350.372 444.741 349.872 444.142 349.204L445.904 347.459C446.296 347.908 446.727 348.26 447.199 348.513C447.683 348.755 448.241 348.876 448.875 348.876C449.45 348.876 449.894 348.772 450.205 348.565C450.527 348.357 450.688 348.07 450.688 347.701C450.688 347.367 450.585 347.097 450.377 346.889C450.17 346.682 449.894 346.504 449.548 346.354C449.214 346.204 448.84 346.06 448.426 345.922C448.023 345.784 447.62 345.629 447.217 345.456C446.814 345.272 446.439 345.047 446.094 344.782C445.76 344.506 445.49 344.166 445.282 343.763C445.075 343.349 444.971 342.831 444.971 342.209C444.971 341.46 445.15 340.816 445.507 340.274C445.875 339.733 446.382 339.324 447.027 339.048C447.672 338.76 448.414 338.616 449.255 338.616C450.107 338.616 450.884 338.766 451.586 339.065C452.3 339.365 452.888 339.774 453.348 340.292L451.586 342.036C451.218 341.656 450.844 341.374 450.464 341.19C450.095 341.006 449.675 340.913 449.203 340.913C448.731 340.913 448.357 341.006 448.08 341.19C447.804 341.362 447.666 341.616 447.666 341.95C447.666 342.261 447.769 342.514 447.977 342.71C448.184 342.894 448.454 343.055 448.788 343.193C449.134 343.331 449.508 343.47 449.911 343.608C450.326 343.746 450.734 343.907 451.137 344.091C451.54 344.276 451.909 344.512 452.243 344.8C452.588 345.076 452.864 345.433 453.072 345.87C453.279 346.296 453.383 346.826 453.383 347.459C453.383 348.622 452.968 349.538 452.139 350.206C451.31 350.862 450.164 351.19 448.702 351.19ZM153.084 373L148.386 360.806H151.288L154.863 370.668H153.671L157.298 360.806H160.166L155.416 373H153.084ZM162.288 373V360.806H165V373H162.288ZM164.361 373V370.651H171.045V373H164.361ZM164.361 367.905V365.642H170.44V367.905H164.361ZM164.361 363.138V360.806H170.958V363.138H164.361ZM178.51 373.19C177.508 373.19 176.622 372.977 175.85 372.551C175.09 372.125 174.492 371.538 174.054 370.789C173.628 370.029 173.415 369.166 173.415 368.199V360.806H176.144V368.354C176.144 368.838 176.247 369.258 176.455 369.615C176.662 369.972 176.944 370.248 177.301 370.444C177.669 370.628 178.072 370.72 178.51 370.72C178.971 370.72 179.374 370.628 179.719 370.444C180.064 370.248 180.335 369.977 180.531 369.632C180.738 369.275 180.842 368.855 180.842 368.371V360.806H183.571V368.216C183.571 369.183 183.358 370.041 182.932 370.789C182.506 371.538 181.913 372.125 181.153 372.551C180.393 372.977 179.512 373.19 178.51 373.19ZM186.423 373V360.806H189.135V373H186.423ZM192.174 373V360.806H194.885V373H192.174ZM194.264 373V370.617H200.291V373H194.264ZM202.546 373V360.806H205.258V373H202.546ZM204.636 373V370.617H210.664V373H204.636ZM212.919 373V360.806H215.63V373H212.919ZM214.991 373V370.651H221.675V373H214.991ZM214.991 367.905V365.642H221.071V367.905H214.991ZM214.991 363.138V360.806H221.589V363.138H214.991ZM223.579 371.1L229.711 362.689H232.992L226.843 371.1H223.579ZM223.579 373V371.1L225.375 370.668H232.837V373H223.579ZM223.925 363.138V360.806H232.992V362.689L231.161 363.138H223.925ZM243.076 373.19C242.074 373.19 241.21 373.029 240.485 372.706C239.771 372.372 239.115 371.872 238.516 371.204L240.278 369.459C240.669 369.908 241.101 370.26 241.573 370.513C242.057 370.755 242.615 370.876 243.248 370.876C243.824 370.876 244.267 370.772 244.578 370.565C244.901 370.357 245.062 370.07 245.062 369.701C245.062 369.367 244.958 369.097 244.751 368.889C244.544 368.682 244.267 368.504 243.922 368.354C243.588 368.204 243.214 368.06 242.799 367.922C242.396 367.784 241.993 367.629 241.59 367.456C241.187 367.272 240.813 367.047 240.468 366.782C240.134 366.506 239.863 366.166 239.656 365.763C239.449 365.349 239.345 364.831 239.345 364.209C239.345 363.46 239.524 362.816 239.881 362.274C240.249 361.733 240.756 361.324 241.4 361.048C242.045 360.76 242.788 360.616 243.628 360.616C244.48 360.616 245.258 360.766 245.96 361.065C246.674 361.365 247.261 361.774 247.722 362.292L245.96 364.036C245.592 363.656 245.217 363.374 244.837 363.19C244.469 363.006 244.049 362.913 243.577 362.913C243.105 362.913 242.73 363.006 242.454 363.19C242.178 363.362 242.039 363.616 242.039 363.95C242.039 364.261 242.143 364.514 242.35 364.71C242.558 364.894 242.828 365.055 243.162 365.193C243.508 365.331 243.882 365.47 244.285 365.608C244.699 365.746 245.108 365.907 245.511 366.091C245.914 366.276 246.282 366.512 246.616 366.8C246.962 367.076 247.238 367.433 247.445 367.87C247.653 368.296 247.756 368.826 247.756 369.459C247.756 370.622 247.342 371.538 246.513 372.206C245.684 372.862 244.538 373.19 243.076 373.19ZM248.905 373L253.741 360.806H256.193L260.978 373H258.111L254.449 362.879H255.434L251.72 373H248.905ZM251.651 370.789V368.578H258.301V370.789H251.651ZM262.959 373V360.806H265.67V373H262.959ZM272.135 373.19C271.133 373.19 270.27 373.029 269.544 372.706C268.83 372.372 268.174 371.872 267.575 371.204L269.337 369.459C269.729 369.908 270.16 370.26 270.632 370.513C271.116 370.755 271.674 370.876 272.308 370.876C272.884 370.876 273.327 370.772 273.638 370.565C273.96 370.357 274.121 370.07 274.121 369.701C274.121 369.367 274.018 369.097 273.81 368.889C273.603 368.682 273.327 368.504 272.981 368.354C272.647 368.204 272.273 368.06 271.859 367.922C271.456 367.784 271.053 367.629 270.65 367.456C270.247 367.272 269.872 367.047 269.527 366.782C269.193 366.506 268.923 366.166 268.715 365.763C268.508 365.349 268.404 364.831 268.404 364.209C268.404 363.46 268.583 362.816 268.94 362.274C269.308 361.733 269.815 361.324 270.46 361.048C271.105 360.76 271.847 360.616 272.688 360.616C273.54 360.616 274.317 360.766 275.019 361.065C275.733 361.365 276.321 361.774 276.781 362.292L275.019 364.036C274.651 363.656 274.277 363.374 273.897 363.19C273.528 363.006 273.108 362.913 272.636 362.913C272.164 362.913 271.79 363.006 271.513 363.19C271.237 363.362 271.099 363.616 271.099 363.95C271.099 364.261 271.202 364.514 271.41 364.71C271.617 364.894 271.888 365.055 272.221 365.193C272.567 365.331 272.941 365.47 273.344 365.608C273.759 365.746 274.167 365.907 274.57 366.091C274.973 366.276 275.342 366.512 275.676 366.8C276.021 367.076 276.298 367.433 276.505 367.87C276.712 368.296 276.816 368.826 276.816 369.459C276.816 370.622 276.401 371.538 275.572 372.206C274.743 372.862 273.597 373.19 272.135 373.19ZM279.234 373V360.806H281.945V373H279.234ZM287.057 367.974V365.97H289.631C290.172 365.97 290.586 365.832 290.874 365.556C291.174 365.28 291.323 364.905 291.323 364.433C291.323 363.996 291.179 363.633 290.892 363.345C290.604 363.057 290.189 362.913 289.648 362.913H287.057V360.806H289.959C290.765 360.806 291.473 360.962 292.083 361.273C292.694 361.572 293.171 361.992 293.517 362.533C293.862 363.075 294.035 363.696 294.035 364.399C294.035 365.113 293.862 365.74 293.517 366.281C293.171 366.811 292.688 367.226 292.066 367.525C291.444 367.824 290.713 367.974 289.873 367.974H287.057ZM284.985 373V360.806H287.696V373H284.985ZM291.617 373L287.817 367.749L290.304 367.076L294.829 373H291.617ZM304.722 373L300.024 360.806H302.926L306.501 370.668H305.309L308.936 360.806H311.803L307.054 373H304.722ZM319.24 373.207C318.319 373.207 317.467 373.046 316.684 372.724C315.913 372.401 315.233 371.952 314.646 371.376C314.059 370.801 313.604 370.133 313.282 369.373C312.959 368.602 312.798 367.772 312.798 366.886C312.798 365.988 312.959 365.159 313.282 364.399C313.604 363.639 314.053 362.977 314.629 362.413C315.205 361.837 315.878 361.394 316.65 361.083C317.433 360.76 318.285 360.599 319.206 360.599C320.116 360.599 320.956 360.76 321.728 361.083C322.511 361.394 323.19 361.837 323.766 362.413C324.353 362.977 324.808 363.645 325.13 364.416C325.452 365.176 325.614 366.005 325.614 366.903C325.614 367.79 325.452 368.619 325.13 369.39C324.808 370.15 324.359 370.818 323.783 371.394C323.207 371.958 322.528 372.401 321.745 372.724C320.973 373.046 320.139 373.207 319.24 373.207ZM319.206 370.737C319.931 370.737 320.565 370.576 321.106 370.254C321.658 369.931 322.085 369.482 322.384 368.907C322.683 368.319 322.833 367.646 322.833 366.886C322.833 366.31 322.747 365.792 322.574 365.331C322.401 364.859 322.154 364.456 321.831 364.122C321.509 363.777 321.123 363.518 320.674 363.345C320.236 363.161 319.747 363.069 319.206 363.069C318.481 363.069 317.841 363.23 317.289 363.552C316.748 363.863 316.327 364.307 316.028 364.882C315.729 365.447 315.579 366.114 315.579 366.886C315.579 367.462 315.665 367.985 315.838 368.458C316.011 368.93 316.252 369.338 316.563 369.684C316.886 370.018 317.272 370.277 317.721 370.461C318.17 370.645 318.665 370.737 319.206 370.737ZM330.373 373V360.979H333.085V373H330.373ZM326.556 363.173V360.806H336.902V363.173H326.556ZM341.179 367.974V365.97H343.753C344.294 365.97 344.708 365.832 344.996 365.556C345.296 365.28 345.445 364.905 345.445 364.433C345.445 363.996 345.301 363.633 345.014 363.345C344.726 363.057 344.311 362.913 343.77 362.913H341.179V360.806H344.081C344.887 360.806 345.595 360.962 346.205 361.273C346.815 361.572 347.293 361.992 347.639 362.533C347.984 363.075 348.157 363.696 348.157 364.399C348.157 365.113 347.984 365.74 347.639 366.281C347.293 366.811 346.81 367.226 346.188 367.525C345.566 367.824 344.835 367.974 343.994 367.974H341.179ZM339.107 373V360.806H341.818V373H339.107ZM345.739 373L341.939 367.749L344.426 367.076L348.951 373H345.739ZM350.828 373V360.806H353.54V373H350.828ZM352.901 373V370.651H359.585V373H352.901ZM352.901 367.905V365.642H358.98V367.905H352.901ZM352.901 363.138V360.806H359.499V363.138H352.901ZM364.721 373L369.557 360.806H372.009L376.793 373H373.926L370.265 362.879H371.249L367.536 373H364.721ZM367.467 370.789V368.578H374.116V370.789H367.467ZM380.605 373V370.617H383.628C384.365 370.617 385.009 370.473 385.562 370.185C386.115 369.885 386.541 369.454 386.84 368.889C387.14 368.325 387.289 367.657 387.289 366.886C387.289 366.114 387.134 365.452 386.823 364.9C386.524 364.347 386.098 363.921 385.545 363.622C385.004 363.322 384.365 363.173 383.628 363.173H380.519V360.806H383.662C384.583 360.806 385.43 360.956 386.201 361.255C386.984 361.543 387.664 361.963 388.239 362.516C388.826 363.057 389.276 363.702 389.586 364.451C389.909 365.188 390.07 366.005 390.07 366.903C390.07 367.79 389.909 368.607 389.586 369.356C389.276 370.104 388.832 370.749 388.257 371.29C387.681 371.831 387.001 372.252 386.218 372.551C385.447 372.85 384.606 373 383.697 373H380.605ZM378.774 373V360.806H381.486V373H378.774ZM394.559 367.974V365.97H397.132C397.674 365.97 398.088 365.832 398.376 365.556C398.675 365.28 398.825 364.905 398.825 364.433C398.825 363.996 398.681 363.633 398.393 363.345C398.105 363.057 397.691 362.913 397.15 362.913H394.559V360.806H397.461C398.267 360.806 398.975 360.962 399.585 361.273C400.195 361.572 400.673 361.992 401.019 362.533C401.364 363.075 401.537 363.696 401.537 364.399C401.537 365.113 401.364 365.74 401.019 366.281C400.673 366.811 400.19 367.226 399.568 367.525C398.946 367.824 398.215 367.974 397.374 367.974H394.559ZM392.486 373V360.806H395.198V373H392.486ZM399.119 373L395.319 367.749L397.806 367.076L402.331 373H399.119ZM404.208 373V360.806H406.92V373H404.208ZM406.281 373V370.651H412.965V373H406.281ZM406.281 367.905V365.642H412.36V367.905H406.281ZM406.281 363.138V360.806H412.878V363.138H406.281ZM418.883 373.19C417.881 373.19 417.018 373.029 416.292 372.706C415.578 372.372 414.922 371.872 414.323 371.204L416.085 369.459C416.477 369.908 416.908 370.26 417.38 370.513C417.864 370.755 418.422 370.876 419.056 370.876C419.631 370.876 420.075 370.772 420.386 370.565C420.708 370.357 420.869 370.07 420.869 369.701C420.869 369.367 420.766 369.097 420.558 368.889C420.351 368.682 420.075 368.504 419.729 368.354C419.395 368.204 419.021 368.06 418.607 367.922C418.204 367.784 417.801 367.629 417.398 367.456C416.995 367.272 416.62 367.047 416.275 366.782C415.941 366.506 415.671 366.166 415.463 365.763C415.256 365.349 415.152 364.831 415.152 364.209C415.152 363.46 415.331 362.816 415.688 362.274C416.056 361.733 416.563 361.324 417.208 361.048C417.852 360.76 418.595 360.616 419.436 360.616C420.288 360.616 421.065 360.766 421.767 361.065C422.481 361.365 423.068 361.774 423.529 362.292L421.767 364.036C421.399 363.656 421.025 363.374 420.645 363.19C420.276 363.006 419.856 362.913 419.384 362.913C418.912 362.913 418.538 363.006 418.261 363.19C417.985 363.362 417.847 363.616 417.847 363.95C417.847 364.261 417.95 364.514 418.158 364.71C418.365 364.894 418.635 365.055 418.969 365.193C419.315 365.331 419.689 365.47 420.092 365.608C420.507 365.746 420.915 365.907 421.318 366.091C421.721 366.276 422.09 366.512 422.424 366.8C422.769 367.076 423.045 367.433 423.253 367.87C423.46 368.296 423.564 368.826 423.564 369.459C423.564 370.622 423.149 371.538 422.32 372.206C421.491 372.862 420.345 373.19 418.883 373.19ZM429.34 373.19C428.338 373.19 427.474 373.029 426.749 372.706C426.035 372.372 425.379 371.872 424.78 371.204L426.542 369.459C426.933 369.908 427.365 370.26 427.837 370.513C428.321 370.755 428.879 370.876 429.512 370.876C430.088 370.876 430.531 370.772 430.842 370.565C431.165 370.357 431.326 370.07 431.326 369.701C431.326 369.367 431.222 369.097 431.015 368.889C430.808 368.682 430.531 368.504 430.186 368.354C429.852 368.204 429.478 368.06 429.063 367.922C428.66 367.784 428.257 367.629 427.854 367.456C427.451 367.272 427.077 367.047 426.732 366.782C426.398 366.506 426.127 366.166 425.92 365.763C425.713 365.349 425.609 364.831 425.609 364.209C425.609 363.46 425.788 362.816 426.144 362.274C426.513 361.733 427.02 361.324 427.664 361.048C428.309 360.76 429.052 360.616 429.892 360.616C430.744 360.616 431.522 360.766 432.224 361.065C432.938 361.365 433.525 361.774 433.986 362.292L432.224 364.036C431.856 363.656 431.481 363.374 431.101 363.19C430.733 363.006 430.313 362.913 429.841 362.913C429.368 362.913 428.994 363.006 428.718 363.19C428.442 363.362 428.303 363.616 428.303 363.95C428.303 364.261 428.407 364.514 428.614 364.71C428.822 364.894 429.092 365.055 429.426 365.193C429.771 365.331 430.146 365.47 430.549 365.608C430.963 365.746 431.372 365.907 431.775 366.091C432.178 366.276 432.546 366.512 432.88 366.8C433.226 367.076 433.502 367.433 433.709 367.87C433.917 368.296 434.02 368.826 434.02 369.459C434.02 370.622 433.606 371.538 432.777 372.206C431.948 372.862 430.802 373.19 429.34 373.19ZM436.438 373V360.806H439.15V373H436.438ZM438.511 373V370.651H445.195V373H438.511ZM438.511 367.905V365.642H444.591V367.905H438.511ZM438.511 363.138V360.806H445.109V363.138H438.511Z" fill="#EA9A28"/>
<defs>
<filter id="filter0_dd_1370_3048" x="121.833" y="0.832501" width="359.09" height="359.088" filterUnits="userSpaceOnUse" color-interpolation-filters="sRGB">
<feFlood flood-opacity="0" result="BackgroundImageFix"/>
<feColorMatrix in="SourceAlpha" type="matrix" values="0 0 0 0 0 0 0 0 0 0 0 0 0 0 0 0 0 0 127 0" result="hardAlpha"/>
<feOffset dx="4.7175" dy="4.7175"/>
<feGaussianBlur stdDeviation="8.25562"/>
<feComposite in2="hardAlpha" operator="out"/>
<feColorMatrix type="matrix" values="0 0 0 0 0 0 0 0 0 0 0 0 0 0 0 0 0 0 0.16 0"/>
<feBlend mode="normal" in2="BackgroundImageFix" result="effect1_dropShadow_1370_3048"/>
<feColorMatrix in="SourceAlpha" type="matrix" values="0 0 0 0 0 0 0 0 0 0 0 0 0 0 0 0 0 0 127 0" result="hardAlpha"/>
<feOffset dx="4.7175" dy="4.7175"/>
<feGaussianBlur stdDeviation="20.4425"/>
<feComposite in2="hardAlpha" operator="out"/>
<feColorMatrix type="matrix" values="0 0 0 0 0 0 0 0 0 0 0 0 0 0 0 0 0 0 0.26 0"/>
<feBlend mode="normal" in2="effect1_dropShadow_1370_3048" result="effect2_dropShadow_1370_3048"/>
<feBlend mode="normal" in="SourceGraphic" in2="effect2_dropShadow_1370_3048" result="shape"/>
</filter>
</defs>
</svg>
