<svg width="951" height="25" viewBox="0 0 951 25" fill="none" xmlns="http://www.w3.org/2000/svg">
<path d="M25.9873 0H0.987305V25H25.9873V0Z" fill="#81F7E9"/>
<path d="M35.3641 17.6705C34.6823 17.6705 34.0803 17.4982 33.5583 17.1538C33.0363 16.8058 32.6279 16.3157 32.3332 15.6836C32.0384 15.0479 31.8911 14.2969 31.8911 13.4304C31.8911 12.571 32.0384 11.8253 32.3332 11.1932C32.6279 10.5611 33.0381 10.0728 33.5637 9.72834C34.0892 9.38388 34.6965 9.21165 35.3854 9.21165C35.9181 9.21165 36.3389 9.30043 36.6478 9.47798C36.9603 9.65199 37.1982 9.85085 37.3616 10.0746C37.5285 10.2947 37.6581 10.4759 37.7504 10.6179H37.857V6.59091H39.1141V17.5H37.8996V16.2429H37.7504C37.6581 16.392 37.5267 16.5803 37.3563 16.8075C37.1858 17.0313 36.9426 17.2319 36.6265 17.4094C36.3105 17.5835 35.8896 17.6705 35.3641 17.6705ZM35.5345 16.5412C36.0388 16.5412 36.4649 16.4098 36.8129 16.147C37.161 15.8807 37.4255 15.5131 37.6066 15.0444C37.7877 14.5721 37.8783 14.027 37.8783 13.4091C37.8783 12.7983 37.7895 12.2638 37.6119 11.8058C37.4344 11.3441 37.1716 10.9854 36.8236 10.7298C36.4756 10.4705 36.0459 10.3409 35.5345 10.3409C35.0019 10.3409 34.558 10.4776 34.2029 10.7511C33.8513 11.021 33.5867 11.3885 33.4092 11.8537C33.2352 12.3153 33.1482 12.8338 33.1482 13.4091C33.1482 13.9915 33.2369 14.5206 33.4145 14.9964C33.5956 15.4688 33.8619 15.8452 34.2135 16.1257C34.5686 16.4027 35.009 16.5412 35.5345 16.5412ZM45.0214 17.6705C44.233 17.6705 43.553 17.4964 42.9813 17.1484C42.4131 16.7969 41.9745 16.3068 41.6656 15.6783C41.3602 15.0462 41.2075 14.3111 41.2075 13.473C41.2075 12.6349 41.3602 11.8963 41.6656 11.2571C41.9745 10.6143 42.4042 10.1136 42.9546 9.75497C43.5086 9.39276 44.1549 9.21165 44.8936 9.21165C45.3197 9.21165 45.7405 9.28267 46.156 9.42472C46.5715 9.56676 46.9497 9.79759 47.2906 10.1172C47.6315 10.4332 47.9031 10.8523 48.1056 11.3743C48.308 11.8963 48.4092 12.5391 48.4092 13.3026V13.8352H42.1024V12.7486H47.1308C47.1308 12.2869 47.0384 11.875 46.8538 11.5128C46.6727 11.1506 46.4134 10.8647 46.0761 10.6552C45.7423 10.4457 45.3481 10.3409 44.8936 10.3409C44.3928 10.3409 43.9596 10.4652 43.5938 10.7138C43.2316 10.9588 42.9529 11.2784 42.7575 11.6726C42.5622 12.0668 42.4646 12.4893 42.4646 12.9403V13.6648C42.4646 14.2827 42.5711 14.8065 42.7842 15.2362C43.0008 15.6623 43.3009 15.9872 43.6844 16.2109C44.0679 16.4311 44.5136 16.5412 45.0214 16.5412C45.3516 16.5412 45.6499 16.495 45.9163 16.4027C46.1862 16.3068 46.4188 16.1648 46.6141 15.9766C46.8094 15.7848 46.9603 15.5469 47.0668 15.2628L48.2813 15.6037C48.1535 16.0156 47.9387 16.3778 47.6368 16.6903C47.335 16.9993 46.9621 17.2408 46.5182 17.4148C46.0743 17.5852 45.5754 17.6705 45.0214 17.6705ZM63.9152 12.0455C63.9152 13.196 63.7075 14.1903 63.292 15.0284C62.8765 15.8665 62.3065 16.5128 61.5821 16.9673C60.8577 17.4219 60.0303 17.6491 59.0999 17.6491C58.1695 17.6491 57.3421 17.4219 56.6176 16.9673C55.8932 16.5128 55.3232 15.8665 54.9078 15.0284C54.4923 14.1903 54.2845 13.196 54.2845 12.0455C54.2845 10.8949 54.4923 9.90057 54.9078 9.0625C55.3232 8.22443 55.8932 7.57813 56.6176 7.12358C57.3421 6.66904 58.1695 6.44176 59.0999 6.44176C60.0303 6.44176 60.8577 6.66904 61.5821 7.12358C62.3065 7.57813 62.8765 8.22443 63.292 9.0625C63.7075 9.90057 63.9152 10.8949 63.9152 12.0455ZM62.6368 12.0455C62.6368 11.1009 62.4788 10.3036 62.1627 9.65377C61.8502 9.00391 61.4259 8.51207 60.8896 8.17827C60.357 7.84446 59.7604 7.67756 59.0999 7.67756C58.4394 7.67756 57.841 7.84446 57.3048 8.17827C56.7721 8.51207 56.3477 9.00391 56.0317 9.65377C55.7192 10.3036 55.5629 11.1009 55.5629 12.0455C55.5629 12.9901 55.7192 13.7873 56.0317 14.4371C56.3477 15.087 56.7721 15.5788 57.3048 15.9126C57.841 16.2464 58.4394 16.4134 59.0999 16.4134C59.7604 16.4134 60.357 16.2464 60.8896 15.9126C61.4259 15.5788 61.8502 15.087 62.1627 14.4371C62.4788 13.7873 62.6368 12.9901 62.6368 12.0455ZM68.2245 11.4063C67.7735 11.4063 67.3616 11.2962 66.9887 11.076C66.6194 10.8558 66.3247 10.5611 66.1045 10.1918C65.8843 9.81889 65.7742 9.40696 65.7742 8.95597C65.7742 8.50497 65.8843 8.09482 66.1045 7.7255C66.3247 7.35263 66.6194 7.05611 66.9887 6.83594C67.3616 6.61577 67.7735 6.50568 68.2245 6.50568C68.6755 6.50568 69.0857 6.61577 69.455 6.83594C69.8279 7.05611 70.1244 7.35263 70.3445 7.7255C70.5647 8.09482 70.6748 8.50497 70.6748 8.95597C70.6748 9.40696 70.5647 9.81889 70.3445 10.1918C70.1244 10.5611 69.8279 10.8558 69.455 11.076C69.0857 11.2962 68.6755 11.4063 68.2245 11.4063ZM68.2245 10.3409C68.4802 10.3409 68.7128 10.2788 68.9223 10.1545C69.1318 10.0302 69.2987 9.86328 69.423 9.65377C69.5473 9.44425 69.6095 9.21165 69.6095 8.95597C69.6095 8.70028 69.5473 8.46769 69.423 8.25817C69.2987 8.04865 69.1318 7.88175 68.9223 7.75746C68.7128 7.63317 68.4802 7.57102 68.2245 7.57102C67.9688 7.57102 67.7362 7.63317 67.5267 7.75746C67.3172 7.88175 67.1503 8.04865 67.026 8.25817C66.9017 8.46769 66.8396 8.70028 66.8396 8.95597C66.8396 9.21165 66.9017 9.44425 67.026 9.65377C67.1503 9.86328 67.3172 10.0302 67.5267 10.1545C67.7362 10.2788 67.9688 10.3409 68.2245 10.3409ZM81.5506 10H80.2296C80.1515 9.62003 80.0147 9.28622 79.8194 8.99858C79.6277 8.71094 79.3933 8.46946 79.1163 8.27415C78.8429 8.07529 78.5392 7.92614 78.2054 7.82671C77.8716 7.72727 77.5236 7.67756 77.1614 7.67756C76.5009 7.67756 75.9025 7.84446 75.3663 8.17827C74.8336 8.51207 74.4093 9.00391 74.0932 9.65377C73.7807 10.3036 73.6245 11.1009 73.6245 12.0455C73.6245 12.9901 73.7807 13.7873 74.0932 14.4371C74.4093 15.087 74.8336 15.5788 75.3663 15.9126C75.9025 16.2464 76.5009 16.4134 77.1614 16.4134C77.5236 16.4134 77.8716 16.3636 78.2054 16.2642C78.5392 16.1648 78.8429 16.0174 79.1163 15.8221C79.3933 15.6232 79.6277 15.38 79.8194 15.0923C80.0147 14.8011 80.1515 14.4673 80.2296 14.0909H81.5506C81.4512 14.6484 81.2701 15.1474 81.0073 15.5877C80.7445 16.0281 80.4178 16.4027 80.0272 16.7116C79.6365 17.017 79.198 17.2496 78.7115 17.4094C78.2285 17.5692 77.7118 17.6491 77.1614 17.6491C76.231 17.6491 75.4036 17.4219 74.6792 16.9673C73.9547 16.5128 73.3848 15.8665 72.9693 15.0284C72.5538 14.1903 72.3461 13.196 72.3461 12.0455C72.3461 10.8949 72.5538 9.90057 72.9693 9.0625C73.3848 8.22443 73.9547 7.57813 74.6792 7.12358C75.4036 6.66904 76.231 6.44176 77.1614 6.44176C77.7118 6.44176 78.2285 6.52166 78.7115 6.68146C79.198 6.84127 79.6365 7.07564 80.0272 7.38459C80.4178 7.68999 80.7445 8.06286 81.0073 8.5032C81.2701 8.93999 81.4512 9.43892 81.5506 10ZM90.1412 17.6918C89.6228 17.6918 89.1522 17.5941 88.7297 17.3988C88.3071 17.1999 87.9715 16.9141 87.7229 16.5412C87.4743 16.1648 87.35 15.7102 87.35 15.1776C87.35 14.7088 87.4424 14.3288 87.627 14.0376C87.8117 13.7429 88.0585 13.5121 88.3674 13.3452C88.6764 13.1783 89.0173 13.054 89.3902 12.9723C89.7666 12.8871 90.1448 12.8196 90.5248 12.7699C91.0219 12.706 91.425 12.658 91.7339 12.6261C92.0464 12.5906 92.2737 12.532 92.4157 12.4503C92.5613 12.3686 92.6341 12.2266 92.6341 12.0241V11.9815C92.6341 11.456 92.4903 11.0476 92.2027 10.7564C91.9186 10.4652 91.4871 10.3196 90.9083 10.3196C90.3081 10.3196 89.8376 10.451 89.4967 10.7138C89.1558 10.9766 88.9161 11.2571 88.7776 11.5554L87.5844 11.1293C87.7975 10.6321 88.0816 10.245 88.4367 9.96804C88.7954 9.6875 89.186 9.49219 89.6086 9.3821C90.0347 9.26847 90.4537 9.21165 90.8657 9.21165C91.1285 9.21165 91.4303 9.24361 91.7712 9.30753C92.1157 9.3679 92.4477 9.49396 92.7673 9.68572C93.0905 9.87749 93.3586 10.1669 93.5716 10.554C93.7847 10.9411 93.8912 11.4595 93.8912 12.1094V17.5H92.6341V16.392H92.5702C92.485 16.5696 92.3429 16.7596 92.1441 16.962C91.9452 17.1644 91.6807 17.3366 91.3504 17.4787C91.0201 17.6207 90.6171 17.6918 90.1412 17.6918ZM90.333 16.5625C90.8302 16.5625 91.2492 16.4648 91.5901 16.2695C91.9346 16.0742 92.1938 15.8221 92.3678 15.5131C92.5454 15.2042 92.6341 14.8793 92.6341 14.5384V13.3878C92.5809 13.4517 92.4637 13.5103 92.2826 13.5636C92.105 13.6133 91.8991 13.6577 91.6647 13.6967C91.4339 13.7322 91.2084 13.7642 90.9882 13.7926C90.7716 13.8175 90.5958 13.8388 90.4608 13.8565C90.1341 13.8991 89.8287 13.9684 89.5446 14.0643C89.2641 14.1566 89.0368 14.2969 88.8628 14.4851C88.6924 14.6697 88.6071 14.9219 88.6071 15.2415C88.6071 15.6783 88.7687 16.0085 89.0919 16.2322C89.4186 16.4524 89.8323 16.5625 90.333 16.5625ZM90.4182 8.21023L88.7563 5.73864H90.2265L91.5262 8.21023H90.4182ZM103.6 15.5824V8.55114H104.794V15.5824H103.6ZM100.681 12.6634V11.4702H107.713V12.6634H100.681ZM114.49 17.5V16.5412L118.09 12.5994C118.513 12.1378 118.861 11.7365 119.134 11.3956C119.408 11.0511 119.61 10.728 119.742 10.4261C119.877 10.1207 119.944 9.80114 119.944 9.46733C119.944 9.08381 119.852 8.75178 119.667 8.47124C119.486 8.1907 119.237 7.97408 118.921 7.82138C118.605 7.66868 118.25 7.59233 117.856 7.59233C117.437 7.59233 117.071 7.67933 116.759 7.85334C116.45 8.02379 116.21 8.26349 116.04 8.57244C115.873 8.88139 115.789 9.24361 115.789 9.65909H114.532C114.532 9.01989 114.68 8.45881 114.974 7.97585C115.269 7.4929 115.67 7.11648 116.178 6.84659C116.69 6.57671 117.263 6.44176 117.899 6.44176C118.538 6.44176 119.104 6.57671 119.598 6.84659C120.092 7.11648 120.479 7.48047 120.759 7.93857C121.04 8.39666 121.18 8.90625 121.18 9.46733C121.18 9.86861 121.107 10.261 120.962 10.6445C120.82 11.0245 120.571 11.4489 120.216 11.9176C119.864 12.3828 119.376 12.951 118.751 13.6222L116.301 16.2429V16.3281H121.372V17.5H114.49ZM125.468 16.0085L125.383 16.5838C125.322 16.9886 125.23 17.4219 125.106 17.8835C124.985 18.3452 124.859 18.7802 124.728 19.1886C124.596 19.5969 124.488 19.9219 124.403 20.1634H123.444C123.49 19.9361 123.55 19.636 123.625 19.2631C123.699 18.8903 123.774 18.473 123.849 18.0114C123.927 17.5533 123.991 17.0845 124.04 16.6051L124.104 16.0085H125.468ZM130.965 17.6491C130.34 17.6491 129.777 17.5249 129.277 17.2763C128.776 17.0277 128.375 16.6868 128.073 16.2536C127.771 15.8203 127.606 15.3267 127.577 14.7727H128.856C128.905 15.2663 129.129 15.6747 129.527 15.9979C129.928 16.3175 130.408 16.4773 130.965 16.4773C131.413 16.4773 131.81 16.3725 132.158 16.163C132.51 15.9535 132.785 15.6658 132.984 15.3001C133.186 14.9308 133.288 14.5135 133.288 14.0483C133.288 13.5724 133.183 13.1481 132.973 12.7752C132.767 12.3988 132.483 12.1023 132.121 11.8857C131.759 11.669 131.345 11.5589 130.88 11.5554C130.546 11.5518 130.203 11.6033 129.852 11.7099C129.5 11.8129 129.211 11.946 128.984 12.1094L127.748 11.9602L128.408 6.59091H134.076V7.76279H129.516L129.133 10.9801H129.197C129.42 10.8026 129.701 10.6552 130.038 10.538C130.376 10.4208 130.727 10.3622 131.093 10.3622C131.761 10.3622 132.355 10.522 132.877 10.8416C133.403 11.1577 133.815 11.5909 134.113 12.1413C134.415 12.6918 134.566 13.3203 134.566 14.027C134.566 14.723 134.41 15.3445 134.097 15.8913C133.788 16.4347 133.362 16.8643 132.819 17.1804C132.275 17.4929 131.658 17.6491 130.965 17.6491ZM143.181 11.4063C142.73 11.4063 142.318 11.2962 141.945 11.076C141.575 10.8558 141.281 10.5611 141.061 10.1918C140.84 9.81889 140.73 9.40696 140.73 8.95597C140.73 8.50497 140.84 8.09482 141.061 7.7255C141.281 7.35263 141.575 7.05611 141.945 6.83594C142.318 6.61577 142.73 6.50568 143.181 6.50568C143.632 6.50568 144.042 6.61577 144.411 6.83594C144.784 7.05611 145.08 7.35263 145.301 7.7255C145.521 8.09482 145.631 8.50497 145.631 8.95597C145.631 9.40696 145.521 9.81889 145.301 10.1918C145.08 10.5611 144.784 10.8558 144.411 11.076C144.042 11.2962 143.632 11.4063 143.181 11.4063ZM143.181 10.3409C143.436 10.3409 143.669 10.2788 143.878 10.1545C144.088 10.0302 144.255 9.86328 144.379 9.65377C144.503 9.44425 144.566 9.21165 144.566 8.95597C144.566 8.70028 144.503 8.46769 144.379 8.25817C144.255 8.04865 144.088 7.88175 143.878 7.75746C143.669 7.63317 143.436 7.57102 143.181 7.57102C142.925 7.57102 142.692 7.63317 142.483 7.75746C142.273 7.88175 142.106 8.04865 141.982 8.25817C141.858 8.46769 141.796 8.70028 141.796 8.95597C141.796 9.21165 141.858 9.44425 141.982 9.65377C142.106 9.86328 142.273 10.0302 142.483 10.1545C142.692 10.2788 142.925 10.3409 143.181 10.3409ZM156.507 10H155.186C155.107 9.62003 154.971 9.28622 154.775 8.99858C154.584 8.71094 154.349 8.46946 154.072 8.27415C153.799 8.07529 153.495 7.92614 153.161 7.82671C152.828 7.72727 152.48 7.67756 152.117 7.67756C151.457 7.67756 150.859 7.84446 150.322 8.17827C149.79 8.51207 149.365 9.00391 149.049 9.65377C148.737 10.3036 148.581 11.1009 148.581 12.0455C148.581 12.9901 148.737 13.7873 149.049 14.4371C149.365 15.087 149.79 15.5788 150.322 15.9126C150.859 16.2464 151.457 16.4134 152.117 16.4134C152.48 16.4134 152.828 16.3636 153.161 16.2642C153.495 16.1648 153.799 16.0174 154.072 15.8221C154.349 15.6232 154.584 15.38 154.775 15.0923C154.971 14.8011 155.107 14.4673 155.186 14.0909H156.507C156.407 14.6484 156.226 15.1474 155.963 15.5877C155.701 16.0281 155.374 16.4027 154.983 16.7116C154.593 17.017 154.154 17.2496 153.668 17.4094C153.185 17.5692 152.668 17.6491 152.117 17.6491C151.187 17.6491 150.36 17.4219 149.635 16.9673C148.911 16.5128 148.341 15.8665 147.925 15.0284C147.51 14.1903 147.302 13.196 147.302 12.0455C147.302 10.8949 147.51 9.90057 147.925 9.0625C148.341 8.22443 148.911 7.57813 149.635 7.12358C150.36 6.66904 151.187 6.44176 152.117 6.44176C152.668 6.44176 153.185 6.52166 153.668 6.68146C154.154 6.84127 154.593 7.07564 154.983 7.38459C155.374 7.68999 155.701 8.06286 155.963 8.5032C156.226 8.93999 156.407 9.43892 156.507 10Z" fill="black"/>
<path d="M212.662 0H187.662V25H212.662V0Z" fill="#94DB34"/>
<path d="M222.039 17.6705C221.357 17.6705 220.755 17.4982 220.233 17.1538C219.711 16.8058 219.303 16.3157 219.008 15.6836C218.713 15.0479 218.566 14.2969 218.566 13.4304C218.566 12.571 218.713 11.8253 219.008 11.1932C219.303 10.5611 219.713 10.0728 220.238 9.72834C220.764 9.38388 221.371 9.21165 222.06 9.21165C222.593 9.21165 223.014 9.30043 223.323 9.47798C223.635 9.65199 223.873 9.85085 224.036 10.0746C224.203 10.2947 224.333 10.4759 224.425 10.6179H224.532V6.59091H225.789V17.5H224.574V16.2429H224.425C224.333 16.392 224.202 16.5803 224.031 16.8075C223.861 17.0313 223.617 17.2319 223.301 17.4094C222.985 17.5835 222.564 17.6705 222.039 17.6705ZM222.209 16.5412C222.714 16.5412 223.14 16.4098 223.488 16.147C223.836 15.8807 224.1 15.5131 224.281 15.0444C224.463 14.5721 224.553 14.027 224.553 13.4091C224.553 12.7983 224.464 12.2638 224.287 11.8058C224.109 11.3441 223.846 10.9854 223.498 10.7298C223.15 10.4705 222.721 10.3409 222.209 10.3409C221.677 10.3409 221.233 10.4776 220.878 10.7511C220.526 11.021 220.262 11.3885 220.084 11.8537C219.91 12.3153 219.823 12.8338 219.823 13.4091C219.823 13.9915 219.912 14.5206 220.089 14.9964C220.27 15.4688 220.537 15.8452 220.888 16.1257C221.243 16.4027 221.684 16.5412 222.209 16.5412ZM231.696 17.6705C230.908 17.6705 230.228 17.4964 229.656 17.1484C229.088 16.7969 228.649 16.3068 228.34 15.6783C228.035 15.0462 227.882 14.3111 227.882 13.473C227.882 12.6349 228.035 11.8963 228.34 11.2571C228.649 10.6143 229.079 10.1136 229.629 9.75497C230.183 9.39276 230.83 9.21165 231.568 9.21165C231.994 9.21165 232.415 9.28267 232.831 9.42472C233.246 9.56676 233.624 9.79759 233.965 10.1172C234.306 10.4332 234.578 10.8523 234.78 11.3743C234.983 11.8963 235.084 12.5391 235.084 13.3026V13.8352H228.777V12.7486H233.806C233.806 12.2869 233.713 11.875 233.529 11.5128C233.347 11.1506 233.088 10.8647 232.751 10.6552C232.417 10.4457 232.023 10.3409 231.568 10.3409C231.068 10.3409 230.634 10.4652 230.269 10.7138C229.906 10.9588 229.628 11.2784 229.432 11.6726C229.237 12.0668 229.139 12.4893 229.139 12.9403V13.6648C229.139 14.2827 229.246 14.8065 229.459 15.2362C229.676 15.6623 229.976 15.9872 230.359 16.2109C230.743 16.4311 231.188 16.5412 231.696 16.5412C232.026 16.5412 232.325 16.495 232.591 16.4027C232.861 16.3068 233.094 16.1648 233.289 15.9766C233.484 15.7848 233.635 15.5469 233.742 15.2628L234.956 15.6037C234.828 16.0156 234.613 16.3778 234.312 16.6903C234.01 16.9993 233.637 17.2408 233.193 17.4148C232.749 17.5852 232.25 17.6705 231.696 17.6705ZM244.411 15.5824V8.55114H245.604V15.5824H244.411ZM241.492 12.6634V11.4702H248.523V12.6634H241.492ZM255.3 17.5V16.5412L258.901 12.5994C259.324 12.1378 259.672 11.7365 259.945 11.3956C260.218 11.0511 260.421 10.728 260.552 10.4261C260.687 10.1207 260.755 9.80114 260.755 9.46733C260.755 9.08381 260.662 8.75178 260.478 8.47124C260.297 8.1907 260.048 7.97408 259.732 7.82138C259.416 7.66868 259.061 7.59233 258.667 7.59233C258.248 7.59233 257.882 7.67933 257.569 7.85334C257.26 8.02379 257.021 8.26349 256.85 8.57244C256.683 8.88139 256.6 9.24361 256.6 9.65909H255.343C255.343 9.01989 255.49 8.45881 255.785 7.97585C256.08 7.4929 256.481 7.11648 256.989 6.84659C257.5 6.57671 258.074 6.44176 258.709 6.44176C259.348 6.44176 259.915 6.57671 260.408 6.84659C260.902 7.11648 261.289 7.48047 261.57 7.93857C261.85 8.39666 261.99 8.90625 261.99 9.46733C261.99 9.86861 261.918 10.261 261.772 10.6445C261.63 11.0245 261.381 11.4489 261.026 11.9176C260.675 12.3828 260.187 12.951 259.562 13.6222L257.111 16.2429V16.3281H262.182V17.5H255.3ZM266.278 16.0085L266.193 16.5838C266.133 16.9886 266.041 17.4219 265.916 17.8835C265.796 18.3452 265.669 18.7802 265.538 19.1886C265.407 19.5969 265.298 19.9219 265.213 20.1634H264.254C264.301 19.9361 264.361 19.636 264.435 19.2631C264.51 18.8903 264.585 18.473 264.659 18.0114C264.737 17.5533 264.801 17.0845 264.851 16.6051L264.915 16.0085H266.278ZM271.776 17.6491C271.151 17.6491 270.588 17.5249 270.087 17.2763C269.586 17.0277 269.185 16.6868 268.883 16.2536C268.581 15.8203 268.416 15.3267 268.388 14.7727H269.666C269.716 15.2663 269.94 15.6747 270.337 15.9979C270.739 16.3175 271.218 16.4773 271.776 16.4773C272.223 16.4773 272.621 16.3725 272.969 16.163C273.32 15.9535 273.596 15.6658 273.794 15.3001C273.997 14.9308 274.098 14.5135 274.098 14.0483C274.098 13.5724 273.993 13.1481 273.784 12.7752C273.578 12.3988 273.294 12.1023 272.932 11.8857C272.569 11.669 272.156 11.5589 271.69 11.5554C271.357 11.5518 271.014 11.6033 270.662 11.7099C270.311 11.8129 270.021 11.946 269.794 12.1094L268.558 11.9602L269.219 6.59091H274.886V7.76279H270.327L269.943 10.9801H270.007C270.231 10.8026 270.511 10.6552 270.849 10.538C271.186 10.4208 271.538 10.3622 271.903 10.3622C272.571 10.3622 273.166 10.522 273.688 10.8416C274.214 11.1577 274.625 11.5909 274.924 12.1413C275.226 12.6918 275.377 13.3203 275.377 14.027C275.377 14.723 275.22 15.3445 274.908 15.8913C274.599 16.4347 274.173 16.8643 273.629 17.1804C273.086 17.4929 272.468 17.6491 271.776 17.6491ZM279.772 11.4063C279.321 11.4063 278.909 11.2962 278.537 11.076C278.167 10.8558 277.873 10.5611 277.652 10.1918C277.432 9.81889 277.322 9.40696 277.322 8.95597C277.322 8.50497 277.432 8.09482 277.652 7.7255C277.873 7.35263 278.167 7.05611 278.537 6.83594C278.909 6.61577 279.321 6.50568 279.772 6.50568C280.223 6.50568 280.634 6.61577 281.003 6.83594C281.376 7.05611 281.672 7.35263 281.892 7.7255C282.113 8.09482 282.223 8.50497 282.223 8.95597C282.223 9.40696 282.113 9.81889 281.892 10.1918C281.672 10.5611 281.376 10.8558 281.003 11.076C280.634 11.2962 280.223 11.4063 279.772 11.4063ZM279.772 10.3409C280.028 10.3409 280.261 10.2788 280.47 10.1545C280.68 10.0302 280.847 9.86328 280.971 9.65377C281.095 9.44425 281.157 9.21165 281.157 8.95597C281.157 8.70028 281.095 8.46769 280.971 8.25817C280.847 8.04865 280.68 7.88175 280.47 7.75746C280.261 7.63317 280.028 7.57102 279.772 7.57102C279.517 7.57102 279.284 7.63317 279.075 7.75746C278.865 7.88175 278.698 8.04865 278.574 8.25817C278.45 8.46769 278.387 8.70028 278.387 8.95597C278.387 9.21165 278.45 9.44425 278.574 9.65377C278.698 9.86328 278.865 10.0302 279.075 10.1545C279.284 10.2788 279.517 10.3409 279.772 10.3409ZM293.098 10H291.777C291.699 9.62003 291.563 9.28622 291.367 8.99858C291.176 8.71094 290.941 8.46946 290.664 8.27415C290.391 8.07529 290.087 7.92614 289.753 7.82671C289.419 7.72727 289.071 7.67756 288.709 7.67756C288.049 7.67756 287.45 7.84446 286.914 8.17827C286.381 8.51207 285.957 9.00391 285.641 9.65377C285.329 10.3036 285.172 11.1009 285.172 12.0455C285.172 12.9901 285.329 13.7873 285.641 14.4371C285.957 15.087 286.381 15.5788 286.914 15.9126C287.45 16.2464 288.049 16.4134 288.709 16.4134C289.071 16.4134 289.419 16.3636 289.753 16.2642C290.087 16.1648 290.391 16.0174 290.664 15.8221C290.941 15.6232 291.176 15.38 291.367 15.0923C291.563 14.8011 291.699 14.4673 291.777 14.0909H293.098C292.999 14.6484 292.818 15.1474 292.555 15.5877C292.292 16.0281 291.966 16.4027 291.575 16.7116C291.184 17.017 290.746 17.2496 290.259 17.4094C289.776 17.5692 289.26 17.6491 288.709 17.6491C287.779 17.6491 286.951 17.4219 286.227 16.9673C285.503 16.5128 284.933 15.8665 284.517 15.0284C284.102 14.1903 283.894 13.196 283.894 12.0455C283.894 10.8949 284.102 9.90057 284.517 9.0625C284.933 8.22443 285.503 7.57813 286.227 7.12358C286.951 6.66904 287.779 6.44176 288.709 6.44176C289.26 6.44176 289.776 6.52166 290.259 6.68146C290.746 6.84127 291.184 7.07564 291.575 7.38459C291.966 7.68999 292.292 8.06286 292.555 8.5032C292.818 8.93999 292.999 9.43892 293.098 10ZM301.689 17.6918C301.171 17.6918 300.7 17.5941 300.278 17.3988C299.855 17.1999 299.519 16.9141 299.271 16.5412C299.022 16.1648 298.898 15.7102 298.898 15.1776C298.898 14.7088 298.99 14.3288 299.175 14.0376C299.36 13.7429 299.606 13.5121 299.915 13.3452C300.224 13.1783 300.565 13.054 300.938 12.9723C301.314 12.8871 301.693 12.8196 302.073 12.7699C302.57 12.706 302.973 12.658 303.282 12.6261C303.594 12.5906 303.822 12.532 303.964 12.4503C304.109 12.3686 304.182 12.2266 304.182 12.0241V11.9815C304.182 11.456 304.038 11.0476 303.751 10.7564C303.466 10.4652 303.035 10.3196 302.456 10.3196C301.856 10.3196 301.385 10.451 301.045 10.7138C300.704 10.9766 300.464 11.2571 300.325 11.5554L299.132 11.1293C299.345 10.6321 299.629 10.245 299.985 9.96804C300.343 9.6875 300.734 9.49219 301.156 9.3821C301.583 9.26847 302.002 9.21165 302.414 9.21165C302.676 9.21165 302.978 9.24361 303.319 9.30753C303.664 9.3679 303.996 9.49396 304.315 9.68572C304.638 9.87749 304.906 10.1669 305.119 10.554C305.333 10.9411 305.439 11.4595 305.439 12.1094V17.5H304.182V16.392H304.118C304.033 16.5696 303.891 16.7596 303.692 16.962C303.493 17.1644 303.229 17.3366 302.898 17.4787C302.568 17.6207 302.165 17.6918 301.689 17.6918ZM301.881 16.5625C302.378 16.5625 302.797 16.4648 303.138 16.2695C303.482 16.0742 303.742 15.8221 303.916 15.5131C304.093 15.2042 304.182 14.8793 304.182 14.5384V13.3878C304.129 13.4517 304.012 13.5103 303.83 13.5636C303.653 13.6133 303.447 13.6577 303.213 13.6967C302.982 13.7322 302.756 13.7642 302.536 13.7926C302.319 13.8175 302.144 13.8388 302.009 13.8565C301.682 13.8991 301.377 13.9684 301.092 14.0643C300.812 14.1566 300.585 14.2969 300.411 14.4851C300.24 14.6697 300.155 14.9219 300.155 15.2415C300.155 15.6783 300.317 16.0085 300.64 16.2322C300.966 16.4524 301.38 16.5625 301.881 16.5625ZM301.966 8.21023L300.304 5.73864H301.774L303.074 8.21023H301.966ZM315.148 15.5824V8.55114H316.342V15.5824H315.148ZM312.229 12.6634V11.4702H319.261V12.6634H312.229ZM329.724 17.6491C329.02 17.6491 328.394 17.5284 327.843 17.2869C327.296 17.0455 326.861 16.7099 326.538 16.2802C326.219 15.8469 326.045 15.3445 326.016 14.7727H327.358C327.387 15.1243 327.508 15.4279 327.721 15.6836C327.934 15.9357 328.213 16.131 328.557 16.2695C328.901 16.408 329.283 16.4773 329.702 16.4773C330.171 16.4773 330.586 16.3956 330.949 16.2322C331.311 16.0689 331.595 15.8416 331.801 15.5504C332.007 15.2592 332.11 14.9219 332.11 14.5384C332.11 14.1371 332.01 13.7837 331.812 13.4783C331.613 13.1694 331.322 12.9279 330.938 12.7539C330.554 12.5799 330.086 12.4929 329.532 12.4929H328.658V11.321H329.532C329.965 11.321 330.345 11.2429 330.672 11.0866C331.002 10.9304 331.259 10.7102 331.444 10.4261C331.632 10.142 331.726 9.80824 331.726 9.42472C331.726 9.0554 331.645 8.73402 331.481 8.46058C331.318 8.18715 331.087 7.97408 330.789 7.82138C330.494 7.66868 330.146 7.59233 329.745 7.59233C329.368 7.59233 329.013 7.66158 328.679 7.80007C328.349 7.93502 328.079 8.1321 327.87 8.39134C327.66 8.64702 327.547 8.95597 327.529 9.31818H326.251C326.272 8.74645 326.444 8.24574 326.767 7.81605C327.09 7.38281 327.513 7.04546 328.035 6.80398C328.561 6.5625 329.138 6.44176 329.766 6.44176C330.441 6.44176 331.02 6.57848 331.503 6.85192C331.986 7.1218 332.357 7.47869 332.616 7.92259C332.875 8.36648 333.005 8.84588 333.005 9.3608C333.005 9.97514 332.843 10.4989 332.52 10.9322C332.2 11.3654 331.765 11.6655 331.215 11.8324V11.9176C331.904 12.0313 332.442 12.3242 332.829 12.7965C333.216 13.2653 333.41 13.8459 333.41 14.5384C333.41 15.1314 333.248 15.6641 332.925 16.1364C332.605 16.6051 332.168 16.9744 331.615 17.2443C331.061 17.5142 330.43 17.6491 329.724 17.6491ZM337.868 11.4063C337.417 11.4063 337.005 11.2962 336.632 11.076C336.263 10.8558 335.968 10.5611 335.748 10.1918C335.528 9.81889 335.418 9.40696 335.418 8.95597C335.418 8.50497 335.528 8.09482 335.748 7.7255C335.968 7.35263 336.263 7.05611 336.632 6.83594C337.005 6.61577 337.417 6.50568 337.868 6.50568C338.319 6.50568 338.729 6.61577 339.099 6.83594C339.471 7.05611 339.768 7.35263 339.988 7.7255C340.208 8.09482 340.318 8.50497 340.318 8.95597C340.318 9.40696 340.208 9.81889 339.988 10.1918C339.768 10.5611 339.471 10.8558 339.099 11.076C338.729 11.2962 338.319 11.4063 337.868 11.4063ZM337.868 10.3409C338.124 10.3409 338.356 10.2788 338.566 10.1545C338.775 10.0302 338.942 9.86328 339.067 9.65377C339.191 9.44425 339.253 9.21165 339.253 8.95597C339.253 8.70028 339.191 8.46769 339.067 8.25817C338.942 8.04865 338.775 7.88175 338.566 7.75746C338.356 7.63317 338.124 7.57102 337.868 7.57102C337.612 7.57102 337.38 7.63317 337.17 7.75746C336.961 7.88175 336.794 8.04865 336.67 8.25817C336.545 8.46769 336.483 8.70028 336.483 8.95597C336.483 9.21165 336.545 9.44425 336.67 9.65377C336.794 9.86328 336.961 10.0302 337.17 10.1545C337.38 10.2788 337.612 10.3409 337.868 10.3409ZM351.194 10H349.873C349.795 9.62003 349.658 9.28622 349.463 8.99858C349.271 8.71094 349.037 8.46946 348.76 8.27415C348.486 8.07529 348.183 7.92614 347.849 7.82671C347.515 7.72727 347.167 7.67756 346.805 7.67756C346.144 7.67756 345.546 7.84446 345.01 8.17827C344.477 8.51207 344.053 9.00391 343.737 9.65377C343.424 10.3036 343.268 11.1009 343.268 12.0455C343.268 12.9901 343.424 13.7873 343.737 14.4371C344.053 15.087 344.477 15.5788 345.01 15.9126C345.546 16.2464 346.144 16.4134 346.805 16.4134C347.167 16.4134 347.515 16.3636 347.849 16.2642C348.183 16.1648 348.486 16.0174 348.76 15.8221C349.037 15.6232 349.271 15.38 349.463 15.0923C349.658 14.8011 349.795 14.4673 349.873 14.0909H351.194C351.095 14.6484 350.914 15.1474 350.651 15.5877C350.388 16.0281 350.061 16.4027 349.671 16.7116C349.28 17.017 348.842 17.2496 348.355 17.4094C347.872 17.5692 347.355 17.6491 346.805 17.6491C345.875 17.6491 345.047 17.4219 344.323 16.9673C343.598 16.5128 343.028 15.8665 342.613 15.0284C342.197 14.1903 341.99 13.196 341.99 12.0455C341.99 10.8949 342.197 9.90057 342.613 9.0625C343.028 8.22443 343.598 7.57813 344.323 7.12358C345.047 6.66904 345.875 6.44176 346.805 6.44176C347.355 6.44176 347.872 6.52166 348.355 6.68146C348.842 6.84127 349.28 7.07564 349.671 7.38459C350.061 7.68999 350.388 8.06286 350.651 8.5032C350.914 8.93999 351.095 9.43892 351.194 10Z" fill="black"/>
<path d="M407.337 0H382.337V25H407.337V0Z" fill="#F3E053"/>
<path d="M416.714 17.6705C416.032 17.6705 415.43 17.4982 414.908 17.1538C414.386 16.8058 413.978 16.3157 413.683 15.6836C413.388 15.0479 413.241 14.2969 413.241 13.4304C413.241 12.571 413.388 11.8253 413.683 11.1932C413.978 10.5611 414.388 10.0728 414.913 9.72834C415.439 9.38388 416.046 9.21165 416.735 9.21165C417.268 9.21165 417.688 9.30043 417.997 9.47798C418.31 9.65199 418.548 9.85085 418.711 10.0746C418.878 10.2947 419.008 10.4759 419.1 10.6179H419.207V6.59091H420.464V17.5H419.249V16.2429H419.1C419.008 16.392 418.876 16.5803 418.706 16.8075C418.535 17.0313 418.292 17.2319 417.976 17.4094C417.66 17.5835 417.239 17.6705 416.714 17.6705ZM416.884 16.5412C417.388 16.5412 417.815 16.4098 418.163 16.147C418.511 15.8807 418.775 15.5131 418.956 15.0444C419.137 14.5721 419.228 14.027 419.228 13.4091C419.228 12.7983 419.139 12.2638 418.962 11.8058C418.784 11.3441 418.521 10.9854 418.173 10.7298C417.825 10.4705 417.396 10.3409 416.884 10.3409C416.351 10.3409 415.908 10.4776 415.552 10.7511C415.201 11.021 414.936 11.3885 414.759 11.8537C414.585 12.3153 414.498 12.8338 414.498 13.4091C414.498 13.9915 414.587 14.5206 414.764 14.9964C414.945 15.4688 415.212 15.8452 415.563 16.1257C415.918 16.4027 416.359 16.5412 416.884 16.5412ZM426.371 17.6705C425.583 17.6705 424.903 17.4964 424.331 17.1484C423.763 16.7969 423.324 16.3068 423.015 15.6783C422.71 15.0462 422.557 14.3111 422.557 13.473C422.557 12.6349 422.71 11.8963 423.015 11.2571C423.324 10.6143 423.754 10.1136 424.304 9.75497C424.858 9.39276 425.505 9.21165 426.243 9.21165C426.669 9.21165 427.09 9.28267 427.506 9.42472C427.921 9.56676 428.299 9.79759 428.64 10.1172C428.981 10.4332 429.253 10.8523 429.455 11.3743C429.658 11.8963 429.759 12.5391 429.759 13.3026V13.8352H423.452V12.7486H428.48C428.48 12.2869 428.388 11.875 428.203 11.5128C428.022 11.1506 427.763 10.8647 427.426 10.6552C427.092 10.4457 426.698 10.3409 426.243 10.3409C425.742 10.3409 425.309 10.4652 424.943 10.7138C424.581 10.9588 424.302 11.2784 424.107 11.6726C423.912 12.0668 423.814 12.4893 423.814 12.9403V13.6648C423.814 14.2827 423.921 14.8065 424.134 15.2362C424.35 15.6623 424.65 15.9872 425.034 16.2109C425.418 16.4311 425.863 16.5412 426.371 16.5412C426.701 16.5412 427 16.495 427.266 16.4027C427.536 16.3068 427.768 16.1648 427.964 15.9766C428.159 15.7848 428.31 15.5469 428.416 15.2628L429.631 15.6037C429.503 16.0156 429.288 16.3778 428.986 16.6903C428.685 16.9993 428.312 17.2408 427.868 17.4148C427.424 17.5852 426.925 17.6705 426.371 17.6705ZM439.086 15.5824V8.55114H440.279V15.5824H439.086ZM436.167 12.6634V11.4702H443.198V12.6634H436.167ZM453.661 17.6491C452.958 17.6491 452.331 17.5284 451.781 17.2869C451.234 17.0455 450.799 16.7099 450.476 16.2802C450.156 15.8469 449.982 15.3445 449.954 14.7727H451.296C451.324 15.1243 451.445 15.4279 451.658 15.6836C451.871 15.9357 452.15 16.131 452.494 16.2695C452.839 16.408 453.221 16.4773 453.64 16.4773C454.108 16.4773 454.524 16.3956 454.886 16.2322C455.248 16.0689 455.532 15.8416 455.738 15.5504C455.944 15.2592 456.047 14.9219 456.047 14.5384C456.047 14.1371 455.948 13.7837 455.749 13.4783C455.55 13.1694 455.259 12.9279 454.876 12.7539C454.492 12.5799 454.023 12.4929 453.469 12.4929H452.596V11.321H453.469C453.903 11.321 454.282 11.2429 454.609 11.0866C454.939 10.9304 455.197 10.7102 455.382 10.4261C455.57 10.142 455.664 9.80824 455.664 9.42472C455.664 9.0554 455.582 8.73402 455.419 8.46058C455.255 8.18715 455.025 7.97408 454.726 7.82138C454.432 7.66868 454.084 7.59233 453.682 7.59233C453.306 7.59233 452.951 7.66158 452.617 7.80007C452.287 7.93502 452.017 8.1321 451.807 8.39134C451.598 8.64702 451.484 8.95597 451.466 9.31818H450.188C450.209 8.74645 450.382 8.24574 450.705 7.81605C451.028 7.38281 451.45 7.04546 451.972 6.80398C452.498 6.5625 453.075 6.44176 453.704 6.44176C454.378 6.44176 454.957 6.57848 455.44 6.85192C455.923 7.1218 456.294 7.47869 456.553 7.92259C456.813 8.36648 456.942 8.84588 456.942 9.3608C456.942 9.97514 456.781 10.4989 456.458 10.9322C456.138 11.3654 455.703 11.6655 455.153 11.8324V11.9176C455.841 12.0313 456.379 12.3242 456.767 12.7965C457.154 13.2653 457.347 13.8459 457.347 14.5384C457.347 15.1314 457.186 15.6641 456.862 16.1364C456.543 16.6051 456.106 16.9744 455.552 17.2443C454.998 17.5142 454.368 17.6491 453.661 17.6491ZM461.806 11.4063C461.355 11.4063 460.943 11.2962 460.57 11.076C460.2 10.8558 459.906 10.5611 459.686 10.1918C459.465 9.81889 459.355 9.40696 459.355 8.95597C459.355 8.50497 459.465 8.09482 459.686 7.7255C459.906 7.35263 460.2 7.05611 460.57 6.83594C460.943 6.61577 461.355 6.50568 461.806 6.50568C462.257 6.50568 462.667 6.61577 463.036 6.83594C463.409 7.05611 463.705 7.35263 463.926 7.7255C464.146 8.09482 464.256 8.50497 464.256 8.95597C464.256 9.40696 464.146 9.81889 463.926 10.1918C463.705 10.5611 463.409 10.8558 463.036 11.076C462.667 11.2962 462.257 11.4063 461.806 11.4063ZM461.806 10.3409C462.061 10.3409 462.294 10.2788 462.503 10.1545C462.713 10.0302 462.88 9.86328 463.004 9.65377C463.128 9.44425 463.191 9.21165 463.191 8.95597C463.191 8.70028 463.128 8.46769 463.004 8.25817C462.88 8.04865 462.713 7.88175 462.503 7.75746C462.294 7.63317 462.061 7.57102 461.806 7.57102C461.55 7.57102 461.317 7.63317 461.108 7.75746C460.898 7.88175 460.731 8.04865 460.607 8.25817C460.483 8.46769 460.421 8.70028 460.421 8.95597C460.421 9.21165 460.483 9.44425 460.607 9.65377C460.731 9.86328 460.898 10.0302 461.108 10.1545C461.317 10.2788 461.55 10.3409 461.806 10.3409ZM475.132 10H473.811C473.733 9.62003 473.596 9.28622 473.4 8.99858C473.209 8.71094 472.974 8.46946 472.697 8.27415C472.424 8.07529 472.12 7.92614 471.786 7.82671C471.453 7.72727 471.105 7.67756 470.742 7.67756C470.082 7.67756 469.484 7.84446 468.947 8.17827C468.415 8.51207 467.99 9.00391 467.674 9.65377C467.362 10.3036 467.206 11.1009 467.206 12.0455C467.206 12.9901 467.362 13.7873 467.674 14.4371C467.99 15.087 468.415 15.5788 468.947 15.9126C469.484 16.2464 470.082 16.4134 470.742 16.4134C471.105 16.4134 471.453 16.3636 471.786 16.2642C472.12 16.1648 472.424 16.0174 472.697 15.8221C472.974 15.6232 473.209 15.38 473.4 15.0923C473.596 14.8011 473.733 14.4673 473.811 14.0909H475.132C475.032 14.6484 474.851 15.1474 474.588 15.5877C474.326 16.0281 473.999 16.4027 473.608 16.7116C473.218 17.017 472.779 17.2496 472.293 17.4094C471.81 17.5692 471.293 17.6491 470.742 17.6491C469.812 17.6491 468.985 17.4219 468.26 16.9673C467.536 16.5128 466.966 15.8665 466.55 15.0284C466.135 14.1903 465.927 13.196 465.927 12.0455C465.927 10.8949 466.135 9.90057 466.55 9.0625C466.966 8.22443 467.536 7.57813 468.26 7.12358C468.985 6.66904 469.812 6.44176 470.742 6.44176C471.293 6.44176 471.81 6.52166 472.293 6.68146C472.779 6.84127 473.218 7.07564 473.608 7.38459C473.999 7.68999 474.326 8.06286 474.588 8.5032C474.851 8.93999 475.032 9.43892 475.132 10ZM483.722 17.6918C483.204 17.6918 482.733 17.5941 482.311 17.3988C481.888 17.1999 481.553 16.9141 481.304 16.5412C481.055 16.1648 480.931 15.7102 480.931 15.1776C480.931 14.7088 481.023 14.3288 481.208 14.0376C481.393 13.7429 481.64 13.5121 481.949 13.3452C482.257 13.1783 482.598 13.054 482.971 12.9723C483.348 12.8871 483.726 12.8196 484.106 12.7699C484.603 12.706 485.006 12.658 485.315 12.6261C485.627 12.5906 485.855 12.532 485.997 12.4503C486.142 12.3686 486.215 12.2266 486.215 12.0241V11.9815C486.215 11.456 486.071 11.0476 485.784 10.7564C485.5 10.4652 485.068 10.3196 484.489 10.3196C483.889 10.3196 483.419 10.451 483.078 10.7138C482.737 10.9766 482.497 11.2571 482.359 11.5554L481.165 11.1293C481.379 10.6321 481.663 10.245 482.018 9.96804C482.376 9.6875 482.767 9.49219 483.19 9.3821C483.616 9.26847 484.035 9.21165 484.447 9.21165C484.71 9.21165 485.011 9.24361 485.352 9.30753C485.697 9.3679 486.029 9.49396 486.348 9.68572C486.672 9.87749 486.94 10.1669 487.153 10.554C487.366 10.9411 487.472 11.4595 487.472 12.1094V17.5H486.215V16.392H486.151C486.066 16.5696 485.924 16.7596 485.725 16.962C485.526 17.1644 485.262 17.3366 484.931 17.4787C484.601 17.6207 484.198 17.6918 483.722 17.6918ZM483.914 16.5625C484.411 16.5625 484.83 16.4648 485.171 16.2695C485.516 16.0742 485.775 15.8221 485.949 15.5131C486.126 15.2042 486.215 14.8793 486.215 14.5384V13.3878C486.162 13.4517 486.045 13.5103 485.864 13.5636C485.686 13.6133 485.48 13.6577 485.246 13.6967C485.015 13.7322 484.789 13.7642 484.569 13.7926C484.353 13.8175 484.177 13.8388 484.042 13.8565C483.715 13.8991 483.41 13.9684 483.126 14.0643C482.845 14.1566 482.618 14.2969 482.444 14.4851C482.273 14.6697 482.188 14.9219 482.188 15.2415C482.188 15.6783 482.35 16.0085 482.673 16.2322C483 16.4524 483.413 16.5625 483.914 16.5625ZM483.999 8.21023L482.337 5.73864H483.808L485.107 8.21023H483.999ZM497.182 15.5824V8.55114H498.375V15.5824H497.182ZM494.263 12.6634V11.4702H501.294V12.6634H494.263ZM511.757 17.6491C511.054 17.6491 510.427 17.5284 509.876 17.2869C509.33 17.0455 508.895 16.7099 508.571 16.2802C508.252 15.8469 508.078 15.3445 508.049 14.7727H509.392C509.42 15.1243 509.541 15.4279 509.754 15.6836C509.967 15.9357 510.246 16.131 510.59 16.2695C510.935 16.408 511.316 16.4773 511.735 16.4773C512.204 16.4773 512.62 16.3956 512.982 16.2322C513.344 16.0689 513.628 15.8416 513.834 15.5504C514.04 15.2592 514.143 14.9219 514.143 14.5384C514.143 14.1371 514.044 13.7837 513.845 13.4783C513.646 13.1694 513.355 12.9279 512.971 12.7539C512.588 12.5799 512.119 12.4929 511.565 12.4929H510.691V11.321H511.565C511.998 11.321 512.378 11.2429 512.705 11.0866C513.035 10.9304 513.293 10.7102 513.477 10.4261C513.665 10.142 513.76 9.80824 513.76 9.42472C513.76 9.0554 513.678 8.73402 513.515 8.46058C513.351 8.18715 513.12 7.97408 512.822 7.82138C512.527 7.66868 512.179 7.59233 511.778 7.59233C511.402 7.59233 511.047 7.66158 510.713 7.80007C510.382 7.93502 510.113 8.1321 509.903 8.39134C509.694 8.64702 509.58 8.95597 509.562 9.31818H508.284C508.305 8.74645 508.477 8.24574 508.8 7.81605C509.124 7.38281 509.546 7.04546 510.068 6.80398C510.594 6.5625 511.171 6.44176 511.799 6.44176C512.474 6.44176 513.053 6.57848 513.536 6.85192C514.019 7.1218 514.39 7.47869 514.649 7.92259C514.908 8.36648 515.038 8.84588 515.038 9.3608C515.038 9.97514 514.876 10.4989 514.553 10.9322C514.234 11.3654 513.799 11.6655 513.248 11.8324V11.9176C513.937 12.0313 514.475 12.3242 514.862 12.7965C515.249 13.2653 515.443 13.8459 515.443 14.5384C515.443 15.1314 515.281 15.6641 514.958 16.1364C514.638 16.6051 514.202 16.9744 513.648 17.2443C513.094 17.5142 512.463 17.6491 511.757 17.6491ZM519.181 16.0085L519.096 16.5838C519.035 16.9886 518.943 17.4219 518.819 17.8835C518.698 18.3452 518.572 18.7802 518.44 19.1886C518.309 19.5969 518.201 19.9219 518.115 20.1634H517.157C517.203 19.9361 517.263 19.636 517.338 19.2631C517.412 18.8903 517.487 18.473 517.562 18.0114C517.64 17.5533 517.704 17.0845 517.753 16.6051L517.817 16.0085H519.181ZM524.678 17.6491C524.053 17.6491 523.49 17.5249 522.989 17.2763C522.489 17.0277 522.087 16.6868 521.786 16.2536C521.484 15.8203 521.319 15.3267 521.29 14.7727H522.569C522.618 15.2663 522.842 15.6747 523.24 15.9979C523.641 16.3175 524.12 16.4773 524.678 16.4773C525.125 16.4773 525.523 16.3725 525.871 16.163C526.223 15.9535 526.498 15.6658 526.697 15.3001C526.899 14.9308 527 14.5135 527 14.0483C527 13.5724 526.896 13.1481 526.686 12.7752C526.48 12.3988 526.196 12.1023 525.834 11.8857C525.472 11.669 525.058 11.5589 524.593 11.5554C524.259 11.5518 523.916 11.6033 523.565 11.7099C523.213 11.8129 522.924 11.946 522.696 12.1094L521.461 11.9602L522.121 6.59091H527.789V7.76279H523.229L522.846 10.9801H522.91C523.133 10.8026 523.414 10.6552 523.751 10.538C524.088 10.4208 524.44 10.3622 524.806 10.3622C525.473 10.3622 526.068 10.522 526.59 10.8416C527.116 11.1577 527.528 11.5909 527.826 12.1413C528.128 12.6918 528.279 13.3203 528.279 14.027C528.279 14.723 528.123 15.3445 527.81 15.8913C527.501 16.4347 527.075 16.8643 526.532 17.1804C525.988 17.4929 525.37 17.6491 524.678 17.6491ZM532.675 11.4063C532.224 11.4063 531.812 11.2962 531.439 11.076C531.07 10.8558 530.775 10.5611 530.555 10.1918C530.335 9.81889 530.224 9.40696 530.224 8.95597C530.224 8.50497 530.335 8.09482 530.555 7.7255C530.775 7.35263 531.07 7.05611 531.439 6.83594C531.812 6.61577 532.224 6.50568 532.675 6.50568C533.126 6.50568 533.536 6.61577 533.905 6.83594C534.278 7.05611 534.575 7.35263 534.795 7.7255C535.015 8.09482 535.125 8.50497 535.125 8.95597C535.125 9.40696 535.015 9.81889 534.795 10.1918C534.575 10.5611 534.278 10.8558 533.905 11.076C533.536 11.2962 533.126 11.4063 532.675 11.4063ZM532.675 10.3409C532.93 10.3409 533.163 10.2788 533.372 10.1545C533.582 10.0302 533.749 9.86328 533.873 9.65377C533.997 9.44425 534.06 9.21165 534.06 8.95597C534.06 8.70028 533.997 8.46769 533.873 8.25817C533.749 8.04865 533.582 7.88175 533.372 7.75746C533.163 7.63317 532.93 7.57102 532.675 7.57102C532.419 7.57102 532.186 7.63317 531.977 7.75746C531.767 7.88175 531.6 8.04865 531.476 8.25817C531.352 8.46769 531.29 8.70028 531.29 8.95597C531.29 9.21165 531.352 9.44425 531.476 9.65377C531.6 9.86328 531.767 10.0302 531.977 10.1545C532.186 10.2788 532.419 10.3409 532.675 10.3409ZM546.001 10H544.68C544.602 9.62003 544.465 9.28622 544.27 8.99858C544.078 8.71094 543.843 8.46946 543.566 8.27415C543.293 8.07529 542.989 7.92614 542.656 7.82671C542.322 7.72727 541.974 7.67756 541.612 7.67756C540.951 7.67756 540.353 7.84446 539.816 8.17827C539.284 8.51207 538.859 9.00391 538.543 9.65377C538.231 10.3036 538.075 11.1009 538.075 12.0455C538.075 12.9901 538.231 13.7873 538.543 14.4371C538.859 15.087 539.284 15.5788 539.816 15.9126C540.353 16.2464 540.951 16.4134 541.612 16.4134C541.974 16.4134 542.322 16.3636 542.656 16.2642C542.989 16.1648 543.293 16.0174 543.566 15.8221C543.843 15.6232 544.078 15.38 544.27 15.0923C544.465 14.8011 544.602 14.4673 544.68 14.0909H546.001C545.901 14.6484 545.72 15.1474 545.457 15.5877C545.195 16.0281 544.868 16.4027 544.477 16.7116C544.087 17.017 543.648 17.2496 543.162 17.4094C542.679 17.5692 542.162 17.6491 541.612 17.6491C540.681 17.6491 539.854 17.4219 539.129 16.9673C538.405 16.5128 537.835 15.8665 537.419 15.0284C537.004 14.1903 536.796 13.196 536.796 12.0455C536.796 10.8949 537.004 9.90057 537.419 9.0625C537.835 8.22443 538.405 7.57813 539.129 7.12358C539.854 6.66904 540.681 6.44176 541.612 6.44176C542.162 6.44176 542.679 6.52166 543.162 6.68146C543.648 6.84127 544.087 7.07564 544.477 7.38459C544.868 7.68999 545.195 8.06286 545.457 8.5032C545.72 8.93999 545.901 9.43892 546.001 10Z" fill="black"/>
<path d="M602.012 0H577.012V25H602.012V0Z" fill="#DC9447"/>
<path d="M611.388 17.6705C610.707 17.6705 610.105 17.4982 609.583 17.1538C609.061 16.8058 608.652 16.3157 608.358 15.6836C608.063 15.0479 607.915 14.2969 607.915 13.4304C607.915 12.571 608.063 11.8253 608.358 11.1932C608.652 10.5611 609.062 10.0728 609.588 9.72834C610.114 9.38388 610.721 9.21165 611.41 9.21165C611.942 9.21165 612.363 9.30043 612.672 9.47798C612.985 9.65199 613.223 9.85085 613.386 10.0746C613.553 10.2947 613.683 10.4759 613.775 10.6179H613.881V6.59091H615.138V17.5H613.924V16.2429H613.775C613.683 16.392 613.551 16.5803 613.381 16.8075C613.21 17.0313 612.967 17.2319 612.651 17.4094C612.335 17.5835 611.914 17.6705 611.388 17.6705ZM611.559 16.5412C612.063 16.5412 612.489 16.4098 612.837 16.147C613.185 15.8807 613.45 15.5131 613.631 15.0444C613.812 14.5721 613.903 14.027 613.903 13.4091C613.903 12.7983 613.814 12.2638 613.636 11.8058C613.459 11.3441 613.196 10.9854 612.848 10.7298C612.5 10.4705 612.07 10.3409 611.559 10.3409C611.026 10.3409 610.582 10.4776 610.227 10.7511C609.876 11.021 609.611 11.3885 609.434 11.8537C609.26 12.3153 609.173 12.8338 609.173 13.4091C609.173 13.9915 609.261 14.5206 609.439 14.9964C609.62 15.4688 609.886 15.8452 610.238 16.1257C610.593 16.4027 611.033 16.5412 611.559 16.5412ZM621.046 17.6705C620.257 17.6705 619.577 17.4964 619.006 17.1484C618.437 16.7969 617.999 16.3068 617.69 15.6783C617.385 15.0462 617.232 14.3111 617.232 13.473C617.232 12.6349 617.385 11.8963 617.69 11.2571C617.999 10.6143 618.429 10.1136 618.979 9.75497C619.533 9.39276 620.179 9.21165 620.918 9.21165C621.344 9.21165 621.765 9.28267 622.18 9.42472C622.596 9.56676 622.974 9.79759 623.315 10.1172C623.656 10.4332 623.928 10.8523 624.13 11.3743C624.332 11.8963 624.434 12.5391 624.434 13.3026V13.8352H618.127V12.7486H623.155C623.155 12.2869 623.063 11.875 622.878 11.5128C622.697 11.1506 622.438 10.8647 622.1 10.6552C621.767 10.4457 621.373 10.3409 620.918 10.3409C620.417 10.3409 619.984 10.4652 619.618 10.7138C619.256 10.9588 618.977 11.2784 618.782 11.6726C618.587 12.0668 618.489 12.4893 618.489 12.9403V13.6648C618.489 14.2827 618.596 14.8065 618.809 15.2362C619.025 15.6623 619.325 15.9872 619.709 16.2109C620.092 16.4311 620.538 16.5412 621.046 16.5412C621.376 16.5412 621.674 16.495 621.941 16.4027C622.211 16.3068 622.443 16.1648 622.638 15.9766C622.834 15.7848 622.985 15.5469 623.091 15.2628L624.306 15.6037C624.178 16.0156 623.963 16.3778 623.661 16.6903C623.359 16.9993 622.987 17.2408 622.543 17.4148C622.099 17.5852 621.6 17.6705 621.046 17.6705ZM633.761 15.5824V8.55114H634.954V15.5824H633.761ZM630.842 12.6634V11.4702H637.873V12.6634H630.842ZM648.336 17.6491C647.633 17.6491 647.006 17.5284 646.456 17.2869C645.909 17.0455 645.474 16.7099 645.15 16.2802C644.831 15.8469 644.657 15.3445 644.628 14.7727H645.971C645.999 15.1243 646.12 15.4279 646.333 15.6836C646.546 15.9357 646.825 16.131 647.169 16.2695C647.514 16.408 647.896 16.4773 648.315 16.4773C648.783 16.4773 649.199 16.3956 649.561 16.2322C649.923 16.0689 650.207 15.8416 650.413 15.5504C650.619 15.2592 650.722 14.9219 650.722 14.5384C650.722 14.1371 650.623 13.7837 650.424 13.4783C650.225 13.1694 649.934 12.9279 649.55 12.7539C649.167 12.5799 648.698 12.4929 648.144 12.4929H647.271V11.321H648.144C648.577 11.321 648.957 11.2429 649.284 11.0866C649.614 10.9304 649.872 10.7102 650.056 10.4261C650.245 10.142 650.339 9.80824 650.339 9.42472C650.339 9.0554 650.257 8.73402 650.094 8.46058C649.93 8.18715 649.699 7.97408 649.401 7.82138C649.106 7.66868 648.758 7.59233 648.357 7.59233C647.981 7.59233 647.626 7.66158 647.292 7.80007C646.962 7.93502 646.692 8.1321 646.482 8.39134C646.273 8.64702 646.159 8.95597 646.141 9.31818H644.863C644.884 8.74645 645.056 8.24574 645.38 7.81605C645.703 7.38281 646.125 7.04546 646.647 6.80398C647.173 6.5625 647.75 6.44176 648.378 6.44176C649.053 6.44176 649.632 6.57848 650.115 6.85192C650.598 7.1218 650.969 7.47869 651.228 7.92259C651.487 8.36648 651.617 8.84588 651.617 9.3608C651.617 9.97514 651.456 10.4989 651.132 10.9322C650.813 11.3654 650.378 11.6655 649.827 11.8324V11.9176C650.516 12.0313 651.054 12.3242 651.441 12.7965C651.828 13.2653 652.022 13.8459 652.022 14.5384C652.022 15.1314 651.86 15.6641 651.537 16.1364C651.218 16.6051 650.781 16.9744 650.227 17.2443C649.673 17.5142 649.043 17.6491 648.336 17.6491ZM655.76 16.0085L655.675 16.5838C655.614 16.9886 655.522 17.4219 655.398 17.8835C655.277 18.3452 655.151 18.7802 655.02 19.1886C654.888 19.5969 654.78 19.9219 654.695 20.1634H653.736C653.782 19.9361 653.842 19.636 653.917 19.2631C653.991 18.8903 654.066 18.473 654.141 18.0114C654.219 17.5533 654.283 17.0845 654.332 16.6051L654.396 16.0085H655.76ZM661.257 17.6491C660.632 17.6491 660.069 17.5249 659.569 17.2763C659.068 17.0277 658.667 16.6868 658.365 16.2536C658.063 15.8203 657.898 15.3267 657.869 14.7727H659.148C659.197 15.2663 659.421 15.6747 659.819 15.9979C660.22 16.3175 660.7 16.4773 661.257 16.4773C661.705 16.4773 662.102 16.3725 662.45 16.163C662.802 15.9535 663.077 15.6658 663.276 15.3001C663.478 14.9308 663.58 14.5135 663.58 14.0483C663.58 13.5724 663.475 13.1481 663.265 12.7752C663.059 12.3988 662.775 12.1023 662.413 11.8857C662.051 11.669 661.637 11.5589 661.172 11.5554C660.838 11.5518 660.495 11.6033 660.144 11.7099C659.792 11.8129 659.503 11.946 659.276 12.1094L658.04 11.9602L658.7 6.59091H664.368V7.76279H659.808L659.425 10.9801H659.489C659.712 10.8026 659.993 10.6552 660.33 10.538C660.668 10.4208 661.019 10.3622 661.385 10.3622C662.053 10.3622 662.647 10.522 663.169 10.8416C663.695 11.1577 664.107 11.5909 664.405 12.1413C664.707 12.6918 664.858 13.3203 664.858 14.027C664.858 14.723 664.702 15.3445 664.389 15.8913C664.08 16.4347 663.654 16.8643 663.111 17.1804C662.567 17.4929 661.95 17.6491 661.257 17.6491ZM669.254 11.4063C668.803 11.4063 668.391 11.2962 668.018 11.076C667.649 10.8558 667.354 10.5611 667.134 10.1918C666.914 9.81889 666.804 9.40696 666.804 8.95597C666.804 8.50497 666.914 8.09482 667.134 7.7255C667.354 7.35263 667.649 7.05611 668.018 6.83594C668.391 6.61577 668.803 6.50568 669.254 6.50568C669.705 6.50568 670.115 6.61577 670.484 6.83594C670.857 7.05611 671.154 7.35263 671.374 7.7255C671.594 8.09482 671.704 8.50497 671.704 8.95597C671.704 9.40696 671.594 9.81889 671.374 10.1918C671.154 10.5611 670.857 10.8558 670.484 11.076C670.115 11.2962 669.705 11.4063 669.254 11.4063ZM669.254 10.3409C669.509 10.3409 669.742 10.2788 669.952 10.1545C670.161 10.0302 670.328 9.86328 670.452 9.65377C670.577 9.44425 670.639 9.21165 670.639 8.95597C670.639 8.70028 670.577 8.46769 670.452 8.25817C670.328 8.04865 670.161 7.88175 669.952 7.75746C669.742 7.63317 669.509 7.57102 669.254 7.57102C668.998 7.57102 668.766 7.63317 668.556 7.75746C668.346 7.88175 668.18 8.04865 668.055 8.25817C667.931 8.46769 667.869 8.70028 667.869 8.95597C667.869 9.21165 667.931 9.44425 668.055 9.65377C668.18 9.86328 668.346 10.0302 668.556 10.1545C668.766 10.2788 668.998 10.3409 669.254 10.3409ZM682.58 10H681.259C681.181 9.62003 681.044 9.28622 680.849 8.99858C680.657 8.71094 680.423 8.46946 680.146 8.27415C679.872 8.07529 679.569 7.92614 679.235 7.82671C678.901 7.72727 678.553 7.67756 678.191 7.67756C677.53 7.67756 676.932 7.84446 676.396 8.17827C675.863 8.51207 675.439 9.00391 675.123 9.65377C674.81 10.3036 674.654 11.1009 674.654 12.0455C674.654 12.9901 674.81 13.7873 675.123 14.4371C675.439 15.087 675.863 15.5788 676.396 15.9126C676.932 16.2464 677.53 16.4134 678.191 16.4134C678.553 16.4134 678.901 16.3636 679.235 16.2642C679.569 16.1648 679.872 16.0174 680.146 15.8221C680.423 15.6232 680.657 15.38 680.849 15.0923C681.044 14.8011 681.181 14.4673 681.259 14.0909H682.58C682.48 14.6484 682.299 15.1474 682.037 15.5877C681.774 16.0281 681.447 16.4027 681.056 16.7116C680.666 17.017 680.227 17.2496 679.741 17.4094C679.258 17.5692 678.741 17.6491 678.191 17.6491C677.26 17.6491 676.433 17.4219 675.708 16.9673C674.984 16.5128 674.414 15.8665 673.999 15.0284C673.583 14.1903 673.375 13.196 673.375 12.0455C673.375 10.8949 673.583 9.90057 673.999 9.0625C674.414 8.22443 674.984 7.57813 675.708 7.12358C676.433 6.66904 677.26 6.44176 678.191 6.44176C678.741 6.44176 679.258 6.52166 679.741 6.68146C680.227 6.84127 680.666 7.07564 681.056 7.38459C681.447 7.68999 681.774 8.06286 682.037 8.5032C682.299 8.93999 682.48 9.43892 682.58 10ZM691.171 17.6918C690.652 17.6918 690.182 17.5941 689.759 17.3988C689.336 17.1999 689.001 16.9141 688.752 16.5412C688.504 16.1648 688.379 15.7102 688.379 15.1776C688.379 14.7088 688.472 14.3288 688.656 14.0376C688.841 13.7429 689.088 13.5121 689.397 13.3452C689.706 13.1783 690.047 13.054 690.419 12.9723C690.796 12.8871 691.174 12.8196 691.554 12.7699C692.051 12.706 692.454 12.658 692.763 12.6261C693.076 12.5906 693.303 12.532 693.445 12.4503C693.591 12.3686 693.663 12.2266 693.663 12.0241V11.9815C693.663 11.456 693.52 11.0476 693.232 10.7564C692.948 10.4652 692.516 10.3196 691.938 10.3196C691.337 10.3196 690.867 10.451 690.526 10.7138C690.185 10.9766 689.945 11.2571 689.807 11.5554L688.614 11.1293C688.827 10.6321 689.111 10.245 689.466 9.96804C689.825 9.6875 690.215 9.49219 690.638 9.3821C691.064 9.26847 691.483 9.21165 691.895 9.21165C692.158 9.21165 692.46 9.24361 692.801 9.30753C693.145 9.3679 693.477 9.49396 693.797 9.68572C694.12 9.87749 694.388 10.1669 694.601 10.554C694.814 10.9411 694.921 11.4595 694.921 12.1094V17.5H693.663V16.392H693.6C693.514 16.5696 693.372 16.7596 693.173 16.962C692.975 17.1644 692.71 17.3366 692.38 17.4787C692.049 17.6207 691.646 17.6918 691.171 17.6918ZM691.362 16.5625C691.859 16.5625 692.278 16.4648 692.619 16.2695C692.964 16.0742 693.223 15.8221 693.397 15.5131C693.575 15.2042 693.663 14.8793 693.663 14.5384V13.3878C693.61 13.4517 693.493 13.5103 693.312 13.5636C693.134 13.6133 692.928 13.6577 692.694 13.6967C692.463 13.7322 692.238 13.7642 692.017 13.7926C691.801 13.8175 691.625 13.8388 691.49 13.8565C691.163 13.8991 690.858 13.9684 690.574 14.0643C690.293 14.1566 690.066 14.2969 689.892 14.4851C689.722 14.6697 689.636 14.9219 689.636 15.2415C689.636 15.6783 689.798 16.0085 690.121 16.2322C690.448 16.4524 690.862 16.5625 691.362 16.5625ZM691.448 8.21023L689.786 5.73864H691.256L692.555 8.21023H691.448ZM704.63 15.5824V8.55114H705.823V15.5824H704.63ZM701.711 12.6634V11.4702H708.742V12.6634H701.711ZM715.263 15.2628V14.1761L720.057 6.59091H720.846V8.27415H720.313L716.691 14.0057V14.0909H723.147V15.2628H715.263ZM720.398 17.5V14.9325V14.4265V6.59091H721.655V17.5H720.398ZM727.423 11.4063C726.972 11.4063 726.56 11.2962 726.187 11.076C725.818 10.8558 725.523 10.5611 725.303 10.1918C725.083 9.81889 724.972 9.40696 724.972 8.95597C724.972 8.50497 725.083 8.09482 725.303 7.7255C725.523 7.35263 725.818 7.05611 726.187 6.83594C726.56 6.61577 726.972 6.50568 727.423 6.50568C727.874 6.50568 728.284 6.61577 728.653 6.83594C729.026 7.05611 729.323 7.35263 729.543 7.7255C729.763 8.09482 729.873 8.50497 729.873 8.95597C729.873 9.40696 729.763 9.81889 729.543 10.1918C729.323 10.5611 729.026 10.8558 728.653 11.076C728.284 11.2962 727.874 11.4063 727.423 11.4063ZM727.423 10.3409C727.678 10.3409 727.911 10.2788 728.121 10.1545C728.33 10.0302 728.497 9.86328 728.621 9.65377C728.746 9.44425 728.808 9.21165 728.808 8.95597C728.808 8.70028 728.746 8.46769 728.621 8.25817C728.497 8.04865 728.33 7.88175 728.121 7.75746C727.911 7.63317 727.678 7.57102 727.423 7.57102C727.167 7.57102 726.934 7.63317 726.725 7.75746C726.515 7.88175 726.349 8.04865 726.224 8.25817C726.1 8.46769 726.038 8.70028 726.038 8.95597C726.038 9.21165 726.1 9.44425 726.224 9.65377C726.349 9.86328 726.515 10.0302 726.725 10.1545C726.934 10.2788 727.167 10.3409 727.423 10.3409ZM740.749 10H739.428C739.35 9.62003 739.213 9.28622 739.018 8.99858C738.826 8.71094 738.592 8.46946 738.315 8.27415C738.041 8.07529 737.737 7.92614 737.404 7.82671C737.07 7.72727 736.722 7.67756 736.36 7.67756C735.699 7.67756 735.101 7.84446 734.565 8.17827C734.032 8.51207 733.607 9.00391 733.291 9.65377C732.979 10.3036 732.823 11.1009 732.823 12.0455C732.823 12.9901 732.979 13.7873 733.291 14.4371C733.607 15.087 734.032 15.5788 734.565 15.9126C735.101 16.2464 735.699 16.4134 736.36 16.4134C736.722 16.4134 737.07 16.3636 737.404 16.2642C737.737 16.1648 738.041 16.0174 738.315 15.8221C738.592 15.6232 738.826 15.38 739.018 15.0923C739.213 14.8011 739.35 14.4673 739.428 14.0909H740.749C740.649 14.6484 740.468 15.1474 740.206 15.5877C739.943 16.0281 739.616 16.4027 739.225 16.7116C738.835 17.017 738.396 17.2496 737.91 17.4094C737.427 17.5692 736.91 17.6491 736.36 17.6491C735.429 17.6491 734.602 17.4219 733.877 16.9673C733.153 16.5128 732.583 15.8665 732.168 15.0284C731.752 14.1903 731.544 13.196 731.544 12.0455C731.544 10.8949 731.752 9.90057 732.168 9.0625C732.583 8.22443 733.153 7.57813 733.877 7.12358C734.602 6.66904 735.429 6.44176 736.36 6.44176C736.91 6.44176 737.427 6.52166 737.91 6.68146C738.396 6.84127 738.835 7.07564 739.225 7.38459C739.616 7.68999 739.943 8.06286 740.206 8.5032C740.468 8.93999 740.649 9.43892 740.749 10Z" fill="black"/>
<path d="M798.17 0H771.686V25H798.17V0Z" fill="#E84A58"/>
<path d="M807.547 17.6705C806.865 17.6705 806.263 17.4982 805.741 17.1538C805.219 16.8058 804.811 16.3157 804.516 15.6836C804.221 15.0479 804.074 14.2969 804.074 13.4304C804.074 12.571 804.221 11.8253 804.516 11.1932C804.811 10.5611 805.221 10.0728 805.746 9.72834C806.272 9.38388 806.879 9.21165 807.568 9.21165C808.101 9.21165 808.521 9.30043 808.83 9.47798C809.143 9.65199 809.381 9.85085 809.544 10.0746C809.711 10.2947 809.841 10.4759 809.933 10.6179H810.04V6.59091H811.297V17.5H810.082V16.2429H809.933C809.841 16.392 809.709 16.5803 809.539 16.8075C809.368 17.0313 809.125 17.2319 808.809 17.4094C808.493 17.5835 808.072 17.6705 807.547 17.6705ZM807.717 16.5412C808.221 16.5412 808.648 16.4098 808.996 16.147C809.344 15.8807 809.608 15.5131 809.789 15.0444C809.97 14.5721 810.061 14.027 810.061 13.4091C810.061 12.7983 809.972 12.2638 809.795 11.8058C809.617 11.3441 809.354 10.9854 809.006 10.7298C808.658 10.4705 808.229 10.3409 807.717 10.3409C807.184 10.3409 806.741 10.4776 806.385 10.7511C806.034 11.021 805.769 11.3885 805.592 11.8537C805.418 12.3153 805.331 12.8338 805.331 13.4091C805.331 13.9915 805.42 14.5206 805.597 14.9964C805.778 15.4688 806.045 15.8452 806.396 16.1257C806.751 16.4027 807.192 16.5412 807.717 16.5412ZM817.204 17.6705C816.416 17.6705 815.736 17.4964 815.164 17.1484C814.596 16.7969 814.157 16.3068 813.848 15.6783C813.543 15.0462 813.39 14.3111 813.39 13.473C813.39 12.6349 813.543 11.8963 813.848 11.2571C814.157 10.6143 814.587 10.1136 815.137 9.75497C815.691 9.39276 816.338 9.21165 817.076 9.21165C817.502 9.21165 817.923 9.28267 818.339 9.42472C818.754 9.56676 819.132 9.79759 819.473 10.1172C819.814 10.4332 820.086 10.8523 820.288 11.3743C820.491 11.8963 820.592 12.5391 820.592 13.3026V13.8352H814.285V12.7486H819.313C819.313 12.2869 819.221 11.875 819.036 11.5128C818.855 11.1506 818.596 10.8647 818.259 10.6552C817.925 10.4457 817.531 10.3409 817.076 10.3409C816.575 10.3409 816.142 10.4652 815.776 10.7138C815.414 10.9588 815.135 11.2784 814.94 11.6726C814.745 12.0668 814.647 12.4893 814.647 12.9403V13.6648C814.647 14.2827 814.754 14.8065 814.967 15.2362C815.183 15.6623 815.483 15.9872 815.867 16.2109C816.251 16.4311 816.696 16.5412 817.204 16.5412C817.534 16.5412 817.833 16.495 818.099 16.4027C818.369 16.3068 818.601 16.1648 818.797 15.9766C818.992 15.7848 819.143 15.5469 819.249 15.2628L820.464 15.6037C820.336 16.0156 820.121 16.3778 819.819 16.6903C819.518 16.9993 819.145 17.2408 818.701 17.4148C818.257 17.5852 817.758 17.6705 817.204 17.6705ZM829.919 15.5824V8.55114H831.112V15.5824H829.919ZM827 12.6634V11.4702H834.031V12.6634H827ZM840.552 15.2628V14.1761L845.346 6.59091H846.135V8.27415H845.602L841.98 14.0057V14.0909H848.436V15.2628H840.552ZM845.687 17.5V14.9325V14.4265V6.59091H846.944V17.5H845.687ZM851.816 16.0085L851.73 16.5838C851.67 16.9886 851.578 17.4219 851.453 17.8835C851.333 18.3452 851.207 18.7802 851.075 19.1886C850.944 19.5969 850.835 19.9219 850.75 20.1634H849.791C849.838 19.9361 849.898 19.636 849.973 19.2631C850.047 18.8903 850.122 18.473 850.196 18.0114C850.274 17.5533 850.338 17.0845 850.388 16.6051L850.452 16.0085H851.816ZM857.313 17.6491C856.688 17.6491 856.125 17.5249 855.624 17.2763C855.123 17.0277 854.722 16.6868 854.42 16.2536C854.119 15.8203 853.953 15.3267 853.925 14.7727H855.203C855.253 15.2663 855.477 15.6747 855.875 15.9979C856.276 16.3175 856.755 16.4773 857.313 16.4773C857.76 16.4773 858.158 16.3725 858.506 16.163C858.858 15.9535 859.133 15.6658 859.332 15.3001C859.534 14.9308 859.635 14.5135 859.635 14.0483C859.635 13.5724 859.53 13.1481 859.321 12.7752C859.115 12.3988 858.831 12.1023 858.469 11.8857C858.106 11.669 857.693 11.5589 857.228 11.5554C856.894 11.5518 856.551 11.6033 856.199 11.7099C855.848 11.8129 855.559 11.946 855.331 12.1094L854.095 11.9602L854.756 6.59091H860.424V7.76279H855.864L855.48 10.9801H855.544C855.768 10.8026 856.049 10.6552 856.386 10.538C856.723 10.4208 857.075 10.3622 857.441 10.3622C858.108 10.3622 858.703 10.522 859.225 10.8416C859.751 11.1577 860.163 11.5909 860.461 12.1413C860.763 12.6918 860.914 13.3203 860.914 14.027C860.914 14.723 860.757 15.3445 860.445 15.8913C860.136 16.4347 859.71 16.8643 859.166 17.1804C858.623 17.4929 858.005 17.6491 857.313 17.6491ZM865.309 11.4063C864.858 11.4063 864.447 11.2962 864.074 11.076C863.704 10.8558 863.41 10.5611 863.189 10.1918C862.969 9.81889 862.859 9.40696 862.859 8.95597C862.859 8.50497 862.969 8.09482 863.189 7.7255C863.41 7.35263 863.704 7.05611 864.074 6.83594C864.447 6.61577 864.858 6.50568 865.309 6.50568C865.76 6.50568 866.171 6.61577 866.54 6.83594C866.913 7.05611 867.209 7.35263 867.43 7.7255C867.65 8.09482 867.76 8.50497 867.76 8.95597C867.76 9.40696 867.65 9.81889 867.43 10.1918C867.209 10.5611 866.913 10.8558 866.54 11.076C866.171 11.2962 865.76 11.4063 865.309 11.4063ZM865.309 10.3409C865.565 10.3409 865.798 10.2788 866.007 10.1545C866.217 10.0302 866.384 9.86328 866.508 9.65377C866.632 9.44425 866.694 9.21165 866.694 8.95597C866.694 8.70028 866.632 8.46769 866.508 8.25817C866.384 8.04865 866.217 7.88175 866.007 7.75746C865.798 7.63317 865.565 7.57102 865.309 7.57102C865.054 7.57102 864.821 7.63317 864.612 7.75746C864.402 7.88175 864.235 8.04865 864.111 8.25817C863.987 8.46769 863.925 8.70028 863.925 8.95597C863.925 9.21165 863.987 9.44425 864.111 9.65377C864.235 9.86328 864.402 10.0302 864.612 10.1545C864.821 10.2788 865.054 10.3409 865.309 10.3409ZM878.636 10H877.315C877.236 9.62003 877.1 9.28622 876.904 8.99858C876.713 8.71094 876.478 8.46946 876.201 8.27415C875.928 8.07529 875.624 7.92614 875.29 7.82671C874.957 7.72727 874.609 7.67756 874.246 7.67756C873.586 7.67756 872.987 7.84446 872.451 8.17827C871.919 8.51207 871.494 9.00391 871.178 9.65377C870.866 10.3036 870.709 11.1009 870.709 12.0455C870.709 12.9901 870.866 13.7873 871.178 14.4371C871.494 15.087 871.919 15.5788 872.451 15.9126C872.987 16.2464 873.586 16.4134 874.246 16.4134C874.609 16.4134 874.957 16.3636 875.29 16.2642C875.624 16.1648 875.928 16.0174 876.201 15.8221C876.478 15.6232 876.713 15.38 876.904 15.0923C877.1 14.8011 877.236 14.4673 877.315 14.0909H878.636C878.536 14.6484 878.355 15.1474 878.092 15.5877C877.829 16.0281 877.503 16.4027 877.112 16.7116C876.721 17.017 876.283 17.2496 875.796 17.4094C875.313 17.5692 874.797 17.6491 874.246 17.6491C873.316 17.6491 872.489 17.4219 871.764 16.9673C871.04 16.5128 870.47 15.8665 870.054 15.0284C869.639 14.1903 869.431 13.196 869.431 12.0455C869.431 10.8949 869.639 9.90057 870.054 9.0625C870.47 8.22443 871.04 7.57813 871.764 7.12358C872.489 6.66904 873.316 6.44176 874.246 6.44176C874.797 6.44176 875.313 6.52166 875.796 6.68146C876.283 6.84127 876.721 7.07564 877.112 7.38459C877.503 7.68999 877.829 8.06286 878.092 8.5032C878.355 8.93999 878.536 9.43892 878.636 10ZM887.226 17.6918C886.708 17.6918 886.237 17.5941 885.815 17.3988C885.392 17.1999 885.056 16.9141 884.808 16.5412C884.559 16.1648 884.435 15.7102 884.435 15.1776C884.435 14.7088 884.527 14.3288 884.712 14.0376C884.897 13.7429 885.143 13.5121 885.452 13.3452C885.761 13.1783 886.102 13.054 886.475 12.9723C886.852 12.8871 887.23 12.8196 887.61 12.7699C888.107 12.706 888.51 12.658 888.819 12.6261C889.131 12.5906 889.359 12.532 889.501 12.4503C889.646 12.3686 889.719 12.2266 889.719 12.0241V11.9815C889.719 11.456 889.575 11.0476 889.288 10.7564C889.004 10.4652 888.572 10.3196 887.993 10.3196C887.393 10.3196 886.923 10.451 886.582 10.7138C886.241 10.9766 886.001 11.2571 885.863 11.5554L884.669 11.1293C884.882 10.6321 885.167 10.245 885.522 9.96804C885.88 9.6875 886.271 9.49219 886.694 9.3821C887.12 9.26847 887.539 9.21165 887.951 9.21165C888.213 9.21165 888.515 9.24361 888.856 9.30753C889.201 9.3679 889.533 9.49396 889.852 9.68572C890.175 9.87749 890.444 10.1669 890.657 10.554C890.87 10.9411 890.976 11.4595 890.976 12.1094V17.5H889.719V16.392H889.655C889.57 16.5696 889.428 16.7596 889.229 16.962C889.03 17.1644 888.766 17.3366 888.435 17.4787C888.105 17.6207 887.702 17.6918 887.226 17.6918ZM887.418 16.5625C887.915 16.5625 888.334 16.4648 888.675 16.2695C889.02 16.0742 889.279 15.8221 889.453 15.5131C889.63 15.2042 889.719 14.8793 889.719 14.5384V13.3878C889.666 13.4517 889.549 13.5103 889.368 13.5636C889.19 13.6133 888.984 13.6577 888.75 13.6967C888.519 13.7322 888.293 13.7642 888.073 13.7926C887.857 13.8175 887.681 13.8388 887.546 13.8565C887.219 13.8991 886.914 13.9684 886.63 14.0643C886.349 14.1566 886.122 14.2969 885.948 14.4851C885.777 14.6697 885.692 14.9219 885.692 15.2415C885.692 15.6783 885.854 16.0085 886.177 16.2322C886.504 16.4524 886.917 16.5625 887.418 16.5625ZM887.503 8.21023L885.841 5.73864H887.311L888.611 8.21023H887.503ZM900.685 15.5824V8.55114H901.879V15.5824H900.685ZM897.766 12.6634V11.4702H904.798V12.6634H897.766ZM914.984 17.6491C914.359 17.6491 913.796 17.5249 913.295 17.2763C912.794 17.0277 912.393 16.6868 912.091 16.2536C911.789 15.8203 911.624 15.3267 911.596 14.7727H912.874C912.924 15.2663 913.148 15.6747 913.545 15.9979C913.947 16.3175 914.426 16.4773 914.984 16.4773C915.431 16.4773 915.829 16.3725 916.177 16.163C916.528 15.9535 916.804 15.6658 917.002 15.3001C917.205 14.9308 917.306 14.5135 917.306 14.0483C917.306 13.5724 917.201 13.1481 916.992 12.7752C916.786 12.3988 916.502 12.1023 916.14 11.8857C915.777 11.669 915.364 11.5589 914.898 11.5554C914.565 11.5518 914.222 11.6033 913.87 11.7099C913.519 11.8129 913.229 11.946 913.002 12.1094L911.766 11.9602L912.427 6.59091H918.094V7.76279H913.535L913.151 10.9801H913.215C913.439 10.8026 913.719 10.6552 914.057 10.538C914.394 10.4208 914.746 10.3622 915.111 10.3622C915.779 10.3622 916.374 10.522 916.896 10.8416C917.422 11.1577 917.833 11.5909 918.132 12.1413C918.434 12.6918 918.585 13.3203 918.585 14.027C918.585 14.723 918.428 15.3445 918.116 15.8913C917.807 16.4347 917.381 16.8643 916.837 17.1804C916.294 17.4929 915.676 17.6491 914.984 17.6491ZM922.187 16.0085L922.101 16.5838C922.041 16.9886 921.949 17.4219 921.824 17.8835C921.704 18.3452 921.578 18.7802 921.446 19.1886C921.315 19.5969 921.207 19.9219 921.121 20.1634H920.163C920.209 19.9361 920.269 19.636 920.344 19.2631C920.418 18.8903 920.493 18.473 920.567 18.0114C920.645 17.5533 920.709 17.0845 920.759 16.6051L920.823 16.0085H922.187ZM927.026 6.59091V17.5H925.705V7.97585H925.641L922.978 9.74432V8.40199L925.705 6.59091H927.026ZM932.443 11.4063C931.992 11.4063 931.58 11.2962 931.207 11.076C930.838 10.8558 930.543 10.5611 930.323 10.1918C930.103 9.81889 929.993 9.40696 929.993 8.95597C929.993 8.50497 930.103 8.09482 930.323 7.7255C930.543 7.35263 930.838 7.05611 931.207 6.83594C931.58 6.61577 931.992 6.50568 932.443 6.50568C932.894 6.50568 933.304 6.61577 933.674 6.83594C934.047 7.05611 934.343 7.35263 934.563 7.7255C934.783 8.09482 934.894 8.50497 934.894 8.95597C934.894 9.40696 934.783 9.81889 934.563 10.1918C934.343 10.5611 934.047 10.8558 933.674 11.076C933.304 11.2962 932.894 11.4063 932.443 11.4063ZM932.443 10.3409C932.699 10.3409 932.932 10.2788 933.141 10.1545C933.351 10.0302 933.517 9.86328 933.642 9.65377C933.766 9.44425 933.828 9.21165 933.828 8.95597C933.828 8.70028 933.766 8.46769 933.642 8.25817C933.517 8.04865 933.351 7.88175 933.141 7.75746C932.932 7.63317 932.699 7.57102 932.443 7.57102C932.188 7.57102 931.955 7.63317 931.745 7.75746C931.536 7.88175 931.369 8.04865 931.245 8.25817C931.12 8.46769 931.058 8.70028 931.058 8.95597C931.058 9.21165 931.12 9.44425 931.245 9.65377C931.369 9.86328 931.536 10.0302 931.745 10.1545C931.955 10.2788 932.188 10.3409 932.443 10.3409ZM945.769 10H944.448C944.37 9.62003 944.233 9.28622 944.038 8.99858C943.846 8.71094 943.612 8.46946 943.335 8.27415C943.062 8.07529 942.758 7.92614 942.424 7.82671C942.09 7.72727 941.742 7.67756 941.38 7.67756C940.72 7.67756 940.121 7.84446 939.585 8.17827C939.052 8.51207 938.628 9.00391 938.312 9.65377C937.999 10.3036 937.843 11.1009 937.843 12.0455C937.843 12.9901 937.999 13.7873 938.312 14.4371C938.628 15.087 939.052 15.5788 939.585 15.9126C940.121 16.2464 940.72 16.4134 941.38 16.4134C941.742 16.4134 942.09 16.3636 942.424 16.2642C942.758 16.1648 943.062 16.0174 943.335 15.8221C943.612 15.6232 943.846 15.38 944.038 15.0923C944.233 14.8011 944.37 14.4673 944.448 14.0909H945.769C945.67 14.6484 945.489 15.1474 945.226 15.5877C944.963 16.0281 944.637 16.4027 944.246 16.7116C943.855 17.017 943.417 17.2496 942.93 17.4094C942.447 17.5692 941.931 17.6491 941.38 17.6491C940.45 17.6491 939.622 17.4219 938.898 16.9673C938.173 16.5128 937.604 15.8665 937.188 15.0284C936.773 14.1903 936.565 13.196 936.565 12.0455C936.565 10.8949 936.773 9.90057 937.188 9.0625C937.604 8.22443 938.173 7.57813 938.898 7.12358C939.622 6.66904 940.45 6.44176 941.38 6.44176C941.931 6.44176 942.447 6.52166 942.93 6.68146C943.417 6.84127 943.855 7.07564 944.246 7.38459C944.637 7.68999 944.963 8.06286 945.226 8.5032C945.489 8.93999 945.67 9.43892 945.769 10Z" fill="black"/>
</svg>
