<?xml version="1.0" encoding="UTF-8"?>
<svg id="Calque_1" data-name="Calque 1" xmlns="http://www.w3.org/2000/svg" viewBox="0 0 141.71 94.3">
  <defs>
    <style>
      .cls-1 {
        fill: #faed23;
      }

      .cls-2 {
        stroke: #faed23;
        stroke-width: 3.55px;
      }

      .cls-2, .cls-3, .cls-4 {
        stroke-linecap: round;
        stroke-linejoin: round;
      }

      .cls-2, .cls-4 {
        fill: none;
      }

      .cls-3 {
        fill: #fff;
      }

      .cls-3, .cls-4 {
        stroke: #035e7f;
        stroke-width: 3px;
      }
    </style>
  </defs>
  <g>
    <line class="cls-4" x1="3.52" y1="92.77" x2="139.27" y2="92.77"/>
    <g>
      <g>
        <rect class="cls-3" x="1.5" y="39.54" width="27.04" height="53.23"/>
        <line class="cls-4" x1="2.19" y1="51.38" x2="28.53" y2="51.38"/>
        <line class="cls-4" x1="2.19" y1="59.41" x2="28.53" y2="59.41"/>
        <line class="cls-4" x1="2.19" y1="67.8" x2="28.53" y2="67.8"/>
      </g>
      <rect class="cls-3" x="9.85" y="80.47" width="6.78" height="12.32"/>
    </g>
    <g>
      <g>
        <rect class="cls-3" x="113.17" y="39.5" width="27.04" height="53.23"/>
        <line class="cls-4" x1="113.85" y1="51.34" x2="140.2" y2="51.34"/>
        <line class="cls-4" x1="113.85" y1="59.37" x2="140.2" y2="59.37"/>
        <line class="cls-4" x1="113.85" y1="67.75" x2="140.2" y2="67.75"/>
      </g>
      <rect class="cls-3" x="121.51" y="80.42" width="6.78" height="12.32"/>
    </g>
  </g>
  <g>
    <path class="cls-2" d="M3.52,1.77L74.52,92.52,133.15,1.77"/>
    <path class="cls-1" d="M46.26,53.82s22.68-4.35,52.26,0l-23.59,39.43-28.64-39.43h-.03Z"/>
  </g>
</svg>