<?xml version="1.0" encoding="UTF-8"?>
<svg id="Calque_1" data-name="Calque 1" xmlns="http://www.w3.org/2000/svg" viewBox="0 0 138.75 94.65">
  <defs>
    <style>
      .cls-1 {
        fill: #faed23;
      }

      .cls-2 {
        stroke: #faed23;
        stroke-width: 3.55px;
      }

      .cls-2, .cls-3, .cls-4 {
        stroke-linecap: round;
        stroke-linejoin: round;
      }

      .cls-2, .cls-4 {
        fill: none;
      }

      .cls-3 {
        fill: #fff;
      }

      .cls-3, .cls-4 {
        stroke: #035e7f;
        stroke-width: 3px;
      }
    </style>
  </defs>
  <g>
    <line class="cls-4" x1="1.5" y1="93.14" x2="137.25" y2="93.14"/>
    <g>
      <g>
        <rect class="cls-3" x="29.52" y="39.91" width="27.04" height="53.23"/>
        <line class="cls-4" x1="30.21" y1="51.75" x2="56.55" y2="51.75"/>
        <line class="cls-4" x1="30.21" y1="59.78" x2="56.55" y2="59.78"/>
        <line class="cls-4" x1="30.21" y1="68.16" x2="56.55" y2="68.16"/>
      </g>
      <rect class="cls-3" x="37.87" y="80.83" width="6.78" height="12.32"/>
    </g>
    <g>
      <g>
        <rect class="cls-3" x="83.19" y="39.86" width="27.04" height="53.23"/>
        <line class="cls-4" x1="83.87" y1="51.7" x2="110.22" y2="51.7"/>
        <line class="cls-4" x1="83.87" y1="59.73" x2="110.22" y2="59.73"/>
        <line class="cls-4" x1="83.87" y1="68.11" x2="110.22" y2="68.11"/>
      </g>
      <rect class="cls-3" x="91.53" y="80.78" width="6.78" height="12.32"/>
    </g>
  </g>
  <g>
    <path class="cls-2" d="M53.91,1.77l16.94,90.75L84.84,1.77"/>
    <path class="cls-1" d="M64.11,53.82s5.41-4.35,12.47,0l-5.63,39.43-6.84-39.43h0Z"/>
  </g>
</svg>