<?xml version="1.0" encoding="UTF-8"?>
<svg id="Calque_1" data-name="Calque 1" xmlns="http://www.w3.org/2000/svg" viewBox="0 0 138.75 94.37">
  <defs>
    <style>
      .cls-1 {
        fill: #faed23;
      }

      .cls-2 {
        stroke: #faed23;
        stroke-width: 3.55px;
      }

      .cls-2, .cls-3, .cls-4 {
        stroke-linecap: round;
        stroke-linejoin: round;
      }

      .cls-2, .cls-4 {
        fill: none;
      }

      .cls-3 {
        fill: #fff;
      }

      .cls-3, .cls-4 {
        stroke: #035e7f;
        stroke-width: 3px;
      }
    </style>
  </defs>
  <g>
    <line class="cls-4" x1="1.5" y1="92.86" x2="137.25" y2="92.86"/>
    <g>
      <g>
        <rect class="cls-3" x="17.48" y="39.63" width="27.04" height="53.23"/>
        <line class="cls-4" x1="18.17" y1="51.47" x2="44.51" y2="51.47"/>
        <line class="cls-4" x1="18.17" y1="59.5" x2="44.51" y2="59.5"/>
        <line class="cls-4" x1="18.17" y1="67.88" x2="44.51" y2="67.88"/>
      </g>
      <rect class="cls-3" x="25.83" y="80.55" width="6.78" height="12.32"/>
    </g>
    <g>
      <g>
        <rect class="cls-3" x="97.15" y="39.58" width="27.04" height="53.23"/>
        <line class="cls-4" x1="97.83" y1="51.42" x2="124.18" y2="51.42"/>
        <line class="cls-4" x1="97.83" y1="59.45" x2="124.18" y2="59.45"/>
        <line class="cls-4" x1="97.83" y1="67.83" x2="124.18" y2="67.83"/>
      </g>
      <rect class="cls-3" x="105.49" y="80.5" width="6.78" height="12.32"/>
    </g>
  </g>
  <g>
    <path class="cls-2" d="M30.06,1.77l43.06,90.75L108.69,1.77"/>
    <path class="cls-1" d="M55.99,53.82s13.75-4.35,31.7,0l-14.31,39.43-17.37-39.43h-.02Z"/>
  </g>
</svg>