<svg width="143" height="107" viewBox="0 0 143 107" fill="none" xmlns="http://www.w3.org/2000/svg">
<g clip-path="url(#clip0_876_1330)">
<path d="M7.93164 102.43H137.06" stroke="#005E7F" stroke-width="3.55137" stroke-linecap="round" stroke-linejoin="round"/>
<path d="M47.1667 68.0703H7.41504V102.459H47.1667V68.0703Z" fill="white" stroke="#005E7F" stroke-width="3.55137" stroke-linecap="round" stroke-linejoin="round"/>
<path d="M52.8016 75.9418H1.78027L7.21387 57.8535H47.368L52.8016 75.9418Z" fill="#FFF200" stroke="#005E7F" stroke-width="3.55137" stroke-linecap="round" stroke-linejoin="round"/>
<path d="M31.8825 85.791H22.6963V102.459H31.8825V85.791Z" fill="#FFF200" stroke="#005E7F" stroke-width="3.55137" stroke-linecap="round" stroke-linejoin="round"/>
<path d="M20.6209 46.9785H12.8789V65.1852H20.6209V46.9785Z" fill="white" stroke="#005E7F" stroke-width="3.55137" stroke-linecap="round" stroke-linejoin="round"/>
<path d="M135.268 68.0566H95.5166V102.446H135.268V68.0566Z" fill="white" stroke="#005E7F" stroke-width="3.55137" stroke-linecap="round" stroke-linejoin="round"/>
<path d="M140.904 75.9282H89.8711L95.3165 57.8398H135.459L140.904 75.9282Z" fill="#FFF200" stroke="#005E7F" stroke-width="3.55137" stroke-linecap="round" stroke-linejoin="round"/>
<path d="M119.974 85.7773H110.788V102.445H119.974V85.7773Z" fill="#FFF200" stroke="#005E7F" stroke-width="3.55137" stroke-linecap="round" stroke-linejoin="round"/>
<path d="M27.1572 1.76953L73.5381 104.665L111.834 1.76953" stroke="#FFF200" stroke-width="3.55137" stroke-linecap="round" stroke-linejoin="round"/>
<path d="M55.0596 59.9459C55.0596 59.9459 69.8806 55.0095 89.1883 59.9459L73.7753 104.658L55.0596 59.9459Z" fill="#FFF200"/>
</g>
<defs>
<clipPath id="clip0_876_1330">
<rect width="142.682" height="106.446" fill="white"/>
</clipPath>
</defs>
</svg>
